<svg xmlns="http://www.w3.org/2000/svg" xmlns:xlink="http://www.w3.org/1999/xlink" viewBox="0 0 280.62 449.17"><defs><style>.cls-1,.cls-10,.cls-11,.cls-7,.cls-9{fill:none;}.cls-2{isolation:isolate;}.cls-3{clip-path:url(#clip-path);}.cls-4{mix-blend-mode:multiply;}.cls-5{clip-path:url(#clip-path-3);}.cls-6{clip-path:url(#clip-path-4);}.cls-10,.cls-11,.cls-7,.cls-9{stroke:#000100;}.cls-10,.cls-11,.cls-7{stroke-linecap:round;}.cls-7,.cls-9{stroke-miterlimit:10;}.cls-10,.cls-7,.cls-9{stroke-width:0.82px;}.cls-8{fill:#000100;}.cls-10,.cls-11{stroke-linejoin:round;}.cls-11{stroke-width:2.47px;}</style><clipPath id="clip-path" transform="translate(-159.3 -289.42)"><rect class="cls-1" x="112" y="233.92" width="404.57" height="575.97"/></clipPath><clipPath id="clip-path-3" transform="translate(-159.3 -289.42)"><rect class="cls-1" x="103" y="226.92" width="422.57" height="583.97"/></clipPath><clipPath id="clip-path-4" transform="translate(-159.3 -289.42)"><rect class="cls-1" x="156.4" y="288.82" width="288.44" height="454.31"/></clipPath></defs><title>human6</title><g class="cls-2"><g id="Layer_1" data-name="Layer 1"><g class="cls-3"><g class="cls-3"><g class="cls-4"><g class="cls-5"><g class="cls-6"><path class="cls-7" d="M205.41,619.35s-8.73,10.48-12.58,12.68l-3.85,2.2s5.22,15.4,4.95,22-1.37,23.37-1.37,27.5,1.1,19.25,1.1,19.25" transform="translate(-159.3 -289.42)"/><path class="cls-7" d="M208,707.65s5.22-40.7,5.5-48.12,1.92-29.15,4.67-35.75,10.18-7.42,13.06-12.37c1.61-2.77,7.84-16.22,9.76-18.42s5.5-9.35,7.7-10.45,0.28,3.85-1.37,8.25-4.95,10.17-1.93,19,5.23,25.57,6.32,29.7,2.2,6.05,2.2,10.72S253,670.26,250,679.61s-9.62,38.77-14,43.72-7.43,8-7.7,14.85" transform="translate(-159.3 -289.42)"/><path class="cls-7" d="M253,643.31s14.85-19,16.5-22.55,6.6-17,9.07-21.45,5.16-5.09,9.62-11c5.85-7.74,42.46-28.31,49.61-28.58s51.4-8.16,51.4-8.16-3.12,51.23-19.07,60.67c-9.06,5.36-20.07,12.1-23.1,32.17s-3.85,16.77-8.25,34.65-7.15,17.6-8,28" transform="translate(-159.3 -289.42)"/><path class="cls-7" d="M249.75,583.64v-7.7c0-1.09-.07-2.07-0.13-3-0.22-3.22-.4-5.51,2.6-8.3,3.85-3.57,5.22-4.68,8-6.05s13.2-4.12,13.2-4.12-1.56,4.87-5.77,5.77a29.28,29.28,0,0,0-17.95,10.68" transform="translate(-159.3 -289.42)"/><path class="cls-7" d="M396.17,562.74s9.9,12.79,15.26,16.91,13.2,9.49,18.15,13.61,10.31,6.6,9.9,12.37-5,6.19-4.54,9.9,4.95,9.9,4.12,15.67-3.71,28-4.95,34.24-7,20.21-7.43,28.87-3.3,24.75-3.3,24.75" transform="translate(-159.3 -289.42)"/><path class="cls-8" d="M297.34,472.51l-0.18-.2a7.85,7.85,0,0,0-.64-0.64,8.73,8.73,0,0,0-2.85-1.76,15.37,15.37,0,0,0-5.28-.82c-0.52,0-1.09,0-1.62,0s-1.14.08-1.7,0.15a20.31,20.31,0,0,0-3.57.89c-2.45.82-5.11,2.11-8.21,2.74a23,23,0,0,1-4.78.6,9.51,9.51,0,0,1-5-1.3c-1.51-.89-2.76-1.9-4.29-2.16a7.85,7.85,0,0,0-2.36-.05,9.6,9.6,0,0,0-2.37.59,7.55,7.55,0,0,0-3.8,2.85,2.8,2.8,0,0,0-.38,2.13,6.38,6.38,0,0,0,1,2.15,15.17,15.17,0,0,0,3.62,3.56,15.38,15.38,0,0,0,2.18,1.31,13.83,13.83,0,0,0,2.39.84,51,51,0,0,0,10,1.7,40.11,40.11,0,0,0,9.44-.42,61.9,61.9,0,0,0,8.27-2c1.26-.39,2.46-0.8,3.58-1.23a15.5,15.5,0,0,0,3-1.52,12.78,12.78,0,0,0,3.89-3.63,3.87,3.87,0,0,0,.63-1.69,2.25,2.25,0,0,0-.22-1.2,3,3,0,0,0-.45-0.65l-0.19-.21Zm0.93-.66,0.17,0.19a4.24,4.24,0,0,1,.6.92,3.36,3.36,0,0,1,.29,1.77,4.93,4.93,0,0,1-.82,2.15,13.7,13.7,0,0,1-4.26,3.89,16.73,16.73,0,0,1-3.16,1.57c-1.14.43-2.36,0.83-3.63,1.23a62.91,62.91,0,0,1-8.4,2,42.61,42.61,0,0,1-9.63.52,52,52,0,0,1-10.2-1.62,14.83,14.83,0,0,1-2.56-.88,16.63,16.63,0,0,1-2.36-1.37,16.27,16.27,0,0,1-3.94-3.8,7.38,7.38,0,0,1-1.25-2.61l-0.06-.33v-0.12s0-.12,0-0.09V475a3,3,0,0,1,.05-0.79,2.91,2.91,0,0,1,.21-0.75,3.06,3.06,0,0,1,.33-0.68,7.15,7.15,0,0,1,2-2.1,10.37,10.37,0,0,1,2.44-1.33,11,11,0,0,1,2.66-.7,9.12,9.12,0,0,1,2.77,0,8.16,8.16,0,0,1,2.58,1c0.78,0.43,1.46.92,2.15,1.3a9.68,9.68,0,0,0,1,.5,7.1,7.1,0,0,0,1.08.34,9.38,9.38,0,0,0,2.24.22,24.44,24.44,0,0,0,4.5-.57c2.89-.57,5.48-1.8,8.06-2.64a20.64,20.64,0,0,1,3.82-.91c0.64-.08,1.26-0.13,1.82-0.14s1.15,0,1.71,0a16.58,16.58,0,0,1,5.69,1,9.9,9.9,0,0,1,3.2,2,8.91,8.91,0,0,1,.68.72l0.22,0.24Z" transform="translate(-159.3 -289.42)"/><path class="cls-9" d="M295.15,470.23a22.71,22.71,0,0,1-3.13,0c-3.56-.26-12,4.17-16.5,5.13s-13.2,0-16.71-2.09c-1.93-1.15-5.17-1.42-7.69-1.43a4.28,4.28,0,0,0-1.71,3.5c0.31,3.17,5.09,7.35,8.74,8.44a50.21,50.21,0,0,0,15,2A57.85,57.85,0,0,0,290.93,482c3.57-1.35,10.22-6.15,6.66-9.66A9.66,9.66,0,0,0,295.15,470.23Z" transform="translate(-159.3 -289.42)"/><path class="cls-8" d="M295.42,469.94s1,3.46,0,4.28-0.21.66,0.62,1.31a5.76,5.76,0,0,1,1.24,2.62s1.86-2,1.86-3.12-1.86-3.12-2.27-3.94a2.75,2.75,0,0,0-1.41-1.17" transform="translate(-159.3 -289.42)"/><path class="cls-8" d="M252,471.82s-0.83,3.18,0,4.06a0.83,0.83,0,0,1-.21,1.41v2.3c0,0.7-2.52-2.86-2.19-3.73s0.12-3,2.39-4" transform="translate(-159.3 -289.42)"/><path class="cls-8" d="M253.64,486.07a3.28,3.28,0,0,1,.28.34c0.2,0.28.4,0.59,0.68,1a14.62,14.62,0,0,0,1.07,1.4,13.92,13.92,0,0,0,1.62,1.57c0.3,0.28.68,0.5,1,.76s0.77,0.47,1.19.68a15.86,15.86,0,0,0,2.77,1.08,14.06,14.06,0,0,0,1.54.38,13.58,13.58,0,0,0,1.61.26l0.82,0.09,0.4,0,0.43,0c0.57,0,1.17.1,1.73,0.11,1.13,0.05,2.27.07,3.39,0a30.52,30.52,0,0,0,3.26-.26,24.75,24.75,0,0,0,3-.53,21.36,21.36,0,0,0,2.59-.84,22.49,22.49,0,0,0,3.67-1.83c0.86-.52,1.33-0.84,1.33-0.84l0.49,0.66-0.33.27c-0.21.17-.52,0.44-0.95,0.74s-0.94.67-1.55,1.05a18.05,18.05,0,0,1-2.15,1.17,22.64,22.64,0,0,1-2.72,1,26.44,26.44,0,0,1-3.16.72,30.87,30.87,0,0,1-3.43.33c-1.17.06-2.35,0.06-3.55,0-0.6,0-1.17-.06-1.75-0.08l-0.43,0-0.46,0-0.89-.11a15.37,15.37,0,0,1-1.74-.3,12.13,12.13,0,0,1-1.68-.45,15.11,15.11,0,0,1-3-1.32c-0.45-.27-0.88-0.57-1.28-0.85s-0.78-.59-1.1-0.93a11.54,11.54,0,0,1-1.65-1.88,15.52,15.52,0,0,1-1-1.62c-0.24-.45-0.43-0.85-0.52-1a2.63,2.63,0,0,0-.21-0.34Z" transform="translate(-159.3 -289.42)"/><path class="cls-8" d="M256.85,415.36l-0.57-1.55a15.69,15.69,0,0,0-.79-1.65,8.83,8.83,0,0,0-.58-1,10.14,10.14,0,0,0-.71-1,11,11,0,0,0-.87-1l-0.48-.51-0.54-.49a15.94,15.94,0,0,0-2.52-1.8,22.26,22.26,0,0,0-3-1.44c-1.06-.43-2.19-0.75-3.32-1.09a16,16,0,0,0-1.67-.4c-0.56-.09-1.13-0.15-1.7-0.2a23.09,23.09,0,0,0-3.36,0,15,15,0,0,0-3.06.47,5.76,5.76,0,0,0-2.34,1.17,2.79,2.79,0,0,0-.89,1.87,5.21,5.21,0,0,0,.27,1.75,11.15,11.15,0,0,0,.45,1.11l0.18,0.39-0.24.14-0.24-.37a8.17,8.17,0,0,1-.63-1.08,5.77,5.77,0,0,1-.53-1.94,3.51,3.51,0,0,1,.91-2.57,6.44,6.44,0,0,1,2.69-1.64,14.66,14.66,0,0,1,3.31-.71,24,24,0,0,1,3.58-.1c0.61,0,1.23.09,1.85,0.18a17.05,17.05,0,0,1,1.84.41,28.49,28.49,0,0,1,3.49,1.15,19.07,19.07,0,0,1,3.21,1.63c0.51,0.29,1,.66,1.43,1a16.16,16.16,0,0,1,1.24,1.11l0.56,0.57,0.5,0.6a11.14,11.14,0,0,1,.86,1.19,12.1,12.1,0,0,1,1.18,2.26,17,17,0,0,1,.64,1.86c0.14,0.51.19,0.92,0.26,1.2l0.08,0.42Z" transform="translate(-159.3 -289.42)"/><path class="cls-10" d="M241.73,410.91a3.57,3.57,0,0,0,.7,2.46l-0.28-1.05a26.19,26.19,0,0,1,1.49,2.55,1.8,1.8,0,0,1-.47-0.67l0.36,0.78a0.17,0.17,0,0,1,0,.14,0.15,0.15,0,0,1-.14.06,1.79,1.79,0,0,1-1.2-.77,13.87,13.87,0,0,0-1.61-1.51l0.62,0.74-0.4-.94a1.43,1.43,0,0,1,.63.54,2.25,2.25,0,0,1-.24-1.81,12.67,12.67,0,0,1,.34,1.51A6.06,6.06,0,0,1,241.73,410.91Z" transform="translate(-159.3 -289.42)"/><path class="cls-10" d="M243.1,410.81a0.34,0.34,0,0,0-.07.35,0.62,0.62,0,0,0,.39-0.48q0.06,1,.12,2a5.17,5.17,0,0,0,.38-1.41,0.68,0.68,0,0,1,.08.5c0,0.17.15,0.39,0.3,0.31a0.3,0.3,0,0,0,.12-0.16,5.27,5.27,0,0,0,.38-1.53l0.12,0.74" transform="translate(-159.3 -289.42)"/><path class="cls-10" d="M243.47,411.3c-0.09,0,0,.18.1,0.16a0.4,0.4,0,0,0,.19-0.2,0.19,0.19,0,0,1,.24-0.1,0.22,0.22,0,0,1,.07.09l0.21,0.45a0.2,0.2,0,0,0,.1.12c0.1,0,.18-0.1.2-0.2a7.65,7.65,0,0,0,.15-0.9,1.26,1.26,0,0,1,.32.42c0.15,0.07.27-.14,0.29-0.3a4.22,4.22,0,0,0,0-1l0.13,1.53c0.07,0.05.15-.06,0.16-0.15a6.11,6.11,0,0,0,0-1.46,10.44,10.44,0,0,0,.14,1.35l0.19,0a5.07,5.07,0,0,0,0-1.4l0.08,0.19a4.57,4.57,0,0,0-.05-1.22c0-.09-0.1-0.2-0.17-0.14l0-.33a0.52,0.52,0,0,0,.31-0.2" transform="translate(-159.3 -289.42)"/><path class="cls-10" d="M247.29,406.34l0,0.21a0.32,0.32,0,0,0,.4-0.29,4,4,0,0,0-.08,1,0.48,0.48,0,0,0,.41-0.26,2.38,2.38,0,0,0-.41,1.07,0.89,0.89,0,0,0,.49-0.3l-0.62,2a1,1,0,0,0,.56-0.17l0.2,0.84a0.5,0.5,0,0,0,.13.28,0.18,0.18,0,0,0,.27,0,3.38,3.38,0,0,1,.08.72q0.23-.73.4-1.47" transform="translate(-159.3 -289.42)"/><path class="cls-11" d="M241.7,408.24a0.4,0.4,0,0,1-.12.53,1.15,1.15,0,0,1-.57.18,0.81,0.81,0,0,1,.55.52,0.28,0.28,0,0,0-.16.33l0,0.71" transform="translate(-159.3 -289.42)"/><path class="cls-11" d="M247,409.58a1.2,1.2,0,0,1-.65,1,0.34,0.34,0,0,1-.2,0l-0.17-.05a0.41,0.41,0,0,0-.33.16,4.56,4.56,0,0,0-.67.86l-0.11-.26" transform="translate(-159.3 -289.42)"/><path class="cls-11" d="M249,410.94a1.39,1.39,0,0,1-.78.82,12.44,12.44,0,0,0-2.09,1.59" transform="translate(-159.3 -289.42)"/><path class="cls-11" d="M250.36,409.44q-0.06,1-.2,1.93a0.42,0.42,0,0,1-.21.37" transform="translate(-159.3 -289.42)"/><path class="cls-11" d="M248.61,408.81l0.32,3.11a2.13,2.13,0,0,1-.06,1,1.79,1.79,0,0,1-.4.55,3.44,3.44,0,0,1-2.14,1.13,0.87,0.87,0,0,1-.3,0,1.12,1.12,0,0,1-.29-0.15,6.56,6.56,0,0,0-2.29-.88" transform="translate(-159.3 -289.42)"/><path class="cls-11" d="M240.69,410.27l0.27,1.08" transform="translate(-159.3 -289.42)"/><path class="cls-11" d="M241.24,411.7a3.27,3.27,0,0,0,1.46,1.12,4.3,4.3,0,0,1,.83.34,0.66,0.66,0,0,0,.66.19" transform="translate(-159.3 -289.42)"/><path class="cls-11" d="M243.52,409.31l0.13,1.53" transform="translate(-159.3 -289.42)"/><path class="cls-8" d="M256.13,407.59l-0.19-.29-0.21-.34-0.29-.36a5.13,5.13,0,0,0-.36-0.43,4.65,4.65,0,0,0-.43-0.46,10.87,10.87,0,0,0-1-.9c-0.37-.28-0.76-0.56-1.13-0.8s-0.73-.46-1-0.65l-1-.62h0a0.33,0.33,0,0,1,.19-0.62,2.7,2.7,0,0,1,.36.06,6.93,6.93,0,0,1,.91.25,8.37,8.37,0,0,1,2.5,1.42,6.89,6.89,0,0,1,.59.53,6.56,6.56,0,0,1,.52.57,5.92,5.92,0,0,1,.43.58,5.05,5.05,0,0,1,.33.57l0.24,0.51,0.12,0.38,0.1,0.33a0.33,0.33,0,0,1-.59.27" transform="translate(-159.3 -289.42)"/><path class="cls-8" d="M236.67,398.91l-0.33.13-0.37.13-0.41.19a5.11,5.11,0,0,0-.49.25,4.67,4.67,0,0,0-.53.31,12,12,0,0,0-1.1.76c-0.36.29-.71,0.58-1,0.88s-0.63.57-.9,0.81l-0.65.59-0.25.21h0a0.43,0.43,0,0,1-.69-0.45,3.28,3.28,0,0,1,.14-0.35,6,6,0,0,1,.45-0.85,7.79,7.79,0,0,1,2-2.11,7.91,7.91,0,0,1,1.37-.8,6.06,6.06,0,0,1,.69-0.26,5.45,5.45,0,0,1,.65-0.17l0.57-.09h0.75a0.42,0.42,0,0,1,.14.81" transform="translate(-159.3 -289.42)"/><path class="cls-8" d="M253.46,417.34l-0.17.08c-0.12.05-.28,0.13-0.5,0.21a14.72,14.72,0,0,1-1.81.59,19.6,19.6,0,0,1-2.65.5c-0.49,0-1,.11-1.52.11a14.75,14.75,0,0,1-1.57,0c-0.53,0-1.05-.07-1.57-0.14s-1-.17-1.5-0.27a11.7,11.7,0,0,1-1.37-.37,9.54,9.54,0,0,1-1.2-.42,12.29,12.29,0,0,1-1.72-.81l-0.63-.35a0.28,0.28,0,0,1,.22-0.5h0l0.66,0.23,0.75,0.27c0.29,0.1.63,0.17,1,.28a9,9,0,0,0,1.17.3c0.42,0.09.86,0.19,1.32,0.24s0.94,0.15,1.43.18,1,0.09,1.48.09,1,0,1.48,0,1-.06,1.44-0.07c0.93-.1,1.8-0.17,2.54-0.31s1.36-.24,1.78-0.35l0.49-.12,0.18,0h0a0.37,0.37,0,0,1,.25.69" transform="translate(-159.3 -289.42)"/><path class="cls-8" d="M233.85,401.75s-5.27,2.09-7.46-.18-0.42,1.93.56,3,3.8,3.62,3.8,3.62-3.58-3.12,3.09-6.44" transform="translate(-159.3 -289.42)"/><path class="cls-8" d="M257.75,392.75a3.15,3.15,0,0,0,0-.36,6.89,6.89,0,0,0,0-.84,4.44,4.44,0,0,0-.24-1.17v0a0.42,0.42,0,0,1,.7-0.43,3.69,3.69,0,0,1,.29.37,6,6,0,0,1,.5.89,8.46,8.46,0,0,1,.37.94c0.08,0.26.13,0.46,0.13,0.46l0,0.09a0.91,0.91,0,1,1-1.78,0" transform="translate(-159.3 -289.42)"/><path class="cls-8" d="M256.4,391a3.15,3.15,0,0,0,0-.36,6.89,6.89,0,0,0,0-.84,4.44,4.44,0,0,0-.24-1.17v0a0.42,0.42,0,0,1,.7-0.43,3.69,3.69,0,0,1,.29.37,6,6,0,0,1,.5.89,8.46,8.46,0,0,1,.37.94c0.08,0.26.13,0.46,0.13,0.46l0,0.09a0.91,0.91,0,1,1-1.78,0" transform="translate(-159.3 -289.42)"/><path class="cls-8" d="M255.1,389.53a3.15,3.15,0,0,0,0-.36,6.89,6.89,0,0,0,0-.84,4.44,4.44,0,0,0-.24-1.17v0a0.42,0.42,0,0,1,.7-0.43,3.69,3.69,0,0,1,.29.37,6,6,0,0,1,.5.89,8.46,8.46,0,0,1,.37.94c0.08,0.26.13,0.46,0.13,0.46l0,0.09a0.91,0.91,0,1,1-1.78,0" transform="translate(-159.3 -289.42)"/><path class="cls-8" d="M254,388.71a3.15,3.15,0,0,0,0-.36,6.89,6.89,0,0,0,0-.84,4.44,4.44,0,0,0-.24-1.17v0a0.42,0.42,0,0,1,.7-0.43,3.69,3.69,0,0,1,.29.37,6.12,6.12,0,0,1,.5.89,8.64,8.64,0,0,1,.37.94c0.08,0.26.13,0.46,0.13,0.46l0,0.09a0.91,0.91,0,1,1-1.78,0" transform="translate(-159.3 -289.42)"/><path class="cls-8" d="M252.83,387.27a3.15,3.15,0,0,0,0-.36,6.89,6.89,0,0,0,0-.84,4.44,4.44,0,0,0-.24-1.17v0a0.42,0.42,0,0,1,.7-0.43,3.69,3.69,0,0,1,.29.37,6.12,6.12,0,0,1,.5.89,8.64,8.64,0,0,1,.37.94c0.08,0.26.13,0.46,0.13,0.46l0,0.09a0.91,0.91,0,1,1-1.78,0" transform="translate(-159.3 -289.42)"/><path class="cls-8" d="M251.72,386.46a3.15,3.15,0,0,0,0-.36,6.89,6.89,0,0,0,0-.84,4.44,4.44,0,0,0-.24-1.17v0a0.42,0.42,0,0,1,.7-0.43,3.69,3.69,0,0,1,.29.37,6,6,0,0,1,.5.89,8.46,8.46,0,0,1,.37.94c0.08,0.26.13,0.46,0.13,0.46l0,0.09a0.91,0.91,0,1,1-1.78,0" transform="translate(-159.3 -289.42)"/><path class="cls-8" d="M250.23,385.55a3.15,3.15,0,0,0,0-.36,6.89,6.89,0,0,0,0-.84,4.44,4.44,0,0,0-.24-1.17v0a0.42,0.42,0,0,1,.7-0.43,3.69,3.69,0,0,1,.29.37,6,6,0,0,1,.5.89,8.46,8.46,0,0,1,.37.94c0.08,0.26.13,0.46,0.13,0.46l0,0.09a0.91,0.91,0,1,1-1.78,0" transform="translate(-159.3 -289.42)"/><path class="cls-8" d="M249.67,384.85a3.15,3.15,0,0,0,0-.36,6.91,6.91,0,0,0,0-.84,4.44,4.44,0,0,0-.24-1.17v0a0.42,0.42,0,0,1,.7-0.43,3.69,3.69,0,0,1,.29.37,6.12,6.12,0,0,1,.5.89,8.64,8.64,0,0,1,.37.94c0.08,0.26.13,0.46,0.13,0.46l0,0.09a0.91,0.91,0,1,1-1.78,0" transform="translate(-159.3 -289.42)"/><path class="cls-8" d="M248.55,383.72a3.15,3.15,0,0,0,0-.36,6.89,6.89,0,0,0,0-.84,4.44,4.44,0,0,0-.24-1.17v0a0.42,0.42,0,0,1,.7-0.43,3.69,3.69,0,0,1,.29.37,6.12,6.12,0,0,1,.5.89,8.64,8.64,0,0,1,.37.94c0.08,0.26.13,0.46,0.13,0.46l0,0.09a0.91,0.91,0,1,1-1.78,0" transform="translate(-159.3 -289.42)"/><path class="cls-8" d="M247.48,383.49a3.15,3.15,0,0,0,0-.36,6.91,6.91,0,0,0,0-.84,4.44,4.44,0,0,0-.24-1.17v0a0.42,0.42,0,0,1,.7-0.43,3.69,3.69,0,0,1,.29.37,6,6,0,0,1,.5.89,8.46,8.46,0,0,1,.37.94c0.08,0.26.13,0.46,0.13,0.46l0,0.09a0.91,0.91,0,1,1-1.78,0" transform="translate(-159.3 -289.42)"/><path class="cls-8" d="M246.37,383a3.15,3.15,0,0,0,0-.36,6.89,6.89,0,0,0,0-.84,4.44,4.44,0,0,0-.24-1.17v0a0.42,0.42,0,0,1,.7-0.43,3.69,3.69,0,0,1,.29.37,6,6,0,0,1,.5.89,8.46,8.46,0,0,1,.37.94c0.08,0.26.13,0.46,0.13,0.46l0,0.09a0.91,0.91,0,1,1-1.78,0" transform="translate(-159.3 -289.42)"/><path class="cls-8" d="M246,382.85a2.77,2.77,0,0,0-.05-0.34,6.45,6.45,0,0,0-.2-0.77,3.91,3.91,0,0,0-.5-1v0a0.42,0.42,0,0,1,.55-0.61,3.25,3.25,0,0,1,.38.27,5.43,5.43,0,0,1,.7.7,7.63,7.63,0,0,1,.58.8c0.14,0.22.24,0.4,0.24,0.4l0.05,0.1a0.91,0.91,0,0,1-1.63.82,0.92,0.92,0,0,1-.09-0.35" transform="translate(-159.3 -289.42)"/><path class="cls-8" d="M245.35,381.9a2,2,0,0,0-.14-0.28,5,5,0,0,0-.41-0.62,3.33,3.33,0,0,0-.76-0.72h0a0.42,0.42,0,0,1,.29-0.77,2.91,2.91,0,0,1,.43.11,4.68,4.68,0,0,1,.88.39,6.61,6.61,0,0,1,.79.53,4.46,4.46,0,0,1,.35.3l0.1,0.1a0.92,0.92,0,1,1-1.28,1.31,1,1,0,0,1-.22-0.34" transform="translate(-159.3 -289.42)"/><path class="cls-8" d="M244.34,381.6a1.77,1.77,0,0,0-.17-0.25,4.67,4.67,0,0,0-.48-0.55,3.2,3.2,0,0,0-.84-0.6h0a0.42,0.42,0,0,1,.17-0.8,2.84,2.84,0,0,1,.44,0,4.52,4.52,0,0,1,.92.26,6.12,6.12,0,0,1,.85.42,3.71,3.71,0,0,1,.38.25l0.12,0.09a0.92,0.92,0,1,1-1.38,1.15" transform="translate(-159.3 -289.42)"/><path class="cls-8" d="M243.35,381.63a1.7,1.7,0,0,0-.21-0.22,4.44,4.44,0,0,0-.55-0.46,3.15,3.15,0,0,0-.92-0.45h0a0.42,0.42,0,0,1,0-.82,2.8,2.8,0,0,1,.44,0,4.44,4.44,0,0,1,.95.1,5.91,5.91,0,0,1,.9.27,3.59,3.59,0,0,1,.42.18l0.15,0.08a0.92,0.92,0,0,1-.87,1.63,1,1,0,0,1-.32-0.28" transform="translate(-159.3 -289.42)"/><path class="cls-8" d="M241.71,381.58a1.7,1.7,0,0,0-.21-0.22,4.44,4.44,0,0,0-.55-0.46,3.12,3.12,0,0,0-.92-0.45h0a0.42,0.42,0,0,1,0-.82,2.8,2.8,0,0,1,.44,0,4.44,4.44,0,0,1,.95.1,5.91,5.91,0,0,1,.9.27,3.59,3.59,0,0,1,.42.18l0.15,0.08a0.92,0.92,0,0,1-.87,1.63,1,1,0,0,1-.32-0.28" transform="translate(-159.3 -289.42)"/><path class="cls-8" d="M240.75,381.85l-0.05,0-0.18-.14a4.43,4.43,0,0,0-.6-0.38,3.12,3.12,0,0,0-1-.33h0a0.42,0.42,0,0,1-.06-0.82,2.7,2.7,0,0,1,.43-0.09,4.48,4.48,0,0,1,.95,0,5.73,5.73,0,0,1,.93.15l0.31,0.09,0.13,0A0.89,0.89,0,1,1,241,382l-0.12-.05Z" transform="translate(-159.3 -289.42)"/><path class="cls-8" d="M239.48,382.23l-0.05,0-0.18-.14a4.43,4.43,0,0,0-.6-0.38,3.12,3.12,0,0,0-1-.33h0a0.42,0.42,0,0,1-.06-0.82,2.7,2.7,0,0,1,.43-0.09,4.48,4.48,0,0,1,.95,0,5.73,5.73,0,0,1,.93.15l0.31,0.09,0.13,0a0.89,0.89,0,1,1-.59,1.67l-0.12-.05Z" transform="translate(-159.3 -289.42)"/><path class="cls-8" d="M238.2,382.64l-0.05,0-0.18-.14a4.43,4.43,0,0,0-.6-0.38,3.12,3.12,0,0,0-1-.33h0a0.42,0.42,0,0,1-.06-0.82,2.7,2.7,0,0,1,.43-0.09,4.48,4.48,0,0,1,.95,0,5.71,5.71,0,0,1,.93.15l0.31,0.09,0.13,0a0.89,0.89,0,1,1-.59,1.67l-0.12-.05Z" transform="translate(-159.3 -289.42)"/><path class="cls-8" d="M237,382.87l-0.05,0-0.18-.14a4.43,4.43,0,0,0-.6-0.38,3.12,3.12,0,0,0-1-.33h0a0.42,0.42,0,0,1-.06-0.82,2.7,2.7,0,0,1,.43-0.09,4.48,4.48,0,0,1,.95,0,5.71,5.71,0,0,1,.93.15l0.31,0.09,0.13,0a0.89,0.89,0,1,1-.59,1.67l-0.12-.05Z" transform="translate(-159.3 -289.42)"/><path class="cls-8" d="M235.7,383.19l-0.05,0-0.18-.14a4.43,4.43,0,0,0-.6-0.38,3.12,3.12,0,0,0-1-.33h0a0.42,0.42,0,0,1-.06-0.82,2.7,2.7,0,0,1,.43-0.09,4.48,4.48,0,0,1,.95,0,5.71,5.71,0,0,1,.93.15l0.31,0.09,0.13,0a0.89,0.89,0,1,1-.59,1.67l-0.12-.05Z" transform="translate(-159.3 -289.42)"/><path class="cls-8" d="M234.38,383l-0.14-.08a2.44,2.44,0,0,0-.35-0.14,1.69,1.69,0,0,0-.54-0.08h0a0.19,0.19,0,0,1-.08-0.37,2.25,2.25,0,0,1,.7-0.14,3.1,3.1,0,0,1,.49,0l0.23,0,0.06,0a0.43,0.43,0,1,1-.36.75" transform="translate(-159.3 -289.42)"/><path class="cls-8" d="M233.67,383.42l-0.14-.08a2.44,2.44,0,0,0-.35-0.14,1.69,1.69,0,0,0-.54-0.08h0a0.19,0.19,0,0,1-.08-0.37,2.23,2.23,0,0,1,.7-0.14,3,3,0,0,1,.49,0l0.23,0,0.06,0a0.43,0.43,0,1,1-.36.75" transform="translate(-159.3 -289.42)"/><path class="cls-8" d="M232.94,383.87l-0.14-.08a2.44,2.44,0,0,0-.35-0.14,1.69,1.69,0,0,0-.54-0.08h0a0.19,0.19,0,0,1-.08-0.37,2.23,2.23,0,0,1,.7-0.14,3,3,0,0,1,.49,0l0.23,0,0.06,0a0.43,0.43,0,1,1-.36.75" transform="translate(-159.3 -289.42)"/><path class="cls-8" d="M232.46,384.41l-0.14-.08a2.44,2.44,0,0,0-.35-0.14,1.69,1.69,0,0,0-.54-0.08h0a0.19,0.19,0,0,1-.08-0.37,2.25,2.25,0,0,1,.7-0.14,3.1,3.1,0,0,1,.49,0l0.23,0,0.06,0a0.43,0.43,0,1,1-.36.75" transform="translate(-159.3 -289.42)"/><path class="cls-8" d="M232.35,384.22l-0.14-.08a2.44,2.44,0,0,0-.35-0.14,1.69,1.69,0,0,0-.54-0.08h0a0.19,0.19,0,0,1-.08-0.37,2.25,2.25,0,0,1,.7-0.14,3.1,3.1,0,0,1,.49,0l0.23,0,0.06,0a0.43,0.43,0,1,1-.36.75" transform="translate(-159.3 -289.42)"/><path class="cls-8" d="M231.51,384.51l-0.14-.08a2.44,2.44,0,0,0-.35-0.14,1.69,1.69,0,0,0-.54-0.08h0a0.19,0.19,0,0,1-.08-0.37,2.23,2.23,0,0,1,.7-0.14,3,3,0,0,1,.49,0l0.23,0,0.06,0a0.43,0.43,0,1,1-.36.75" transform="translate(-159.3 -289.42)"/><path class="cls-8" d="M231,383.89l-0.13-.08a2.1,2.1,0,0,0-.35-0.15,1.46,1.46,0,0,0-.53-0.08h0a0.19,0.19,0,0,1-.09-0.37,2,2,0,0,1,.71-0.15,2.76,2.76,0,0,1,.5,0l0.24,0.05,0.07,0a0.43,0.43,0,1,1-.4.73" transform="translate(-159.3 -289.42)"/><path class="cls-8" d="M230.23,384.27l-0.13-.08a2.1,2.1,0,0,0-.35-0.15,1.46,1.46,0,0,0-.53-0.08h0a0.19,0.19,0,0,1-.09-0.37,2,2,0,0,1,.71-0.15,2.76,2.76,0,0,1,.5,0l0.24,0.05,0.07,0a0.43,0.43,0,1,1-.25.82,0.43,0.43,0,0,1-.15-0.09" transform="translate(-159.3 -289.42)"/><path class="cls-8" d="M229.95,384.77l-0.13-.08a2.1,2.1,0,0,0-.35-0.15,1.46,1.46,0,0,0-.53-0.08h0a0.19,0.19,0,0,1-.09-0.37,2,2,0,0,1,.71-0.15,2.76,2.76,0,0,1,.5,0l0.24,0.05,0.07,0a0.43,0.43,0,1,1-.25.82,0.43,0.43,0,0,1-.15-0.09" transform="translate(-159.3 -289.42)"/><path class="cls-8" d="M229.26,385.07l-0.13-.08a2.1,2.1,0,0,0-.35-0.15,1.46,1.46,0,0,0-.53-0.08h0a0.19,0.19,0,0,1-.09-0.37,2,2,0,0,1,.71-0.15,2.66,2.66,0,0,1,.5,0l0.24,0.05,0.07,0a0.43,0.43,0,0,1-.25.82,0.43,0.43,0,0,1-.15-0.09" transform="translate(-159.3 -289.42)"/><circle class="cls-9" cx="86.24" cy="120.66" r="5.96"/><path class="cls-8" d="M293.43,414.63l0.14-.48c0.1-.31.2-0.78,0.41-1.36a19.63,19.63,0,0,1,.91-2.07,14.13,14.13,0,0,1,1.56-2.49,13,13,0,0,1,1.1-1.29l0.63-.64,0.7-.6a18.93,18.93,0,0,1,1.53-1.16c0.56-.33,1.12-0.72,1.73-1a22.47,22.47,0,0,1,3.84-1.59,33.6,33.6,0,0,1,4.13-1,19.65,19.65,0,0,1,2.15-.31c0.73-.06,1.44-0.07,2.15-0.06a27.55,27.55,0,0,1,4.12.41,17,17,0,0,1,3.75,1.09,7.41,7.41,0,0,1,2.94,2.09,4,4,0,0,1,.83,3,6.72,6.72,0,0,1-.75,2.18,9.93,9.93,0,0,1-.81,1.2l-0.31.4-0.22-.16,0.25-.43a12.57,12.57,0,0,0,.63-1.24,6.12,6.12,0,0,0,.48-2,3.29,3.29,0,0,0-.86-2.3,6.69,6.69,0,0,0-2.63-1.6,17.25,17.25,0,0,0-3.52-.83,26.83,26.83,0,0,0-3.91-.26c-0.67,0-1.34,0-2,.08a18.37,18.37,0,0,0-2,.32,39.78,39.78,0,0,0-3.95,1,25.6,25.6,0,0,0-3.63,1.42,18.26,18.26,0,0,0-3.08,1.89l-0.67.52-0.61.56a12.82,12.82,0,0,0-1.1,1.12,12.42,12.42,0,0,0-.91,1.13,10.53,10.53,0,0,0-.75,1.08,18.57,18.57,0,0,0-1.05,1.86c-0.5,1.11-.77,1.75-0.77,1.75Z" transform="translate(-159.3 -289.42)"/><path class="cls-10" d="M316.9,411.32a4.15,4.15,0,0,1-1,2.79l0.41-1.2a30.15,30.15,0,0,0-1.94,2.82A2.09,2.09,0,0,0,315,415l-0.48.88a0.2,0.2,0,0,0,0,.17,0.18,0.18,0,0,0,.16.08,2.08,2.08,0,0,0,1.46-.79,15.89,15.89,0,0,1,2-1.61l-0.78.81,0.54-1.05a1.65,1.65,0,0,0-.77.57,2.61,2.61,0,0,0,.43-2.08,14.79,14.79,0,0,0-.52,1.71A7.05,7.05,0,0,0,316.9,411.32Z" transform="translate(-159.3 -289.42)"/><path class="cls-10" d="M315.33,411.1a0.4,0.4,0,0,1,0,.41,0.72,0.72,0,0,1-.41-0.59l-0.31,2.36a6,6,0,0,1-.32-1.67,0.79,0.79,0,0,0-.14.57c0,0.2-.21.44-0.38,0.33a0.35,0.35,0,0,1-.12-0.19,6.13,6.13,0,0,1-.31-1.81l-0.2.84" transform="translate(-159.3 -289.42)"/><path class="cls-10" d="M314.86,411.62c0.1,0,0,.21-0.12.18a0.46,0.46,0,0,1-.21-0.24,0.22,0.22,0,0,0-.26-0.13,0.25,0.25,0,0,0-.08.1l-0.28.5a0.23,0.23,0,0,1-.13.13c-0.12,0-.19-0.13-0.21-0.25a8.89,8.89,0,0,1-.09-1.06,1.46,1.46,0,0,0-.4.46c-0.18.06-.3-0.19-0.31-0.38a4.82,4.82,0,0,1,0-1.19l-0.28,1.76c-0.09.06-.17-0.08-0.17-0.19a7.07,7.07,0,0,1,.08-1.7,12,12,0,0,1-.28,1.55l-0.22,0a5.89,5.89,0,0,1,.14-1.62l-0.1.21a5.3,5.3,0,0,1,.16-1.41c0-.1.13-0.22,0.2-0.15l0.07-.37a0.61,0.61,0,0,1-.34-0.26" transform="translate(-159.3 -289.42)"/><path class="cls-10" d="M310.86,405.56l-0.06.23a0.37,0.37,0,0,1-.44-0.37,4.53,4.53,0,0,1,0,1.16,0.55,0.55,0,0,1-.45-0.34,2.77,2.77,0,0,1,.38,1.27,1,1,0,0,1-.55-0.38l0.54,2.38a1.13,1.13,0,0,1-.64-0.24l-0.3,1a0.58,0.58,0,0,1-.18.31,0.2,0.2,0,0,1-.31-0.06,4,4,0,0,0-.16.83q-0.2-.86-0.34-1.74" transform="translate(-159.3 -289.42)"/><path class="cls-11" d="M317.16,408.24a0.46,0.46,0,0,0,.09.62,1.35,1.35,0,0,0,.64.25,1,1,0,0,0-.68.56,0.32,0.32,0,0,1,.16.4l-0.1.82" transform="translate(-159.3 -289.42)"/><path class="cls-11" d="M310.88,409.33a1.39,1.39,0,0,0,.67,1.18,0.39,0.39,0,0,0,.22.07c0.07,0,.13,0,0.2,0a0.48,0.48,0,0,1,.37.22,5.32,5.32,0,0,1,.7,1l0.15-.3" transform="translate(-159.3 -289.42)"/><path class="cls-11" d="M308.55,410.74a1.61,1.61,0,0,0,.83,1,14.47,14.47,0,0,1,2.28,2" transform="translate(-159.3 -289.42)"/><path class="cls-11" d="M307,408.89q0,1.12.07,2.25a0.49,0.49,0,0,0,.21.45" transform="translate(-159.3 -289.42)"/><path class="cls-11" d="M309.13,408.31l-0.64,3.57a2.46,2.46,0,0,0,0,1.19,2.11,2.11,0,0,0,.42.68,4,4,0,0,0,2.38,1.49,1.05,1.05,0,0,0,.35,0,1.41,1.41,0,0,0,.35-0.15,7.63,7.63,0,0,1,2.72-.82" transform="translate(-159.3 -289.42)"/><path class="cls-11" d="M318.16,410.67l-0.41,1.22" transform="translate(-159.3 -289.42)"/><path class="cls-11" d="M317.41,412.28a3.79,3.79,0,0,1-1.79,1.17,5.19,5.19,0,0,0-1,.32,0.77,0.77,0,0,1-.78.17" transform="translate(-159.3 -289.42)"/><path class="cls-11" d="M315,409.33l-0.28,1.76" transform="translate(-159.3 -289.42)"/><path class="cls-8" d="M294.79,405.54l0.15-.37,0.18-.42,0.32-.56a5.72,5.72,0,0,1,.43-0.61,6.69,6.69,0,0,1,.54-0.63,7.65,7.65,0,0,1,.65-0.61,8.35,8.35,0,0,1,.72-0.56,10.12,10.12,0,0,1,3-1.43,8.55,8.55,0,0,1,1.07-.23,3.25,3.25,0,0,1,.42,0,0.33,0.33,0,0,1,.34.32,0.34,0.34,0,0,1-.19.31l-0.35.16-0.92.44c-0.38.19-.81,0.4-1.27,0.66s-0.93.53-1.39,0.83a12.4,12.4,0,0,0-1.27,1,11,11,0,0,0-1,1l-0.36.41-0.26.38-0.24.32a0.33,0.33,0,0,1-.57-0.31" transform="translate(-159.3 -289.42)"/><path class="cls-8" d="M318.67,397.85l0.4,0,0.46,0.05,0.64,0.17a5.76,5.76,0,0,1,.72.26,6.49,6.49,0,0,1,.76.37,7.48,7.48,0,0,1,.76.48,7.73,7.73,0,0,1,.73.56,9.59,9.59,0,0,1,1.26,1.29,9.32,9.32,0,0,1,.88,1.29,7.54,7.54,0,0,1,.47,1,4.06,4.06,0,0,1,.14.41,0.42,0.42,0,0,1-.72.39h0l-0.94-1c-0.28-.31-0.6-0.67-1-1s-0.74-.75-1.14-1.12a13,13,0,0,0-1.23-1,5.62,5.62,0,0,0-.6-0.4,5.9,5.9,0,0,0-.55-0.32l-0.47-.25-0.42-.18-0.37-.16a0.42,0.42,0,0,1,.2-0.8" transform="translate(-159.3 -289.42)"/><path class="cls-8" d="M298,416.67l0.2,0.07,0.56,0.19c0.48,0.17,1.19.36,2,.58,0.42,0.11.88,0.21,1.37,0.31s1,0.18,1.54.28,1.09,0.17,1.66.21,1.15,0.11,1.72.12,1.16,0,1.73,0,1.13-.05,1.67-0.09,1.06-.11,1.56-0.18a10.7,10.7,0,0,0,1.38-.25c0.42-.1.83-0.16,1.17-0.25l0.89-.26,0.78-.21h0a0.28,0.28,0,0,1,.18.52l-0.76.34a14.49,14.49,0,0,1-2.06.77,11.29,11.29,0,0,1-1.42.38,14,14,0,0,1-1.62.3c-0.57.07-1.15,0.16-1.75,0.17a18,18,0,0,1-1.82,0,17.27,17.27,0,0,1-1.81-.12c-0.6,0-1.18-.17-1.74-0.25a23.23,23.23,0,0,1-3-.79,17.44,17.44,0,0,1-2-.81c-0.24-.11-0.43-0.21-0.56-0.28l-0.19-.11a0.37,0.37,0,0,1,.3-0.67h0Z" transform="translate(-159.3 -289.42)"/><path class="cls-8" d="M321.68,401s5.92,2.87,8.64.43,0.32,2.27-.91,3.42-4.71,3.86-4.71,3.86,4.4-3.3-3-7.72" transform="translate(-159.3 -289.42)"/><path class="cls-8" d="M290.78,390.29l0-.14c0-.08.08-0.19,0.14-0.32a6,6,0,0,1,.51-0.89,4.72,4.72,0,0,1,.67-0.79,3,3,0,0,1,.36-0.3h0a0.42,0.42,0,0,1,.57.59,2.39,2.39,0,0,0-.18.31,3.75,3.75,0,0,0-.26.74,4.68,4.68,0,0,0-.12.78c0,0.11,0,.19,0,0.25s0,0.07,0,.08l0,0.16a0.89,0.89,0,1,1-1.74-.35,0.9,0.9,0,0,1,0-.12" transform="translate(-159.3 -289.42)"/><path class="cls-8" d="M292.66,388.71l0-.14c0-.08.08-0.19,0.14-0.32a6,6,0,0,1,.51-0.89,4.77,4.77,0,0,1,.67-0.79,3,3,0,0,1,.36-0.3h0a0.42,0.42,0,0,1,.57.59,2.32,2.32,0,0,0-.18.31,3.71,3.71,0,0,0-.26.74,4.68,4.68,0,0,0-.12.78c0,0.11,0,.19,0,0.25s0,0.07,0,.08l0,0.16a0.89,0.89,0,1,1-1.74-.35,0.9,0.9,0,0,1,0-.12" transform="translate(-159.3 -289.42)"/><path class="cls-8" d="M294.46,387.43l0-.14c0-.08.08-0.19,0.14-0.32a6,6,0,0,1,.51-0.89,4.77,4.77,0,0,1,.67-0.79,3,3,0,0,1,.36-0.3h0a0.42,0.42,0,0,1,.57.59,2.32,2.32,0,0,0-.18.31,3.71,3.71,0,0,0-.26.74,4.68,4.68,0,0,0-.12.78c0,0.11,0,.19,0,0.25s0,0.07,0,.08l0,0.16a0.89,0.89,0,1,1-1.74-.35,0.9,0.9,0,0,1,0-.12" transform="translate(-159.3 -289.42)"/><path class="cls-8" d="M295.91,386.72l0-.14c0-.08.08-0.19,0.14-0.32a6,6,0,0,1,.51-0.89,4.77,4.77,0,0,1,.67-0.79,3,3,0,0,1,.36-0.3h0a0.42,0.42,0,0,1,.57.59,2.39,2.39,0,0,0-.18.31,3.75,3.75,0,0,0-.26.74,4.68,4.68,0,0,0-.12.78c0,0.11,0,.19,0,0.25s0,0.07,0,.08l0,0.16a0.89,0.89,0,1,1-1.74-.35,0.9,0.9,0,0,1,0-.12" transform="translate(-159.3 -289.42)"/><path class="cls-8" d="M297.58,385.45l0-.14c0-.08.08-0.19,0.14-0.32a6,6,0,0,1,.51-0.89,4.77,4.77,0,0,1,.67-0.79,3,3,0,0,1,.36-0.3h0a0.42,0.42,0,0,1,.57.59,2.39,2.39,0,0,0-.18.31,3.75,3.75,0,0,0-.26.74,4.68,4.68,0,0,0-.12.78c0,0.11,0,.19,0,0.25s0,0.07,0,.08l0,0.16a0.89,0.89,0,1,1-1.74-.35,0.9,0.9,0,0,1,0-.12" transform="translate(-159.3 -289.42)"/><path class="cls-8" d="M299.09,384.75l0-.14c0-.08.08-0.19,0.14-0.32a6,6,0,0,1,.51-0.89,4.72,4.72,0,0,1,.67-0.79,3,3,0,0,1,.36-0.3h0a0.42,0.42,0,0,1,.57.59,2.39,2.39,0,0,0-.18.31,3.75,3.75,0,0,0-.26.74,4.68,4.68,0,0,0-.12.78c0,0.11,0,.19,0,0.25s0,0.07,0,.08l0,0.16a0.89,0.89,0,1,1-1.74-.35,0.9,0.9,0,0,1,0-.12" transform="translate(-159.3 -289.42)"/><path class="cls-8" d="M301.11,384l0-.14c0-.08.08-0.19,0.14-0.32a6,6,0,0,1,.51-0.89,4.77,4.77,0,0,1,.67-0.79,3,3,0,0,1,.36-0.3h0a0.42,0.42,0,0,1,.57.59,2.32,2.32,0,0,0-.18.31,3.71,3.71,0,0,0-.26.74,4.68,4.68,0,0,0-.12.78c0,0.11,0,.19,0,0.25s0,0.07,0,.08l0,0.16a0.89,0.89,0,1,1-1.74-.35,0.9,0.9,0,0,1,0-.12" transform="translate(-159.3 -289.42)"/><path class="cls-8" d="M301.88,383.36l0-.14c0-.08.08-0.19,0.14-0.32a6,6,0,0,1,.51-0.89,4.77,4.77,0,0,1,.67-0.79,3,3,0,0,1,.36-0.3h0a0.42,0.42,0,0,1,.57.59,2.26,2.26,0,0,0-.18.31,3.71,3.71,0,0,0-.26.74,4.68,4.68,0,0,0-.12.78c0,0.11,0,.19,0,0.25s0,0.07,0,.08l0,0.16a0.89,0.89,0,1,1-1.74-.35,0.9,0.9,0,0,1,0-.12" transform="translate(-159.3 -289.42)"/><path class="cls-8" d="M303.42,382.37l0-.14c0-.08.08-0.19,0.14-0.32a6,6,0,0,1,.51-0.89,4.72,4.72,0,0,1,.67-0.79,3,3,0,0,1,.36-0.3h0a0.42,0.42,0,0,1,.57.59,2.39,2.39,0,0,0-.18.31,3.75,3.75,0,0,0-.26.74,4.68,4.68,0,0,0-.12.78c0,0.11,0,.19,0,0.25s0,0.07,0,.08l0,0.16a0.89,0.89,0,1,1-1.74-.35,0.9,0.9,0,0,1,0-.12" transform="translate(-159.3 -289.42)"/><path class="cls-8" d="M304.84,382.21l0-.14c0-.08.08-0.19,0.14-0.32a6,6,0,0,1,.51-0.89,4.77,4.77,0,0,1,.67-0.79,3,3,0,0,1,.36-0.3h0a0.42,0.42,0,0,1,.57.59,2.32,2.32,0,0,0-.18.31,3.69,3.69,0,0,0-.26.74,4.68,4.68,0,0,0-.12.78c0,0.11,0,.19,0,0.25s0,0.07,0,.08l0,0.16a0.89,0.89,0,1,1-1.74-.35,0.9,0.9,0,0,1,0-.12" transform="translate(-159.3 -289.42)"/><path class="cls-8" d="M306.34,381.79l0-.14c0-.08.08-0.19,0.14-0.32a6,6,0,0,1,.51-0.89,4.77,4.77,0,0,1,.67-0.79,3,3,0,0,1,.36-0.3h0a0.42,0.42,0,0,1,.57.59,2.32,2.32,0,0,0-.18.31,3.71,3.71,0,0,0-.26.74,4.68,4.68,0,0,0-.12.78c0,0.11,0,.19,0,0.25s0,0.07,0,.08l0,0.16a0.89,0.89,0,1,1-1.74-.35,0.9,0.9,0,0,1,0-.12" transform="translate(-159.3 -289.42)"/><path class="cls-8" d="M307,381.23l0.09-.12,0.24-.27a6.63,6.63,0,0,1,.78-0.71,5.3,5.3,0,0,1,.89-0.57,3.48,3.48,0,0,1,.44-0.19,0.42,0.42,0,0,1,.4.72h0a4.15,4.15,0,0,0-.78.92,5.14,5.14,0,0,0-.38.74c0,0.1-.07.19-0.09,0.25s0,0.07,0,.08l-0.08.14a0.89,0.89,0,1,1-1.54-.88l0.07-.1" transform="translate(-159.3 -289.42)"/><path class="cls-8" d="M308.32,379.89a5,5,0,0,1,.46-0.26,8,8,0,0,1,1-.42,6.61,6.61,0,0,1,1.07-.26,4,4,0,0,1,.5-0.05,0.42,0.42,0,0,1,.16.81,5.19,5.19,0,0,0-1.14.66,6.35,6.35,0,0,0-.68.6,2.75,2.75,0,0,0-.26.29,0.91,0.91,0,1,1-1.46-1.08,0.93,0.93,0,0,1,.24-0.22Z" transform="translate(-159.3 -289.42)"/><path class="cls-8" d="M309.85,379.52s0.21-.1.5-0.2a8.45,8.45,0,0,1,1.08-.31,6.84,6.84,0,0,1,1.11-.15,4.07,4.07,0,0,1,.51,0,0.42,0.42,0,0,1,.39.45,0.42,0.42,0,0,1-.31.37,5.6,5.6,0,0,0-1.24.54,7.07,7.07,0,0,0-.77.53,3.42,3.42,0,0,0-.3.26,0.9,0.9,0,1,1-1.3-1.26,0.88,0.88,0,0,1,.25-0.18Z" transform="translate(-159.3 -289.42)"/><path class="cls-8" d="M311.41,379.47s0.23-.07.53-0.13a9.31,9.31,0,0,1,1.13-.17,7.32,7.32,0,0,1,1.14,0,4.48,4.48,0,0,1,.52.06,0.42,0.42,0,0,1,.33.49,0.42,0.42,0,0,1-.35.33,5.91,5.91,0,0,0-1.34.39,7.67,7.67,0,0,0-.86.43,3.57,3.57,0,0,0-.35.22,0.9,0.9,0,1,1-1.09-1.44,0.89,0.89,0,0,1,.26-0.14Z" transform="translate(-159.3 -289.42)"/><path class="cls-8" d="M313.57,379.51s0.23-.07.53-0.13a9.13,9.13,0,0,1,1.13-.17,7.21,7.21,0,0,1,1.14,0,4.48,4.48,0,0,1,.52.06,0.42,0.42,0,0,1,.33.49,0.42,0.42,0,0,1-.35.33,5.91,5.91,0,0,0-1.34.39,7.67,7.67,0,0,0-.86.43,3.57,3.57,0,0,0-.35.22,0.9,0.9,0,1,1-1.09-1.44,0.89,0.89,0,0,1,.26-0.14Z" transform="translate(-159.3 -289.42)"/><path class="cls-8" d="M315,379.73s0.23-.05.54-0.08a9.35,9.35,0,0,1,1.15-.07,7.61,7.61,0,0,1,1.15.09,4.7,4.7,0,0,1,.51.11,0.42,0.42,0,0,1-.09.82h0a6.19,6.19,0,0,0-1.39.27,8.23,8.23,0,0,0-.91.35,3.57,3.57,0,0,0-.38.19,0.9,0.9,0,0,1-.93-1.54,0.91,0.91,0,0,1,.27-0.11Z" transform="translate(-159.3 -289.42)"/><path class="cls-8" d="M316.68,380.15s0.23-.05.54-0.08a9.38,9.38,0,0,1,1.15-.07,7.61,7.61,0,0,1,1.15.09,4.7,4.7,0,0,1,.51.11,0.42,0.42,0,0,1-.09.82h0a6.18,6.18,0,0,0-1.39.27,8.23,8.23,0,0,0-.91.35,3.57,3.57,0,0,0-.38.19,0.9,0.9,0,1,1-.66-1.65Z" transform="translate(-159.3 -289.42)"/><path class="cls-8" d="M318.35,380.6s0.23-.05.54-0.08a9.35,9.35,0,0,1,1.15-.07,7.61,7.61,0,0,1,1.15.09,4.7,4.7,0,0,1,.51.11,0.42,0.42,0,0,1-.09.82h0a6.18,6.18,0,0,0-1.39.27,8.23,8.23,0,0,0-.91.35,3.57,3.57,0,0,0-.38.19,0.9,0.9,0,1,1-.66-1.65Z" transform="translate(-159.3 -289.42)"/><path class="cls-8" d="M320,380.88s0.23-.05.54-0.08a9.35,9.35,0,0,1,1.15-.07,7.61,7.61,0,0,1,1.15.09,4.7,4.7,0,0,1,.51.11,0.42,0.42,0,0,1-.09.82h0a6.18,6.18,0,0,0-1.39.27,8.23,8.23,0,0,0-.91.35,3.57,3.57,0,0,0-.38.19,0.9,0.9,0,1,1-.66-1.65Z" transform="translate(-159.3 -289.42)"/><path class="cls-8" d="M321.61,381.24s0.23-.05.54-0.08a9.38,9.38,0,0,1,1.15-.07,7.61,7.61,0,0,1,1.15.09,4.7,4.7,0,0,1,.51.11,0.42,0.42,0,0,1-.09.82h0a6.18,6.18,0,0,0-1.39.27,8.23,8.23,0,0,0-.91.35,3.57,3.57,0,0,0-.38.19,0.9,0.9,0,1,1-.66-1.65Z" transform="translate(-159.3 -289.42)"/><path class="cls-8" d="M323.92,382l0.29,0a5.2,5.2,0,0,1,.61,0,3.88,3.88,0,0,1,.87.17,0.19,0.19,0,0,1-.07.38h0a3.37,3.37,0,0,0-.76.05,4.58,4.58,0,0,0-.51.13l-0.22.08a0.42,0.42,0,0,1-.33-0.77l0.11,0h0Z" transform="translate(-159.3 -289.42)"/><path class="cls-8" d="M324.83,382.37l0.29,0a5.2,5.2,0,0,1,.61,0,3.88,3.88,0,0,1,.87.17,0.19,0.19,0,0,1-.07.38h0a3.37,3.37,0,0,0-.76.05,4.58,4.58,0,0,0-.51.13l-0.22.08a0.42,0.42,0,0,1-.33-0.77l0.11,0h0Z" transform="translate(-159.3 -289.42)"/><path class="cls-8" d="M325.76,382.83l0.29,0a5.2,5.2,0,0,1,.61,0,3.88,3.88,0,0,1,.87.17,0.19,0.19,0,0,1-.07.38h0a3.37,3.37,0,0,0-.76.05,4.58,4.58,0,0,0-.51.13l-0.22.08a0.42,0.42,0,0,1-.33-0.77l0.11,0h0Z" transform="translate(-159.3 -289.42)"/><path class="cls-8" d="M326.37,383.36l0.29,0a5.2,5.2,0,0,1,.61,0,3.88,3.88,0,0,1,.87.17,0.19,0.19,0,0,1-.07.38h0a3.37,3.37,0,0,0-.76.05,4.58,4.58,0,0,0-.51.13l-0.22.08a0.42,0.42,0,0,1-.33-0.77l0.11,0h0Z" transform="translate(-159.3 -289.42)"/><path class="cls-8" d="M326.53,383.19l0.29,0a5.2,5.2,0,0,1,.61,0,3.88,3.88,0,0,1,.87.17,0.19,0.19,0,0,1-.07.38h0a3.37,3.37,0,0,0-.76.05,4.58,4.58,0,0,0-.51.13l-0.22.08a0.42,0.42,0,0,1-.33-0.77l0.11,0h0Z" transform="translate(-159.3 -289.42)"/><path class="cls-8" d="M327.62,383.51l0.29,0a5.2,5.2,0,0,1,.61,0,3.88,3.88,0,0,1,.87.17,0.19,0.19,0,0,1-.07.38h0a3.37,3.37,0,0,0-.76.05,4.58,4.58,0,0,0-.51.13l-0.22.08a0.42,0.42,0,0,1-.33-0.77l0.11,0h0Z" transform="translate(-159.3 -289.42)"/><path class="cls-8" d="M328.22,384l0.29,0a5.2,5.2,0,0,1,.61,0,3.88,3.88,0,0,1,.87.17,0.19,0.19,0,0,1-.07.38h0a3.37,3.37,0,0,0-.76.05,4.58,4.58,0,0,0-.51.13l-0.22.08a0.42,0.42,0,0,1-.33-0.77l0.11,0h0Z" transform="translate(-159.3 -289.42)"/><path class="cls-8" d="M329.24,384.36l0.29,0a5.2,5.2,0,0,1,.61,0,3.88,3.88,0,0,1,.87.17,0.19,0.19,0,0,1-.07.38h0a3.37,3.37,0,0,0-.76.05,4.58,4.58,0,0,0-.51.13l-0.22.08a0.42,0.42,0,0,1-.33-0.77l0.11,0h0Z" transform="translate(-159.3 -289.42)"/><path class="cls-8" d="M329.59,384.78l0.29,0a5.2,5.2,0,0,1,.61,0,3.88,3.88,0,0,1,.87.17,0.19,0.19,0,0,1-.07.38h0a3.37,3.37,0,0,0-.76.05,4.58,4.58,0,0,0-.51.13l-0.22.08a0.42,0.42,0,0,1-.33-0.77l0.11,0h0Z" transform="translate(-159.3 -289.42)"/><path class="cls-8" d="M330.47,385.06l0.29,0a5.2,5.2,0,0,1,.61,0,3.88,3.88,0,0,1,.87.17,0.19,0.19,0,0,1-.07.38h0a3.37,3.37,0,0,0-.76.05,4.58,4.58,0,0,0-.51.13l-0.22.08a0.42,0.42,0,0,1-.33-0.77l0.11,0h0Z" transform="translate(-159.3 -289.42)"/><circle class="cls-9" cx="312.57" cy="410.04" r="6.91" transform="translate(-278.68 402.14) rotate(-85.78)"/><path class="cls-8" d="M345.66,449s-0.4,1.14-1,2.82-1.54,3.91-2.5,6.12-2,4.37-2.85,6c-0.43.8-.79,1.46-1.06,1.91l-0.42.72a0.41,0.41,0,0,1-.72-0.4h0l0.39-.72c0.25-.45.58-1.12,1-1.91,0.79-1.6,1.75-3.78,2.64-6s1.71-4.45,2.3-6.14,0.95-2.82.95-2.82a0.7,0.7,0,1,1,1.33.42v0" transform="translate(-159.3 -289.42)"/><path class="cls-8" d="M365.93,420.15s0,1.05-.15,2.6-0.3,3.63-.56,5.69-0.6,4.12-.9,5.65c-0.15.77-.29,1.4-0.39,1.85l-0.16.7a0.41,0.41,0,0,1-.81-0.17h0l0.13-.69c0.09-.44.2-1.07,0.33-1.83,0.25-1.52.51-3.56,0.7-5.61s0.3-4.1.36-5.64,0.06-2.56.06-2.56a0.7,0.7,0,0,1,1.39,0v0" transform="translate(-159.3 -289.42)"/><path class="cls-8" d="M224.87,450.78s0.23,0.83.63,2.09,1,2.9,1.65,4.53a43.93,43.93,0,0,0,2,4.35c0.32,0.57.59,1,.8,1.36l0.32,0.51v0a0.41,0.41,0,0,1-.69.45l-0.35-.51c-0.23-.32-0.53-0.8-0.88-1.37a44.91,44.91,0,0,1-2.27-4.36c-0.74-1.63-1.4-3.29-1.86-4.54s-0.74-2.12-.74-2.12h0a0.7,0.7,0,1,1,1.33-.42v0" transform="translate(-159.3 -289.42)"/><path class="cls-8" d="M338.48,444a2.11,2.11,0,1,1,1.58,2.86,2.33,2.33,0,0,1-1.58-2.86" transform="translate(-159.3 -289.42)"/><path class="cls-8" d="M266.57,463.78l-0.11.61c-0.07.39-.13,0.95-0.18,1.61a7.31,7.31,0,0,0,.15,2.2,2.06,2.06,0,0,0,.52,1,1.62,1.62,0,0,0,1,.45,2.55,2.55,0,0,0,1.17-.08,1.24,1.24,0,0,0,.71-0.7,5.77,5.77,0,0,0,.35-2.14c0-.67,0-1.23,0-1.63l0-.62,0.28,0,0.12,0.62a15.79,15.79,0,0,1,.21,1.65,9.27,9.27,0,0,1,0,1.14,3.75,3.75,0,0,1-.27,1.31,2,2,0,0,1-1.09,1.11,3,3,0,0,1-2.29-.08,2,2,0,0,1-.65-0.48,2.77,2.77,0,0,1-.66-1.33,4.85,4.85,0,0,1-.1-1.3,8.58,8.58,0,0,1,.11-1.13,11.11,11.11,0,0,1,.4-1.63c0.12-.38.21-0.6,0.21-0.6Z" transform="translate(-159.3 -289.42)"/><path class="cls-8" d="M301.77,464.67s0.19,0.19.5,0.53c0.16,0.17.34,0.38,0.54,0.64a9.32,9.32,0,0,1,.66.87,10.77,10.77,0,0,1,.69,1.09,14.46,14.46,0,0,1,.67,1.29,13.6,13.6,0,0,1,.54,1.47,15.62,15.62,0,0,1,.39,1.58,13.07,13.07,0,0,1,.13,1.64,9.86,9.86,0,0,1-.11,1.59,9,9,0,0,1-.35,1.45,7,7,0,0,1-.5,1.23,6.4,6.4,0,0,1-.55,1,5.44,5.44,0,0,1-.5.69c-0.3.37-.47,0.57-0.47,0.57A0.22,0.22,0,0,1,303,480v0s0.11-.24.32-0.63a5.07,5.07,0,0,0,.35-0.72c0.11-.29.27-0.6,0.38-1a9.25,9.25,0,0,0,.34-1.16,12.61,12.61,0,0,0,.23-1.32,12.86,12.86,0,0,0,.05-1.43,12.3,12.3,0,0,0-.11-1.47,14.32,14.32,0,0,0-.3-1.46c-0.11-.48-0.27-0.94-0.41-1.4s-0.31-.88-0.5-1.28-0.34-.79-0.51-1.13c-0.34-.7-0.62-1.27-0.86-1.67s-0.35-.64-0.35-0.64a0.06,0.06,0,0,1,0-.09,0.07,0.07,0,0,1,.08,0" transform="translate(-159.3 -289.42)"/><path class="cls-8" d="M281.56,442.43l0.89,0.55c0.57,0.34,1.38.88,2.34,1.53s2,1.46,3.16,2.37c0.56,0.46,1.14.93,1.7,1.44s1.13,1,1.69,1.56,1.09,1.09,1.59,1.66,1,1.14,1.45,1.69,0.88,1.12,1.24,1.68,0.71,1.08,1,1.57,0.54,1,.76,1.39,0.38,0.8.51,1.11l0.39,1a0.22,0.22,0,0,1-.41.17h0l-0.4-1c-0.14-.3-0.33-0.65-0.53-1.07s-0.48-.85-0.78-1.33-0.64-1-1-1.51-0.82-1.05-1.27-1.6-0.95-1.09-1.48-1.61-1.07-1.06-1.61-1.58-1.12-1-1.7-1.48-1.15-.93-1.71-1.36c-1.13-.86-2.23-1.6-3.18-2.23s-1.75-1.1-2.34-1.43l-0.91-.52a0.6,0.6,0,0,1,.6-1h0" transform="translate(-159.3 -289.42)"/><path class="cls-8" d="M256.83,450.13s-1.22,1.89-3.17,4.64c-1,1.38-2.13,3-3.37,4.66-0.61.85-1.29,1.72-1.89,2.61a21.58,21.58,0,0,0-1.64,2.83,22.87,22.87,0,0,0-1.2,3.05,19.29,19.29,0,0,0-.71,3.1c-0.08.51-.1,1-0.15,1.51s0,1,0,1.45l0.14,1.36,0.27,1.25,0.38,1.11c0.13,0.35.32,0.65,0.46,1a4.18,4.18,0,0,0,.48.8l0.45,0.65c0.31,0.36.58,0.63,0.75,0.82l0.27,0.29,0,0a0.22,0.22,0,0,1-.32.3l-0.28-.3c-0.18-.2-0.47-0.47-0.8-0.84l-0.49-.67a4.53,4.53,0,0,1-.52-0.83c-0.15-.31-0.36-0.63-0.5-1l-0.43-1.16-0.31-1.31L244.09,474c0-.49,0-1,0-1.51s0-1,.12-1.57a20,20,0,0,1,.67-3.22,23.67,23.67,0,0,1,1.17-3.19,22.53,22.53,0,0,1,1.64-3c0.62-.94,1.25-1.8,1.85-2.67,1.21-1.72,2.32-3.32,3.26-4.71,1.88-2.77,3.05-4.67,3.05-4.67a0.6,0.6,0,0,1,1,.63h0Z" transform="translate(-159.3 -289.42)"/><path class="cls-8" d="M277.52,448a1.77,1.77,0,0,1,.16-0.53,2.28,2.28,0,0,1,1-1.07,2.52,2.52,0,0,1,.44-0.2l0.12,0,0.08,0,0.05,0,0.22-.07a3.16,3.16,0,0,1,1.13-.13,1.9,1.9,0,0,1,1.23.63,2.47,2.47,0,0,1,.57,1.24,6.41,6.41,0,0,1-.13,2.27c-0.15.68-.32,1.29-0.47,1.81s-0.3.94-.37,1.24a3.85,3.85,0,0,0-.11.46h-0.35a4.08,4.08,0,0,1,0-.52c0-.32.09-0.77,0.17-1.31s0.18-1.15.24-1.8a6.37,6.37,0,0,0-.06-1.92,1.33,1.33,0,0,0-.34-0.67,1.4,1.4,0,0,0-.58-0.29,2.57,2.57,0,0,0-.8-0.12h-0.41a2,2,0,0,0-.35.07,1.73,1.73,0,0,0-.91.64,1.39,1.39,0,0,0-.21.38Z" transform="translate(-159.3 -289.42)"/><path class="cls-8" d="M258.35,445.56l-0.39.05-0.4.11a2.13,2.13,0,0,0-.46.22,1,1,0,0,0-.35.38,1.33,1.33,0,0,0-.06.53c0,0.19,0,.4,0,0.63a5,5,0,0,0,.08.74,29.69,29.69,0,0,0,.79,2.95c0.11,0.42.21,0.77,0.26,1a3.73,3.73,0,0,1,.05.42l-0.34.07s-0.22-.49-0.66-1.23a14.61,14.61,0,0,1-1.32-3,6.33,6.33,0,0,1-.18-0.93,2.22,2.22,0,0,1,.08-1,2.1,2.1,0,0,1,.62-0.84,2.21,2.21,0,0,1,.76-0.42,3.29,3.29,0,0,1,1.14-.1l0.39,0v0.32Z" transform="translate(-159.3 -289.42)"/><path class="cls-8" d="M276,453.75a2.28,2.28,0,0,1-.16-0.38c0-.12-0.09-0.26-0.13-0.41a3.49,3.49,0,0,0-.13-0.4,0.21,0.21,0,1,1,.06.07l0.06,0,0,0h0l0.13,0.06h0l0.1,0h0a5.82,5.82,0,0,0-.68.11c-0.51.11-1.08,0.24-1.63,0.39-1.12.28-2.25,0.58-3.09,0.81-0.42.12-.77,0.22-1,0.3a1.65,1.65,0,0,0-.34.14h0a0.15,0.15,0,0,1-.2-0.23,2.1,2.1,0,0,1,.33-0.31,8.23,8.23,0,0,1,.93-0.6,22,22,0,0,1,3-1.4c0.56-.21,1.12-0.42,1.68-0.58a7.28,7.28,0,0,1,.87-0.2l0.14,0a1,1,0,0,1,.24,0l0.19,0h0.08l0.14,0.06h0l0.07,0,0.13,0.1a1.32,1.32,0,0,1,.38.67,2.14,2.14,0,0,1,0,.78,2.19,2.19,0,0,1-.12.52,1.68,1.68,0,0,1-.21.42,0.48,0.48,0,0,1-.8-0.05Z" transform="translate(-159.3 -289.42)"/><path class="cls-8" d="M260.15,455.64a5.89,5.89,0,0,1-1.37-.93,5.78,5.78,0,0,1-.59-0.57,3.55,3.55,0,0,1-.31-0.38,1.82,1.82,0,0,1-.32-0.66,0.95,0.95,0,0,1,.25-0.92l0,0,0,0,0.07,0h0l0.22-.1,0.14,0,0.23,0a2.63,2.63,0,0,1,.65.06,5.35,5.35,0,0,1,1,.32,8.37,8.37,0,0,1,.93.46,6.48,6.48,0,0,1,.81.6c0.45,0.37.88,0.71,1.25,1a10,10,0,0,0,.92.63,2.11,2.11,0,0,0,.36.18,0.15,0.15,0,0,1,.1.2,0.16,0.16,0,0,1-.15.11,2.43,2.43,0,0,1-.48-0.06,6.26,6.26,0,0,1-1.15-.38,15,15,0,0,1-1.5-.74,4,4,0,0,0-.75-0.36,7,7,0,0,0-.82-0.27,6.52,6.52,0,0,0-.81-0.17,1,1,0,0,0-.27,0s0,0,0,0h0l0.12-.06,0,0h0l0.06,0h0l0,0a0.73,0.73,0,0,0,.18-0.3,0.69,0.69,0,0,0,0-.21v-0.09c0-.11,0,0,0.08.11l0.2,0.29,0.43,0.58a10.91,10.91,0,0,1,.88,1.32,0.44,0.44,0,0,1-.56.61h0Z" transform="translate(-159.3 -289.42)"/><path class="cls-10" d="M279.77,442.27s2.26,2.95,2.17,5.06" transform="translate(-159.3 -289.42)"/><path class="cls-8" d="M262.48,436.82l1.44-2.77a36.7,36.7,0,0,0,2.71-6.25,56.57,56.57,0,0,0,1.35-6.71l0.48-3.09a0.11,0.11,0,0,1,.22,0l-0.39,3.1a57.26,57.26,0,0,1-1.16,6.8,37.33,37.33,0,0,1-2.56,6.43l-1.36,2.82a0.41,0.41,0,1,1-.74-0.36h0" transform="translate(-159.3 -289.42)"/><path class="cls-8" d="M275.08,437.65s-0.13-.95-0.2-2.36a42.53,42.53,0,0,1,0-5.17c0.06-.94.16-1.87,0.29-2.74s0.26-1.68.42-2.37,0.29-1.26.4-1.65l0.17-.62a0.17,0.17,0,0,1,.33.08h0l-0.15.62c-0.1.39-.23,1-0.34,1.65s-0.25,1.49-.34,2.35-0.17,1.79-.19,2.72a41.8,41.8,0,0,0,.12,5.09c0.11,1.39.27,2.29,0.27,2.29a0.41,0.41,0,0,1-.81.14v0" transform="translate(-159.3 -289.42)"/><path class="cls-10" d="M261.61,439.09a19.32,19.32,0,0,0-1.66,9.16" transform="translate(-159.3 -289.42)"/><path class="cls-8" d="M360.84,454.13a4.4,4.4,0,1,1,4.4,4.4,4.4,4.4,0,0,1-4.4-4.4" transform="translate(-159.3 -289.42)"/><path class="cls-8" d="M262.54,399.36s0.58,0.83,1.33,2.13a47.93,47.93,0,0,1,2.48,4.89c0.4,0.91.77,1.84,1.09,2.72s0.59,1.71.79,2.43,0.36,1.32.45,1.75l0.16,0.67a0.17,0.17,0,0,1-.33.08h0l-0.18-.65c-0.1-.42-0.27-1-0.5-1.71s-0.51-1.52-.85-2.37-0.73-1.76-1.15-2.65a47.28,47.28,0,0,0-2.59-4.75c-0.78-1.26-1.36-2-1.36-2a0.41,0.41,0,1,1,.66-0.49h0" transform="translate(-159.3 -289.42)"/><path class="cls-8" d="M363.93,439.73s-0.1.24-.3,0.66-0.45,1-.73,1.71c-0.15.35-.29,0.74-0.43,1.16s-0.26.85-.41,1.3-0.24.93-.32,1.41-0.16,1-.22,1.47a13,13,0,0,0-.05,1.47,13.81,13.81,0,0,0,.09,1.42c0.09,0.45.13,0.9,0.26,1.3a9.19,9.19,0,0,0,.35,1.14c0.11,0.36.27,0.66,0.38,0.95a4.93,4.93,0,0,0,.35.71c0.21,0.39.33,0.62,0.33,0.62v0a0.22,0.22,0,0,1-.36.25s-0.18-.2-0.48-0.56a5.57,5.57,0,0,1-.5-0.68,6.37,6.37,0,0,1-.56-0.95l-0.28-.57c-0.09-.2-0.15-0.42-0.23-0.64a9.75,9.75,0,0,1-.38-1.42,10.65,10.65,0,0,1-.15-1.57,13.75,13.75,0,0,1,.06-1.62,16.09,16.09,0,0,1,.3-1.58,14.4,14.4,0,0,1,.45-1.48c0.19-.46.36-0.92,0.58-1.32a11.32,11.32,0,0,1,.61-1.13,9.44,9.44,0,0,1,.59-0.91c0.18-.27.35-0.49,0.49-0.67,0.28-.36.46-0.56,0.46-0.56a0.06,0.06,0,0,1,.09,0,0.06,0.06,0,0,1,0,.07" transform="translate(-159.3 -289.42)"/><path class="cls-8" d="M372.39,425.34s-0.14.15-.4,0.4-0.61.61-1,1c-0.19.23-.42,0.44-0.62,0.71a7.66,7.66,0,0,0-.59.82,5.26,5.26,0,0,0-.46.94,2.48,2.48,0,0,0-.16.5,2.54,2.54,0,0,0-.1.52,5.7,5.7,0,0,0-.07,1.09c0,0.37,0,.74.06,1.1,0.07,0.72.18,1.4,0.25,2s0.13,1.09.19,1.44,0.06,0.55.06,0.55h0a0.22,0.22,0,0,1-.21.24,0.23,0.23,0,0,1-.22-0.13s-0.33-.74-0.7-1.91a15,15,0,0,1-.49-2,8.82,8.82,0,0,1-.12-1.21,6.65,6.65,0,0,1,.08-1.3,3.57,3.57,0,0,1,.15-0.65,3.62,3.62,0,0,1,.23-0.62,5.13,5.13,0,0,1,.66-1.09l0.39-.46,0.41-.38a8.08,8.08,0,0,1,.79-0.63,11.88,11.88,0,0,1,1.28-.76l0.5-.24a0.06,0.06,0,0,1,.09,0,0.07,0.07,0,0,1,0,.07" transform="translate(-159.3 -289.42)"/><path class="cls-8" d="M372.56,449c0.56-1,1.08-1.92,1.62-2.89s1.09-2,1.71-2.9c0.31-.47.64-0.93,1-1.38,0.18-.24.36-0.43,0.56-0.65s0.4-.41.6-0.61c0.81-.79,1.66-1.5,2.42-2.28l-0.11.38a29.61,29.61,0,0,0-3.89-8.86,25.05,25.05,0,0,0-2.93-3.84,32.89,32.89,0,0,0-3.77-3.06c-5.32-3.81-10.93-7.29-16.09-11.42a35.59,35.59,0,0,1-3.7-3.34l-0.82-.92-0.77-1c-0.52-.67-0.93-1.38-1.39-2.08a71.52,71.52,0,0,1-4.37-8.89c-1.29-3-2.47-6.1-3.74-9.12-0.63-1.51-1.29-3-2-4.48-0.35-.75-0.74-1.43-1.12-2.19a23.19,23.19,0,0,1-1.07-2.25,11.31,11.31,0,0,1-.91-5,29.62,29.62,0,0,1,1-4.89,29.42,29.42,0,0,0,.87-9.65,16.74,16.74,0,0,0-.89-4.71,14.32,14.32,0,0,0-2.44-4.1c-1-1.26-2.13-2.48-3.17-3.77s-2-2.63-3-3.91a18.51,18.51,0,0,0-7.79-5.48,70.82,70.82,0,0,0-9.47-2.47c-0.81-.18-1.6-0.35-2.42-0.57l-1.19-.33c-0.4-.13-0.79-0.28-1.19-0.42a25.68,25.68,0,0,1-4.48-2.24,32,32,0,0,1-7.5-6.55l0.73-.16a5.18,5.18,0,0,1-1.15,2.13,10.4,10.4,0,0,1-1.71,1.58,25.09,25.09,0,0,1-3.91,2.33,68.83,68.83,0,0,1-8.38,3.33c-2.85.95-5.73,1.79-8.61,2.58l-4.34,1.15c-1.45.39-2.89,0.73-4.32,1.15-0.73.19-1.4,0.45-2.11,0.68s-1.38.51-2.05,0.83a26.7,26.7,0,0,0-3.89,2.09,36.65,36.65,0,0,0-6.72,5.75c-2.06,2.15-4.06,4.37-6,6.62s-4,4.49-6,6.66h0l0.1-.19q-2.46,11.25-4.1,22.64c-0.55,3.79-.9,7.58-1.1,11.41s-0.3,7.66-.45,11.51-0.42,7.72-.9,11.57-1.38,7.64-1.85,11.4a104,104,0,0,0-.93,11.35c-0.07,3.8,0,7.61.28,11.4s0.71,7.58,1.34,11.33,1.35,7.5,2.21,11.21,1.89,7.39,3,11c0.27,0.91.58,1.82,0.86,2.73l0.44,1.36,0.11,0.34s0.07,0.21.11,0.31L233,490a32.93,32.93,0,0,0,2.34,5,57,57,0,0,0,6.68,9l7.66,8.6a77.79,77.79,0,0,0,8,8c2.86,2.36,5.94,4.37,9.44,5l-0.14,0,1.93,0.23,1,0.12,0.24,0h0.6c0.67,0,1.28,0,1.88,0s1.25-.05,1.87-0.1A61.52,61.52,0,0,0,282,524.8c2.52-.52,5-1.15,7.57-1.78l3.79-.94c1.22-.33,2.45-0.68,3.68-1.07a78.84,78.84,0,0,0,14.12-6,72.61,72.61,0,0,0,6.51-4l3.19-2.26,3-2.35c1-.81,2-1.65,3-2.48s1.92-1.73,2.88-2.59,1.87-1.78,2.79-2.69l1.38-1.37,1.33-1.41c0.89-.94,1.78-1.88,2.62-2.87s1.73-1.93,2.53-2.95,1.64-2,2.44-3l2.34-3.1,2.26-3.17c0.76-1.05,1.44-2.15,2.17-3.23s1.39-2.19,2.07-3.29l1-1.66,1-1.69c0.64-1.13,1.29-2.25,1.88-3.41s1.24-2.29,1.78-3.47,1.15-2.33,1.7-3.51l1.59-3.57v0l0.27-.6,0.45,0.51,0.6,0.69-0.51-.05a18.81,18.81,0,0,1,3.85-1.76c1.32-.46,2.66-0.83,4-1.17l-0.23.15a53.86,53.86,0,0,0,3.56-5.56m0.71,0.42a54.43,54.43,0,0,1-3.61,5.64l-0.09.12-0.14,0c-1.33.33-2.65,0.7-3.94,1.14a18,18,0,0,0-3.67,1.67l-0.3.19-0.21-.24-0.69-.79,0.71-.09v0l-1.44,3.66c-0.49,1.21-1,2.41-1.55,3.61s-1.12,2.37-1.68,3.56-1.17,2.35-1.79,3.51l-0.92,1.74-1,1.71c-0.65,1.14-1.28,2.29-2,3.4s-1.36,2.25-2.09,3.34l-2.19,3.28-2.31,3.2c-0.78,1.06-1.61,2.08-2.41,3.12s-1.68,2-2.51,3-1.72,2-2.6,3l-1.32,1.47-1.37,1.42c-0.92.94-1.82,1.91-2.79,2.8s-1.89,1.84-2.89,2.7-2,1.75-3,2.6l-3.11,2.5-3.15,2.33a75.43,75.43,0,0,1-6.75,4.26,81.71,81.71,0,0,1-14.59,6.36c-1.26.41-2.54,0.78-3.83,1.14l-3.8,1c-2.53.64-5.07,1.3-7.67,1.85a64.35,64.35,0,0,1-7.92,1.25c-0.68.06-1.34,0.1-2,.13s-1.4,0-2,0h-0.86l-0.24,0-1-.12-2-.24h-0.05l-0.09,0-0.7-.15-0.18,0-0.22-.07-0.37-.12a14.79,14.79,0,0,1-1.49-.51c-0.48-.2-1-0.4-1.43-0.62l-1.36-.72a35.05,35.05,0,0,1-4.92-3.49,80.61,80.61,0,0,1-8.25-8.35l-7.65-8.65a59.89,59.89,0,0,1-7-9.52,35.74,35.74,0,0,1-2.52-5.45l-0.24-.68-0.13-.37-0.11-.35-0.44-1.38c-0.28-.92-0.59-1.84-0.86-2.77-1.1-3.71-2.12-7.45-3-11.23s-1.64-7.58-2.18-11.42-1-7.7-1.22-11.57-0.26-7.76-.14-11.65a105.87,105.87,0,0,1,1.1-11.61c0.54-3.86,1.5-7.57,2-11.33s0.82-7.57,1-11.4,0.42-7.67.7-11.52,0.72-7.71,1.36-11.51q1.85-11.41,4.68-22.62l0-.11,0.08-.08h0c2.06-2.15,4-4.38,6-6.63s4-4.48,6-6.65a37.48,37.48,0,0,1,6.87-5.88,27.41,27.41,0,0,1,4-2.15c0.69-.33,1.4-0.57,2.11-0.85s1.44-.51,2.16-0.7c1.43-.42,2.91-0.77,4.34-1.16l4.33-1.15c2.88-.79,5.74-1.62,8.57-2.56a68.11,68.11,0,0,0,8.28-3.29,24.26,24.26,0,0,0,3.78-2.25,6.43,6.43,0,0,0,2.55-3.23l0.2-.8,0.53,0.63A31.28,31.28,0,0,0,300.1,329a24.94,24.94,0,0,0,4.32,2.16c0.38,0.13.74,0.28,1.13,0.4l1.19,0.33c0.76,0.2,1.58.38,2.38,0.56A71.32,71.32,0,0,1,318.7,335a19.31,19.31,0,0,1,8.15,5.74c1,1.29,2,2.64,3,3.89s2.13,2.48,3.18,3.77a15.17,15.17,0,0,1,2.57,4.33,17.5,17.5,0,0,1,.94,4.94,30.27,30.27,0,0,1-.9,9.89,29.2,29.2,0,0,0-1,4.74,10.48,10.48,0,0,0,.85,4.62,22.6,22.6,0,0,0,1,2.2c0.36,0.71.78,1.46,1.13,2.2,0.72,1.49,1.38,3,2,4.52,1.28,3,2.46,6.1,3.74,9.12a70.82,70.82,0,0,0,4.32,8.79c0.44,0.67.86,1.38,1.35,2l0.72,1,0.82,0.92a35.08,35.08,0,0,0,3.61,3.26c5.1,4.09,10.7,7.55,16.06,11.39a33.65,33.65,0,0,1,3.87,3.15,25.72,25.72,0,0,1,3,4,30.45,30.45,0,0,1,4,9.11l0.05,0.22-0.16.16c-0.79.81-1.65,1.53-2.43,2.29-0.19.19-.39,0.38-0.57,0.58s-0.36.4-.52,0.61c-0.34.42-.65,0.86-1,1.32-0.6.91-1.14,1.87-1.68,2.84s-1.06,2-1.63,2.92" transform="translate(-159.3 -289.42)"/><path class="cls-8" d="M161.61,617.06c0,0.2,0,.21,0,0" transform="translate(-159.3 -289.42)"/><path class="cls-8" d="M405.12,453.39c0.41-22.27-9.08-32.17-4.54-42.9s3.71-28.46-3.3-37.95-3.71-11.14-9.07-20.21-8.66-9.49-14.44-23.92-9.07-26.4-18.15-33-26.4-6.6-38.36-5.36A243.76,243.76,0,0,0,286.33,295c-8.66,2.06-23.1,9.9-33,16.5s-15.26,5-21,13.61-10.61,19.15-14.31,25c0.33-.27.64-0.56,1-0.83,2.59-1.9,5.15-3.56,7.59-5.28l3.57-2.53c0.57-.41,1.13-0.83,1.69-1.27s1-.85,1.54-1.3c2-1.8,3.88-3.61,5.58-5.27,3.41-3.34,6.26-6.13,8.22-8.1l3.11-3.09,0.6,0.57s-1.05,1.2-2.94,3.26-4.57,5-7.91,8.45c-1.67,1.72-3.48,3.58-5.5,5.48-0.5.48-1,.95-1.6,1.43s-1.11.89-1.69,1.34c-1.15.89-2.35,1.75-3.57,2.62-2.43,1.74-5,3.48-7.49,5.31a36,36,0,0,0-6.37,6.63c-1.82,2.45-3.3,5.25-3.45,8.06,0,0.66,0,1.48,0,2.25s0,1.58,0,2.35c0,1.54,0,3.06,0,4.56,0,3,0,5.86.14,8.56a28.34,28.34,0,0,0,1.16,7.36,47.05,47.05,0,0,0,2.68,5.83,34,34,0,0,1,2.13,4.65,10.69,10.69,0,0,1,.63,3.31,7.62,7.62,0,0,1,0,.9c0,0.2,0,.31,0,0.31l-0.82-.07s0-.1,0-0.28a6.8,6.8,0,0,0,0-.81,10.43,10.43,0,0,0-.75-3,33,33,0,0,0-2.26-4.39,40.16,40.16,0,0,1-3-5.9,29.69,29.69,0,0,1-1.48-7.8c-0.23-2.77-.31-5.68-0.34-8.67q0-2.24-.07-4.54,0-1.14-.07-2.29c0-.5-0.05-1-0.06-1.52a45.86,45.86,0,0,0-.75,5.35c-1.24,14.44,5,14.85-3.3,26s-13.2,12-11.55,29.29,7.42,12.79,10.31,23.92-7.42,16.09-3.3,24.33,9.07,10.31,8.25,17.32-3.71,25.57-4.54,30.11-5.58,12.37-11,19-21.54,15.26-22.37,26,3.71,13.2,0,20.62-13.61,16.09-9.9,24.34a16.17,16.17,0,0,1,1.49,4.46c0-.65.43-3.31,4.28-6.52,7.43-6.19,13.61-7.42,14.85-3.71s-4.95,6.19-9.07,14-12.37,21-5,26,2.89-.82,3.71-7,0.82-11.55,11.14-11.14,13.61-1.24,17.74-2.89c3.31-1.32,3.71-5.56,7.35-7a6.84,6.84,0,0,1-1.81-.2,14.23,14.23,0,0,1-4-1.75,27.82,27.82,0,0,1-3.49-2.55,36.84,36.84,0,0,1-3.15-3,23.69,23.69,0,0,1-2.8-3.46,9.34,9.34,0,0,1-1.49-4.43,13.69,13.69,0,0,1,.61-4.49c0.39-1.4.86-2.73,1.3-4s0.84-2.59,1.25-3.88c0.83-2.6,1.79-5,2.72-7.31s1.83-4.44,2.68-6.42c1.69-4,3.2-7.21,4.24-9.5l1.67-3.57,0.75,0.34-1.5,3.64c-1,2.31-2.3,5.64-3.9,9.61-0.8,2-1.65,4.15-2.52,6.45s-1.75,4.73-2.56,7.25c-0.4,1.27-.79,2.59-1.23,3.91s-0.88,2.64-1.24,4a12.11,12.11,0,0,0-.52,3.91,7.73,7.73,0,0,0,1.26,3.61,22.19,22.19,0,0,0,2.58,3.22,35,35,0,0,0,3,2.89,26.1,26.1,0,0,0,3.25,2.42,12.67,12.67,0,0,0,3.48,1.58,9.85,9.85,0,0,0,3.63,0l3.75-.52c1.23-.16,2.45-0.29,3.63-0.35,0.59,0,1.17-.05,1.74-0.05h0.38l0.41,0a3.64,3.64,0,0,0,.76-0.09,8.18,8.18,0,0,0,1.35-.39,12.47,12.47,0,0,0,1.27-.62,14.37,14.37,0,0,0,2.19-1.52,22.91,22.91,0,0,0,3.07-3.16,23.16,23.16,0,0,0,1.66-2.32c0.35-.56.51-0.87,0.51-0.87l0.74,0.37s-0.15.34-.49,0.94a21.13,21.13,0,0,1-1.62,2.49,24.07,24.07,0,0,1-3.1,3.43,15.68,15.68,0,0,1-2.31,1.73,9.08,9.08,0,0,1-3.08,1.25,4.74,4.74,0,0,1-.85.12l-0.41,0H218c-0.54,0-1.1,0-1.67.08-1.13.09-2.3,0.24-3.51,0.42l-2.55.41c7,0.63,18.35,10.58,21.62,0s6.6-15.67,7.42-21.86,0.41-.82-7.84.41-0.82-2.48,1.24-8.66,1.65-16.91,10.31-21.45,15.26-6.19,20.62-6.19,13.2-2.06,13.61-4.54,0-16.91-2.06-21.45-3-6.05-5-6.95c-11.7-5.38-19.67-10.05-26.54-18.85-8.86-11.34-10.92-18.46-17-32.17-7.35-16.44-3.3-47.3-1.37-60.49,0.92-6.34,4-30.25,3.57-34.37s3.15-17.14,4.4-20.35c3.83-9.84,4.13-4.68,9.77-12.42,4.3-5.9,9.07-9.9,18.56-12.37s29.52-7.35,30.93-13.61c0,0,5.77,7.42,14.44,9.49,6.73,1.6,12.22,2.22,16.84,5.9l-0.87-1.4c-0.6-.92-1.32-2-2.15-3.05a17.65,17.65,0,0,0-1.35-1.57,17.1,17.1,0,0,0-1.58-1.4c-1.13-.91-2.35-1.75-3.49-2.54s-2.22-1.52-3.15-2.13l-3.09-2.06,0.41-.72s1.35,0.66,3.31,1.76a61.13,61.13,0,0,1,7,4.5,17,17,0,0,1,1.77,1.53,18.52,18.52,0,0,1,1.44,1.71,26.34,26.34,0,0,1,2.05,3.33c0.54,1,.92,1.87,1.18,2.47s0.38,1,.38,1l-0.15.07a21.5,21.5,0,0,1,2.13,2.53c5.36,7.42,8.66,7.84,8.66,17.74,0,9.36-4,11-.66,18.09,0.43-1.79,1.1-4.52,2-7.85,0.39-1.52.86-3.15,1.33-4.88l0.74-2.64,0.74-2.76a23,23,0,0,0,.86-5.61,22.75,22.75,0,0,0-.86-5.77c-0.5-1.95-1.23-3.88-1.9-5.79s-1.45-3.77-2.18-5.57c-1.47-3.62-2.87-7-4-9.92-0.58-1.46-1.07-2.81-1.51-4l-1.12-3.11c-0.31-.87-0.51-1.56-0.65-2.06,0-.13-0.06-0.23-0.08-0.35a1,1,0,0,1,0-.27,0.72,0.72,0,0,1,0-.11l0-.05a0.45,0.45,0,0,1,.44-0.26l0.09,0a0.52,0.52,0,0,1,.15.07,0.59,0.59,0,0,1,.11.11,1.6,1.6,0,0,1,.13.22l0,0.05a0.4,0.4,0,0,1,0,.26h0c0.18,0.43.49,1.08,0.86,1.91l1.4,3,1.85,3.85c1.35,2.82,2.92,6.13,4.55,9.69,0.8,1.8,1.6,3.68,2.39,5.6a61.61,61.61,0,0,1,2.07,6,22.48,22.48,0,0,1,.95,6.51,22.75,22.75,0,0,1-1.08,6.26L342,363.59c-0.29.93-.59,1.78-0.88,2.63-0.58,1.7-1.12,3.31-1.65,4.78-1.41,4-2.58,7.08-3.19,8.64,4.51,8.26,8.22,22.62,14.39,28.78,4.45,4.45,13.1,9.62,18.72,13.65l-0.72-1a36.18,36.18,0,0,0-2.57-3c-1.06-1.1-2.31-2.28-3.69-3.58s-2.93-2.66-4.52-4.18-3.27-3.14-4.87-5A26.62,26.62,0,0,1,348.8,399a36.4,36.4,0,0,1-2.35-7.5c-0.54-2.54-1-5-1.52-7.42l-0.31-2c0-.65-0.06-1.3-0.09-1.94s0-1.27,0-1.89,0-1.24.1-1.85c0.14-2.44.51-4.74,0.84-6.92l0.57-3.16,0.62-2.93c0.81-3.75,1.69-6.82,2.29-9s1-3.36,1-3.36l0.8,0.21-0.64,3.43c-0.42,2.18-.94,5.31-1.53,9-0.29,1.87-.56,3.9-0.83,6.05s-0.48,4.41-.56,6.74a28.64,28.64,0,0,0,.38,6.95c0.56,2.43,1.06,5,1.58,7.42a33.72,33.72,0,0,0,2.1,7,25.36,25.36,0,0,0,3.69,5.9c1.48,1.78,3,3.46,4.53,5l4.28,4.42c1.33,1.38,2.5,2.71,3.49,3.94a37.25,37.25,0,0,1,2.4,3.31c0.32,0.47.56,0.92,0.78,1.3s0.39,0.72.52,1l0.41,0.83h0a16.29,16.29,0,0,1,2.81,2.62c1.08,1.42,2,2.67,2.79,3.8-0.54-1.66-1.13-3.34-1.74-5-0.95-2.5-1.88-5.05-2.9-7.58l-5.95-14.91L365,398.91c-0.43-1.15-.88-2.27-1.24-3.46s-0.66-2.33-.94-3.44-0.4-2.24-.48-3.31a26.55,26.55,0,0,1,0-5.83,24,24,0,0,1,.92-4.38,18.46,18.46,0,0,1,1.05-2.68c0.16-.3.27-0.52,0.36-0.68l0.13-.23,0.75,0.34-0.07.24c0,0.15-.09.38-0.16,0.69-0.13.61-.29,1.52-0.43,2.67a32.41,32.41,0,0,0-.2,4.16c0,0.8,0,1.65.11,2.54,0,0.45.11,0.9,0.16,1.37s0.12,0.94.2,1.42a36.55,36.55,0,0,0,1.54,6.13c0.35,1,.78,2.18,1.21,3.34l1.34,3.51c1.85,4.77,3.88,9.85,5.77,15a159.82,159.82,0,0,1,5,15.39c0.31,1.27.61,2.52,0.79,3.8a15.86,15.86,0,0,1,.23,1.91c0.07,0.66.08,1.21,0.1,1.81,0.1,2.29.35,4.49,0.48,6.57a29.33,29.33,0,0,1-.07,5.74,21.5,21.5,0,0,1-1,4.32,27.27,27.27,0,0,1-1,2.63l-0.41.91-0.76-.33,0.32-.92a26.1,26.1,0,0,0,.78-2.61,21.54,21.54,0,0,0,.65-4.14,27.7,27.7,0,0,0-.29-5.43c-0.23-1.71-.53-3.58-0.74-5.57a6.52,6.52,0,0,0-3.25,3.56c-2.45,7.16-4.65,9.09-4.65,9.09s-9.77,3.12-11.3,6.47S356,481.85,354.8,486s-6.6,9.07-10.31,13.2-11.14,11.64-12,17.37a63.89,63.89,0,0,0-.83,15.22c0.41,5.36,4.54,7.42-1.24,13.61s-15.67,14.85-20.21,16.91-19.8,4.95-19.8,4.95-9.86,4.95-8,18.15c1,6.87,2.75,10.38,3.27,13a10.9,10.9,0,0,1,.38-1.55,16.37,16.37,0,0,1,1.9-4,25.13,25.13,0,0,1,3.55-4.4c0.71-.76,1.53-1.45,2.35-2.21l2.64-2.15c1.84-1.44,3.6-3,5.49-4.69a53.16,53.16,0,0,1,6.1-5.07,20.69,20.69,0,0,1,3.74-2,27.78,27.78,0,0,1,4-1.18c1.36-.29,2.72-0.48,4.08-0.66l4-.38c2.65-.22,5.2-0.49,7.7-0.82s4.89-.69,7.15-1.08,4.39-.84,6.34-1.33,3.71-1,5.26-1.46c0.77-.25,1.5-0.49,2.14-0.74s1.26-.48,1.78-0.72,1-.45,1.4-0.65a10,10,0,0,0,1-.54l0.81-.48,0.48,0.67-0.81.57a10.94,10.94,0,0,1-1,.64,14.38,14.38,0,0,1-1.41.77c-0.53.28-1.13,0.57-1.8,0.85s-1.38.58-2.16,0.88-1.61.58-2.49,0.89-1.82.58-2.81,0.84c-2,.57-4.11,1.06-6.39,1.57s-4.7.95-7.22,1.3-5.14.71-7.78,0.95l-4,.39c-1.3.18-2.61,0.37-3.88,0.65a27.12,27.12,0,0,0-3.71,1.07,18.59,18.59,0,0,0-3.36,1.73,57.53,57.53,0,0,0-5.93,4.8c-1.9,1.66-3.85,3.26-5.72,4.61l-2.66,2c-0.8.7-1.63,1.33-2.32,2a28,28,0,0,0-3.56,4,15.24,15.24,0,0,0-2,3.58,10.2,10.2,0,0,0-.64,2.52,4,4,0,0,0,0,.88l-0.7.11c-0.29,1.46-1.31,2.88-3.54,4.86-7,6.19-11.55-5.78-9.9,12,1.08,11.61,3.4,14.38,5.1,18l0-.09a28.41,28.41,0,0,1-.68-4.64,21.38,21.38,0,0,1,.09-3.38,14.64,14.64,0,0,1,.94-3.94,11.22,11.22,0,0,1,2.65-3.87l3.5-3.41c2.46-2.36,5.16-4.89,8.08-7.51s6.06-5.32,9.54-7.88a47.8,47.8,0,0,1,4.93-3.26c0-.25-0.08-0.54-0.1-0.87a11.06,11.06,0,0,1,.06-2.28,14,14,0,0,1,.25-1.39,13,13,0,0,1,.49-1.5l0.34-.78c0.12-.26.28-0.51,0.42-0.77a11.35,11.35,0,0,1,1-1.52,19,19,0,0,1,1.33-1.43c0.52-.41,1-0.88,1.59-1.25a19,19,0,0,1,3.69-1.91c1.24-.49,2.57-1,3.89-1.4a62.7,62.7,0,0,1,7.89-1.92c2.53-.47,4.86-0.92,6.85-1.34s3.64-.85,4.79-1.15l1.81-.48L341,578.4l-1.78.63c-1.14.39-2.78,0.91-4.77,1.46s-4.34,1.08-6.83,1.65a71.11,71.11,0,0,0-7.64,2.11c-1.28.43-2.5,0.91-3.76,1.43a18.38,18.38,0,0,0-3.29,1.74c-0.5.32-.92,0.74-1.37,1.09s-0.8.79-1.12,1.22a10.64,10.64,0,0,0-.88,1.29c-0.13.22-.27,0.43-0.38,0.65l-0.3.65c-0.22.42-.34,0.86-0.51,1.26s-0.26.81-.35,1.19a18.29,18.29,0,0,0-.39,2l0,0.18,0.2-.1,0.43-.22,0.38-.16c0.51-.21,1-0.44,1.53-0.65,1.09-.39,2.21-0.81,3.28-1.11,4.35-1.33,8.79-2.36,13.25-3.31s8.93-1.8,13.34-2.59c2.2-.4,4.39-0.77,6.55-1.12l3.21-.53,0.79-.14,0.2,0,0.1,0h0l0.37-.09a11.25,11.25,0,0,0,1.49-.41c0.45-.17.88-0.29,1.35-0.5l1.4-.59c0.92-.43,1.84-0.84,2.73-1.31s1.77-.92,2.63-1.41,1.7-1,2.52-1.47a92.58,92.58,0,0,0,9-6.09q2-1.53,3.66-3.07c0.55-.51,1-1,1.55-1.55l0.65-.79a4.71,4.71,0,0,0,.58-0.77l0.49-.77,0.44-.88,0.8-1.67c0.51-1.07.95-2.07,1.34-3,0.78-1.82,1.35-3.26,1.74-4.24l0.58-1.51,0.79,0.24-0.45,1.58c-0.3,1-.77,2.53-1.44,4.41-0.34.94-.72,2-1.16,3.1l-0.71,1.75-0.38.91-0.54,1a5.78,5.78,0,0,1-.62.95l-0.69.92c-0.51.56-1,1.16-1.58,1.73-1.12,1.13-2.34,2.26-3.67,3.38a88.32,88.32,0,0,1-9,6.54c-0.84.53-1.68,1.06-2.57,1.56s-1.77,1-2.69,1.51-1.88,1-2.84,1.43l-1.5.65c-0.49.22-1.09,0.4-1.63,0.6a13.8,13.8,0,0,1-1.6.45l-0.39.1-0.48.09-0.8.14-3.22.56-6.53,1.12c-4.39.75-8.85,1.56-13.27,2.46s-8.84,1.89-13,3.15c-1.07.3-2,.66-3,1-0.51.2-1,.42-1.52,0.63l-0.38.16-0.3.16-0.7.36a50.67,50.67,0,0,0-5.35,3.33c-3.44,2.4-6.6,5-9.56,7.51s-5.7,5-8.21,7.26l-3.64,3.26a9.62,9.62,0,0,0-2.42,3.25,16.35,16.35,0,0,0-1.21,6.71,28.42,28.42,0,0,0,.42,4.5c0.18,1,.32,1.57.32,1.57L278,637a22.5,22.5,0,0,1,1.3,6.5c0.82,11.14,4.95,12,.82,18.56s7.42,2.89,10.31-8.66,4.54-24.34,14.44-30.11,14.85-9.07,27.22-10.72,20.62-2.06,26.81-4.54a11.46,11.46,0,0,1,1.66-.59l-0.07-.14,1-.6c0.62-.38,1.49-0.94,2.52-1.63s2.22-1.51,3.45-2.45a32.76,32.76,0,0,0,3.6-3.13,21.75,21.75,0,0,0,1.56-1.83c0.5-.63,1-1.26,1.44-1.89,0.92-1.24,1.76-2.43,2.47-3.45l2.37-3.41,0.73,0.39a38.16,38.16,0,0,1-1.89,3.78c-0.62,1.1-1.4,2.37-2.3,3.68-0.45.65-.94,1.32-1.46,2a20.9,20.9,0,0,1-3.62,3.67c-0.66.53-1.32,1-2,1.48-1.32.91-2.59,1.67-3.7,2.28s-2.07,1.07-2.73,1.39-1.07.47-1.07,0.47l-0.24-.47c-0.77.85-8.76,5.74-15.33,13.25-8.66,9.9-12.61,31.76-18.68,40.83s-6.89,10.31-11.84,12.37,13.2,9.07,23.1,0,16.91-24.75,23.51-33.82,12.57-19,19.9-25.57,9-10.31,9-20.21,5.36-15.26,6.6-23.51,6.6-4.54,0-17.74S380,523.6,379.14,516.54s1.65-21.91,7-29.74,18.56-11.14,19-33.41m-201.57,2.94,2.2-17.92a9.46,9.46,0,0,1,.69-5.59l-0.69,5.59c0.49,2.46,1.92,4.22,1.92,6.79,0,4.12-4.12,11.14-4.12,11.14m-5.43,90.77a15.69,15.69,0,0,1-1.63,1.65l-0.21.18-0.24.2-0.41.33c-0.27.22-.53,0.46-0.8,0.7q-0.79.72-1.54,1.5c-2,2.07-3.89,4.32-5.75,6.57s-3.65,4.52-5.47,6.78q-0.86,3-1.64,6c-0.51,2-1,4-1.37,6.08-0.09.51-.16,1-0.21,1.5l0,0.77a3.78,3.78,0,0,1-.15.88,4,4,0,0,1-.31.79,4.68,4.68,0,0,1-.41.72,5.72,5.72,0,0,1-.48.66,7.42,7.42,0,0,1-.52.62,20.44,20.44,0,0,1-2.34,2.18A29.77,29.77,0,0,1,172,587l-0.44-.7a29.29,29.29,0,0,0,2.5-1.81,19.66,19.66,0,0,0,2.24-2.09,7,7,0,0,0,.49-0.58,5.16,5.16,0,0,0,.44-0.61,3.87,3.87,0,0,0,.36-0.63,3.1,3.1,0,0,0,.26-0.66,2.91,2.91,0,0,0,.12-0.66l0-.79c0.06-.55.13-1.09,0.22-1.6,0.36-2.08.87-4.11,1.38-6.14s1.08-4,1.67-6.05h0l0-.06,0-.07c1.68-2.41,3.41-4.78,5.17-7.14s3.62-4.65,5.62-6.85q0.76-.82,1.57-1.61c0.28-.26.55-0.52,0.84-0.77l0.44-.37,0.18-.15,0.2-.18a13.44,13.44,0,0,0,1.44-1.5c0.46-.55.9-1.1,1.33-1.68,0.87-1.15,1.68-2.35,2.49-3.56s1.57-2.45,2.32-3.7c1.49-2.5,3-5,4.3-7.6,0.68-1.29,1.31-2.59,1.9-3.9,0.15-.33.27-0.66,0.41-1l0.19-.46,0.17-.52c0.26-.71.39-1.36,0.58-2a45,45,0,0,0,.92-8.58c0-1.45.06-2.91,0-4.37s-0.08-2.9-.08-4.42h0.83c0.11,1.41.27,2.91,0.37,4.37s0.18,2.95.2,4.43a46.43,46.43,0,0,1-.65,8.92,19.5,19.5,0,0,1-.58,2.21l-0.17.52-0.22.56c-0.14.35-.27,0.7-0.42,1q-0.89,2.06-1.9,4c-1.34,2.64-2.77,5.22-4.33,7.73q-1.16,1.88-2.39,3.73c-0.83,1.22-1.68,2.44-2.59,3.63-0.45.6-.93,1.18-1.41,1.75m25.64,60.54a30.7,30.7,0,0,1-4.35,2.79c-0.49.24-1,.49-1.54,0.71a17.06,17.06,0,0,1-1.72.63,9.1,9.1,0,0,1-4.17.42,7.15,7.15,0,0,1-2.19-.81A12.06,12.06,0,0,1,208,610a35.2,35.2,0,0,1-3-3.08c-0.94-1.06-1.85-2.09-2.75-3.15a9.49,9.49,0,0,1-2-4,11.28,11.28,0,0,1-.17-4.11,15.8,15.8,0,0,1,.87-3.46,21.85,21.85,0,0,1,2.38-4.64,16.2,16.2,0,0,1,1.18-1.58l0.67,0.48s-0.34.59-.86,1.67a27.38,27.38,0,0,0-1.73,4.59,16.49,16.49,0,0,0-.55,3.14,10.18,10.18,0,0,0,.3,3.39,7.89,7.89,0,0,0,1.65,3.09l2.72,3.13c0.91,1,1.83,2.06,2.77,2.94a10.08,10.08,0,0,0,1.44,1.14,5.07,5.07,0,0,0,1.51.62,7.23,7.23,0,0,0,3.29-.19c0.6-.15,1.08-0.29,1.6-0.46s1-.37,1.48-0.56a32.07,32.07,0,0,0,4.41-2.25c1-.62,1.59-1,1.59-1l0.52,0.64s-0.52.5-1.5,1.26m2.86-13.33c0,0.31-.08.69-0.16,1.13a10.43,10.43,0,0,1-.37,1.44,11.3,11.3,0,0,1-.7,1.64c-0.16.27-.32,0.56-0.5,0.85s-0.4.55-.62,0.83-0.46.54-.73,0.79-0.53.49-.85,0.72-0.66.48-1,.64l-0.45.24-0.23.12-0.11.06-0.08,0h0l-0.07,0c-0.36.13-.71,0.28-1.08,0.4s-0.74.19-1.12,0.25-0.75.08-1.12,0.08-0.73,0-1.08-.05a9.79,9.79,0,0,1-2-.45,10.93,10.93,0,0,1-2.89-1.5c-0.36-.25-0.65-0.5-0.89-0.7s-0.41-.38-0.53-0.5l-0.18-.19,0.55-.62,0.2,0.13,0.57,0.35a13.47,13.47,0,0,0,2.15,1,10.27,10.27,0,0,0,3.15.69c0.29,0,.58,0,0.88,0s0.59-.08.88-0.11,0.58-.15.87-0.21,0.56-.22.85-0.33l0.05,0h0l0.09-.05,0.23-.12,0.45-.24c0.3-.16.49-0.33,0.74-0.48a11.15,11.15,0,0,0,1.33-1.18c0.2-.22.37-0.44,0.56-0.66l0.49-.68c0.29-.46.55-0.91,0.77-1.35a14.78,14.78,0,0,0,.88-2.2l0.19-.64,0.06-.22,0.82,0.05s0,0.1,0,.27a6.75,6.75,0,0,1,0,.74m24.75-64.35c0.37-.74.76-1.44,1.1-2.11l1-1.89c0.61-1.17,1.12-2.14,1.45-2.81,0.15-.33.28-0.61,0.31-0.73s0,0,0,0h0s0,0,0,.06a0.31,0.31,0,0,0,.08.12,0.68,0.68,0,0,0,.13.08,0.34,0.34,0,0,0,.19,0l0.06,0a0.21,0.21,0,1,0,.07,0l-0.56-.61a0.42,0.42,0,0,1,.2-0.14l0.1,0a0.53,0.53,0,0,1,.24,0,0.38,0.38,0,0,1,.17.11,0.6,0.6,0,0,1,.11.17,0.39,0.39,0,0,1,0,.12v0.07a0.9,0.9,0,0,1,0,.15,5.08,5.08,0,0,1-.16,1,30.29,30.29,0,0,1-1,3.12c-0.46,1.26-1.05,2.7-1.72,4.23-0.36.78-.69,1.54-1.09,2.34s-0.82,1.6-1.26,2.38-0.91,1.55-1.37,2.3-0.95,1.47-1.43,2.16c-1,1.38-1.92,2.62-2.78,3.65s-1.63,1.85-2.19,2.4-0.9.86-.9,0.86l-0.62-.54,2.37-3.7c0.7-1.12,1.51-2.42,2.36-3.81l1.3-2.17c0.43-.74.87-1.49,1.3-2.26s0.85-1.51,1.25-2.26l1.19-2.24m-8.84-1.18,1.35-3c0.88-2,1.68-3.78,2.35-5.36l2.31-5.23,0.77,0.29-0.48,1.5c-0.32,1-.77,2.31-1.35,3.93s-1.3,3.5-2.08,5.5-1.69,4.12-2.7,6.21a34,34,0,0,1-1.64,3.1l-0.49.76-0.49.68c-0.33.45-.67,0.9-1,1.32-1.33,1.71-2.65,3.24-3.82,4.52s-2.2,2.29-3,3a11.85,11.85,0,0,1-.92.78c-0.24.17-.38,0.26-0.38,0.26l-0.46-.69,0.26-.25c0.18-.18.43-0.46,0.76-0.83,0.65-.74,1.54-1.85,2.6-3.19s2.27-2.92,3.53-4.63l0.94-1.3,0.48-.68,0.41-.66c0.54-.92,1.06-1.93,1.56-2.94s1-2.05,1.44-3.07m-7.15-9.12c1-2.53,1.85-4.94,2.57-7s1.31-3.8,1.7-5l0.63-1.91,0.8,0.2-0.4,2c-0.28,1.26-.7,3-1.25,5.19s-1.3,4.61-2.2,7.23c-0.21.66-.46,1.32-0.72,2s-0.5,1.35-.79,2a42.07,42.07,0,0,1-1.86,4.05l-0.53,1-0.6,1a15.26,15.26,0,0,1-1.34,1.89c-0.91,1.12-1.83,2.2-2.72,3.25-1.79,2.09-3.47,4-4.95,5.65s-2.73,3-3.61,3.9-1.4,1.45-1.4,1.45l-0.64-.53s0.41-.61,1.17-1.65,1.83-2.53,3.16-4.27,2.91-3.77,4.63-5.91l2.66-3.29a16.93,16.93,0,0,0,1.17-1.66l0.55-.89,0.51-.94c0.35-.62.65-1.27,1-1.91s0.61-1.29.89-1.94c0.58-1.29,1.1-2.6,1.59-3.87m-11.28-1.09,1.73-2.43,0.42-.6,0.35-.57a9.75,9.75,0,0,0,.64-1.19,36.66,36.66,0,0,0,2-5c0.52-1.65,1-3.23,1.35-4.7,0.77-2.94,1.35-5.41,1.72-7.15l0.58-2.73,0.82,0.13s-0.1,1-.35,2.8c-0.13.89-.29,2-0.5,3.19s-0.43,2.62-.77,4.13-0.71,3.13-1.18,4.84a38.18,38.18,0,0,1-1.85,5.34,11.57,11.57,0,0,1-.7,1.37l-0.4.68-0.41.61-1.68,2.47c-1.13,1.66-2.3,3.33-3.47,5s-2.35,3.34-3.53,5-2.34,3.23-3.52,4.75-2.3,3-3.48,4.35-2.31,2.52-3.37,3.65c-2.08,2.24-3.87,4.06-5.1,5.35l-2,2-0.62-.55,1.75-2.19c1.13-1.38,2.72-3.38,4.69-5.72l3.15-3.77c1.06-1.34,2.16-2.82,3.28-4.36l7-9.71,3.51-5m9-158.34c-0.55.58-1.29,1.46-2.19,2.5s-1.86,2.31-2.84,3.7c-0.48.7-1,1.43-1.39,2.19a12.68,12.68,0,0,0-.62,1.16c-0.21.39-.36,0.79-0.53,1.2-0.33.83-.64,1.73-1,2.58L223.62,376a27.26,27.26,0,0,0-1.81,7.68L221.7,385h-0.82s0-.12,0-0.34,0-.54,0-1a23.52,23.52,0,0,1,.16-3.43,28.11,28.11,0,0,1,1.1-4.74l0.87-2.55c0.32-.86.6-1.71,0.94-2.61a12,12,0,0,1,.59-1.34,14.15,14.15,0,0,1,.69-1.26,22,22,0,0,1,1.54-2.29,35.6,35.6,0,0,1,3.18-3.65c1-1,1.88-1.77,2.5-2.31s1-.81,1-0.81l0.55,0.62-0.86.93m75.8-66.29c-0.21.07-.53,0.17-0.91,0.32a15.71,15.71,0,0,0-3,1.43,24.73,24.73,0,0,0-3.71,2.89l-2,1.87c-0.7.64-1.4,1.32-2.13,2l-0.54.48-0.43.44-0.42.43-0.35.48a5.8,5.8,0,0,0-.61,1,6.87,6.87,0,0,0-.47,1,10.7,10.7,0,0,0-.33,1.07c-0.08.36-.13,0.73-0.2,1.08s-0.07.72-.09,1.07,0,0.69,0,1a22,22,0,0,0,.35,3.3l0.18,0.95,0.07,0.34-0.73.39a3,3,0,0,1-.24-0.29,8.74,8.74,0,0,1-.6-0.86,12.32,12.32,0,0,1-1.48-3.47c-0.1-.38-0.16-0.8-0.24-1.23s-0.08-.89-0.11-1.36,0-1,.09-1.47a9.35,9.35,0,0,1,.33-1.52,7.61,7.61,0,0,1,.61-1.51l0.39-.74c0.14-.24.33-0.45,0.49-0.68l0.51-.67,0.59-.59,0.6-.58L295,300c0.73-.64,1.5-1.23,2.25-1.84s1.5-1.2,2.26-1.74,1.51-1.07,2.29-1.5a17,17,0,0,1,2.26-1.08,13.17,13.17,0,0,1,3.63-.81c0.44,0,.78,0,1-0.05h0.36l0.13,0.82-0.33.12m67.66,44.77-0.15-.11a3.35,3.35,0,0,1-.4-0.35,10.77,10.77,0,0,1-1.2-1.41,48.67,48.67,0,0,1-3.36-5.43c-0.64-1.15-1.28-2.42-2-3.75s-1.35-2.78-2-4.25a43,43,0,0,0-2.26-4.28,48.39,48.39,0,0,0-2.89-4.1c-1-1.34-2.18-2.65-3.25-4s-2.13-2.79-3.08-3.85a24.52,24.52,0,0,0-3.36-2.94c-1.17-.85-2.32-1.62-3.42-2.28s-2.12-1.25-3-1.74-1.73-.92-2.41-1.25c-1.35-.68-2.13-1-2.13-1l0.28-.77s0.86,0.23,2.31.73a51.85,51.85,0,0,1,5.89,2.46,41.33,41.33,0,0,1,3.76,2.11,26.3,26.3,0,0,1,3.88,3c1.27,1.33,2.2,2.58,3.34,3.87s2.24,2.61,3.35,4a36.85,36.85,0,0,1,3.08,4.37,34.6,34.6,0,0,1,2.32,4.64l1.81,4.32,1.64,3.85c1,2.38,1.92,4.34,2.61,5.65a13.87,13.87,0,0,0,.85,1.45,5.17,5.17,0,0,0,.34.42ZM365.67,495c-0.29.61-.57,1.23-0.9,1.79a28.36,28.36,0,0,1-2.16,3.34c-1.59,2.12-3.38,4-4.84,5.94a19.56,19.56,0,0,0-1.84,3,15.4,15.4,0,0,0-.64,1.61c-0.08.26-.19,0.57-0.26,0.79l-0.22.88a56.21,56.21,0,0,0-1,6.73c-0.21,2.19-.46,4.29-0.79,6.22a37,37,0,0,1-1.21,5.22c-0.23.77-.54,1.46-0.78,2.11l-0.82,1.73-0.78,1.33c-0.23.39-.48,0.68-0.65,0.93l-0.56.76-0.66-.49,0.46-.78a22.63,22.63,0,0,0,1.18-2.25l0.66-1.69c0.18-.64.44-1.3,0.6-2.05a36.29,36.29,0,0,0,.94-5.06c0.24-1.88.36-4,.55-6.16a49.13,49.13,0,0,1,.93-7l0.21-.88c0.1-.36.2-0.63,0.3-1a17.41,17.41,0,0,1,.71-1.83,21,21,0,0,1,2.07-3.37c1.59-2.09,3.38-3.92,4.89-5.91a26.18,26.18,0,0,0,2-3.1,24.58,24.58,0,0,0,1.57-3.35c0.2-.53.35-1.13,0.53-1.69s0.25-1.18.39-1.76,0.21-1.18.3-1.78,0.19-1.18.23-1.77c0.27-2.36.36-4.67,0.43-6.86s0-4.27,0-6.19c0-3.84-.19-7-0.32-9.28s-0.21-3.52-.21-3.52l0.82-.08s0.7,5.11,1.1,12.84c0.09,1.93.14,4,.14,6.25s-0.05,4.57-.27,7a29.56,29.56,0,0,1-1.45,7.52c-0.25.59-.43,1.17-0.74,1.78M381,497.36c-1.09,2.47-2.35,5.35-3.65,8.45l-2,4.78c-0.65,1.63-1.32,3.3-1.9,5-0.28.78-.56,1.71-0.79,2.53s-0.47,1.69-.68,2.54c-0.44,1.7-.86,3.38-1.22,5-0.76,3.27-1.42,6.33-2,9l-0.71,3.59c-0.21,1.07-.37,2-0.5,2.77s-0.21,1.38-.25,1.78l-0.07.63h-0.82l0-.67c0-.44,0-1.06,0-1.86s0.1-1.76.19-2.86,0.25-2.34.41-3.69c0.36-2.69.88-5.81,1.57-9.14,0.35-1.66.75-3.37,1.18-5.11,0.23-.86.46-1.74,0.73-2.62s0.51-1.7.84-2.61c0.61-1.74,1.32-3.41,2-5s1.42-3.23,2.15-4.76c1.45-3.06,2.84-5.89,4-8.31l3-5.79,1.19-2.18,0.74,0.36L381,497.36" transform="translate(-159.3 -289.42)"/><path class="cls-8" d="M329.07,318h0" transform="translate(-159.3 -289.42)"/><path class="cls-8" d="M329,437.45c-2.14,0-4.29,0-6.44,0s-4.3,0-6.45.11-4.3.16-6.45,0.23l-6.45.3-6.45.3-3.22.15-1.61.08-0.8,0h-0.93a9.7,9.7,0,0,1-6.79-3.56,11.7,11.7,0,0,1-2.64-7.11l0,0.29L278,412.47l-1.39-7.89-0.34-2-0.17-1-0.09-.57c0-.18,0-0.3-0.07-0.53l-0.06-.7,0-.64c0-.42,0-0.85,0-1.27a13.52,13.52,0,0,1,.46-2.54,12,12,0,0,1,2.54-4.69c0.17-.18.29-0.33,0.5-0.53l0.18-.18,0.28-.26a11.23,11.23,0,0,1,1.11-.87,10.83,10.83,0,0,1,2.51-1.29,10.68,10.68,0,0,1,2.82-.6l0.68,0h0.5l1,0,4-.1c2.67-.06,5.34-0.12,8-0.13s5.34,0,8,.08l16,0.43,4,0.11,2,0.06,0.5,0h0.41l0.25,0a12,12,0,0,1,1.37.21,10.66,10.66,0,0,1,4.77,2.5,11.91,11.91,0,0,1,2.93,4.21c0.16,0.39.29,0.79,0.42,1.19s0.22,0.81.29,1.22a10.88,10.88,0,0,1,.16,1.24l0,0.62v0.08a0.32,0.32,0,0,1,0,.18v0.41l0,0.5v0.4l0,0.25-0.11,1-0.21,2-0.86,8q-0.87,8-1.68,15.93v-0.11l-0.07,1c0,0.32-.1.64-0.15,1s-0.15.63-.23,0.95-0.21.62-.31,0.92a9.27,9.27,0,0,1-.39.89,8.86,8.86,0,0,1-.47.85,10.59,10.59,0,0,1-1.16,1.56,9.85,9.85,0,0,1-1.44,1.32,9.74,9.74,0,0,1-.82.55c-0.27.18-.58,0.31-0.87,0.46s-0.61.24-.92,0.36-0.63.17-1,.26-0.65.1-1,.15Zm0-2.27,0.7-.06,0.7-.15c0.23-.08.46-0.14,0.68-0.23s0.44-.19.65-0.3,0.42-.23.61-0.37a6.88,6.88,0,0,0,.57-0.43,6.12,6.12,0,0,0,.53-0.49,6.45,6.45,0,0,0,.48-0.54,8,8,0,0,0,.79-1.21,6.29,6.29,0,0,0,.31-0.65,6.68,6.68,0,0,0,.25-0.68c0.06-.23.15-0.46,0.19-0.7s0.11-.47.13-0.71,0.06-.48.07-0.72v-0.84q0.38-8,.67-16l0.32-8,0.08-2,0-1v-0.34c0-.15,0,0.17,0,0.12v-0.63a7,7,0,0,0-.73-2.83,6.62,6.62,0,0,0-1.76-2.2,5.12,5.12,0,0,0-2.32-1,4.76,4.76,0,0,0-.61,0H331l-0.5,0-2,.06-4,.11-16,.43c-2.67,0-5.34.1-8,.08s-5.34-.06-8-0.13l-4-.1-1.82-.05a4.14,4.14,0,0,0-1.1.16,4.4,4.4,0,0,0-1.08.47,5.27,5.27,0,0,0-.49.33l-0.1.07-0.19.17s-0.14.13-.2,0.19a5.85,5.85,0,0,0-1.37,2.22,7.47,7.47,0,0,0-.33,1.38c0,0.24-.05.48-0.07,0.72v0.67c0,0.1,0,.31,0,0.46v0.17l0,0.25,0.11,1,0.23,2,0.88,8,1.76,15.93,0,0.21V428a7.88,7.88,0,0,0,1.45,4.88,6.72,6.72,0,0,0,1.85,1.75,5.83,5.83,0,0,0,2.29.85l0.68,0.05h2.42l3.23,0,6.45,0,6.45,0c2.15,0,4.3,0,6.45,0s4.3-.07,6.45-0.15,4.3-.17,6.45-0.25h0Z" transform="translate(-159.3 -289.42)"/><path class="cls-8" d="M221.56,435.19l5.88,0.25c2,0.07,3.95.13,5.92,0.15,3.95,0.06,7.9,0,11.85,0l5.93,0,3,0h1.72l0.37,0,0.36,0,0.22-.06a5,5,0,0,0,1.94-1,6.66,6.66,0,0,0,1.51-1.79,8.69,8.69,0,0,0,1.12-4.67V427.9l0-.19,1.61-16.89,0.81-8.44,0.1-1.06,0.05-.53,0-.26s0,0.11,0,0v-0.23a6.69,6.69,0,0,0,0-.81c0-.27,0-0.53,0-0.8a7.68,7.68,0,0,0-.89-2.89,5.21,5.21,0,0,0-.79-1.08l-0.05-.06,0,0,0,0,0,0-0.19-.19-0.21-.17a3.88,3.88,0,0,0-.5-0.34,3.13,3.13,0,0,0-1-.38,2.53,2.53,0,0,0-.49,0l-0.8,0c-2.82.08-5.65,0.16-8.48,0.21-1.41,0-2.83.05-4.24,0s-2.83,0-4.24,0c-2.83,0-5.65-.13-8.48-0.21l-8.48-.24-4.24-.12-1.06,0a5.64,5.64,0,0,0-.74,0h-0.15l-0.28.07a3.51,3.51,0,0,0-.56.2,5.15,5.15,0,0,0-2,1.81,7.77,7.77,0,0,0-1.17,2.91c0,0.13,0,.27-0.06.41l0,0.2v0.1a0.88,0.88,0,0,1,0-.11v0.1l0,0.92,0.07,2.12,0.13,4.24,0.53,17,0.15,4.28a8.21,8.21,0,0,0,0,1,6.44,6.44,0,0,0,.12.87,9.17,9.17,0,0,0,.51,1.75c0.9,2.24,2.89,4.08,5.22,4.16h0.07Zm-0.05,2.26h0a7.67,7.67,0,0,1-4.69-1.53,10.06,10.06,0,0,1-3.06-3.75,11.93,11.93,0,0,1-.81-2.27,12.34,12.34,0,0,1-.35-2.35l-0.4-4.18-1.72-16.88L210,402.27l-0.22-2.11-0.07-1.2v-0.44l0-.32c0-.22,0-0.43,0-0.65a13,13,0,0,1,1.61-5,10.69,10.69,0,0,1,4-4,9.31,9.31,0,0,1,1.38-.64l0.74-.24,0.89-.18a6.43,6.43,0,0,1,.66-0.08l0.26,0h0.44l1.06,0,4.24-.12,8.48-.24c2.83-.08,5.65-0.17,8.48-0.21,1.41,0,2.83,0,4.24,0s2.83,0,4.24,0c2.83,0,5.65.13,8.48,0.21l0.53,0c0.21,0,.53,0,0.79,0a9.11,9.11,0,0,1,1.6.3,9.66,9.66,0,0,1,2.86,1.33,11.13,11.13,0,0,1,3.76,4.45,13.73,13.73,0,0,1,1.28,5.25c0,0.44,0,.88,0,1.32s-0.07,1-.12,1.3l0,0.33,0,0.26-0.08.52-0.17,1L268,411.48l-2.75,16.74,0-.25a12.39,12.39,0,0,1-2.08,6.57,10.06,10.06,0,0,1-2.48,2.55,8.22,8.22,0,0,1-3.41,1.43l-0.51.07-0.38,0h-0.87l-1.48-.07-3-.15-5.92-.3c-3.95-.2-7.89-0.4-11.84-0.52-2-.07-3.95-0.09-5.92-0.11h-5.89Z" transform="translate(-159.3 -289.42)"/><path class="cls-8" d="M273.12,400a20.21,20.21,0,0,1,6.37,1v-8.73H266.75V401a20.21,20.21,0,0,1,6.37-1" transform="translate(-159.3 -289.42)"/><path class="cls-8" d="M339.87,402.29c1,0,10.52,2.68,10.52,2.68l-4.54-7.63-6.39-2.06Z" transform="translate(-159.3 -289.42)"/></g></g></g></g></g></g></g></svg>