<svg xmlns="http://www.w3.org/2000/svg" xmlns:xlink="http://www.w3.org/1999/xlink" viewBox="0 0 433.4 502.2"><defs><style>.cls-1,.cls-10,.cls-11,.cls-12,.cls-8,.cls-9{fill:none;}.cls-2{isolation:isolate;}.cls-3{clip-path:url(#clip-path);}.cls-4{mix-blend-mode:multiply;}.cls-5{clip-path:url(#clip-path-3);}.cls-6{clip-path:url(#clip-path-4);}.cls-7{fill:#0a0a09;}.cls-10,.cls-11,.cls-12,.cls-8,.cls-9{stroke:#0a0a09;}.cls-11,.cls-8{stroke-miterlimit:10;}.cls-12,.cls-8{stroke-width:1.54px;}.cls-10,.cls-12,.cls-9{stroke-linecap:round;stroke-linejoin:round;}.cls-11,.cls-9{stroke-width:2.06px;}.cls-10{stroke-width:6.16px;}</style><clipPath id="clip-path" transform="translate(97.37 -261.33)"><rect class="cls-1" x="-53.33" y="217.7" width="345.33" height="525"/></clipPath><clipPath id="clip-path-3" transform="translate(97.37 -261.33)"><rect class="cls-1" x="-62.33" y="210.7" width="363.33" height="533"/></clipPath><clipPath id="clip-path-4" transform="translate(97.37 -261.33)"><rect class="cls-1" x="-53.33" y="258.87" width="345.33" height="483.83"/></clipPath></defs><title>human1</title><g class="cls-2"><g id="Layer_1" data-name="Layer 1"><g class="cls-3"><g class="cls-3"><g class="cls-4"><g class="cls-5"><g class="cls-6"><path class="cls-7" d="M98.74,471.22a12.65,12.65,0,0,0-1-.94,9.8,9.8,0,0,0-3.2-1.81,18.64,18.64,0,0,0-5.87-.82A22.82,22.82,0,0,0,81,468.75c-2.75.84-5.74,2.2-9.22,2.89a29,29,0,0,1-5.35.67,11.82,11.82,0,0,1-5.74-1.24c-1.78-.93-3.17-2-4.83-2.36a10.54,10.54,0,0,0-5.22.37,9.18,9.18,0,0,0-4.42,2.81,2.64,2.64,0,0,0-.57,2.12,6,6,0,0,0,1.13,2.3,16.64,16.64,0,0,0,4.14,3.79,15,15,0,0,0,5.14,2.22,61.52,61.52,0,0,0,11.13,1.78,48.17,48.17,0,0,0,10.53-.39,74.47,74.47,0,0,0,9.26-2,32.12,32.12,0,0,0,7.39-2.82,14.55,14.55,0,0,0,4.52-3.77c1-1.3.91-2.38,0.58-3a4.34,4.34,0,0,0-.68-0.88Zm1-1.22,0.07,0.08,0.29,0.32a3.58,3.58,0,0,1,.72,1.05,2.44,2.44,0,0,1,.3.93,3.23,3.23,0,0,1,0,1.17,5.41,5.41,0,0,1-1.1,2.4A15.86,15.86,0,0,1,95,480a35.81,35.81,0,0,1-7.72,2.84,75.53,75.53,0,0,1-9.43,2,52,52,0,0,1-10.77.53,62.8,62.8,0,0,1-11.42-1.66,18.06,18.06,0,0,1-2.9-.9,19.92,19.92,0,0,1-2.71-1.44,18.12,18.12,0,0,1-4.6-4.11,7.58,7.58,0,0,1-1.47-3,4.36,4.36,0,0,1,.82-3.44,10.81,10.81,0,0,1,5.26-3.52,12.33,12.33,0,0,1,6.17-.5c2.14,0.42,3.81,1.72,5.31,2.45,3,1.55,6.58.9,9.83,0.33s6.12-1.89,9-2.76a23.68,23.68,0,0,1,8.27-1,20.38,20.38,0,0,1,6.4,1,11.55,11.55,0,0,1,3.7,2.19,11,11,0,0,1,.95.93" transform="translate(97.37 -261.33)"/><path class="cls-8" d="M96.31,468.62a27.36,27.36,0,0,1-3.54,0c-4-.27-13.54,4.38-18.68,5.39s-14.94,0-18.91-2.19c-2.18-1.21-5.85-1.49-8.71-1.5A4.37,4.37,0,0,0,44.53,474c0.35,3.33,5.76,7.72,9.9,8.87a61,61,0,0,0,17,2.12,69.78,69.78,0,0,0,20.07-4c4-1.42,11.57-6.47,7.54-10.15A10.78,10.78,0,0,0,96.31,468.62Z" transform="translate(97.37 -261.33)"/><path class="cls-7" d="M96.61,468.33s1.13,3.64,0,4.5-0.23.69,0.7,1.38a5.87,5.87,0,0,1,1.4,2.76s2.1-2.07,2.1-3.27-2.1-3.27-2.57-4.14a3.09,3.09,0,0,0-1.59-1.23" transform="translate(97.37 -261.33)"/><path class="cls-7" d="M47.44,470.3s-0.93,3.34,0,4.27a0.85,0.85,0,0,1-.23,1.48v2.41c0,0.74-2.85-3-2.47-3.91s0.14-3.13,2.71-4.25" transform="translate(97.37 -261.33)"/><path class="cls-7" d="M49.31,485.23a3.28,3.28,0,0,1,.33.37l0.8,1.1a15.07,15.07,0,0,0,3.15,3.17,14,14,0,0,0,2.56,1.48,18.26,18.26,0,0,0,3.13,1.11,12.87,12.87,0,0,0,1.73.38,14.21,14.21,0,0,0,1.81.25c1.2,0.13,2.52.21,3.79,0.27a45.06,45.06,0,0,0,7.44-.24,25.5,25.5,0,0,0,6.28-1.41,26.33,26.33,0,0,0,4.17-1.91c1-.54,1.52-0.89,1.52-0.89l0.55,0.79s-0.51.42-1.46,1.08c-0.47.33-1.07,0.71-1.77,1.12a20.61,20.61,0,0,1-2.44,1.24A27.16,27.16,0,0,1,74.32,495a46.08,46.08,0,0,1-7.79.39,35.42,35.42,0,0,1-3.93-.27,15.81,15.81,0,0,1-1.95-.31,14.67,14.67,0,0,1-1.88-.45A16.29,16.29,0,0,1,55.34,493a15.89,15.89,0,0,1-2.76-1.85,12.81,12.81,0,0,1-1.95-2,15.77,15.77,0,0,1-1.19-1.77c-0.29-.49-0.51-0.94-0.61-1.13a2.62,2.62,0,0,0-.24-0.37Z" transform="translate(97.37 -261.33)"/><path class="cls-7" d="M52.92,411s-0.24-.63-0.69-1.68a15.67,15.67,0,0,0-.94-1.77,8,8,0,0,0-.69-1,9.22,9.22,0,0,0-.83-1.07,16.57,16.57,0,0,0-5.07-3.9,32.49,32.49,0,0,0-7-2.55l-0.91-.23-1-.18c-0.59-.09-1.2-0.15-1.84-0.2a27.44,27.44,0,0,0-3.69-.06,20.55,20.55,0,0,0-3.39.41,6.93,6.93,0,0,0-2.65,1.13,3.63,3.63,0,0,0-.8.87,2.51,2.51,0,0,0-.31,1,5,5,0,0,0,.23,1.88l0.71,1.63-0.29.19s-0.39-.54-1-1.57a5.69,5.69,0,0,1-.56-2.18,3.5,3.5,0,0,1,.25-1.46,4.11,4.11,0,0,1,1-1.32,8.23,8.23,0,0,1,3.06-1.65,18.35,18.35,0,0,1,3.66-.73,28.3,28.3,0,0,1,3.95-.11c0.67,0,1.36.09,2.08,0.18l1,0.17,1,0.24a28.32,28.32,0,0,1,7.48,2.83,16.33,16.33,0,0,1,3,2.18,15.55,15.55,0,0,1,2.25,2.51A11.32,11.32,0,0,1,52.34,407a16.79,16.79,0,0,1,.75,2c0.18,0.57.23,1,.3,1.32l0.09,0.47Z" transform="translate(97.37 -261.33)"/><path class="cls-9" d="M35.83,406.28a3.56,3.56,0,0,0,.79,2.59l-0.31-1.11A27.14,27.14,0,0,1,38,410.44a1.89,1.89,0,0,1-.54-0.71l0.4,0.82a0.17,0.17,0,0,1,0,.15,0.19,0.19,0,0,1-.16.06,2.06,2.06,0,0,1-1.36-.81,15.31,15.31,0,0,0-1.82-1.58l0.7,0.78-0.45-1a1.59,1.59,0,0,1,.71.57,2.23,2.23,0,0,1-.27-1.9,12.13,12.13,0,0,1,.38,1.58A5.94,5.94,0,0,1,35.83,406.28Z" transform="translate(97.37 -261.33)"/><path class="cls-9" d="M37.38,406.18a0.34,0.34,0,0,0-.08.37,0.67,0.67,0,0,0,.44-0.51q0.07,1.07.13,2.15a5.1,5.1,0,0,0,.43-1.49,0.67,0.67,0,0,1,.09.52c0,0.18.17,0.41,0.35,0.32a0.32,0.32,0,0,0,.13-0.17,5.19,5.19,0,0,0,.43-1.61l0.14,0.78" transform="translate(97.37 -261.33)"/><path class="cls-9" d="M37.8,406.69c-0.1,0,0,.19.11,0.17a0.43,0.43,0,0,0,.22-0.21,0.22,0.22,0,0,1,.26-0.1,0.23,0.23,0,0,1,.07.1l0.24,0.47a0.21,0.21,0,0,0,.11.12A0.22,0.22,0,0,0,39,407a7.27,7.27,0,0,0,.17-0.95,1.34,1.34,0,0,1,.36.44c0.17,0.07.3-.15,0.33-0.32a4.12,4.12,0,0,0,0-1.08c0,0.54.09,1.07,0.14,1.61,0.08,0.06.17-.07,0.18-0.16a6,6,0,0,0,0-1.54,10,10,0,0,0,.16,1.42l0.22,0a4.94,4.94,0,0,0,0-1.47l0.09,0.2a4.49,4.49,0,0,0-.06-1.28c0-.09-0.11-0.21-0.19-0.14l0-.34a0.59,0.59,0,0,0,.35-0.21" transform="translate(97.37 -261.33)"/><path class="cls-9" d="M42.13,401.48l0,0.22a0.36,0.36,0,0,0,.45-0.31,3.87,3.87,0,0,0-.09,1,0.54,0.54,0,0,0,.46-0.27,2.39,2.39,0,0,0-.46,1.12,1.05,1.05,0,0,0,.56-0.31l-0.7,2.11a1.14,1.14,0,0,0,.64-0.18l0.22,0.88a0.52,0.52,0,0,0,.15.29,0.21,0.21,0,0,0,.3,0,3.29,3.29,0,0,1,.09.76c0.18-.51.33-1,0.45-1.55" transform="translate(97.37 -261.33)"/><path class="cls-10" d="M35.8,403.48a0.4,0.4,0,0,1-.14.55,1.39,1.39,0,0,1-.64.18,0.9,0.9,0,0,1,.62.55,0.29,0.29,0,0,0-.18.35c0,0.25,0,.5,0,0.75" transform="translate(97.37 -261.33)"/><path class="cls-10" d="M41.84,404.88a1.26,1.26,0,0,1-.73,1,0.4,0.4,0,0,1-.22,0l-0.18-.06a0.46,0.46,0,0,0-.37.17,4.78,4.78,0,0,0-.76.9l-0.13-.28" transform="translate(97.37 -261.33)"/><path class="cls-10" d="M44,406.31a1.51,1.51,0,0,1-.88.86,14,14,0,0,0-2.36,1.67" transform="translate(97.37 -261.33)"/><path class="cls-10" d="M45.6,404.74q-0.07,1-.23,2a0.44,0.44,0,0,1-.24.39" transform="translate(97.37 -261.33)"/><path class="cls-10" d="M43.62,404.08q0.18,1.63.37,3.27a2.08,2.08,0,0,1-.07,1.08,2,2,0,0,1-.46.58A4,4,0,0,1,41,410.19a1.13,1.13,0,0,1-.35,0,1.52,1.52,0,0,1-.33-0.16,7.72,7.72,0,0,0-2.59-.93" transform="translate(97.37 -261.33)"/><line class="cls-10" x1="132.03" y1="144.28" x2="132.34" y2="145.41"/><path class="cls-10" d="M35.27,407.11a3.67,3.67,0,0,0,1.66,1.18,5.16,5.16,0,0,1,.93.36,0.79,0.79,0,0,0,.75.2" transform="translate(97.37 -261.33)"/><path class="cls-10" d="M37.86,404.61c0,0.54.1,1.07,0.14,1.61" transform="translate(97.37 -261.33)"/><path class="cls-7" d="M52,402.89a11.18,11.18,0,0,0-.84-1,7.33,7.33,0,0,0-.91-0.86,10.22,10.22,0,0,0-1.14-.9l-2.36-1.52c-0.67-.41-1.1-0.73-1.1-0.73l0,0a0.56,0.56,0,0,1-.11-0.79,0.57,0.57,0,0,1,.44-0.23,5.36,5.36,0,0,1,1.46.23,7.84,7.84,0,0,1,2.88,1.44,7.71,7.71,0,0,1,2.18,2.5,4.94,4.94,0,0,1,.49,1.4,0.54,0.54,0,1,1-1,.47" transform="translate(97.37 -261.33)"/><path class="cls-7" d="M30.11,393.78l-0.36.15a5,5,0,0,0-.86.37,7.37,7.37,0,0,0-1.12.6,9.61,9.61,0,0,0-1.23.79l-2.2,1.74c-0.6.5-1,.81-1,0.81l0,0a0.56,0.56,0,0,1-.87-0.61,5.13,5.13,0,0,1,.68-1.34A7.6,7.6,0,0,1,25.39,394a8,8,0,0,1,3.07-1.26,5.18,5.18,0,0,1,1.47,0,0.54,0.54,0,0,1,.69.82,0.55,0.55,0,0,1-.14.08Z" transform="translate(97.37 -261.33)"/><path class="cls-7" d="M49.16,413.24a14.23,14.23,0,0,1-2.82,1,20.94,20.94,0,0,1-6.53.68,23.83,23.83,0,0,1-3.5-.46,12.53,12.53,0,0,1-1.57-.42,12.16,12.16,0,0,1-1.37-.48,13.8,13.8,0,0,1-2-.93l-0.71-.4a0.45,0.45,0,0,1,.33-0.82h0l0.76,0.2c0.47,0.16,1.15.33,2,.51a22,22,0,0,0,2.81.5,21.79,21.79,0,0,0,3.25.25,40.44,40.44,0,0,0,6.12-.34c1.68-.22,2.76-0.44,2.76-0.44a0.59,0.59,0,0,1,.4,1.11" transform="translate(97.37 -261.33)"/><path class="cls-7" d="M26.91,396.66s-6,2.2-8.44-.18-0.48,2,.64,3.15,4.3,3.8,4.3,3.8-4-3.27,3.5-6.77" transform="translate(97.37 -261.33)"/><path class="cls-7" d="M53.43,387.25a1.5,1.5,0,0,0,.08-0.34,6.33,6.33,0,0,0,.09-0.84,4.45,4.45,0,0,0-.09-1.19l0-.12a0.73,0.73,0,0,1,1.21-.7,6.45,6.45,0,0,1,1.07,1.35,9,9,0,0,1,.53,1,4.25,4.25,0,0,1,.2.53l0.15,0.5a1.72,1.72,0,1,1-3.22-.23" transform="translate(97.37 -261.33)"/><path class="cls-7" d="M51.9,385.39a1.5,1.5,0,0,0,.08-0.34,6.33,6.33,0,0,0,.09-0.84A4.45,4.45,0,0,0,52,383l0-.12a0.73,0.73,0,0,1,1.21-.7,6.49,6.49,0,0,1,1.07,1.35,9.11,9.11,0,0,1,.53,1,4.34,4.34,0,0,1,.2.53l0.15,0.5a1.72,1.72,0,1,1-3.22-.23" transform="translate(97.37 -261.33)"/><path class="cls-7" d="M50.43,383.87a1.5,1.5,0,0,0,.08-0.34,6.33,6.33,0,0,0,.09-0.84,4.45,4.45,0,0,0-.09-1.19l0-.12a0.73,0.73,0,0,1,1.21-.7A6.49,6.49,0,0,1,52.78,382a9.11,9.11,0,0,1,.53,1,4.34,4.34,0,0,1,.2.53l0.15,0.5a1.72,1.72,0,1,1-3.22-.23" transform="translate(97.37 -261.33)"/><path class="cls-7" d="M49.22,383a1.5,1.5,0,0,0,.08-0.34,6.33,6.33,0,0,0,.09-0.84,4.46,4.46,0,0,0-.09-1.19l0-.12a0.73,0.73,0,0,1,1.21-.7,6.49,6.49,0,0,1,1.07,1.35,9,9,0,0,1,.53,1,4.25,4.25,0,0,1,.2.53l0.15,0.5a1.72,1.72,0,1,1-3.22-.23" transform="translate(97.37 -261.33)"/><path class="cls-7" d="M47.86,381.5a1.5,1.5,0,0,0,.08-0.34,6.33,6.33,0,0,0,.09-0.84,4.45,4.45,0,0,0-.09-1.19l0-.12a0.73,0.73,0,0,1,1.21-.7,6.49,6.49,0,0,1,1.07,1.35,9,9,0,0,1,.53,1,4.25,4.25,0,0,1,.2.53l0.15,0.5a1.72,1.72,0,1,1-3.22-.23" transform="translate(97.37 -261.33)"/><path class="cls-7" d="M46.6,380.64a1.5,1.5,0,0,0,.08-0.34,6.33,6.33,0,0,0,.09-0.84,4.45,4.45,0,0,0-.09-1.19l0-.12a0.73,0.73,0,0,1,1.21-.7,6.45,6.45,0,0,1,1.07,1.35,9.11,9.11,0,0,1,.53,1,4.34,4.34,0,0,1,.2.53l0.15,0.5a1.72,1.72,0,1,1-3.22-.23" transform="translate(97.37 -261.33)"/><path class="cls-7" d="M44.91,379.69a1.5,1.5,0,0,0,.08-0.34,6.33,6.33,0,0,0,.09-0.84,4.45,4.45,0,0,0-.09-1.19l0-.12a0.73,0.73,0,0,1,1.21-.7,6.49,6.49,0,0,1,1.07,1.35,9,9,0,0,1,.53,1,4.25,4.25,0,0,1,.2.53l0.15,0.5a1.72,1.72,0,1,1-3.22-.23" transform="translate(97.37 -261.33)"/><path class="cls-7" d="M44.28,378.95a1.5,1.5,0,0,0,.08-0.34,6.41,6.41,0,0,0,.09-0.84,4.46,4.46,0,0,0-.09-1.19l0-.12a0.73,0.73,0,0,1,1.21-.7,6.45,6.45,0,0,1,1.07,1.35,9,9,0,0,1,.53,1,4.25,4.25,0,0,1,.2.53l0.15,0.5a1.72,1.72,0,1,1-3.22-.23" transform="translate(97.37 -261.33)"/><path class="cls-7" d="M43,377.77a1.5,1.5,0,0,0,.08-0.34,6.33,6.33,0,0,0,.09-0.84,4.46,4.46,0,0,0-.09-1.19l0-.12a0.73,0.73,0,0,1,1.21-.7,6.38,6.38,0,0,1,1.07,1.35,9,9,0,0,1,.53,1,4.25,4.25,0,0,1,.2.53l0.15,0.5a1.72,1.72,0,1,1-3.22-.23" transform="translate(97.37 -261.33)"/><path class="cls-7" d="M41.81,377.53a1.5,1.5,0,0,0,.08-0.34,6.41,6.41,0,0,0,.09-0.84,4.46,4.46,0,0,0-.09-1.19l0-.12a0.73,0.73,0,0,1,1.21-.7,6.45,6.45,0,0,1,1.07,1.35,9,9,0,0,1,.53,1,4.25,4.25,0,0,1,.2.53l0.15,0.5a1.72,1.72,0,1,1-3.22-.23" transform="translate(97.37 -261.33)"/><path class="cls-7" d="M40.54,377a1.5,1.5,0,0,0,.08-0.34,6.33,6.33,0,0,0,.09-0.84,4.45,4.45,0,0,0-.09-1.19l0-.12a0.73,0.73,0,0,1,1.21-.7,6.45,6.45,0,0,1,1.07,1.35,9,9,0,0,1,.53,1,4.25,4.25,0,0,1,.2.53l0.15,0.5a1.72,1.72,0,1,1-3.22-.23" transform="translate(97.37 -261.33)"/><path class="cls-7" d="M40.14,377a1.28,1.28,0,0,0,0-.33,5.57,5.57,0,0,0-.12-0.8,4.1,4.1,0,0,0-.38-1.08l-0.06-.11a0.73,0.73,0,0,1,1-1,6,6,0,0,1,1.39,1,8.32,8.32,0,0,1,.78.85A4.26,4.26,0,0,1,43,376l0.31,0.51a1.75,1.75,0,1,1-3.2.54" transform="translate(97.37 -261.33)"/><path class="cls-7" d="M39.53,376.21a1,1,0,0,0-.1-0.3,5.34,5.34,0,0,0-.36-0.69,3.77,3.77,0,0,0-.7-0.85l-0.1-.09A0.73,0.73,0,0,1,38.8,373a5.62,5.62,0,0,1,1.63.42,7.74,7.74,0,0,1,1,.52,3.85,3.85,0,0,1,.46.32l0.54,0.45a1.79,1.79,0,1,1-2.92,1.52" transform="translate(97.37 -261.33)"/><path class="cls-7" d="M38.45,375.95a1,1,0,0,0-.13-0.28,5.2,5.2,0,0,0-.44-0.64,3.75,3.75,0,0,0-.8-0.74L37,374.21a0.73,0.73,0,0,1,.36-1.35,5.57,5.57,0,0,1,1.67.19,7.7,7.7,0,0,1,1.07.38,3.75,3.75,0,0,1,.5.25l0.63,0.39a1.81,1.81,0,1,1-2.73,1.86" transform="translate(97.37 -261.33)"/><path class="cls-7" d="M37.39,376a0.94,0.94,0,0,0-.18-0.25,4.72,4.72,0,0,0-.53-0.56,3.73,3.73,0,0,0-.91-0.61l-0.12-.05a0.73,0.73,0,0,1,.14-1.39,5.52,5.52,0,0,1,1.67-.07,7.07,7.07,0,0,1,1.12.21,3.65,3.65,0,0,1,.54.17l0.71,0.3A1.82,1.82,0,1,1,37.39,376" transform="translate(97.37 -261.33)"/><path class="cls-7" d="M35.54,376a0.94,0.94,0,0,0-.18-0.25,4.8,4.8,0,0,0-.53-0.56,3.74,3.74,0,0,0-.91-0.61l-0.12-.05a0.73,0.73,0,0,1,.14-1.39,5.52,5.52,0,0,1,1.67-.07,7.3,7.3,0,0,1,1.12.21,3.65,3.65,0,0,1,.54.17l0.71,0.3A1.82,1.82,0,1,1,35.54,376" transform="translate(97.37 -261.33)"/><path class="cls-7" d="M34.5,376.3a0.92,0.92,0,0,0-.2-0.23,5,5,0,0,0-.6-0.49,3.71,3.71,0,0,0-1-.5l-0.12,0a0.74,0.74,0,0,1-.49-0.92,0.75,0.75,0,0,1,.46-0.48,5.64,5.64,0,0,1,1.65-.26,7.26,7.26,0,0,1,1.14.07,3.75,3.75,0,0,1,.55.11l0.74,0.22a1.82,1.82,0,1,1-2.17,2.51" transform="translate(97.37 -261.33)"/><path class="cls-7" d="M33.06,376.7a0.91,0.91,0,0,0-.2-0.23,5,5,0,0,0-.6-0.49,3.71,3.71,0,0,0-1-.5l-0.12,0a0.74,0.74,0,0,1-.49-0.92,0.75,0.75,0,0,1,.46-0.48,5.64,5.64,0,0,1,1.65-.26,7.26,7.26,0,0,1,1.14.07,3.75,3.75,0,0,1,.55.11l0.74,0.22a1.82,1.82,0,1,1-2.17,2.51" transform="translate(97.37 -261.33)"/><path class="cls-7" d="M31.61,377.13a0.92,0.92,0,0,0-.2-0.23,5,5,0,0,0-.6-0.49,3.73,3.73,0,0,0-1-.5l-0.12,0a0.73,0.73,0,0,1-.48-0.92,0.74,0.74,0,0,1,.46-0.48,5.64,5.64,0,0,1,1.65-.26,7.26,7.26,0,0,1,1.14.07,3.75,3.75,0,0,1,.55.11l0.74,0.22a1.82,1.82,0,1,1-2.17,2.51" transform="translate(97.37 -261.33)"/><path class="cls-7" d="M30.21,377.37a0.91,0.91,0,0,0-.2-0.23,5,5,0,0,0-.6-0.49,3.71,3.71,0,0,0-1-.5l-0.12,0a0.73,0.73,0,0,1-.48-0.92,0.74,0.74,0,0,1,.46-0.48,5.64,5.64,0,0,1,1.65-.26,7.26,7.26,0,0,1,1.14.07,3.75,3.75,0,0,1,.55.11l0.74,0.22a1.82,1.82,0,1,1-2.17,2.51" transform="translate(97.37 -261.33)"/><path class="cls-7" d="M28.79,377.7a0.91,0.91,0,0,0-.2-0.23A5,5,0,0,0,28,377a3.71,3.71,0,0,0-1-.5l-0.12,0a0.74,0.74,0,0,1-.49-0.92,0.75,0.75,0,0,1,.46-0.48,5.64,5.64,0,0,1,1.65-.26,7.26,7.26,0,0,1,1.14.07,3.75,3.75,0,0,1,.55.11L31,375.19a1.82,1.82,0,1,1-2.17,2.51" transform="translate(97.37 -261.33)"/><path class="cls-7" d="M27.16,378a0.15,0.15,0,0,0,0-.15,2.45,2.45,0,0,0-.24-0.33,2.24,2.24,0,0,0-.43-0.39L26.13,377a0.72,0.72,0,0,1-.2-1,0.76,0.76,0,0,1,.19-0.19,3.78,3.78,0,0,1,1-.45,4.58,4.58,0,0,1,.72-0.16,1.64,1.64,0,0,1,.38,0,1.54,1.54,0,0,1-1,2.9" transform="translate(97.37 -261.33)"/><path class="cls-7" d="M26.36,378.43a0.15,0.15,0,0,0,0-.15,2.45,2.45,0,0,0-.24-0.33,2.24,2.24,0,0,0-.43-0.39l-0.32-.22a0.72,0.72,0,0,1-.2-1,0.76,0.76,0,0,1,.19-0.19,3.78,3.78,0,0,1,1-.45,4.58,4.58,0,0,1,.72-0.16,1.64,1.64,0,0,1,.38,0,1.54,1.54,0,0,1-1,2.9" transform="translate(97.37 -261.33)"/><path class="cls-7" d="M25.53,378.91a0.15,0.15,0,0,0,0-.15,2.45,2.45,0,0,0-.24-0.33,2.24,2.24,0,0,0-.43-0.39l-0.32-.22a0.72,0.72,0,0,1-.2-1,0.76,0.76,0,0,1,.19-0.19,3.78,3.78,0,0,1,1-.45A4.58,4.58,0,0,1,26.2,376a1.71,1.71,0,0,1,.38,0,1.54,1.54,0,0,1-1,2.9" transform="translate(97.37 -261.33)"/><path class="cls-7" d="M25,379.48a0.15,0.15,0,0,0,0-.15,2.45,2.45,0,0,0-.24-0.33,2.24,2.24,0,0,0-.43-0.39L24,378.4a0.72,0.72,0,0,1-.2-1,0.76,0.76,0,0,1,.19-0.19,3.78,3.78,0,0,1,1-.45,4.58,4.58,0,0,1,.72-0.16,1.64,1.64,0,0,1,.38,0,1.54,1.54,0,0,1-1,2.9" transform="translate(97.37 -261.33)"/><path class="cls-7" d="M24.86,379.28a0.15,0.15,0,0,0,0-.15,2.45,2.45,0,0,0-.24-0.33,2.33,2.33,0,0,0-.43-0.39l-0.32-.22a0.72,0.72,0,0,1-.2-1,0.76,0.76,0,0,1,.19-0.19,3.78,3.78,0,0,1,1-.45,4.58,4.58,0,0,1,.72-0.16,1.64,1.64,0,0,1,.38,0,1.54,1.54,0,0,1-1,2.9" transform="translate(97.37 -261.33)"/><path class="cls-7" d="M23.91,379.59a0.15,0.15,0,0,0,0-.15,2.45,2.45,0,0,0-.24-0.33,2.33,2.33,0,0,0-.43-0.39l-0.32-.22a0.72,0.72,0,0,1-.2-1,0.76,0.76,0,0,1,.19-0.19,3.78,3.78,0,0,1,1-.45,4.58,4.58,0,0,1,.72-0.16,1.71,1.71,0,0,1,.38,0,1.54,1.54,0,0,1-1,2.9" transform="translate(97.37 -261.33)"/><path class="cls-7" d="M23.31,378.92a0.12,0.12,0,0,0,0-.14,2.25,2.25,0,0,0-.21-0.33,2,2,0,0,0-.39-0.39l-0.36-.26a0.69,0.69,0,0,1-.17-1,0.71,0.71,0,0,1,.17-0.17,3.4,3.4,0,0,1,1-.46,4.12,4.12,0,0,1,.75-0.13,1.65,1.65,0,0,1,.39,0,1.54,1.54,0,0,1-1.17,2.85" transform="translate(97.37 -261.33)"/><path class="cls-7" d="M22.42,379.31a0.12,0.12,0,0,0,0-.14,2.31,2.31,0,0,0-.21-0.33,2,2,0,0,0-.39-0.39l-0.36-.26a0.69,0.69,0,0,1-.17-1,0.73,0.73,0,0,1,.17-0.17,3.4,3.4,0,0,1,1-.46,4.3,4.3,0,0,1,.75-0.13,1.65,1.65,0,0,1,.39,0,1.54,1.54,0,1,1-1.17,2.85" transform="translate(97.37 -261.33)"/><path class="cls-7" d="M22.1,379.84a0.12,0.12,0,0,0,0-.14,2.31,2.31,0,0,0-.21-0.33,2,2,0,0,0-.39-0.39l-0.36-.26a0.69,0.69,0,0,1-.17-1,0.73,0.73,0,0,1,.17-0.17,3.4,3.4,0,0,1,1-.46,4.3,4.3,0,0,1,.75-0.13,1.65,1.65,0,0,1,.39,0,1.54,1.54,0,1,1-1.17,2.85" transform="translate(97.37 -261.33)"/><path class="cls-7" d="M21.32,380.15a0.12,0.12,0,0,0,0-.14,2.25,2.25,0,0,0-.21-0.33,2,2,0,0,0-.39-0.39L20.33,379a0.69,0.69,0,0,1-.17-1,0.73,0.73,0,0,1,.17-0.17,3.4,3.4,0,0,1,1-.46,4.12,4.12,0,0,1,.75-0.13,1.65,1.65,0,0,1,.39,0,1.54,1.54,0,0,1-1.17,2.85" transform="translate(97.37 -261.33)"/><ellipse class="cls-11" cx="137.51" cy="144.08" rx="6.74" ry="6.26"/><path class="cls-7" d="M94.33,410.17l0.16-.53c0.12-.35.22-0.86,0.49-1.5A19.41,19.41,0,0,1,96,405.87a13.5,13.5,0,0,1,1.85-2.69,17.83,17.83,0,0,1,2.81-2.68,19.19,19.19,0,0,1,3.69-2.25,33.3,33.3,0,0,1,8.87-2.67,22.39,22.39,0,0,1,4.75-.37,34.06,34.06,0,0,1,4.55.42,21.13,21.13,0,0,1,4.17,1.11,9.28,9.28,0,0,1,3.39,2.11,4.05,4.05,0,0,1,1.18,3.28,6.25,6.25,0,0,1-.85,2.44,9.52,9.52,0,0,1-.94,1.3l-0.36.43-0.28-.21,0.28-.47a12.53,12.53,0,0,0,.71-1.35,5.5,5.5,0,0,0,.5-2.18,3.17,3.17,0,0,0-1.13-2.36,8,8,0,0,0-3-1.56,23.11,23.11,0,0,0-3.92-.77,33.25,33.25,0,0,0-4.31-.23,20.22,20.22,0,0,0-4.38.42,37.54,37.54,0,0,0-8.41,2.42,23.88,23.88,0,0,0-3.49,1.9A16.35,16.35,0,0,0,99,404.18a10.68,10.68,0,0,0-1.05,1.19A9.4,9.4,0,0,0,97,406.5a18.14,18.14,0,0,0-1.24,2c-0.6,1.19-.92,1.9-0.92,1.9Z" transform="translate(97.37 -261.33)"/><path class="cls-9" d="M120.93,406.72a4.18,4.18,0,0,1-1.16,2.93l0.46-1.26a31.5,31.5,0,0,0-2.2,3,2.21,2.21,0,0,0,.69-0.77l-0.54.92a0.19,0.19,0,0,0,0,.17,0.2,0.2,0,0,0,.18.08,2.4,2.4,0,0,0,1.65-.83,17.81,17.81,0,0,1,2.25-1.69l-0.88.85L122,409a1.89,1.89,0,0,0-.87.61,2.6,2.6,0,0,0,.49-2.18,14.69,14.69,0,0,0-.59,1.8A6.85,6.85,0,0,0,120.93,406.72Z" transform="translate(97.37 -261.33)"/><path class="cls-9" d="M119.15,406.48a0.4,0.4,0,0,1,.06.43,0.76,0.76,0,0,1-.46-0.62l-0.35,2.48A5.89,5.89,0,0,1,118,407a0.78,0.78,0,0,0-.16.6c0,0.21-.24.46-0.43,0.35a0.36,0.36,0,0,1-.14-0.2,6,6,0,0,1-.35-1.9l-0.23.88" transform="translate(97.37 -261.33)"/><path class="cls-9" d="M118.62,407c0.11,0.05,0,.22-0.14.19a0.5,0.5,0,0,1-.23-0.26,0.21,0.21,0,0,0-.39,0l-0.32.52a0.25,0.25,0,0,1-.15.13,0.25,0.25,0,0,1-.24-0.27,8.27,8.27,0,0,1-.1-1.11c-0.24,0-.22.41-0.46,0.48s-0.34-.19-0.35-0.39a4.59,4.59,0,0,1,.06-1.25L116,406.9c-0.1.06-.19-0.09-0.2-0.2a6.91,6.91,0,0,1,.09-1.78,12,12,0,0,1-.32,1.63l-0.25,0a5.68,5.68,0,0,1,.16-1.7l-0.12.22a5.11,5.11,0,0,1,.18-1.48c0-.11.15-0.24,0.23-0.15l0.07-.4a0.69,0.69,0,0,1-.39-0.27" transform="translate(97.37 -261.33)"/><path class="cls-9" d="M114.09,400.66l-0.07.25a0.42,0.42,0,0,1-.49-0.39,4.42,4.42,0,0,1,0,1.22,0.62,0.62,0,0,1-.51-0.35,2.74,2.74,0,0,1,.43,1.34,1.19,1.19,0,0,1-.62-0.4l0.62,2.5a1.33,1.33,0,0,1-.72-0.25l-0.34,1a0.61,0.61,0,0,1-.2.33,0.24,0.24,0,0,1-.35-0.06,4,4,0,0,0-.18.87c-0.15-.6-0.28-1.21-0.38-1.83" transform="translate(97.37 -261.33)"/><path class="cls-10" d="M121.23,403.48a0.46,0.46,0,0,0,.11.65,1.55,1.55,0,0,0,.73.26,1.05,1.05,0,0,0-.77.59,0.33,0.33,0,0,1,.18.42l-0.12.86" transform="translate(97.37 -261.33)"/><path class="cls-10" d="M114.12,404.63a1.44,1.44,0,0,0,.75,1.24,0.47,0.47,0,0,0,.25.07c0.07,0,.14,0,0.22,0a0.54,0.54,0,0,1,.42.23,5.69,5.69,0,0,1,.79,1.1l0.18-.31" transform="translate(97.37 -261.33)"/><path class="cls-10" d="M111.47,406.11a1.73,1.73,0,0,0,.94,1.07,16,16,0,0,1,2.58,2.12" transform="translate(97.37 -261.33)"/><path class="cls-10" d="M109.77,404.16c0,0.79,0,1.58.08,2.36a0.5,0.5,0,0,0,.24.47" transform="translate(97.37 -261.33)"/><path class="cls-10" d="M112.13,403.56l-0.73,3.75a2.41,2.41,0,0,0,0,1.26,2.2,2.2,0,0,0,.47.71,4.56,4.56,0,0,0,2.69,1.57,1.3,1.3,0,0,0,.4,0,1.67,1.67,0,0,0,.39-0.15,9.09,9.09,0,0,1,3.08-.86" transform="translate(97.37 -261.33)"/><path class="cls-10" d="M122.35,406l-0.46,1.28" transform="translate(97.37 -261.33)"/><path class="cls-10" d="M121.51,407.72a4.33,4.33,0,0,1-2,1.23,6.16,6.16,0,0,0-1.12.34,0.92,0.92,0,0,1-.88.18" transform="translate(97.37 -261.33)"/><path class="cls-10" d="M118.74,404.62l-0.31,1.85" transform="translate(97.37 -261.33)"/><path class="cls-7" d="M95.76,400.53a6.17,6.17,0,0,1,.72-1.54,10.22,10.22,0,0,1,1.14-1.39,12.26,12.26,0,0,1,1.59-1.26,9.66,9.66,0,0,1,3.42-1.44,6.57,6.57,0,0,1,1.7-.19,0.56,0.56,0,0,1,.52.59,0.55,0.55,0,0,1-.28.45l0,0s-0.54.31-1.36,0.72L100.27,398a11.91,11.91,0,0,0-1.42,1,8.82,8.82,0,0,0-1.13,1,5.55,5.55,0,0,0-.74.78l-0.3.34-0.28.31a0.55,0.55,0,0,1-.82-0.73,0.6,0.6,0,0,1,.18-0.13" transform="translate(97.37 -261.33)"/><path class="cls-7" d="M122.94,392.46a6.5,6.5,0,0,1,1.67.21,9.24,9.24,0,0,1,3.38,1.7,9.13,9.13,0,0,1,2.47,2.77,6.16,6.16,0,0,1,.7,1.56,0.56,0.56,0,0,1-.92.54l0,0s-0.45-.42-1.09-1.06-1.51-1.46-2.4-2.23a10.93,10.93,0,0,0-1.38-1,8.44,8.44,0,0,0-1.27-.76,5.87,5.87,0,0,0-1-.47l-0.41-.18-0.39-.18a0.55,0.55,0,1,1,.64-0.87" transform="translate(97.37 -261.33)"/><path class="cls-7" d="M99.6,412.14s1.23,0.38,3.16.78a43.55,43.55,0,0,0,7.08.91,34.19,34.19,0,0,0,7.11-.43,22.74,22.74,0,0,0,2.33-.47l0.89-.19h0a0.44,0.44,0,0,1,.28.84l-0.86.39a16.38,16.38,0,0,1-2.34.88,13.62,13.62,0,0,1-1.62.43,14.77,14.77,0,0,1-1.84.35,28.12,28.12,0,0,1-4.06.24,25,25,0,0,1-7.47-1.28,17,17,0,0,1-3.18-1.36,0.59,0.59,0,0,1,.48-1.08" transform="translate(97.37 -261.33)"/><path class="cls-7" d="M126.34,395.9s6.7,3,9.78.45,0.36,2.38-1,3.6-5.33,4.06-5.33,4.06,5-3.47-3.43-8.11" transform="translate(97.37 -261.33)"/><path class="cls-7" d="M90.18,384.37s0-.1.09-0.2a4.28,4.28,0,0,1,.25-0.4,7.23,7.23,0,0,1,.85-1,5.82,5.82,0,0,1,1.56-1.13,1.06,1.06,0,0,1,1.4.51,1,1,0,0,1,.06.72l-0.08.28a3.33,3.33,0,0,0-.08,1.09,3.7,3.7,0,0,0,.14.73,1.17,1.17,0,0,0,.08.21s0.05,0,0,0a2.2,2.2,0,0,1-4.32-.81" transform="translate(97.37 -261.33)"/><path class="cls-7" d="M92.32,382.71s0-.1.09-0.2a4,4,0,0,1,.25-0.4,7.23,7.23,0,0,1,.85-1,5.82,5.82,0,0,1,1.56-1.13,1.06,1.06,0,0,1,1.4.51,1,1,0,0,1,.06.72l-0.08.28a3.34,3.34,0,0,0-.08,1.09,3.7,3.7,0,0,0,.14.73,1.17,1.17,0,0,0,.08.21s0.05,0,0,0a2.2,2.2,0,0,1-4.32-.81" transform="translate(97.37 -261.33)"/><path class="cls-7" d="M94.34,381.36s0-.1.09-0.2a4.28,4.28,0,0,1,.25-0.4,7.23,7.23,0,0,1,.85-1,5.82,5.82,0,0,1,1.56-1.13,1.06,1.06,0,0,1,1.4.51,1,1,0,0,1,.06.72l-0.08.28a3.33,3.33,0,0,0-.08,1.09,3.7,3.7,0,0,0,.14.73,1.17,1.17,0,0,0,.08.21s0.05,0,0,0a2.2,2.2,0,0,1-4.32-.81" transform="translate(97.37 -261.33)"/><path class="cls-7" d="M96,380.62s0-.1.09-0.2a4.28,4.28,0,0,1,.25-0.4,7.23,7.23,0,0,1,.85-1,5.82,5.82,0,0,1,1.56-1.13,1.06,1.06,0,0,1,1.4.51,1,1,0,0,1,.06.72l-0.08.28a3.33,3.33,0,0,0-.08,1.09,3.7,3.7,0,0,0,.14.73,1.17,1.17,0,0,0,.08.21s0.05,0,0,0a2.2,2.2,0,0,1-4.32-.81" transform="translate(97.37 -261.33)"/><path class="cls-7" d="M97.88,379.28s0-.1.09-0.2a4.28,4.28,0,0,1,.25-0.4,7.23,7.23,0,0,1,.85-1,5.82,5.82,0,0,1,1.56-1.13,1.06,1.06,0,0,1,1.4.51,1,1,0,0,1,.06.72L102,378a3.33,3.33,0,0,0-.08,1.09,3.7,3.7,0,0,0,.14.73,1.07,1.07,0,0,0,.08.21s0.05,0,0,0a2.2,2.2,0,0,1-4.32-.81" transform="translate(97.37 -261.33)"/><path class="cls-7" d="M99.59,378.54s0-.1.09-0.2a4.28,4.28,0,0,1,.25-0.4,7.23,7.23,0,0,1,.85-1,5.82,5.82,0,0,1,1.56-1.13,1.06,1.06,0,0,1,1.4.51,1,1,0,0,1,.06.72l-0.08.28a3.33,3.33,0,0,0-.08,1.09,3.56,3.56,0,0,0,.14.73,1.17,1.17,0,0,0,.08.21s0.05,0,0,0a2.2,2.2,0,0,1-4.32-.81" transform="translate(97.37 -261.33)"/><path class="cls-7" d="M101.87,377.74s0-.1.09-0.2a4.28,4.28,0,0,1,.25-0.4,7.23,7.23,0,0,1,.85-1,5.82,5.82,0,0,1,1.56-1.13,1.06,1.06,0,0,1,1.4.51,1,1,0,0,1,.06.72l-0.08.28a3.33,3.33,0,0,0-.08,1.09,3.7,3.7,0,0,0,.14.73,1.07,1.07,0,0,0,.08.21s0.05,0,0,0a2.2,2.2,0,0,1-4.32-.81" transform="translate(97.37 -261.33)"/><path class="cls-7" d="M102.75,377.08s0-.1.09-0.2a4.28,4.28,0,0,1,.25-0.4,7.23,7.23,0,0,1,.85-1,5.82,5.82,0,0,1,1.56-1.13,1.06,1.06,0,0,1,1.4.51,1,1,0,0,1,.06.72l-0.08.28a3.33,3.33,0,0,0-.08,1.09,3.7,3.7,0,0,0,.14.73,1.07,1.07,0,0,0,.08.21s0.05,0,0,0a2.2,2.2,0,0,1-4.32-.81" transform="translate(97.37 -261.33)"/><path class="cls-7" d="M104.49,376s0-.1.09-0.2a4.28,4.28,0,0,1,.25-0.4,7.23,7.23,0,0,1,.85-1,5.82,5.82,0,0,1,1.56-1.13,1.06,1.06,0,0,1,1.4.51,1,1,0,0,1,.06.72l-0.08.28a3.33,3.33,0,0,0-.08,1.09,3.56,3.56,0,0,0,.14.73,1.07,1.07,0,0,0,.08.21s0.05,0,0,0a2.2,2.2,0,0,1-4.32-.81" transform="translate(97.37 -261.33)"/><path class="cls-7" d="M106.1,375.88s0-.1.09-0.2a4,4,0,0,1,.25-0.4,7.23,7.23,0,0,1,.85-1,5.82,5.82,0,0,1,1.56-1.13,1.06,1.06,0,0,1,1.4.51,1,1,0,0,1,.06.72l-0.08.28a3.33,3.33,0,0,0-.08,1.09,3.7,3.7,0,0,0,.14.73,1.17,1.17,0,0,0,.08.21s0.05,0,0,0a2.2,2.2,0,0,1-4.32-.81" transform="translate(97.37 -261.33)"/><path class="cls-7" d="M107.8,375.44s0-.1.09-0.2a4.28,4.28,0,0,1,.25-0.4,7.23,7.23,0,0,1,.85-1,5.82,5.82,0,0,1,1.56-1.13,1.06,1.06,0,0,1,1.4.51,1,1,0,0,1,.06.72l-0.08.28a3.33,3.33,0,0,0-.08,1.09,3.7,3.7,0,0,0,.14.73,1.17,1.17,0,0,0,.08.21s0.05,0,0,0a2.2,2.2,0,0,1-4.32-.81" transform="translate(97.37 -261.33)"/><path class="cls-7" d="M108.73,374.42s0.07-.08.16-0.16,0.22-.19.37-0.3a7.64,7.64,0,0,1,1.16-.73,6.69,6.69,0,0,1,1.85-.64,1.07,1.07,0,0,1,1.06,1.65l-0.12.17a4.24,4.24,0,0,0-.52,1.11,4.29,4.29,0,0,0-.17.81,1.34,1.34,0,0,0,0,.24,0.37,0.37,0,0,1,0,.06,2.2,2.2,0,0,1-3.79-2.23" transform="translate(97.37 -261.33)"/><path class="cls-7" d="M110.51,372.65a4.41,4.41,0,0,1,.67-0.24,10.07,10.07,0,0,1,1.38-.31,8.49,8.49,0,0,1,2-.06,1.07,1.07,0,0,1,.5,1.93l-0.13.09a5.94,5.94,0,0,0-1,1,6.23,6.23,0,0,0-.56.77,0.86,0.86,0,0,0-.16.33,2.86,2.86,0,1,1-4.07-2.83Z" transform="translate(97.37 -261.33)"/><path class="cls-7" d="M112.36,372.19A4.82,4.82,0,0,1,113,372a10.35,10.35,0,0,1,1.42-.16,9,9,0,0,1,2.05.14,1.07,1.07,0,0,1,.31,2l-0.13.07a6.42,6.42,0,0,0-1.18.86,7,7,0,0,0-.69.72,1.08,1.08,0,0,0-.22.32,2.72,2.72,0,1,1-3.46-3.38Z" transform="translate(97.37 -261.33)"/><path class="cls-7" d="M114.27,372.06A5.19,5.19,0,0,1,115,372a11.77,11.77,0,0,1,1.44,0,9.63,9.63,0,0,1,2.06.37,1.06,1.06,0,0,1,.08,2l-0.13.05a7,7,0,0,0-1.32.73,8.13,8.13,0,0,0-.82.64,1.42,1.42,0,0,0-.29.3,2.61,2.61,0,1,1-2.76-3.86Z" transform="translate(97.37 -261.33)"/><path class="cls-7" d="M116.71,372.1a5.19,5.19,0,0,1,.71-0.07,11.77,11.77,0,0,1,1.44,0,9.63,9.63,0,0,1,2.06.37,1.06,1.06,0,0,1,.08,2l-0.13.05a7.11,7.11,0,0,0-1.32.73,8.58,8.58,0,0,0-.82.65,1.42,1.42,0,0,0-.29.3,2.61,2.61,0,1,1-2.76-3.86Z" transform="translate(97.37 -261.33)"/><path class="cls-7" d="M118.46,372.3a5.24,5.24,0,0,1,.71,0,12.14,12.14,0,0,1,1.44.14,10,10,0,0,1,2,.54,1.06,1.06,0,0,1-.08,2l-0.14,0a7.38,7.38,0,0,0-1.41.62,8.47,8.47,0,0,0-.89.58,1.63,1.63,0,0,0-.33.28,2.56,2.56,0,1,1-2.28-4.1Z" transform="translate(97.37 -261.33)"/><path class="cls-7" d="M120.34,372.74a5.24,5.24,0,0,1,.71,0,12.14,12.14,0,0,1,1.44.14,10,10,0,0,1,2,.54,1.06,1.06,0,0,1-.08,2l-0.14,0a7.38,7.38,0,0,0-1.41.62,8.47,8.47,0,0,0-.89.58,1.63,1.63,0,0,0-.33.28,2.56,2.56,0,1,1-2.28-4.1Z" transform="translate(97.37 -261.33)"/><path class="cls-7" d="M122.22,373.21a5.24,5.24,0,0,1,.71,0,12.14,12.14,0,0,1,1.44.14,10,10,0,0,1,2,.54,1.06,1.06,0,0,1-.08,2l-0.14,0a7.38,7.38,0,0,0-1.41.62,8.47,8.47,0,0,0-.89.58,1.61,1.61,0,0,0-.33.28,2.56,2.56,0,1,1-2.28-4.1Z" transform="translate(97.37 -261.33)"/><path class="cls-7" d="M124.06,373.51a5.24,5.24,0,0,1,.71,0,12.14,12.14,0,0,1,1.44.14,10,10,0,0,1,2,.54,1.06,1.06,0,0,1-.08,2l-0.14,0a7.38,7.38,0,0,0-1.41.62,8.47,8.47,0,0,0-.89.58,1.63,1.63,0,0,0-.33.28,2.56,2.56,0,1,1-2.28-4.1Z" transform="translate(97.37 -261.33)"/><path class="cls-7" d="M125.92,373.89a5.24,5.24,0,0,1,.71,0,12.14,12.14,0,0,1,1.44.14,10,10,0,0,1,2,.54,1.06,1.06,0,0,1-.08,2l-0.14,0a7.38,7.38,0,0,0-1.41.62,8.47,8.47,0,0,0-.89.58,1.63,1.63,0,0,0-.33.28A2.56,2.56,0,1,1,125,374Z" transform="translate(97.37 -261.33)"/><path class="cls-7" d="M128.77,375.3a5.72,5.72,0,0,1,1.11.15,5.29,5.29,0,0,1,1,.35,0.49,0.49,0,0,1-.13.93h-0.06a4,4,0,0,0-.8.22,3.67,3.67,0,0,0-.73.36,1,1,0,0,1-.43-2" transform="translate(97.37 -261.33)"/><path class="cls-7" d="M129.8,375.71a5.72,5.72,0,0,1,1.11.15,5.29,5.29,0,0,1,1,.35,0.49,0.49,0,0,1,.24.65,0.49,0.49,0,0,1-.37.28h-0.06a4,4,0,0,0-.8.22,3.67,3.67,0,0,0-.73.36,1,1,0,0,1-.43-2" transform="translate(97.37 -261.33)"/><path class="cls-7" d="M130.85,376.19a5.72,5.72,0,0,1,1.11.15,5.29,5.29,0,0,1,1,.35,0.49,0.49,0,0,1-.13.93h-0.06a4,4,0,0,0-.8.22,3.67,3.67,0,0,0-.73.36,1,1,0,0,1-.43-2" transform="translate(97.37 -261.33)"/><path class="cls-7" d="M131.53,376.75a5.72,5.72,0,0,1,1.11.15,5.29,5.29,0,0,1,1,.35,0.49,0.49,0,0,1-.13.93H133.5a4,4,0,0,0-.8.22,3.64,3.64,0,0,0-.73.36,1,1,0,0,1-.43-2" transform="translate(97.37 -261.33)"/><path class="cls-7" d="M131.72,376.57a5.72,5.72,0,0,1,1.11.15,5.29,5.29,0,0,1,1,.35,0.49,0.49,0,0,1-.13.93h-0.06a4,4,0,0,0-.8.22,3.67,3.67,0,0,0-.73.36,1,1,0,0,1-.43-2" transform="translate(97.37 -261.33)"/><path class="cls-7" d="M133,376.9a5.72,5.72,0,0,1,1.11.15,5.29,5.29,0,0,1,1,.35,0.49,0.49,0,0,1-.13.93h-0.06a4,4,0,0,0-.8.22,3.64,3.64,0,0,0-.73.36,1,1,0,0,1-.43-2" transform="translate(97.37 -261.33)"/><path class="cls-7" d="M133.63,377.43a5.72,5.72,0,0,1,1.11.15,5.29,5.29,0,0,1,1,.35,0.49,0.49,0,0,1-.13.93h-0.06a4,4,0,0,0-.8.22,3.67,3.67,0,0,0-.73.36,1,1,0,0,1-.43-2" transform="translate(97.37 -261.33)"/><path class="cls-7" d="M134.79,377.79a5.72,5.72,0,0,1,1.11.15,5.29,5.29,0,0,1,1,.35,0.49,0.49,0,0,1-.13.93h-0.06a4,4,0,0,0-.8.22,3.67,3.67,0,0,0-.73.36,1,1,0,0,1-.43-2" transform="translate(97.37 -261.33)"/><path class="cls-7" d="M135.18,378.24a5.72,5.72,0,0,1,1.11.15,5.29,5.29,0,0,1,1,.35,0.49,0.49,0,0,1-.13.93h-0.06a4,4,0,0,0-.8.22,3.67,3.67,0,0,0-.73.36,1,1,0,0,1-.43-2" transform="translate(97.37 -261.33)"/><path class="cls-7" d="M136.18,378.53a5.72,5.72,0,0,1,1.11.15,5.29,5.29,0,0,1,1,.35,0.49,0.49,0,0,1-.13.93h-0.06a4,4,0,0,0-.8.22,3.67,3.67,0,0,0-.73.36,1,1,0,0,1-.43-2" transform="translate(97.37 -261.33)"/><path class="cls-11" d="M123.83,405.91a7.46,7.46,0,0,0-7.22-7.77,7.65,7.65,0,0,0-8.37,6.71,7.46,7.46,0,0,0,7.22,7.78A7.66,7.66,0,0,0,123.83,405.91Z" transform="translate(97.37 -261.33)"/><path class="cls-7" d="M153.71,446.42s-1.86,4.79-4.08,9.41c-1.1,2.32-2.29,4.59-3.26,6.26s-1.68,2.75-1.68,2.75a0.61,0.61,0,0,1-.84.18,0.61,0.61,0,0,1-.19-0.83s0.65-1.07,1.53-2.75,2-4,3-6.29c2-4.65,3.64-9.44,3.64-9.44a1,1,0,0,1,1.95.66l0,0" transform="translate(97.37 -261.33)"/><path class="cls-7" d="M176.67,416s-0.22,4.4-.86,8.75c-0.31,2.17-.7,4.33-1.06,5.94s-0.64,2.67-.64,2.67h0a0.61,0.61,0,0,1-1.18-.3s0.24-1,.5-2.64,0.56-3.73.75-5.88c0.42-4.3.43-8.6,0.43-8.6a1,1,0,0,1,2.06,0s0,0,0,.06" transform="translate(97.37 -261.33)"/><path class="cls-7" d="M17,448.08s0.25,0.88.7,2.2,1.1,3.07,1.83,4.77a44.19,44.19,0,0,0,2.27,4.56c0.7,1.2,1.24,1.94,1.24,1.94a0.61,0.61,0,0,1-1,.74h0s-0.61-.75-1.41-2A45.86,45.86,0,0,1,18,455.74a70.27,70.27,0,0,1-3-7,1,1,0,0,1,1.93-.69l0,0.06" transform="translate(97.37 -261.33)"/><path class="cls-7" d="M145.35,441a2.59,2.59,0,0,1,2.82-2.22,2.44,2.44,0,0,1,1.79,3,2.6,2.6,0,0,1-2.82,2.22,2.44,2.44,0,0,1-1.79-3" transform="translate(97.37 -261.33)"/><path class="cls-7" d="M64.09,461.89s0,0.24,0,.66-0.05,1-.06,1.71a7.31,7.31,0,0,0,.29,2.16,1.68,1.68,0,0,0,.49.72,1.39,1.39,0,0,0,.74.28,2.6,2.6,0,0,0,1.06,0,0.86,0.86,0,0,0,.53-0.4,5.18,5.18,0,0,0,.47-2c0.06-.69.11-1.3,0.12-1.72s0-.67,0-0.67l0.71-.09A11.86,11.86,0,0,1,69,465a5.28,5.28,0,0,1-.3,2.88,2.65,2.65,0,0,1-1.54,1.38,4.58,4.58,0,0,1-1.81.17,3.28,3.28,0,0,1-1.88-.82,3.21,3.21,0,0,1-.92-1.66,6.3,6.3,0,0,1,.09-2.79,8.87,8.87,0,0,1,.93-2.38Z" transform="translate(97.37 -261.33)"/><path class="cls-7" d="M103.86,462.72s0.25,0.16.65,0.46a10.48,10.48,0,0,1,1.56,1.44,12.5,12.5,0,0,1,1.77,2.47,11.8,11.8,0,0,1,.72,1.6,15.71,15.71,0,0,1,.51,1.77,13.36,13.36,0,0,1,.16,1.87,9.2,9.2,0,0,1-.16,1.82,8.81,8.81,0,0,1-1.18,3,6.52,6.52,0,0,1-.74,1,4.48,4.48,0,0,1-.67.69c-0.39.36-.63,0.53-0.63,0.53a0.57,0.57,0,0,1-.79-0.11,0.56,0.56,0,0,1-.09-0.51l0-.06s0.09-.27.26-0.71a7.55,7.55,0,0,0,.29-0.78c0.09-.31.23-0.63,0.31-1a12.11,12.11,0,0,0,.35-5.27,20,20,0,0,0-.65-2.87c-0.3-.92-0.6-1.8-0.91-2.55l-0.75-1.86c-0.19-.47-0.28-0.75-0.28-0.75a0.17,0.17,0,0,1,.1-0.21,0.17,0.17,0,0,1,.14,0" transform="translate(97.37 -261.33)"/><path class="cls-7" d="M81.07,439s1.44,0.8,3.6,2.19A58.09,58.09,0,0,1,92,446.93,36.36,36.36,0,0,1,98.09,454a22.27,22.27,0,0,1,1.47,2.71L100,457.8a0.38,0.38,0,0,1-.69.3v0l-0.47-1a21,21,0,0,0-1.54-2.53A35.15,35.15,0,0,0,91.11,448a56.51,56.51,0,0,0-7.41-5.17c-2.1-1.22-3.62-2-3.62-2A1,1,0,0,1,81,439l0,0Z" transform="translate(97.37 -261.33)"/><path class="cls-7" d="M53.18,447.76l-3.66,4.74-3.75,4.85-2.11,2.74A22.24,22.24,0,0,0,41.79,463a23.35,23.35,0,0,0-1.38,3.18,18.36,18.36,0,0,0-.83,3.24,16.57,16.57,0,0,0-.2,3.11L39.53,474l0.3,1.31a11,11,0,0,0,.93,2.14,12.5,12.5,0,0,0,1,1.49L42.89,480l0,0a0.38,0.38,0,0,1-.53.54l-1.23-1.18A13.4,13.4,0,0,1,40,477.86a11.88,11.88,0,0,1-1.1-2.3l-0.37-1.41-0.22-1.54a17.6,17.6,0,0,1,.1-3.35,19.66,19.66,0,0,1,.77-3.48,24.47,24.47,0,0,1,1.35-3.42,23.9,23.9,0,0,1,1.88-3.16l2-2.82,3.59-5,3.5-4.86v0a1,1,0,1,1,1.67,1.2l0,0" transform="translate(97.37 -261.33)"/><path class="cls-7" d="M76.25,445.19a2,2,0,0,1,.17-0.61,2.73,2.73,0,0,1,1.13-1.25,3.46,3.46,0,0,1,.5-0.25,2,2,0,0,1,.33-0.11l0.24-.08a3,3,0,0,1,1.21-.24,1.59,1.59,0,0,1,.8.15,1.9,1.9,0,0,1,.76.46,2.66,2.66,0,0,1,.85,1.48,5.83,5.83,0,0,1-.12,2.62c-0.18.75-.42,1.4-0.61,2-0.44,1.1-.64,1.77-0.64,1.77l-0.61,0a5,5,0,0,1,0-.59c0-.36.07-0.85,0.14-1.43s0.17-1.24.2-1.92a5.39,5.39,0,0,0-.15-1.89,0.7,0.7,0,0,0-.33-0.44,0.38,0.38,0,0,0-.22-0.08,1,1,0,0,0-.26-0.1,2,2,0,0,0-.87-0.19l-0.25,0a0.24,0.24,0,0,0-.14,0l-0.36,0a1.76,1.76,0,0,0-1,.52,1.42,1.42,0,0,0-.26.35Z" transform="translate(97.37 -261.33)"/><path class="cls-7" d="M54.66,442.77l-0.42.09-0.47.12-0.45.25a1,1,0,0,0-.33.4,0.81,0.81,0,0,0,0,.47,2.24,2.24,0,0,1,0,.54,3.61,3.61,0,0,0,0,.73c0.19,1.06.56,2.23,0.81,3.12,0.11,0.45.2,0.85,0.26,1.13l0,0.47-0.52.11s-0.27-.48-0.81-1.25a13.22,13.22,0,0,1-1.59-3.15,5.71,5.71,0,0,1-.22-1.07,2,2,0,0,1,.15-1.2,3.64,3.64,0,0,1,.38-0.54l0.5-.38a3.79,3.79,0,0,1,.92-0.37l0.76-.06,0.49,0.06,0.42,0Z" transform="translate(97.37 -261.33)"/><path class="cls-7" d="M74.55,451.29a3.56,3.56,0,0,1-.22-0.42c-0.06-.13-0.12-0.28-0.17-0.43a2.52,2.52,0,0,0-.14-0.33c0.05,0-.09.09,0.42,0.32l0.16,0H74.48c-0.21,0-.5.07-0.78,0.12l-1.82.38c-1.26.25-2.52,0.55-3.46,0.76a9.34,9.34,0,0,0-1.5.42,0.2,0.2,0,0,1-.28,0,0.2,0.2,0,0,1,0-.28,5.43,5.43,0,0,1,1.42-1,27.46,27.46,0,0,1,3.32-1.54c0.62-.23,1.25-0.46,1.87-0.62a9.44,9.44,0,0,1,.95-0.23l0.29,0a2.15,2.15,0,0,1,.56,0,1.44,1.44,0,0,1,.89.89,2,2,0,0,1,.1,1,2,2,0,0,1-.16.6,2.2,2.2,0,0,1-.28.48,0.63,0.63,0,0,1-.88.09,0.64,0.64,0,0,1-.13-0.14Z" transform="translate(97.37 -261.33)"/><path class="cls-7" d="M56.66,453.37a6,6,0,0,1-1.6-.93,5.56,5.56,0,0,1-.69-0.62A3.08,3.08,0,0,1,54,451.4c-0.07-.11-0.12-0.17-0.2-0.31a1.47,1.47,0,0,1-.2-0.74,0.93,0.93,0,0,1,.09-0.44,1.24,1.24,0,0,1,.17-0.28l0.1-.12,0.05,0,0,0,0.16-.1,0.14-.06a2.16,2.16,0,0,1,.43-0.11H55a3.53,3.53,0,0,1,.7.08,6.37,6.37,0,0,1,1.14.35,9.36,9.36,0,0,1,1,.5,7.72,7.72,0,0,1,.91.66l1.41,1.07a7.62,7.62,0,0,0,1.42.9h0a0.2,0.2,0,0,1,.1.26,0.19,0.19,0,0,1-.17.12,2.92,2.92,0,0,1-.53,0,8.3,8.3,0,0,1-1.29-.36A15,15,0,0,1,58,452a8,8,0,0,0-1.76-.61,8.89,8.89,0,0,0-.89-0.16,1.37,1.37,0,0,0-.32,0h0a0.36,0.36,0,0,0,.19-0.06l-0.08,0,0.18-.11,0,0,0.09-.09a0.79,0.79,0,0,0,.14-0.22,1.39,1.39,0,0,0,.07-0.33,0.67,0.67,0,0,0,0-.26v0l0.06,0.09,0.22,0.29,0.48,0.62a10.42,10.42,0,0,1,1,1.46,0.57,0.57,0,0,1-.24.77,0.59,0.59,0,0,1-.45,0" transform="translate(97.37 -261.33)"/><path class="cls-9" d="M78.89,439.24s2.56,3.09,2.46,5.32" transform="translate(97.37 -261.33)"/><path class="cls-7" d="M59.06,433.34l1.65-2.87A37.28,37.28,0,0,0,63.83,424a54.52,54.52,0,0,0,1.61-7L66,413.72a0.2,0.2,0,0,1,.24-0.16,0.21,0.21,0,0,1,.17.23L66,417.07a55.14,55.14,0,0,1-1.25,7.23,38.31,38.31,0,0,1-2.84,6.81l-1.5,3a0.77,0.77,0,1,1-1.37-.7l0,0" transform="translate(97.37 -261.33)"/><path class="cls-7" d="M73,434.49s-0.13-1-.18-2.53a41.61,41.61,0,0,1,.17-5.51,36.35,36.35,0,0,1,.91-5.42c0.18-.73.36-1.33,0.49-1.74l0.2-.65a0.43,0.43,0,0,1,.83.22v0l-0.15.65c-0.1.41-.23,1-0.35,1.72a35.45,35.45,0,0,0-.48,5.28,40.36,40.36,0,0,0,.24,5.29c0.16,1.44.35,2.34,0.35,2.34a1,1,0,1,1-2,.42v-0.09Z" transform="translate(97.37 -261.33)"/><path class="cls-12" d="M58.34,435.9a19.08,19.08,0,0,0-1.88,9.63" transform="translate(97.37 -261.33)"/><path class="cls-7" d="M170.67,451.7a5,5,0,1,1,5,4.62,4.81,4.81,0,0,1-5-4.62" transform="translate(97.37 -261.33)"/><path class="cls-7" d="M59.82,393.77s0.65,0.9,1.47,2.28A49.54,49.54,0,0,1,64,401.29a42.76,42.76,0,0,1,2.06,5.52c0.23,0.77.39,1.42,0.49,1.88l0.17,0.72a0.43,0.43,0,0,1-.32.52,0.43,0.43,0,0,1-.51-0.29v0l-0.21-.68c-0.13-.44-0.33-1.06-0.6-1.79a41.23,41.23,0,0,0-2.37-5.21,48,48,0,0,0-3-4.86c-0.9-1.28-1.54-2.05-1.54-2.05a1,1,0,0,1,1.58-1.32l0,0.06h0Z" transform="translate(97.37 -261.33)"/><path class="cls-7" d="M174.24,436.62s-0.07.28-.23,0.76l-0.6,1.9c-0.25.77-.48,1.66-0.72,2.59a22.94,22.94,0,0,0-.47,2.89,15.75,15.75,0,0,0,0,2.82,15.27,15.27,0,0,0,.5,2.43,17.93,17.93,0,0,0,.61,1.76c0.17,0.43.26,0.7,0.26,0.7l0,0.06a0.57,0.57,0,0,1-.88.63s-0.24-.17-0.63-0.52a4.6,4.6,0,0,1-.67-0.68,6.22,6.22,0,0,1-.75-1,9,9,0,0,1-1.23-2.92,9.65,9.65,0,0,1-.22-1.79,14.2,14.2,0,0,1,.07-1.84,16.61,16.61,0,0,1,.4-1.77,11.92,11.92,0,0,1,.61-1.62,12.46,12.46,0,0,1,1.58-2.55,10.28,10.28,0,0,1,1.44-1.53c0.38-.33.62-0.5,0.62-0.5a0.17,0.17,0,0,1,.26.18" transform="translate(97.37 -261.33)"/><path class="cls-7" d="M183.76,421.49s-0.14.18-.4,0.46-0.62.7-1,1.14a7,7,0,0,0-2,3.51,5.57,5.57,0,0,0-.09,1.07c0,0.37,0,.74.05,1.12,0.08,0.77.15,1.49,0.21,2.1s0.09,1.18.13,1.55,0,0.6,0,.6h0a0.4,0.4,0,0,1-.75.19,15.09,15.09,0,0,1-.93-2,9.48,9.48,0,0,1-.65-5,5.63,5.63,0,0,1,.52-1.44,5.06,5.06,0,0,1,.84-1.17,7.51,7.51,0,0,1,1.89-1.46,10,10,0,0,1,2.07-.85,0.12,0.12,0,0,1,.14.08,0.12,0.12,0,0,1,0,.1" transform="translate(97.37 -261.33)"/><path class="cls-7" d="M200.5,404.35s-0.2-.47-0.6-1.28a14.75,14.75,0,0,0-2-3,4,4,0,0,0-4-1.52,9,9,0,0,0-2.45,1.34c-0.89.58-1.79,1.14-2.63,1.73a10.37,10.37,0,0,0-2.19,2A14.16,14.16,0,0,0,185,406a34.67,34.67,0,0,0-2,5,30.11,30.11,0,0,0-1,3.66,8.93,8.93,0,0,0-.19,1.39,0.41,0.41,0,0,1-.82,0v0a9.62,9.62,0,0,1,.08-1.52,30.86,30.86,0,0,1,.71-3.86,34.62,34.62,0,0,1,1.81-5.26,12.88,12.88,0,0,1,1.63-2.81,11.9,11.9,0,0,1,2.47-2.31c0.89-.65,1.79-1.23,2.65-1.81a9,9,0,0,1,3-1.54,4.75,4.75,0,0,1,3.35.33,6.53,6.53,0,0,1,2.19,1.85,12.49,12.49,0,0,1,1.93,3.54,10.19,10.19,0,0,1,.45,1.45,0.44,0.44,0,0,1-.33.52,0.45,0.45,0,0,1-.49-0.26" transform="translate(97.37 -261.33)"/><path class="cls-7" d="M182.49,410.72a40.27,40.27,0,0,1,2.55,3.37,19.19,19.19,0,0,1,3.57,8.66,8.18,8.18,0,0,1-1.05,5.1,4.9,4.9,0,0,1-1.88,1.76,4.72,4.72,0,0,1-2.29.54,4.9,4.9,0,0,1-3.19-1.41,5.17,5.17,0,0,1-.65-0.71l-0.21-.26a0.77,0.77,0,1,1,1.27-.88,7.11,7.11,0,0,0,.64.78,3.47,3.47,0,0,0,2.21,1.1,3.34,3.34,0,0,0,1.64-.32,3.59,3.59,0,0,0,1.44-1.25,7,7,0,0,0,1-4.36,15.85,15.85,0,0,0-1.13-4.62,25.55,25.55,0,0,0-2-3.74,40,40,0,0,0-2.38-3.41,0.27,0.27,0,0,1,0-.38,0.28,0.28,0,0,1,.38,0" transform="translate(97.37 -261.33)"/><path class="cls-7" d="M185.67,393.59l-2.23,2a43.88,43.88,0,0,0-4.54,4.53,10.65,10.65,0,0,0-.93,1.34c-0.1.23-.21,0.44-0.3,0.66s-0.21.54-.28,0.77a24.12,24.12,0,0,0-.7,2.83c-0.29,1.7-.41,2.87-0.41,2.87l-0.83.06a11.33,11.33,0,0,1-.2-3.1,13.16,13.16,0,0,1,.51-3.18c0.08-.31.17-0.57,0.26-0.85a8.39,8.39,0,0,1,.42-0.93,12.8,12.8,0,0,1,1.12-1.58,29.69,29.69,0,0,1,5-4.54c1.47-1.07,2.52-1.69,2.52-1.69Z" transform="translate(97.37 -261.33)"/><path class="cls-7" d="M169.22,493.52s0.24,4.19,1.14,11.47c0.24,1.82.51,3.83,0.93,6,0.21,1.07.45,2.19,0.78,3.29s0.82,2.26,1.27,3.44l6.25,16.05c2.26,5.9,4.72,12.28,7.08,19.14,0.57,1.73,1.17,3.45,1.61,5.33a43.58,43.58,0,0,0,1.59,5.31c1.25,3.57,2.64,7.18,4.08,10.86l9,22.6,4.6,11.64c0.77,2,1.43,4,2.17,5.92s1.52,3.9,2.31,5.85c3.17,7.79,6.47,15.53,9.74,23.14l4.93,11.27c1.76,3.65,3.25,7.42,4.61,11.13a137.8,137.8,0,0,1,6.13,22,77.28,77.28,0,0,1,1.29,10.5c0.19,3.43.14,6.7,0.22,9.86,0.2,12.62.28,23.15,0.18,30.52s-0.38,11.58-.38,11.58a0.3,0.3,0,0,1-.32.28,0.3,0.3,0,0,1-.28-0.32s0.29-4.19.34-11.55,0-17.88-.28-30.5c-0.09-3.15-.06-6.46-0.26-9.83a76.43,76.43,0,0,0-1.31-10.39,137.09,137.09,0,0,0-6.17-21.79c-1.38-3.69-2.85-7.39-4.63-11l-5-11.27c-3.3-7.6-6.63-15.33-9.83-23.12-0.8-2-1.59-3.89-2.35-5.88s-1.41-4-2.18-5.9l-4.64-11.61-9.08-22.57c-1.45-3.67-2.85-7.29-4.13-10.89a45,45,0,0,1-1.65-5.46c-0.4-1.73-1-3.48-1.58-5.18-2.37-6.81-4.85-13.18-7.13-19.06l-6.31-16c-0.46-1.21-.94-2.31-1.32-3.54s-0.61-2.34-.83-3.44c-0.43-2.21-.72-4.23-1-6.07-0.94-7.34-1.19-11.55-1.19-11.55v0a0.77,0.77,0,0,1,1.54-.09h0Z" transform="translate(97.37 -261.33)"/><path class="cls-7" d="M170.49,506.45a21.45,21.45,0,0,1,3.9-.33,18.52,18.52,0,0,1,4.48.48,12.24,12.24,0,0,1,2.66,1c0.93,0.49,1.69,1,2.6,1.49a128,128,0,0,1,12.14,7.29,38.78,38.78,0,0,1,6.12,5.24,19.7,19.7,0,0,1,2.53,3.36c0.69,1.18,1.38,2.35,2.14,3.47a108.72,108.72,0,0,0,10.1,12.5c1.77,1.87,3.35,3.86,4.83,5.68s2.94,3.53,4.3,5.08a99.25,99.25,0,0,0,9.6,9.78,0.3,0.3,0,0,1,0,.41,0.31,0.31,0,0,1-.42,0,100,100,0,0,1-9.77-9.73c-1.38-1.54-2.85-3.24-4.37-5s-3.07-3.73-4.87-5.59A109.45,109.45,0,0,1,206.19,529c-0.8-1.15-1.52-2.34-2.22-3.51a18.74,18.74,0,0,0-2.41-3.14,37.76,37.76,0,0,0-6-5,126.34,126.34,0,0,0-12.1-7.08c-0.91-.48-1.81-1.05-2.55-1.43a10.63,10.63,0,0,0-2.36-.81,17.13,17.13,0,0,0-4.14-.4,19.86,19.86,0,0,0-3.62.35,0.77,0.77,0,0,1-.35-1.5h0.06Z" transform="translate(97.37 -261.33)"/><path class="cls-7" d="M208.45,529.55s3.26,2.69,9.08,7.25c2.92,2.25,6.45,5.08,10.68,7.89,4.26,2.53,10.06,4.06,15.69,7.15a35.47,35.47,0,0,1,4.19,2.62c1.35,1,2.64,2,4.08,2.88,2.84,1.83,6,3.63,8.64,6.32a21.82,21.82,0,0,1,3.41,4.54,51.7,51.7,0,0,1,2.35,5.23c1.51,3.46,3.27,6.94,5.09,10.46l5.6,10.71c0.93,1.82,1.85,3.66,2.71,5.56s1.38,4,2.47,5.63c2.16,3.45,4.95,6.73,6.89,10.53a44.8,44.8,0,0,1,4.29,12,112.1,112.1,0,0,1,2,25.21c-0.29,8.32-.17,16.53-1,24.45s-1.51,15.53-2.27,22.76q-0.55,5.42-1.07,10.53c-0.3,3.39-.45,6.69-0.66,9.86-0.39,6.33-.76,12.14-1.08,17.28-0.16,2.57-.31,5-0.45,7.21,0,1.11-.19,2.19-0.14,3.19s0.09,2,.13,2.92c0.32,7.4.5,11.62,0.5,11.62a0.17,0.17,0,0,1-.16.18,0.17,0.17,0,0,1-.18-0.17l-0.55-11.62q-0.07-1.39-.14-2.92c-0.05-1,.09-2.09.13-3.21,0.13-2.22.27-4.63,0.42-7.21,0.3-5.15.63-10.95,1-17.28,0.2-3.16.33-6.47,0.62-9.89l1-10.54c0.73-7.23,1.52-14.86,2.17-22.76s0.59-16.08.85-24.41a111,111,0,0,0-2.12-25,43.74,43.74,0,0,0-4.24-11.75c-1.92-3.72-4.64-6.87-6.92-10.46-1.21-1.86-1.68-3.9-2.56-5.73s-1.77-3.69-2.71-5.5l-5.64-10.68c-1.84-3.52-3.61-7-5.18-10.53a50.7,50.7,0,0,0-2.3-5.08,20.51,20.51,0,0,0-3.23-4.26c-2.48-2.52-5.55-4.26-8.45-6.1-1.46-.91-2.86-1.95-4.16-2.91a33.88,33.88,0,0,0-4-2.5,83.28,83.28,0,0,0-8.24-3.69,50.55,50.55,0,0,1-7.58-3.45c-4.37-2.88-7.87-5.67-10.83-7.92-5.85-4.55-9.14-7.22-9.14-7.22a0.77,0.77,0,0,1,1-1.2h0Z" transform="translate(97.37 -261.33)"/><path class="cls-7" d="M268.71,577.33a11.07,11.07,0,0,1,1.18.29,17.83,17.83,0,0,1,3.09,1.24,18.25,18.25,0,0,1,4.24,3c1.41,1.34,2.88,3,4.44,4.75,3.13,3.55,6.61,7.82,10.39,12.33,1.87,2.28,3.87,4.48,6,6.7s4.36,4.44,6.6,6.63,4.5,4.37,6.8,6.39,4.79,3.7,7.17,5.47,4.67,3.47,6.72,5.33a16.06,16.06,0,0,1,2.76,3.07c0.67,1.08,1.3,2.16,1.89,3.18a68.17,68.17,0,0,1,5,10.32,17.53,17.53,0,0,1,.86,3.15,5.07,5.07,0,0,1,.09.89c0,0.2,0,.31,0,0.31a0.33,0.33,0,0,1-.66.06v-0.06s0-.09,0-0.27a4.39,4.39,0,0,0-.14-0.78,17,17,0,0,0-1.06-2.92,93.54,93.54,0,0,0-5.35-10c-0.61-1-1.24-2-1.93-3.1a14.91,14.91,0,0,0-2.5-2.75c-2-1.77-4.24-3.47-6.61-5.21s-4.9-3.47-7.28-5.53-4.62-4.25-6.88-6.44-4.48-4.42-6.65-6.65-4.27-4.49-6.15-6.77l-10.36-12.31c-1.55-1.78-2.94-3.37-4.3-4.68a17.08,17.08,0,0,0-6.66-3.89,9.93,9.93,0,0,0-1-.26,0.77,0.77,0,1,1,.25-1.52h0Z" transform="translate(97.37 -261.33)"/><path class="cls-7" d="M68.21,529.88c0.8,2.92,1.46,5.85,2,8.82a66.49,66.49,0,0,1,1.14,9,48.36,48.36,0,0,1-.67,9.12c-0.4,3-.85,5.93-1.32,8.89q-1.39,8.87-3,17.69c-1.1,5.88-2.2,11.75-3.52,17.63-0.16.73-.35,1.48-0.54,2.22a9.87,9.87,0,0,1-.37,1.2l-0.37,1.05c-0.39,1.28-.74,2.71-1.08,4.17-0.68,2.89-1.3,5.81-1.92,8.73L54.9,636l-1,4.41a11.78,11.78,0,0,1-.34,1.24c-0.11.37-.28,0.72-0.37,1l-0.66,2.06L50,653.31l-5,17.2,0-.26c-0.22,8.85-.25,17.75.33,26.56,0.14,2.2.38,4.41,0.65,6.55L46.9,710c0.33,2.2.54,4.42,0.8,6.63s0.45,4.43.61,6.66a0.28,0.28,0,0,1-.26.3,0.29,0.29,0,0,1-.3-0.22c-0.52-2.17-1-4.34-1.43-6.53s-0.89-4.36-1.24-6.56L44,703.67c-0.31-2.26-.55-4.48-0.69-6.72-0.61-8.94-.61-17.85-0.4-26.78a1.13,1.13,0,0,1,0-.26l5-17.23,2.56-8.6,0.71-2.21c0.12-.4.28-0.72,0.38-1.07,0.06-.18.15-0.58,0.24-0.93l0.95-4.34L56.33,618c0.61-2.93,1.23-5.86,1.9-8.78,0.34-1.45.68-2.93,1.17-4.5l0.19-.53a5.35,5.35,0,0,0,.19-0.53,8.24,8.24,0,0,0,.27-0.94c0.18-.7.36-1.4,0.52-2.14,1.29-5.79,2.38-11.67,3.45-17.53l3.08-17.64c0.48-2.94,1-5.89,1.37-8.83a46.44,46.44,0,0,0,.72-8.72,65,65,0,0,0-1-8.74c-0.53-2.9-1.17-5.81-1.92-8.66a1,1,0,0,1,.72-1.26,1,1,0,0,1,1.26.72" transform="translate(97.37 -261.33)"/><path class="cls-7" d="M61.76,529.48l-2.15,1.31c-1.36.85-3.29,2.09-5.51,3.71-1.11.81-2.29,1.71-3.46,2.73a19.67,19.67,0,0,0-3.28,3.53c-2.09,2.8-4.39,5.69-6.67,8.61L34,557.92c-1.06,1.37-2.09,2.7-3,4a29.67,29.67,0,0,1-2.7,3.62,35.92,35.92,0,0,1-5.15,4.35l-2.08,1.47a0.12,0.12,0,0,1-.17,0,0.12,0.12,0,0,1,0-.17l2-1.53a35.21,35.21,0,0,0,5-4.44,29.12,29.12,0,0,0,2.54-3.64c0.89-1.35,1.88-2.7,2.9-4.1l6.45-8.75c2.19-3,4.4-6,6.38-8.77a21.36,21.36,0,0,1,3.4-3.88c1.19-1.11,2.38-2.07,3.49-2.93,2.22-1.72,4.14-3,5.5-4l2.16-1.41a1,1,0,0,1,1.12,1.72h0Z" transform="translate(97.37 -261.33)"/><path class="cls-7" d="M39.35,551.24s-2.29,2-6.47,5.37c-2.1,1.67-4.61,3.65-7.66,5.89l-10.4,7c-3.77,2.56-8,5.29-12,8.42a15.6,15.6,0,0,0-1.41,1.25,10.53,10.53,0,0,1-.87.73l-0.85.61a29,29,0,0,0-3.17,2.36,15.38,15.38,0,0,0-4.21,6.58,20.06,20.06,0,0,0-.6,2l-0.6,2.11c-0.45,1.42-1,2.88-1.58,4.23-1.16,2.75-2.44,5.45-3.69,8.17a129.1,129.1,0,0,0-6.59,16.81,74.38,74.38,0,0,0-3.15,17.62q-0.23,4.51-.45,8.93c-0.08,1.48-.17,2.94-0.31,4.42a38.2,38.2,0,0,1-.67,4.37c-0.9,5.54-1.42,11.09-1.77,16.26a117.24,117.24,0,0,0,0,14.63A78.89,78.89,0,0,0-23,710.31a58.05,58.05,0,0,0,2.35,5.61l1,1.92,0,0.05a1,1,0,0,1-.45,1.38,1,1,0,0,1-1.38-.45l-1-2A60.6,60.6,0,0,1-25,711a81.14,81.14,0,0,1-4.35-21.93,119.87,119.87,0,0,1,0-14.92c0.36-5.29.88-10.77,1.83-16.53a36.2,36.2,0,0,0,.65-4.18c0.13-1.42.22-2.87,0.31-4.34q0.23-4.41.46-8.91a76.56,76.56,0,0,1,3.28-18.15A131.05,131.05,0,0,1-16.16,605c1.26-2.73,2.54-5.42,3.67-8.1,0.58-1.36,1.07-2.64,1.51-4l0.59-2.07a21.76,21.76,0,0,1,.66-2.15,17.52,17.52,0,0,1,4.81-7.44,31,31,0,0,1,3.38-2.52l0.79-.56a7.59,7.59,0,0,0,.67-0.56,19.57,19.57,0,0,1,1.55-1.37c4.26-3.26,8.39-5.93,12.2-8.51L24,560.82l7.78-5.63c4.36-3.09,6.95-4.73,6.95-4.73a0.49,0.49,0,0,1,.59.78" transform="translate(97.37 -261.33)"/><path class="cls-7" d="M-27.41,660.29s0.93-3,2.43-7.45,3.62-10.36,6-16.17c0.6-1.46,1.21-2.91,1.85-4.34A35.38,35.38,0,0,1-15,628.26c1.43-2.52,2.71-4.93,3.8-7s1.91-3.84,2.5-5.08l0.88-2a19.88,19.88,0,0,1-.47,2.12A50,50,0,0,1-10,621.77a68.59,68.59,0,0,1-3.23,7.42c-0.7,1.38-1.36,2.58-1.94,4s-1.15,2.85-1.7,4.3l-5.88,16.14L-25.47,661a1,1,0,0,1-1.32.61,1,1,0,0,1-.62-1.27" transform="translate(97.37 -261.33)"/><path class="cls-7" d="M-9,592.54l-4.43,2.28c-2.8,1.49-6.81,3.64-11.4,6.51a66.17,66.17,0,0,0-7.06,5c-2.24,2-4.75,4.37-7.34,6.56-5.2,4.48-10.83,9.12-16.61,13.6-2.89,2.27-5.92,4.37-8.83,6.45s-5.8,4.12-8.5,6.17c-1.35,1-2.66,2.06-3.83,3.12a11.17,11.17,0,0,0-1.53,1.62c-0.46.62-1.07,1.32-1.59,1.89l-6,6.47c-1.83,2-3.54,3.83-4.95,5.54s-2.6,3.21-3.53,4.49a34.09,34.09,0,0,0-2,3.09l-0.64,1.14a0,0,0,0,1-.06,0,0,0,0,0,1,0-.05l0.48-1.23a27.75,27.75,0,0,1,1.67-3.34A47,47,0,0,1-92,657c1.31-1.81,2.85-3.82,4.63-5.91l5.78-6.67a22.74,22.74,0,0,0,1.41-1.81,13.09,13.09,0,0,1,1.78-1.94c1.26-1.16,2.58-2.22,3.94-3.28,2.72-2.12,5.59-4.19,8.49-6.31s5.86-4.21,8.68-6.48c5.67-4.55,11.31-9.15,16.48-13.59,2.63-2.23,4.93-4.39,7.37-6.56a58,58,0,0,1,7.39-5.13c4.73-2.85,8.8-5,11.65-6.41l4.52-2.23a1,1,0,0,1,1.38.47A1,1,0,0,1-9,592.53h0Z" transform="translate(97.37 -261.33)"/><path class="cls-7" d="M44.69,696.33s0.22-.11.66-0.27a16.51,16.51,0,0,1,1.89-.56,25.29,25.29,0,0,1,7.23-.58,35.24,35.24,0,0,1,10.83,2.39,53.84,53.84,0,0,1,12.47,6.91,146.14,146.14,0,0,1,12.88,10.72c4.38,4,8.89,8.34,13.75,12.56,1.23,1,2.48,2.06,3.79,3s2.72,1.77,4.16,2.62a55.93,55.93,0,0,0,8.88,4.58,26,26,0,0,0,9.87,1.71,34.56,34.56,0,0,0,10-1.88,106.8,106.8,0,0,0,18.42-8.87c5.86-3.4,11.48-7,16.82-10.61A162.64,162.64,0,0,0,191.17,707a100.21,100.21,0,0,1,13.38-10.15,49.71,49.71,0,0,1,12.9-6.16,14.93,14.93,0,0,1,6.18-.49c1.87,0.31,3.43.69,4.93,1s2.81,0.56,4,.87a16.08,16.08,0,0,1,3,1.12c1.49,0.75,2.24,1.17,2.24,1.17l0,0a1,1,0,1,1-1,1.78h0s-0.75-.44-2.13-1.17a14,14,0,0,0-2.58-1c-1.07-.31-2.38-0.59-3.86-0.92s-3.14-.74-4.85-1.06a13.33,13.33,0,0,0-5.47.35A46.09,46.09,0,0,0,205.3,698,98.71,98.71,0,0,0,192,707.95,163.56,163.56,0,0,1,177,719.05c-5.38,3.6-11,7.16-17,10.54a107.86,107.86,0,0,1-18.66,8.82c-6.56,2.22-14,2.65-20.44.13a56.47,56.47,0,0,1-9-4.61c-1.43-.83-2.86-1.68-4.24-2.64s-2.62-2-3.87-3.05c-4.92-4.23-9.41-8.57-13.86-12.48A145.32,145.32,0,0,0,77,705.3a49.52,49.52,0,0,0-12.25-6.51,33.5,33.5,0,0,0-10.37-2,23.27,23.27,0,0,0-6.67.69,14.06,14.06,0,0,0-1.64.53c-0.34.13-.49,0.21-0.51,0.22a1,1,0,1,1-.94-1.83h0Z" transform="translate(97.37 -261.33)"/><path class="cls-7" d="M66.71,576.72c4.39-1.66,8,2.46,8,5.48s-2.8,8.11-9.55,4.9" transform="translate(97.37 -261.33)"/><path class="cls-7" d="M81.15,592.09a5.48,5.48,0,1,1-5.48-5.48,5.48,5.48,0,0,1,5.48,5.48" transform="translate(97.37 -261.33)"/><path class="cls-7" d="M88,602a5.48,5.48,0,1,1-5.48-5.48A5.48,5.48,0,0,1,88,602" transform="translate(97.37 -261.33)"/><path class="cls-7" d="M97.45,609.84A5.48,5.48,0,1,1,92,604.36a5.48,5.48,0,0,1,5.48,5.48" transform="translate(97.37 -261.33)"/><path class="cls-7" d="M107.92,615.89a5.48,5.48,0,1,1-5.48-5.48,5.48,5.48,0,0,1,5.48,5.48" transform="translate(97.37 -261.33)"/><path class="cls-7" d="M120.95,620.24a5.48,5.48,0,1,1-5.48-5.48,5.48,5.48,0,0,1,5.48,5.48" transform="translate(97.37 -261.33)"/><path class="cls-7" d="M133.29,621.34a5.48,5.48,0,1,1-5.48-5.48,5.48,5.48,0,0,1,5.48,5.48" transform="translate(97.37 -261.33)"/><path class="cls-7" d="M145.28,620.51A5.48,5.48,0,1,1,139.8,615a5.48,5.48,0,0,1,5.48,5.48" transform="translate(97.37 -261.33)"/><path class="cls-7" d="M156.95,616.62a5.48,5.48,0,1,1-5.48-5.48,5.48,5.48,0,0,1,5.48,5.48" transform="translate(97.37 -261.33)"/><path class="cls-7" d="M167.4,610.2a5.48,5.48,0,1,1-5.48-5.48,5.48,5.48,0,0,1,5.48,5.48" transform="translate(97.37 -261.33)"/><path class="cls-7" d="M176.71,603a5.48,5.48,0,1,1-5.48-5.48,5.48,5.48,0,0,1,5.48,5.48" transform="translate(97.37 -261.33)"/><path class="cls-7" d="M185.34,594.38a5.48,5.48,0,1,1-5.48-5.48,5.48,5.48,0,0,1,5.48,5.48" transform="translate(97.37 -261.33)"/><path class="cls-7" d="M193.16,585.49a5.48,5.48,0,1,1-5.48-5.48,5.48,5.48,0,0,1,5.48,5.48" transform="translate(97.37 -261.33)"/><path class="cls-7" d="M195.26,580.49c-0.68.3-.34,0.49-1.13,0.49a5.48,5.48,0,0,1-5.48-5.48c0-2.35.4-4.39,2.49-5.16" transform="translate(97.37 -261.33)"/><path class="cls-7" d="M72.15,604.88a5.81,5.81,0,1,1-5.8-5.48,5.65,5.65,0,0,1,5.8,5.48" transform="translate(97.37 -261.33)"/><path class="cls-7" d="M78.28,614.69a5.81,5.81,0,1,1-5.8-5.48,5.65,5.65,0,0,1,5.8,5.48" transform="translate(97.37 -261.33)"/><path class="cls-7" d="M85.52,624.59a5.81,5.81,0,1,1-5.8-5.48,5.65,5.65,0,0,1,5.8,5.48" transform="translate(97.37 -261.33)"/><path class="cls-7" d="M95.54,632.44a5.81,5.81,0,1,1-5.8-5.48,5.65,5.65,0,0,1,5.8,5.48" transform="translate(97.37 -261.33)"/><path class="cls-7" d="M106.63,638.49a5.81,5.81,0,1,1-5.8-5.48,5.65,5.65,0,0,1,5.8,5.48" transform="translate(97.37 -261.33)"/><path class="cls-7" d="M119.74,642.84a5.81,5.81,0,1,1-5.8-5.48,5.65,5.65,0,0,1,5.8,5.48" transform="translate(97.37 -261.33)"/><path class="cls-7" d="M132.76,644.48A5.81,5.81,0,1,1,127,639a5.65,5.65,0,0,1,5.8,5.48" transform="translate(97.37 -261.33)"/><path class="cls-7" d="M146.18,643.11a5.81,5.81,0,1,1-5.8-5.48,5.65,5.65,0,0,1,5.8,5.48" transform="translate(97.37 -261.33)"/><path class="cls-7" d="M158.54,639.23a5.81,5.81,0,1,1-5.8-5.48,5.65,5.65,0,0,1,5.8,5.48" transform="translate(97.37 -261.33)"/><path class="cls-7" d="M169.61,632.81a5.81,5.81,0,1,1-5.8-5.48,5.65,5.65,0,0,1,5.8,5.48" transform="translate(97.37 -261.33)"/><path class="cls-7" d="M179.47,625.61a5.81,5.81,0,1,1-5.8-5.48,5.65,5.65,0,0,1,5.8,5.48" transform="translate(97.37 -261.33)"/><path class="cls-7" d="M188.61,617a5.81,5.81,0,1,1-5.8-5.48,5.65,5.65,0,0,1,5.8,5.48" transform="translate(97.37 -261.33)"/><path class="cls-7" d="M196.89,608.09a5.81,5.81,0,1,1-5.8-5.48,5.65,5.65,0,0,1,5.8,5.48" transform="translate(97.37 -261.33)"/><path class="cls-7" d="M203.36,600a5.8,5.8,0,0,1-5.44,3.57,5.49,5.49,0,1,1,0-11,6,6,0,0,1,2.71.63" transform="translate(97.37 -261.33)"/><path class="cls-7" d="M82.35,648.83A5.48,5.48,0,1,1,75.14,646a5.48,5.48,0,0,1,7.21,2.83" transform="translate(97.37 -261.33)"/><path class="cls-7" d="M73.78,641.6a5.48,5.48,0,1,1-7.21-2.83,5.48,5.48,0,0,1,7.21,2.83" transform="translate(97.37 -261.33)"/><path class="cls-7" d="M66.14,633.22a5.48,5.48,0,1,1-7.21-2.83,5.48,5.48,0,0,1,7.21,2.83" transform="translate(97.37 -261.33)"/><path class="cls-7" d="M56.89,621.55a5.48,5.48,0,0,1-.39,9.85" transform="translate(97.37 -261.33)"/><path class="cls-7" d="M92.18,655.34A5.48,5.48,0,1,1,85,652.51a5.48,5.48,0,0,1,7.21,2.83" transform="translate(97.37 -261.33)"/><path class="cls-7" d="M102.4,661.67a5.48,5.48,0,1,1-7.21-2.83,5.48,5.48,0,0,1,7.21,2.83" transform="translate(97.37 -261.33)"/><path class="cls-7" d="M112.74,668a5.48,5.48,0,1,1-5.48-5.48,5.48,5.48,0,0,1,5.48,5.48" transform="translate(97.37 -261.33)"/><path class="cls-7" d="M123.75,670.53a5.48,5.48,0,1,1-5.48-5.48,5.48,5.48,0,0,1,5.48,5.48" transform="translate(97.37 -261.33)"/><path class="cls-7" d="M135.36,670.89a5.48,5.48,0,1,1-5.48-5.48,5.48,5.48,0,0,1,5.48,5.48" transform="translate(97.37 -261.33)"/><path class="cls-7" d="M146.82,669.32a5.48,5.48,0,1,1-5.48-5.48,5.48,5.48,0,0,1,5.48,5.48" transform="translate(97.37 -261.33)"/><path class="cls-7" d="M158.35,666a5.48,5.48,0,1,1-5.48-5.48,5.48,5.48,0,0,1,5.48,5.48" transform="translate(97.37 -261.33)"/><path class="cls-7" d="M169.25,661.57a5.48,5.48,0,1,1-5.48-5.48,5.48,5.48,0,0,1,5.48,5.48" transform="translate(97.37 -261.33)"/><path class="cls-7" d="M178.58,654.64a5.48,5.48,0,1,1-5.48-5.48,5.48,5.48,0,0,1,5.48,5.48" transform="translate(97.37 -261.33)"/><path class="cls-7" d="M188.24,647.75a5.48,5.48,0,1,1-5.48-5.48,5.48,5.48,0,0,1,5.48,5.48" transform="translate(97.37 -261.33)"/><path class="cls-7" d="M197.09,640.27a5.48,5.48,0,1,1-5.48-5.48,5.48,5.48,0,0,1,5.48,5.48" transform="translate(97.37 -261.33)"/><path class="cls-7" d="M204.89,631.72a5.48,5.48,0,1,1-5.48-5.48,5.48,5.48,0,0,1,5.48,5.48" transform="translate(97.37 -261.33)"/><path class="cls-7" d="M211.62,622.29a5.48,5.48,0,1,1-5.48-5.48,5.48,5.48,0,0,1,5.48,5.48" transform="translate(97.37 -261.33)"/><path class="cls-12" d="M221.64,358.19C233.51,331,199.11,298.44,179.85,286c-19.43-12.5-42.8-15.16-48.28,11.5-5,24.35,7.14,48.92,23.93,65.71,2.71,2.16,4.14,3.57,7.77,5.26" transform="translate(97.37 -261.33)"/><path class="cls-7" d="M222.35,358.92c11.79-27.14-23.32-59.85-42.56-72.23-14.4-9.26-31-13.11-40.79-3.64a37.87,37.87,0,0,0-2.21,7.22c-5,24.35,7.14,48.92,23.93,65.71,14.72,11.73,46.82,18.07,61.64,2.94" transform="translate(97.37 -261.33)"/><path class="cls-12" d="M163.28,368.51c-3.45-1.49-3.36-2.05-6.07-4" transform="translate(97.37 -261.33)"/><path class="cls-12" d="M180.4,394.37c7.89-2.43,13.94-5.73,20.58-2.6,3.55,1.68,4.38,11.86,2.88,17.07-0.49,1.71-16.27,29-17.34,30.22-2,2.27-3.51,3.51-5.12,6-0.82,1.28,0,4.82-1.11,7.36a33.59,33.59,0,0,0-8.76,3,6.7,6.7,0,0,1-.73-0.78l0.36,2.15-2.41,25-0.3,11.75s7.23,3.92,8.43-.6,0-7.53,2.71-8.74,6.32-3.31,6.32-9.34-1.51-8.43-1.51-9.64,1.51-7.53,3.92-10.54,19.58-18.37,25.3-23.2,14.76-10.24,16-15.66,3-14.46,2.41-22,2.71-16.27,5.12-19,5.73-5.12,5.73-11.45-1.81-14.76-4.52-18.68-12.65-8.43-12.65-8.43-1.4-.62-3.59-1.63c2.57,7.88,4,20.45-2,28.33" transform="translate(97.37 -261.33)"/><path class="cls-12" d="M131.58,297.54c2.22-10.78,7.36-16.77,14-19.24C139,275.67,135,274.45,132,273.38c-4.22-1.51-6.93-3.31-5.12-3.31H135s-8.74-4.82-15.66-4.82a83.41,83.41,0,0,0-12.35.9l7.83-3.92s-15.46-.54-19.67.53a167.61,167.61,0,0,0-18.58,6.7,35.76,35.76,0,0,0-6.63,4.22l6.63-8.43s-22.29,9.34-23.2,10.24-11.45,9.94-13.86,15.06-6.63,17.77-6.32,21.39,2.11,8.74,1.81,13-1.81,13-1.81,13-4.31,7.42-4.31,11.29c4.12-6.1,9.4-17,12.14-19.72,5.6-5.63,11.15-9.64,24.1-3.92l2.11-.3c13.55-8.74,41.25-12.05,50-8.74,4.7,1.78,9.84,2.54,14.43,4.26A58.33,58.33,0,0,1,131.58,297.54Z" transform="translate(97.37 -261.33)"/><path class="cls-7" d="M160.33,392a34.44,34.44,0,0,1-2.37-2.77,23.45,23.45,0,0,1-2-3.09c-0.3-.54-0.53-1.12-0.79-1.67a13.54,13.54,0,0,1-.63-1.75,12.36,12.36,0,0,1-.44-1.81,12.77,12.77,0,0,1-.23-1.85,14.83,14.83,0,0,1,0-1.86c0-.62.1-1.23,0.15-1.85a29.43,29.43,0,0,1,.72-3.62c0.63-2.37,1.47-4.66,2-7l0.21,0.56L155.17,364h0l0,0q-2.19-2.19-4.27-4.5t-4-4.76q-1.9-2.45-3.66-5t-3.3-5.26q-1.55-2.7-2.92-5.49t-2.5-5.7l-1.08-2.92-1-3-0.82-3-0.69-3,0.44,0.53c-5.1-2.14-10.63-3.14-16.06-4.84-0.65-.21-1.41-0.47-2-0.68s-1.36-.43-2-0.55-1.29-.22-2-0.3l-2-.15a57.84,57.84,0,0,0-8.27.43,90.53,90.53,0,0,0-16.26,3.65,79.78,79.78,0,0,0-7.77,3q-1.91.83-3.73,1.82c-1.25.6-2.38,1.38-3.58,2.07l-0.19.11-0.17,0-2.11.31-0.25,0-0.24-.1c-3.63-1.54-7.47-2.81-11.3-2.66A13.07,13.07,0,0,0,48,325.42a21.16,21.16,0,0,0-4.67,3.41,25.89,25.89,0,0,0-3.9,4.38c-1.17,1.61-2.29,3.28-3.38,5-2.17,3.38-4.24,6.83-6.14,10.35a46.12,46.12,0,0,0-2.52,5.33c-0.68,1.92-1.25,3.77-1.76,5.72-1,3.86-1.76,7.8-2.41,11.77s-1.3,8-1.72,11.94-0.55,8-.71,12c-0.25,8-.57,16.33-2.51,24.27A101.28,101.28,0,0,0,16,443.4a128.79,128.79,0,0,0,2.73,23.87,172.85,172.85,0,0,0,6.6,23.18c3,7.35,8.68,13.3,14.31,19s10.93,12,17.83,16a21.72,21.72,0,0,0,5.41,2.26,12.84,12.84,0,0,0,1.37.3l1.51,0.16a29.19,29.19,0,0,0,3,.25,59.49,59.49,0,0,0,11.87-1.24c3.94-.75,7.85-1.73,11.8-2.65a97.08,97.08,0,0,0,11.51-3.41A89.87,89.87,0,0,0,125.08,510a124.64,124.64,0,0,0,18.3-15.52,136.12,136.12,0,0,0,26.79-39.77l0.42-1,0.75,0.81,0.65,0.7-0.81-.08a22.18,22.18,0,0,1,4.42-1.84c1.5-.47,3-0.85,4.55-1.19l-0.43.36a10.84,10.84,0,0,0,.64-4,19.5,19.5,0,0,1,.14-2.21,3.29,3.29,0,0,1,.41-1.23l0.62-.91a30.08,30.08,0,0,1,2.85-3.3,15.48,15.48,0,0,0,2.65-3.23c3-4.83,5.88-9.78,8.75-14.71l4.27-7.42,2.1-3.73a20.22,20.22,0,0,0,1.82-3.78,23.68,23.68,0,0,0,.26-8.41,18.72,18.72,0,0,0-1-4.09,5.91,5.91,0,0,0-2.38-3.19l0.24-.5a6.39,6.39,0,0,1,2.67,3.5,19.35,19.35,0,0,1,1,4.21,24.24,24.24,0,0,1-.28,8.62,20.67,20.67,0,0,1-1.82,3.94l-2.05,3.77-4.18,7.48c-2.82,5-5.62,9.94-8.58,14.86a16.51,16.51,0,0,1-2.72,3.42,29.39,29.39,0,0,0-2.71,3.22l-0.57.87a2.28,2.28,0,0,0-.23.79,19.6,19.6,0,0,0-.1,2.07,11.89,11.89,0,0,1-.69,4.44l-0.12.28-0.31.07c-1.49.35-3,.75-4.42,1.22a21,21,0,0,0-4.12,1.77l-0.47.28-0.34-.36-0.81-.85,1.17-.16a137,137,0,0,1-26.73,40.5,125.16,125.16,0,0,1-18.49,15.95,91.83,91.83,0,0,1-21.71,11.16,98.7,98.7,0,0,1-11.75,3.38c-3.93.88-7.87,1.84-11.88,2.57A59.3,59.3,0,0,1,68.67,530c-1.15,0-2-.21-3.08-0.3l-1.5-.18a13,13,0,0,1-1.58-.36,23.15,23.15,0,0,1-5.72-2.47c-7.14-4.24-12.49-10.55-18.06-16.33S27.16,498.73,23.93,491a174.19,174.19,0,0,1-7-23.32,133.25,133.25,0,0,1-3.16-24.2,103.76,103.76,0,0,1,2-24.38c1.68-7.85,2.12-15.79,2.65-23.88,0.24-4,.55-8.09,1-12.15s1.16-8,1.8-12,1.44-8,2.51-12c0.53-2,1.15-4,1.84-5.85a47.19,47.19,0,0,1,2.68-5.61c2-3.58,4.06-7.06,6.28-10.46,1.11-1.7,2.25-3.39,3.47-5a27.87,27.87,0,0,1,4.17-4.63,23.07,23.07,0,0,1,5.11-3.69,14.93,14.93,0,0,1,6.21-1.59c4.31-.14,8.35,1.25,12.11,2.87L65,324.94l2.11-.3-0.36.13c1.24-.71,2.44-1.52,3.72-2.13s2.54-1.29,3.85-1.85a81.66,81.66,0,0,1,8-3,92.4,92.4,0,0,1,16.59-3.64,59.64,59.64,0,0,1,8.54-.4l2.15,0.17c0.72,0.08,1.47.23,2.2,0.35s1.36,0.38,2,.57,1.32,0.48,2,.7c5.27,1.69,10.87,2.73,16.15,5l0.35,0.15L132.4,321l0.66,3,0.79,2.95,0.92,2.91,1,2.87q1.12,2.84,2.43,5.61t2.85,5.41q1.53,2.65,3.22,5.2t3.55,5q1.87,2.43,3.87,4.75t4.16,4.5l0,0,1.67,1.27,0.3,0.22-0.09.33c-0.62,2.4-1.49,4.65-2.13,7a28.39,28.39,0,0,0-.74,3.49c0,0.59-.17,1.18-0.16,1.77a14.14,14.14,0,0,0,0,1.77,12.65,12.65,0,0,0,.2,1.76,11.76,11.76,0,0,0,.38,1.73,12.7,12.7,0,0,0,.56,1.68c0.24,0.54.45,1.1,0.72,1.63a23.09,23.09,0,0,0,1.89,3,34.55,34.55,0,0,0,2.29,2.8Z" transform="translate(97.37 -261.33)"/><path class="cls-7" d="M189.86,367.86l-18-4.83s-6.59,4.83-7.69,7-2.42,11.21-2.42,11.21-0.22,4.17,1.54,5.27,10.24,0.26,12-.39a22.37,22.37,0,0,0,7.13-5.32c1.54-2,7.91-7.47,7.47-13" transform="translate(97.37 -261.33)"/><path class="cls-8" d="M163.62,371.94a6.82,6.82,0,0,0,1.85,4.72c2,2,5.28,4.83,8.35,4.39s9-2.64,9.89-4,5.71-4.83,5.71-4.83" transform="translate(97.37 -261.33)"/><path class="cls-8" d="M167.59,379.51a10,10,0,0,1,4.61-3.3,34,34,0,0,1,8.13-1.32c1.54,0,3.74.22,3.74,0.22" transform="translate(97.37 -261.33)"/><path class="cls-7" d="M167.37,388.08l-7.47,3.08s0.66,14.28-.22,16.92,11.43-2.86,13-4.61c0.83-.95,3.9-4.77,7-8.74,2.63-3.42,5.26-6.95,6.44-8.83,2.2-3.52,4.17-12.09,4.39-13.18s-1.76-4.18-1.76-4.18l-4.39,8.35s-5.27,5.93-9.45,8.57a15.43,15.43,0,0,1-7.47,2.64" transform="translate(97.37 -261.33)"/><path class="cls-7" d="M189.56,376.65a24.16,24.16,0,0,0,4.17,7.47c2.64,2.86,6.59,7.47,9.67,9s11.21,5.71,13.19,5.93a34.9,34.9,0,0,1,4.39.88s3.51-8.79,4-11.65,0.66-4.84.66-4.84-11.87,0-16.26-2.2-8.35-4.62-11-7.25a57.62,57.62,0,0,0-6.37-5.27l-2,.66,0.22,4.61Z" transform="translate(97.37 -261.33)"/><path class="cls-7" d="M219.81,382.8s2.2-5.05,2.42-7.69,2-6.59,1.76-8.13,0-3.52-2.2-4-8.79,2.42-10.11,2.85-10.55,3.3-11.87,3.3h-7.69s4.18,5.5,5.49,6.37,5.71,4.17,7.47,4.61,4.4,2,7,2.42a50.62,50.62,0,0,0,7.69.22" transform="translate(97.37 -261.33)"/><path class="cls-8" d="M224.11,367.51s-6.06,6.28-7.38,6.94a20.29,20.29,0,0,1-7.91,1.54c-2.42-.22-7.25-2.2-8.57-2.86s-8.13-4-8.13-4" transform="translate(97.37 -261.33)"/><path class="cls-8" d="M218.79,374.45s-12.31-2.64-13.62-2.64h-5.49" transform="translate(97.37 -261.33)"/><path class="cls-7" d="M55.06,323s-0.34-.15-0.93-0.51a16.54,16.54,0,0,1-2.29-1.71,17.69,17.69,0,0,1-2.64-3.09,15.61,15.61,0,0,1-1.92-4.26,21.72,21.72,0,0,1-.49-2.31c-0.07-.78-0.09-1.54-0.14-2.28s0.12-1.43.17-2.1,0.26-1.27.38-1.84a14.91,14.91,0,0,1,.88-2.63c0.24-.62.41-1,0.41-1l0.19,0.06s0,0.39-.07,1-0.19,1.57-.18,2.67c0,0.55-.08,1.14,0,1.76s0.06,1.27.09,1.94,0.17,1.34.29,2,0.27,1.37.52,2a16,16,0,0,0,.76,1.94A17.13,17.13,0,0,0,51,316.5a18.75,18.75,0,0,0,4.09,4.55l0.8,0.61Z" transform="translate(97.37 -261.33)"/><path class="cls-7" d="M65.72,326.64a21.85,21.85,0,0,1-3.89-7.09,30.19,30.19,0,0,1-1.06-3.76c-0.16-.68-0.28-1.38-0.38-2.1a18.42,18.42,0,0,1-.26-2.21,40.71,40.71,0,0,1-.12-4.64c0.12-1.57.2-3.18,0.47-4.75s0.6-3.13.92-4.66,0.76-2.94,1.21-4.36a74.81,74.81,0,0,1,2.68-7.6,19.74,19.74,0,0,1,2.89-4.95,4.06,4.06,0,0,1,1.27-1,1.64,1.64,0,0,0,.49-0.25l0,0a1.57,1.57,0,0,1-.45.34,4,4,0,0,0-1,1.13,19.13,19.13,0,0,0-2.14,5.11,75.58,75.58,0,0,0-1.92,7.66,80.71,80.71,0,0,0-1.5,8.88c-0.2,1.5-.21,3-0.26,4.5s0,2.94.21,4.34a38.88,38.88,0,0,0,.55,4c0.23,1.27.5,2.46,0.81,3.53A35.7,35.7,0,0,0,66,323.9l0.66,1.36c0.15,0.28.25,0.45,0.25,0.45Z" transform="translate(97.37 -261.33)"/><path class="cls-7" d="M74.33,322.33l-0.4-.72c-0.21-.47-0.5-1.14-0.8-2a25.68,25.68,0,0,1-1.24-6.22,20.77,20.77,0,0,1,.36-6.29,10.86,10.86,0,0,1,.64-2,5.64,5.64,0,0,1,.32-0.73l0.39,0.06a5.7,5.7,0,0,1,.13.78c0.07,0.5.13,1.2,0.2,2s0.11,1.78.13,2.8,0.09,2.1.19,3.17a51.74,51.74,0,0,0,.86,5.86c0.33,1.6.63,2.59,0.63,2.59Z" transform="translate(97.37 -261.33)"/><path class="cls-7" d="M83,319.15l-0.06-.56c-0.05-.38-0.07-0.92-0.1-1.6a39.93,39.93,0,0,1,.26-5.65c0.12-1.16.35-2.41,0.58-3.73s0.56-2.7,1-4.08,0.84-2.84,1.37-4.28,1.11-2.87,1.69-4.31,1.33-2.8,2-4.18,1.5-2.63,2.22-3.89,1.57-2.38,2.29-3.49,1.53-2.08,2.23-3,1.34-1.77,2-2.44l1.63-1.8,1.43-1.55L102,275l-1.27,1.67-1.47,1.9c-0.59.71-1.12,1.62-1.77,2.55s-1.37,1.93-2,3.07-1.39,2.28-2.05,3.53-1.33,2.55-2,3.9-1.26,2.71-1.79,4.12-1.1,2.8-1.51,4.22-0.87,2.8-1.2,4.17c-0.7,2.72-1.21,5.3-1.57,7.51a67.44,67.44,0,0,0-.9,7.41Z" transform="translate(97.37 -261.33)"/><path class="cls-7" d="M102.76,315a4.65,4.65,0,0,1-.31-0.81,8.68,8.68,0,0,1-.34-2.12,14,14,0,0,1,1.21-6.16,20.64,20.64,0,0,1,1.5-2.94,28,28,0,0,1,1.63-2.34c0.5-.66,1-1.15,1.31-1.52l0.5-.57,0.58,0.46s-0.59.91-1.39,2.3a26,26,0,0,0-1.28,2.4,20.85,20.85,0,0,0-1.19,2.83c-0.19.48-.3,1-0.45,1.48s-0.23,1-.34,1.44a18.35,18.35,0,0,0-.25,2.57,11.73,11.73,0,0,0,.12,1.78c0.08,0.43.11,0.58,0.13,0.62Z" transform="translate(97.37 -261.33)"/><path class="cls-7" d="M223.35,410.92c-0.06,0,.36-0.06.32,0.42a4.16,4.16,0,0,1-.57,1.55,31.45,31.45,0,0,1-3.31,4.7c-1.49,1.84-3.34,3.89-5.4,6-1,1.05-2.07,2.14-3.24,3.2s-2.25,2.13-3.5,3.14-2.48,2-3.72,2.94-2.56,1.77-3.81,2.56c-2.53,1.58-5,2.8-6.9,4a11.54,11.54,0,0,0-2.27,1.9,10.51,10.51,0,0,0-1.35,1.91,14.74,14.74,0,0,0-.71,1.39l-0.24.5-0.39-.11,0.12-.56a10.67,10.67,0,0,1,.4-1.58,9.66,9.66,0,0,1,1.08-2.36,11.12,11.12,0,0,1,2.27-2.56c0.95-.77,2-1.56,3.12-2.29l3.45-2.38c1.18-.83,2.36-1.72,3.56-2.65s2.41-1.87,3.56-2.87,2.35-2,3.5-3l3.36-3,6-5.3c1.72-1.57,3.14-2.89,4-3.9a4.64,4.64,0,0,0,.88-1.25c0.15-.36-0.19-0.42-0.17-0.4" transform="translate(97.37 -261.33)"/><path class="cls-7" d="M179,457.16s-0.06.05,0.13,0.08a0.63,0.63,0,0,1,.26.14,1.21,1.21,0,0,1,.1.17,0.81,0.81,0,0,0,.15.43,3.31,3.31,0,0,1,.23.86c0.11,0.73.18,1.74,0.22,3s0.11,2.65.1,4.18c0,0.75,0,1.58,0,2.37a23.31,23.31,0,0,1-.23,2.45,21.58,21.58,0,0,1-1.24,4.77,16.61,16.61,0,0,1-2.11,3.77c-0.75,1-1.36,1.74-1.73,2.31a10,10,0,0,0-.56.93l-0.35-.1,0-.3a5,5,0,0,1,.16-0.85,16.17,16.17,0,0,1,1.12-2.79,27.77,27.77,0,0,0,1.45-3.69,42.15,42.15,0,0,0,1.05-4.42l0.85-4.6c0.25-1.49.49-2.88,0.65-4.07a16,16,0,0,0,.11-2.88,3,3,0,0,0-.13-0.73c0-.05-0.07-0.14-0.11.09a0.6,0.6,0,0,0,0,.14,0.44,0.44,0,0,0,.22.14c0.16,0,.06.1,0.09,0.09Z" transform="translate(97.37 -261.33)"/><path class="cls-7" d="M173.13,460.24s-0.07.05,0.13,0.08a0.6,0.6,0,0,1,.26.14c0,0.07.07,0.1,0.1,0.17a0.66,0.66,0,0,0,.12.4,2.9,2.9,0,0,1,.19.73c0.09,0.61.16,1.46,0.21,2.48s0.13,2.21.15,3.49a23.93,23.93,0,0,1-.17,4,17.43,17.43,0,0,1-1,4,13.34,13.34,0,0,1-1.78,3.16c-0.63.82-1.15,1.43-1.48,1.9a9.07,9.07,0,0,0-.5.76l-0.35-.1,0-.25a4,4,0,0,1,.11-0.72,13.16,13.16,0,0,1,.86-2.37,25.23,25.23,0,0,0,1.12-3.07c0.34-1.13.59-2.4,0.84-3.66l0.75-3.81c0.23-1.23.45-2.39,0.59-3.38a12.92,12.92,0,0,0,.13-2.39,2.81,2.81,0,0,0-.1-0.6s-0.05-.12-0.09.12a0.71,0.71,0,0,0,0,.14,0.46,0.46,0,0,0,.23.14c0.18,0,.07.1,0.1,0.09Z" transform="translate(97.37 -261.33)"/><path class="cls-7" d="M210,412.25a1.7,1.7,0,0,1,.26.23,2.87,2.87,0,0,1,.58.85,5,5,0,0,1,0,3.73,9.37,9.37,0,0,1-1.13,2.23,16.05,16.05,0,0,1-1.72,2.11,22.14,22.14,0,0,1-2.12,1.9c-0.75.65-1.5,1.13-2.26,1.71-3,2.23-6.26,4.24-8.59,5.69a19.53,19.53,0,0,0-2.57,1.86,8.34,8.34,0,0,0-.83.83l-1.3-.82a7.79,7.79,0,0,1,.71-1.23,14.73,14.73,0,0,1,2.51-2.63c2.22-1.87,5.27-4,8.34-6.12L204.1,421c0.75-.49,1.42-1,2.07-1.53a18.37,18.37,0,0,0,1.76-1.57,9.84,9.84,0,0,0,1.33-1.58,6.06,6.06,0,0,0,.77-1.52,4.29,4.29,0,0,0,.19-1.33,3.07,3.07,0,0,0-.28-1.23" transform="translate(97.37 -261.33)"/></g></g></g></g></g></g></g></svg>