<svg id="Ebene_1" data-name="Ebene 1" xmlns="http://www.w3.org/2000/svg" viewBox="0 0 461.19 815.4"><defs><style>.cls-1{fill:none;}.cls-2{fill:#fff;}</style></defs><title>human4</title><path class="cls-1" d="M485.4,205.4c0.3,0.3.6,0.5,0.9,0.8,0.2-.4.4-0.7,0.6-1.1-0.3,0-.5.1-0.8,0.1A2.54,2.54,0,0,1,485.4,205.4Z" transform="translate(-357.35 -7.8)"/><path class="cls-1" d="M486,150.9a21.74,21.74,0,0,1,4.9-5.9,19.11,19.11,0,0,1,5.1-3.2,13.21,13.21,0,0,1,3-1l1.6-.3c0.5-.1,1.3-0.1,1.9-0.2H504a7.77,7.77,0,0,1,1.6.2,17.63,17.63,0,0,1,2.7.7c0.2,0.1.3,0.1,0.5,0.2a9,9,0,0,1-.9-1,27,27,0,0,0-3.1-2.8,14.31,14.31,0,0,0-1.5-1.1,3.11,3.11,0,0,1-.6-0.4l-0.1-.1h-0.1c-0.1,0,.4.1,0.2,0.1h-0.1l-0.7-.2a2.57,2.57,0,0,0-.5-0.2c-0.2-.1-0.5-0.1-0.8-0.2a11.48,11.48,0,0,0-1.9-.1,18.38,18.38,0,0,0-4.3.9,15.75,15.75,0,0,0-7.4,5.5,8.57,8.57,0,0,0-1.5,3.9v0.4h0v1a6.15,6.15,0,0,0,.1,1.3A16.38,16.38,0,0,1,486,150.9Z" transform="translate(-357.35 -7.8)"/><path class="cls-1" d="M548.2,76.4a9.64,9.64,0,0,0-1.7-2.1,3,3,0,0,0-1.4-.7,4.57,4.57,0,0,0-2,.4l-0.6.3-0.3.2-0.4.3-1.7,1.1c-1.2.7-2.3,1.4-3.4,2.1-2.2,1.4-4.4,2.7-6.4,4.1a36.27,36.27,0,0,0-3.5,3c9.2,1.5,18.2,5.3,23.6-4.4-0.2-.5-0.4-0.9-0.6-1.4C549.2,78.3,548.7,77.3,548.2,76.4Z" transform="translate(-357.35 -7.8)"/><path class="cls-1" d="M532.7,72.5c1.1-.8,2.1-1.7,3.2-2.5l1.6-1.2,0.4-.3,0.5-.4,1.1-.7c0.4-.2.8-0.4,1.3-0.6a7.84,7.84,0,0,1,1.4-.5l1.5-.3a9.65,9.65,0,0,1,1.7,0,9.83,9.83,0,0,1,5.9,2.4,10.67,10.67,0,0,1,2.3,2.5c0.4-1.6.8-3.1,1.1-4.6,0-.1-0.1-0.1-0.1-0.2a19.68,19.68,0,0,0-1.5-2.9,9.64,9.64,0,0,0-1.7-2.1,3,3,0,0,0-1.4-.7,4.57,4.57,0,0,0-2,.4l-0.6.3-0.3.2-0.4.3L545,62.7c-1.2.7-2.3,1.4-3.4,2.1-2.2,1.4-4.4,2.7-6.4,4.1a23.43,23.43,0,0,0-6.7,7.2l-0.3.6A34.57,34.57,0,0,1,532.7,72.5Z" transform="translate(-357.35 -7.8)"/><path class="cls-1" d="M618.5,37.7c-0.2-.3-0.3-0.6-0.5-0.9-0.5-.8-1-1.5-1.5-2.3l-0.4-.6-0.1-.1h0l0.1,0.1-0.1-.2-0.2-.3-0.9-1.2c-0.3-.3-0.5-0.6-0.8-0.9l-0.9-.9c-0.3-.3-0.6-0.5-0.9-0.8a4.69,4.69,0,0,0-.9-0.6,4.38,4.38,0,0,0-1.9-.7,4.71,4.71,0,0,0-2,.2,6,6,0,0,0-2.2,1.2,4.36,4.36,0,0,0-1,.8l-1.1,1.1c-0.7.7-1.3,1.5-2.1,2.3a11.65,11.65,0,0,1-3.1,2.5,1.42,1.42,0,0,1-.6.2C608.2,38.2,612.3,40,618.5,37.7Z" transform="translate(-357.35 -7.8)"/><path class="cls-1" d="M506.1,155.5l-0.1-.1a22.22,22.22,0,0,0-2.3-1.5,9.25,9.25,0,0,0-1-.5,0.34,0.34,0,0,1-.3-0.2h0l-0.5-.1c-0.1,0,.1-0.1-0.1-0.1h-0.4a4.48,4.48,0,0,0-1.1.1,8.38,8.38,0,0,0-2.5.9,10.11,10.11,0,0,0-4.1,4.1,5.33,5.33,0,0,0-.6,2.4v0.2h0v0l0.1,0.6a3.09,3.09,0,0,0,.2.8,6.36,6.36,0,0,0,.6,1.8q0.75,1.8,1.8,3.9a32.89,32.89,0,0,1,2,4.2c3.4-7.5,6.8-13.4,6.8-13.4S505.2,157.5,506.1,155.5Z" transform="translate(-357.35 -7.8)"/><path class="cls-1" d="M763.9,214.1a50.18,50.18,0,0,0,1.5,10.3,8.75,8.75,0,0,0,.2-1.6,6.56,6.56,0,0,0-.1-2,20,20,0,0,0-.6-2.3,12,12,0,0,1-.5-3.3v-1A0.9,0.9,0,0,0,763.9,214.1Z" transform="translate(-357.35 -7.8)"/><path class="cls-1" d="M772.8,216.4h0l-0.7-.2c-0.7-.2-1.3-0.4-2-0.6a9.7,9.7,0,0,0,.1,1.7,20.32,20.32,0,0,1,.4,2.9,11.26,11.26,0,0,1-.2,3.2,25.47,25.47,0,0,1-1.5,5.3c-0.3.8-.7,1.7-1,2.5a21.64,21.64,0,0,0,4.7,6.1c1.7,1.5,3.2,2.8,4.7,4.1h0a15.68,15.68,0,0,1-1.4-2.9,8.24,8.24,0,0,1-.5-3.9,10,10,0,0,1,1.5-3.6,27.08,27.08,0,0,0,1.6-2.7c0.2-.4.5-0.9,0.7-1.4,0.1-.3.4-0.8,0.5-1.2a7.92,7.92,0,0,0,.5-2.4,5.41,5.41,0,0,0-.3-1.9,4.49,4.49,0,0,0-1.2-1.6,3.11,3.11,0,0,0-.9-0.7,6.07,6.07,0,0,1-1-.7,10.9,10.9,0,0,1-1.1-.6,11.73,11.73,0,0,1-1.1-.5,5.78,5.78,0,0,0-1.4-.5l-0.4-.1v-0.3c0.2,0.1.1,0,0,0h0Z" transform="translate(-357.35 -7.8)"/><path class="cls-1" d="M764.1,204.6c0.7,0.2,1.4.5,2.2,0.7a63.86,63.86,0,0,1,5.8-10.1,43.89,43.89,0,0,0,2.6-4.6,16,16,0,0,0,1-2.3l0.5-1.3,0.1-.2s0.1-.1,0,0.1h0v-0.1l0.1-.3c0.1-.2.1-0.3,0.2-0.5a13.61,13.61,0,0,0,0-8,8.74,8.74,0,0,0-1.5-2.9c-0.6-.7-1.1-0.9-1.1-0.7l0.1,0.1a1,1,0,0,0,.4.1h0.2c0.1,0,0,0,0,.1a1.44,1.44,0,0,0-.3.2,22.59,22.59,0,0,0-2.6,1.7c-0.6.5-1.3,1-1.9,1.5-1.9,5.8-3.3,10.7-3.3,10.7A90.7,90.7,0,0,0,764.1,204.6Z" transform="translate(-357.35 -7.8)"/><path class="cls-1" d="M780.5,126.9a34,34,0,0,1,2.3,12.3c1.1-2,2.3-4.1,3.4-6.5a59.44,59.44,0,0,0,3.3-7.7,33.1,33.1,0,0,0,1.2-4.2l0.2-1.1c0-.4.1-0.7,0.1-1.1V118a0.9,0.9,0,0,0-.1-0.5c0-.4-0.1-0.7-0.1-1.1a8.79,8.79,0,0,0-1.5-4,9.54,9.54,0,0,0-3.3-2.6,27.08,27.08,0,0,0-4.3-1.4c-1.5-.3-3-0.6-4.5-0.8-3-.5-6-0.8-8.9-1-0.7-.1-1.5-0.1-2.2-0.2l-2.3-.3c-1.5-.3-3-0.6-4.4-1a21.3,21.3,0,0,1-3.5-1.4l0.1,0.5S775.8,115.4,780.5,126.9Z" transform="translate(-357.35 -7.8)"/><path class="cls-1" d="M650.4,45.2c7.3-2.5,7.8-13.4,26.8-15.4,6.7-.7,11.6-1.3,15.4-1.5-0.6-.5-1.3-1.1-2.4-2-2.1-1.7-5.2-4.1-9-6.9-1.9-1.3-4-2.8-6.3-4.2a72.77,72.77,0,0,0-7.3-4.1,29,29,0,0,0-4.1-1.6l-1.1-.3a4.25,4.25,0,0,0-1.1-.2L661,8.9h-1.6a11.76,11.76,0,0,0-4.2,1,8.34,8.34,0,0,0-2.9,3,30,30,0,0,0-1.8,4.1c-0.5,1.4-.9,2.9-1.3,4.4-0.8,2.9-1.4,5.9-2,8.7-0.1.7-.3,1.4-0.4,2.1s-0.3,1.5-.5,2.2a31.22,31.22,0,0,1-1.5,4.3,22.52,22.52,0,0,1-2.9,5C645.3,45.2,648.4,45.9,650.4,45.2Z" transform="translate(-357.35 -7.8)"/><path class="cls-1" d="M478.4,198.7c1.8-.8,3.6-1.4,5.2-2,2.3-.8,4.3-1.4,5.8-1.9a0.37,0.37,0,0,0-.1-0.3,26.76,26.76,0,0,1-.5-4.3,11.41,11.41,0,0,1,1-5.2,10.5,10.5,0,0,1,1.4-2.2,15.14,15.14,0,0,0,.9-1.4,5.73,5.73,0,0,0,.4-1.4l0.1-.9v-0.7a7.11,7.11,0,0,0-1-3,43.74,43.74,0,0,0-2.6-3.8l-0.3.9-0.3,1-0.3.7-0.4.9a16.59,16.59,0,0,1-2.2,3.2,17.45,17.45,0,0,1-2.7,2.3,17.5,17.5,0,0,0-1.9,1.6,10,10,0,0,0-2.1,4.1,31.07,31.07,0,0,0-1.1,9.8C477.9,196.9,478.1,197.8,478.4,198.7Z" transform="translate(-357.35 -7.8)"/><path class="cls-1" d="M482.8,210.1a13.39,13.39,0,0,0-1.6-2.2,6.79,6.79,0,0,0-1.2-1.2c-0.5.2-1,.3-1.5,0.5l-0.7.2h-0.1s-0.1.1,0.1,0l-0.2.1-0.4.1a12.13,12.13,0,0,1-1.4.5c-0.4.2-.7,0.3-1.1,0.5a10.91,10.91,0,0,0-1.1.6,6.07,6.07,0,0,0-1,.7c-0.3.2-.6,0.5-0.9,0.7a4.49,4.49,0,0,0-1.2,1.6,3.08,3.08,0,0,0-.3,1.9,7.36,7.36,0,0,0,.5,2.4c0.1,0.4.4,0.9,0.5,1.2,0.2,0.5.5,1,.7,1.4,0.5,0.8,1,1.7,1.6,2.7,0.3,0.5.6,1,.9,1.6a127.47,127.47,0,0,0,8.8-12.4A4.92,4.92,0,0,0,482.8,210.1Z" transform="translate(-357.35 -7.8)"/><path d="M815.8,518.3l-1.2-6c-0.4-2-.9-4-1.4-6a92.43,92.43,0,0,0-3.8-12,59.26,59.26,0,0,0-6-11.4,50.31,50.31,0,0,0-8.7-9.7,40.57,40.57,0,0,0-4.6-3.6,15.44,15.44,0,0,0,2.3-4.4c14.6-38.3-10.4-52.3-16.2-87.4s53.7,35.5,40.4-35.5c-5.5-29.3-12.3-24.5-17.1-48.4s-20.2-23.2-14-30.6c4.7-5.6,3.5-10.2-3.9-17.7v-0.2a10.07,10.07,0,0,0-.6-2.8,7.83,7.83,0,0,0-.5-1.4l-0.1-.3-0.1-.2h0l-0.1-.1v-0.1l-0.3-.6a25,25,0,0,1-.9-2.5,3.37,3.37,0,0,1,0-2c0.3-1.1,1.9-2.6,3.3-4.5a12.13,12.13,0,0,0,1-1.4,15.05,15.05,0,0,0,1-1.7,14.25,14.25,0,0,0,1.4-3.8,10.27,10.27,0,0,0-.1-4.6,12,12,0,0,0-2-4.1,10.71,10.71,0,0,0-1.4-1.6,17.38,17.38,0,0,0-1.5-1.3c-0.5-.4-1-0.7-1.5-1.1s-1.1-.7-1.6-1-0.9-.5-1.4-0.8l-0.3-.2-0.2-.1-0.3-.1-0.7-.3c-0.8-.4-1.6-0.7-2.4-1.1a71,71,0,0,1,6-7.7,48.26,48.26,0,0,0,3.7-4.9c0.6-.8,1.2-1.9,1.7-2.7l0.7-1.2,0.1-.2,0.1-.3,0.2-.4c0.1-.3.3-0.5,0.4-0.8a25.41,25.41,0,0,0,2.1-13.6,19,19,0,0,0-2.2-7,14.46,14.46,0,0,0-6.1-6.2,9.89,9.89,0,0,0-2.4-.9c-0.2,0-.3-0.1-0.6-0.1a9.74,9.74,0,0,1,1-1.5c3-4,5.3-11.8,5.4-19.9,0.1-.2.3-0.5,0.4-0.7,1.1-2,2.3-4.3,3.6-6.7s2.4-5,3.5-7.7c0.5-1.4,1-2.8,1.4-4.3l0.2-1.1c0-.4.1-0.8,0.1-1.2v-1.2a4.87,4.87,0,0,0-.1-1.2,11.59,11.59,0,0,0-1.4-4.7,10,10,0,0,0-3.7-3.4,39.13,39.13,0,0,0-9-3.3c-3-.8-6-1.6-8.8-2.3a16,16,0,0,0-2.1-.5c-0.7-.2-1.3-0.3-1.9-0.5a28.35,28.35,0,0,1-3.5-1.4,17.72,17.72,0,0,1-5.2-3.9,19.5,19.5,0,0,1-1.8-2.5l-1.6-11.1s-3.9-7.9-16.2-15.1c-5.6-3.2-12,.3-15.6,2.9-0.1-.7-0.3-1.5-0.4-2.5-0.2-1.2-.3-2.6-0.4-4a36.48,36.48,0,0,1-.1-4.7,45.3,45.3,0,0,1,.6-5,7.94,7.94,0,0,1,1.9-3.9l0.3-.3,0.4-.2c0.1-.1.3-0.1,0.4-0.2l0.2-.1,0.4-.1,0.8-.2a2,2,0,0,1,.7-0.1c0.4,0,.8-0.2,1.3-0.2a7.73,7.73,0,0,1,4.9,1.3,51.32,51.32,0,0,1,4.6,3.8,27.31,27.31,0,0,0,4.9,3.2q2.4,1.35,4.5,2.4c2.8,1.5,5.1,2.8,6.7,3.7s2.5,1.5,2.5,1.5l0.5-.9s-1-.4-2.6-1.2c-0.8-.4-1.8-0.9-2.9-1.5s-2.4-1.4-3.7-2.2-2.7-1.8-4.2-2.8a23.59,23.59,0,0,1-4.2-3.6c-1.3-1.4-2.5-3-4.2-4.6a11.42,11.42,0,0,0-3-2.1l-0.9-.4-0.9-.3a11.63,11.63,0,0,0-1.8-.4,11.48,11.48,0,0,0-1.9-.1h-2a1.08,1.08,0,0,0-.6.1c-0.4.1-.7,0.1-1.1,0.2a4.87,4.87,0,0,0-1.1.4l-1,.5a10.25,10.25,0,0,0-3.1,2.7,20.45,20.45,0,0,0-2,3.1c-0.1.3-.3,0.5-0.4,0.8-1.6-6.3-3.6-12.5-6-16.3-4-6.4-6.9-8.1-14.1-7.9-0.3-.2-1.5-1.1-3.4-2.6-2.2-1.6-5.3-4-9.1-6.7-1.9-1.4-4-2.8-6.3-4.3a73.76,73.76,0,0,0-7.3-4.3,30,30,0,0,0-4.1-1.8l-1.1-.3c0.1-.2-0.4-0.3-0.7-0.3l-0.6-.1h-0.6a4.87,4.87,0,0,1-1.2-.1,11.39,11.39,0,0,0-4.8.9,10.13,10.13,0,0,0-3.8,3.3,43.2,43.2,0,0,0-4.3,8.6c-1.1,2.9-2.2,5.8-3.2,8.5-0.3.7-.5,1.4-0.8,2s-0.5,1.3-.7,1.9a17.4,17.4,0,0,1-1.8,3.3,18.9,18.9,0,0,1-4.2,4.6c-2.8-1.4-5.3-3-7.3-4.2-0.1-.1-0.1-0.2-0.2-0.3-1-1.4-2.1-2.9-3.4-4.5-0.6-.8-1.3-1.6-2-2.4l-0.5-.6-0.2-.2-0.1-.1-0.3-.3-1.1-1.1a16.61,16.61,0,0,1-1.4-1.3,14.31,14.31,0,0,0-1.5-1.1c-0.6-.4-1.1-0.7-1.7-1.1a11.08,11.08,0,0,0-1.9-.9,10.94,10.94,0,0,0-4.5-.8,9.33,9.33,0,0,0-4.4,1.2,14,14,0,0,0-3.3,2.4c-0.5.5-.8,0.9-1.3,1.4a14.7,14.7,0,0,0-1,1.3c-1.4,1.9-2.5,3.9-3.4,4.5a4.74,4.74,0,0,1-2,.6,23.48,23.48,0,0,1-2.6-.1l-0.7-.1h-0.7c-0.5,0-.9-0.1-1.4-0.1a12.92,12.92,0,0,0-2.9.3,15.67,15.67,0,0,0-4.5,1.7,0.76,0.76,0,0,1-.4.2c-16.7-.2-20.9,8.4-23.6,20l-0.6-.6a10.48,10.48,0,0,0-5.9-2.4h-1.7l-1.5.3a7.84,7.84,0,0,0-1.4.5c-0.4.2-.9,0.4-1.3,0.6l-1.1.7-0.5.4-0.4.3-1.6,1.2c-1.1.8-2.2,1.7-3.2,2.5-2.1,1.7-4.2,3.5-6.2,5.4a33,33,0,0,0-4.9,6.4,23.8,23.8,0,0,0-2.6,6.6c-0.1.5-.3,1-0.4,1.5l-0.3,1.5a5,5,0,0,0-.2,1.2,23.27,23.27,0,0,0-1.7,2.6,0.37,0.37,0,0,0-.1.3,17,17,0,0,0-8.7,2.1c-17.2,9.9-.8,20.4,1,35.5a37,37,0,0,1,.2,4.8c-0.6-.3-1.1-0.7-1.7-1-1-.5-2-1.1-3.2-1.6-0.6-.2-1.2-0.5-1.9-0.7l-0.5-.2-0.3-.1s-0.5-.1-0.3-0.1h-0.1l-0.7-.1a20.79,20.79,0,0,0-2.3-.3,7.39,7.39,0,0,0-2.1,0,24.45,24.45,0,0,0-3.9.5,24.74,24.74,0,0,0-7.2,2.6,27.86,27.86,0,0,0-6.3,4.5,24.69,24.69,0,0,0-4.9,6.5,18.61,18.61,0,0,0-1.9,8.5v1.1l0.1,0.8c0.1,0.7.2,1.4,0.3,2a21.07,21.07,0,0,0,.9,3.6c1.4,4.7,3.7,8.6,4.7,12.1a10.28,10.28,0,0,1,.3,4.9c0,0.2-.1.4-0.1,0.6a2,2,0,0,1-.1.5l-0.2.7-0.2.5a9.46,9.46,0,0,1-1.1,2,15.19,15.19,0,0,1-1.8,1.8,19.64,19.64,0,0,0-2.5,2.5,14.37,14.37,0,0,0-2.7,6.3,39.38,39.38,0,0,0-.6,5.8,33.73,33.73,0,0,0,.2,5.5,27.44,27.44,0,0,0,.9,3.9l-0.1.1-0.3.1-0.2.1-0.3.2c-0.5.3-.9,0.5-1.4,0.8s-1.1.7-1.6,1-1,.7-1.5,1.1a17.38,17.38,0,0,0-1.5,1.3,10.7,10.7,0,0,0-1.4,1.6,10.49,10.49,0,0,0-2,4.1,10.21,10.21,0,0,0-.1,4.6,14.25,14.25,0,0,0,1.4,3.8c0.3,0.6.6,1,1,1.7a12.13,12.13,0,0,0,1,1.4c1.4,1.9,3,3.5,3.3,4.5a3.08,3.08,0,0,1,.1,1c-2.2,2.6-4.4,5.1-6.5,7.4-11.5,12.4-21.3,33.4-19.1,33s21-8.3,18.6-4.6c-1.5,2.2-4.4,21.9-5.9,39.4-0.3.2-.5,0.4-0.8,0.6a29.36,29.36,0,0,1-3.9,2.6c-5.3,2.7-19,25.9-21.1,29.6-3.2,2.1-6.4,4.2-9.8,6a12,12,0,0,0-3.9,2.9,9.81,9.81,0,0,0-2.1,4.5,22.72,22.72,0,0,0,.4,9.7,61.74,61.74,0,0,0,3,9.2l1.8,4.5c0.6,1.5,1.1,3,1.6,4.5,2,6.2,3.6,12.6,5.1,19.1s2.8,13.1,3.7,19.9a62.87,62.87,0,0,1-.3,20.3h0a47.07,47.07,0,0,0-6.4,1.9,52.39,52.39,0,0,0-12.4,6.5,64.43,64.43,0,0,0-18.2,20.4,66.23,66.23,0,0,0-7.9,25.7,117.39,117.39,0,0,0-.5,13.2c0.1,4.4.3,8.7,0.7,13,0.6,8.6,1.5,17.1,1.9,25.4,0.8,15.9.9,31.5,0.9,46.5-5.4,12.1-10.8,24.2-16.3,36.3-3.2,6.9-6.4,13.8-9.7,20.5-0.8,1.7-1.8,3.3-2.5,5.1l-1.2,2.7c-0.4.9-.6,1.9-1,2.8-0.7,1.9-1,3.8-1.5,5.7a28.85,28.85,0,0,0-.4,2.9,28.5,28.5,0,0,0-.3,2.9,74.06,74.06,0,0,0,2.2,23,87.74,87.74,0,0,0,3.5,11l1.2,2.7a22.89,22.89,0,0,0,1.4,2.7l0.7,1.2,0.9,1.2,1.6,2.3a28.45,28.45,0,0,1,2.9,4.5,19.56,19.56,0,0,1,1.7,4.8l0.2,1.3,0.2,1.4,0.3,1.6c0.1,0.5.4,1,.5,1.5a22.34,22.34,0,0,0,3.3,5.1,55.93,55.93,0,0,0,8.4,7.8,107.27,107.27,0,0,0,9.2,6.3c1.6,1,3.2,1.9,4.7,2.9a22.44,22.44,0,0,0,2.7,1.3c0.9,0.4,1.9.6,2.8,1a26.19,26.19,0,0,0,8.3.7c0.4,1,.7,2,1.1,2.9l2.4,6.9a38.84,38.84,0,0,0,6.7,12c2.8,3.4,5.7,6.2,7.5,9.3a23.35,23.35,0,0,1,2.1,4.9c0.6,1.6,1,3.3,1.5,4.9a96.71,96.71,0,0,1,2.9,16.4,59.66,59.66,0,0,1,.1,10.3c-0.1.6-.1,1.1-0.2,1.5a5.16,5.16,0,0,0-.2,1.1,6.59,6.59,0,0,1-.2.9l1.9,0.5a1.58,1.58,0,0,1,.1-0.4,4.33,4.33,0,0,0,.1-0.5c0.1-.3.1-0.7,0.2-1.2s0.1-1,.2-1.6a63.21,63.21,0,0,0-.1-10.6,102,102,0,0,0-3-16.8c-0.4-1.6-.9-3.3-1.5-5a29.52,29.52,0,0,0-2.3-5.2c-2-3.5-5-6.3-7.7-9.6a39.85,39.85,0,0,1-6.4-11.5c-0.8-2.2-1.6-4.5-2.4-6.8-0.3-.8-0.6-1.7-0.9-2.5,0.5-.1.9-0.1,1.4-0.2,7.5-1.3,14.2-4.4,20.7-7.4,1.6-.8,3.2-1.6,4.8-2.3a15.7,15.7,0,0,0,2.5-1.4,8.35,8.35,0,0,0,1.2-.8l1.1-.9a37.31,37.31,0,0,0,7.1-8.4c3.9-6.1,6.8-12.4,9.8-18.6,1.5-3.1,2.9-6.2,4.4-9.2,0.8-1.5,1.5-3,2.2-4.5a13,13,0,0,0,1-2.5c0.3-.8.5-1.7,0.8-2.5a60.51,60.51,0,0,0,1.6-10.1c0.3-3.4.4-6.7,0.4-10,0.1-13.2-.8-25.8-1.5-38.1s-1.5-24.1-1.9-35.5c-0.2-5.8-.4-11.5-0.6-17,3.9,5.9,6.2,13.2,8.3,20.8,1,3.9,2,7.9,3.1,11.9,0.5,2,1.1,4,1.8,6.1,0.3,1,.7,2,1,3l0.9,3c1.2,4.1,2.5,8.3,4.1,12.5,0.8,2.1,1.7,4.2,2.7,6.2a31.71,31.71,0,0,0,3.9,5.9,12.18,12.18,0,0,0,3,2.4l0.5,0.2,0.2,0.1a1.1,1.1,0,0,0,.4.2l0.8,0.2c0.1,0,.3.1,0.4,0.1l0.6,0.1c0.4,0,.8.1,1.1,0.1a15.39,15.39,0,0,0,7.1-2.4,40.88,40.88,0,0,0,5.8-4.2c1.8-1.5,3.5-3.2,5.2-4.9a229.49,229.49,0,0,0,18.3-22c2.9-3.8,5.7-7.8,8.7-11.6s6.2-7.5,9.4-11.1A176,176,0,0,1,579.1,578a123.54,123.54,0,0,1,11.8-8.7l3.1-1.9c1.1-.6,2.2-1.3,3.2-1.8a48.86,48.86,0,0,1,6.6-2.9,59.08,59.08,0,0,1,6.9-1.9,42.53,42.53,0,0,1,7.1-.6,33.53,33.53,0,0,1,7.1.7c1.2,0.2,2.3.5,3.5,0.8s2.3,0.6,3.4,1.1c9.1,3.1,17.3,8.7,25,14.6s15,12.4,22.3,18.6,14.3,12.5,19.9,19.8a54.88,54.88,0,0,1,7.1,11.5,42.8,42.8,0,0,1,3.5,12.7c1.3,8.7,1.1,17.5.7,26s-1.2,16.8-1.4,24.9-0.3,15.8-.3,23.3c-0.2,14.9,0,28.7.6,40.8,0.1,3,.3,6,0.4,8.8s0,5.5-.1,8.1c-0.1,3.5-.4,6.8-0.7,9.9-0.1,1.5-.3,3-0.4,4.4-1,8.6-2,15.4-2.6,20s-0.9,7.1-.9,7.1l1,0.1s0.4-2.5,1-7.1,1.8-11.4,2.9-20c0.2-1.5.4-3.2,0.6-4.8,0.3-3,.6-6.2.8-9.6,0.1-2.6.3-5.4,0.2-8.2s-0.1-5.8-.2-8.8c-0.2-6.1-.3-12.5-0.3-19.3s0-13.9.1-21.4,0.3-15.2.5-23.3,1-16.3,1.6-24.8,0.8-17.5-.5-26.6a46.18,46.18,0,0,0-3.7-13.4,66.29,66.29,0,0,0-3.1-5.9c-0.1-1.6-.2-4.1-0.5-7.1-0.2-2.8-.5-6-0.7-9.5-0.1-1.7-.3-3.5-0.4-5.3s-0.3-3.6-.4-5.5a24.37,24.37,0,0,1-.1-2.7c0-.9-0.1-1.8-0.1-2.7v-3.8c0-.4.1-0.9,0.1-1.3,0.2-1.6.5-3.2,0.8-4.7a35.4,35.4,0,0,0,.8-4.5,7.25,7.25,0,0,0,0-2.4,4.12,4.12,0,0,0-1-2.1,5.69,5.69,0,0,0-2.8-1.8,13.67,13.67,0,0,0-1.9-.5,3.2,3.2,0,0,0-.7-0.1l-0.3,1,0.6,0.3a11.79,11.79,0,0,1,1.6.8,6.07,6.07,0,0,1,1,.7l0.3,0.2,0.2,0.2c0.1,0.2.3,0.3,0.4,0.5a4.2,4.2,0,0,1,.2,2.8c-0.3,1.2-.8,2.6-1.2,4.2a38.2,38.2,0,0,0-1.1,5.1c-0.1.4-.1,0.9-0.2,1.3,0,0.2-.1.4-0.1,0.7v0.7a26.16,26.16,0,0,0,0,2.8c0,1.9.1,3.7,0.2,5.6s0.3,3.7.5,5.6,0.4,3.6.6,5.3c0.5,3.5,1,6.7,1.5,9.4,0.2,1.3.5,2.5,0.7,3.6-0.7-1-1.4-2-2.1-2.9-5.9-7.5-13-14-20.3-20.3S666.8,581.1,659,575a132.44,132.44,0,0,0-12.2-8.5,72.15,72.15,0,0,0-13.7-6.6,22.59,22.59,0,0,0-3.7-1.1c-1.3-.3-2.5-0.6-3.8-0.8a42.7,42.7,0,0,0-15.4,0,48.79,48.79,0,0,0-7.5,2,49.28,49.28,0,0,0-7.1,3.1l-3.3,1.8c-1.1.7-2.2,1.3-3.2,2a105.4,105.4,0,0,0-12.1,9A181.89,181.89,0,0,0,556,597c-3.2,3.7-6.3,7.5-9.4,11.3s-5.8,7.8-8.7,11.7a213.71,213.71,0,0,1-18,21.7c-1.6,1.7-3.3,3.2-5,4.7a37.9,37.9,0,0,1-5.3,3.9,12.63,12.63,0,0,1-5.7,2H503c-0.1,0-.3-0.1-0.4-0.1l-0.7-.2h-0.1l-0.2-.1-0.3-.1A9.59,9.59,0,0,1,499,650a23.69,23.69,0,0,1-3.5-5.2,44.07,44.07,0,0,1-2.6-5.9c-1.6-4-2.8-8.1-4.1-12.2-0.3-1-.6-2-1-3.1s-0.7-2-1-3l-1.8-6c-1.1-4-2.1-8-3.2-11.9-2.2-7.8-4.6-15.4-9-21.8a16.32,16.32,0,0,0-1.7-2c-0.3-14.8-.1-28.6.8-41.3a427.49,427.49,0,0,1,6-47.4c2.4-13,4.9-23.2,6.7-30s3-10.4,3-10.4h0l0.8-2.7c0.6-1.7,1.4-4.3,2.6-7.7,0.5-1.3,1-2.8,1.6-4.4l3.6-.3c4.8-.4,9.5-0.9,14.3-1.5,2.3-.3,4.6-0.6,6.9-1,0,1,0,2.1.1,3.3a59.56,59.56,0,0,0,7.2,25.6,61,61,0,0,0,4.8,7.3,41.17,41.17,0,0,0,3.3,4l-22.7,20.3,7,6.7,19.6-23.2c0.7,0.6,1.4,1.3,2.2,1.9L516,510.4l10.5,6.4,18-34.7a36.69,36.69,0,0,0,4.8,2.6l-19.6,45.6,14,4.9,13-47.6c1.4,0.4,2.8.8,4.3,1.1l-9.1,58.8,17.3,1.4,0.8-59.2c1.3,0,2.6,0,3.9-.1l2.3,50.6,15.3-1.8-9.4-50c1.1-.2,2.2-0.5,3.3-0.8l1.8-.6,7.9,40,11.9-3.2L593.5,485l2.4-.9a3.55,3.55,0,0,0,.9-0.4L609,514.6l9.7-4.7-16.3-28.6c4.5-2.1,9-4.4,13.2-6.8,6.3-3.6,12.3-7.4,17.9-11.3s11-7.7,15.8-11.8,9.3-7.8,13.5-11.2a143.4,143.4,0,0,1,11.8-8.8,60.26,60.26,0,0,1,5.3-3.1,48,48,0,0,1,4.7-2.2c0.7-.3,1.4-0.6,2-0.9a7.51,7.51,0,0,0,1.8-.7c0.6-.2,1.1-0.4,1.6-0.6s0.7-.2,1-0.3a30.89,30.89,0,0,0,5.3,8.9l1.2,1.3,1.3,1.2c0.4,0.4.9,0.8,1.3,1.2l1.4,1.1a46,46,0,0,0,6,3.7c8.4,4.2,17.5,6,26,8.5s17.1,5.2,25.3,8.3a179.64,179.64,0,0,1,23.5,10.8,53.34,53.34,0,0,1,18.3,16.3c4.5,6.8,7.3,14.5,9.3,22.3,0.5,1.9.9,3.9,1.4,5.9s0.8,4,1.2,5.9a117.36,117.36,0,0,1,1.6,11.7c1.5,15.6.6,30.8-.8,45.3-0.7,7.3-1.6,14.4-2.4,21.4s-1.5,13.8-2.2,20.4c-1.4,13.3-2.8,25.9-4.6,37.6s-3.9,22.7-6,32.8-3.9,19.4-5.4,27.8-2.7,16-3.6,22.6-1.4,12.3-1.6,16.9c-0.2,2.3-.2,4.3-0.3,6.1s-0.1,3.2-.1,4.4v3.6h2s0-1.2.1-3.6a36.27,36.27,0,0,1,.2-4.4c0.1-1.7.2-3.7,0.4-6,0.3-4.6.9-10.1,1.8-16.7s2.2-14.1,3.8-22.5,3.6-17.6,5.7-27.7,4.4-21,6.2-32.9,3.3-24.4,4.8-37.7c0.7-6.6,1.5-13.5,2.3-20.4s1.7-14.1,2.4-21.4c1.5-14.6,2.4-30.1.9-46C817.1,526.3,816.5,522.3,815.8,518.3ZM764.4,215.2a12,12,0,0,0,.5,3.3,20,20,0,0,1,.6,2.3,6.56,6.56,0,0,1,.1,2,8.75,8.75,0,0,1-.2,1.6,50.18,50.18,0,0,1-1.5-10.3c0.1,0,.3.1,0.4,0.1A3.75,3.75,0,0,0,764.4,215.2Zm8.4,1.2,0.2,0.1,0.4,0.1a12.13,12.13,0,0,0,1.4.5c0.4,0.2.7,0.3,1.1,0.5a10.9,10.9,0,0,1,1.1.6,6.07,6.07,0,0,1,1,.7c0.3,0.2.6,0.5,0.9,0.7a4.49,4.49,0,0,1,1.2,1.6,3.08,3.08,0,0,1,.3,1.9,7.36,7.36,0,0,1-.5,2.4c-0.1.4-.4,0.9-0.5,1.2-0.2.5-.5,1-0.7,1.4-0.5.8-1,1.7-1.6,2.7a9.78,9.78,0,0,0-1.5,3.6,8.07,8.07,0,0,0,.5,3.9,19.54,19.54,0,0,0,1.4,2.9h0c-1.4-1.3-3-2.7-4.7-4.1a20,20,0,0,1-4.7-6.1c0.3-.8.7-1.6,1-2.5a25.47,25.47,0,0,0,1.5-5.3,16.68,16.68,0,0,0,.2-3.2c-0.1-1.1-.3-2.2-0.4-2.9a10.29,10.29,0,0,1-.1-1.7c0.7,0.2,1.3.4,2,.6l0.5,0.4h0C772.9,216.4,773,216.5,772.8,216.4Zm-1.2-39.6a22.6,22.6,0,0,1,2.6-1.7,1.44,1.44,0,0,1,.3-0.2s0.1-.1,0-0.1h-0.2a1,1,0,0,1-.4-0.1l-0.1-.1c0-.2.5,0,1.1,0.7a8.74,8.74,0,0,1,1.5,2.9,14.49,14.49,0,0,1,0,8,1.06,1.06,0,0,1-.2.5l-0.1.3v0.1h0c0.1-.2,0,0,0-0.1l-0.1.2-0.5,1.3c-0.4.9-.6,1.5-1,2.3-0.8,1.5-1.7,3.1-2.6,4.6a63.86,63.86,0,0,0-5.8,10.1c-0.8-.3-1.5-0.5-2.2-0.7a94.67,94.67,0,0,1,2.4-15.7s1.4-4.9,3.3-10.7A19.83,19.83,0,0,1,771.6,176.8Zm-12.1-71.7c1.4,0.4,2.9.7,4.4,1l2.3,0.3c0.7,0.1,1.4.1,2.2,0.2,2.9,0.3,5.9.6,8.9,1,1.5,0.2,3,.5,4.5.8a21.62,21.62,0,0,1,4.3,1.4,7.68,7.68,0,0,1,3.3,2.6,10.71,10.71,0,0,1,1.5,4,4.1,4.1,0,0,1,.1,1.1,0.75,0.75,0,0,0,.1.5v0.6c0,0.4-.1.7-0.1,1.1l-0.2,1.1a29,29,0,0,1-1.2,4.2c-1,2.7-2.2,5.3-3.3,7.7s-2.3,4.5-3.4,6.5a34,34,0,0,0-2.3-12.3c-4.7-11.5-24.5-22.7-24.5-22.7l-0.1-.5A28.35,28.35,0,0,0,759.5,105.1ZM486.9,446.4a18.44,18.44,0,0,1-.9,2.6h0s-1.2,3.6-3.1,10.5-4.4,17-7,30.1a422.4,422.4,0,0,0-6.4,47.6c-1.6,18.5-1.5,39.5-.7,62.3,0.4,11.4,1,23.3,1.7,35.5s1.4,24.9,1.2,37.9c0,3.2-.2,6.5-0.5,9.7a58.82,58.82,0,0,1-1.5,9.5,20.15,20.15,0,0,1-.7,2.3,13.27,13.27,0,0,1-.9,2.1c-0.8,1.5-1.5,3-2.3,4.5-1.5,3.1-3,6.2-4.4,9.3a148.86,148.86,0,0,1-9.6,18.1,36.33,36.33,0,0,1-6.4,7.6l-1,.7a8.65,8.65,0,0,1-1,.7,21.81,21.81,0,0,1-2.2,1.2c-1.6.8-3.2,1.5-4.8,2.3-6.4,3-12.9,5.9-19.7,7.1a24,24,0,0,1-10-.2c-0.8-.3-1.6-0.5-2.3-0.8s-1.5-.7-2.2-1.1c-1.6-.9-3.1-1.9-4.7-2.8-3.1-1.9-6.1-3.9-9-6.1a49.36,49.36,0,0,1-7.9-7.2,15.81,15.81,0,0,1-2.7-4.2c-0.1-.4-0.3-0.7-0.4-1.1l-0.2-1.1-0.2-1.4-0.3-1.5a20.41,20.41,0,0,0-2-5.7,46.1,46.1,0,0,0-3.2-4.9l-1.6-2.3-0.7-1.1-0.7-1.2a25.32,25.32,0,0,1-1.2-2.3,18.89,18.89,0,0,1-1.1-2.5,75.67,75.67,0,0,1-3.4-10.5,73.52,73.52,0,0,1-2.2-21.9,24.78,24.78,0,0,1,.3-2.7,25.13,25.13,0,0,1,.4-2.7,45.57,45.57,0,0,1,1.3-5.3,26.71,26.71,0,0,1,.9-2.6l1.1-2.5c0.7-1.7,1.7-3.4,2.5-5.1,3.4-6.9,6.5-13.8,9.7-20.7q9.3-20.85,18.4-41.7c6-13.9,12-27.8,17.9-41.5l1-2.6,0.8-2.8c0.6-1.9.9-3.7,1.4-5.5,0.8-3.7,1.5-7.3,2.2-11,1.3-7.3,2.5-14.6,3.6-21.8l3.3-21.6c1.1-7.1,2.2-14.2,3.5-21.2,0.2-.9.3-1.7,0.5-2.6s0.4-1.7.6-2.5c0.5-1.7,1-3.4,1.4-5.1,1-3.4,1.9-6.8,2.6-10.3a54.35,54.35,0,0,0,1-10.6,71.74,71.74,0,0,0-.8-10.4c-1-6.8-2.4-13.5-3.9-20s-3.2-13-5.2-19.2c-0.5-1.6-1.1-3.1-1.7-4.6l-1.8-4.5a79.12,79.12,0,0,1-3-9,21.19,21.19,0,0,1-.5-9,9.3,9.3,0,0,1,1.8-3.9,11,11,0,0,1,3.4-2.6,96.1,96.1,0,0,0,8.7-5.3h0c0.7-.4,2.4-1.5,4.7-3,7.6-5,21.6-14.2,27.5-13.6,3.3,0.4,13,4,13.1,4,2.4,0.6,7.2,4.3,11.8,7.8a104.87,104.87,0,0,0,8.9,6.4c2.4,1.5,3.4,3.5,2.7,5.6a5.28,5.28,0,0,1-5.2,3.6c-2.4-.1-4.8-1.8-7-3.5-1.9-1.3-3.8-2.7-5.7-3.2a33,33,0,0,1-4-1.6c-4.4-2-9.8-4.4-14.6-2.2-5.7,2.6-7.2,5.5-9.3,9.4-0.3.5-.5,1-0.8,1.6-2.6,4.7-9.3,12.3-9.3,12.4l0.8,0.7c0.3-.3,6.9-7.8,9.5-12.6,0.3-.6.6-1.1,0.9-1.6,2.1-3.9,3.4-6.5,8.8-9a10.74,10.74,0,0,1,7.7-.1,29.43,29.43,0,0,0,5.1,4.9c2.1,1.6,4.2,3,6.2,4.5a23.06,23.06,0,0,1,5.4,4.9c1.6,1.9,3.2,3.7,4.7,5.6s2.9,3.7,4.2,5.6a37.68,37.68,0,0,1,3.2,5.9,34.47,34.47,0,0,1,2,6.2c0.3,1,.3,2.1.5,3.1s0.1,2.1.1,3.1c-0.1,2.1-.2,4.1-0.4,6.1a172.14,172.14,0,0,1-3.4,21.6c-0.7,3.2-1.5,6.3-2.4,9.1a48.14,48.14,0,0,1-3,7.6,101.34,101.34,0,0,0-5.1,12.1C488.4,442.1,487.5,444.6,486.9,446.4Zm-98.5,57.7a113,113,0,0,1,.5-13,63.21,63.21,0,0,1,7.6-25,64,64,0,0,1,17.8-19.9,49.11,49.11,0,0,1,12-6.3,48.06,48.06,0,0,1,5.4-1.6c-0.6,2.7-1.4,5.4-2.2,8.2l-1.5,5.1c-0.3.8-.4,1.7-0.7,2.6s-0.4,1.8-.6,2.6c-1.4,7-2.5,14.1-3.7,21.3s-2.3,14.3-3.4,21.6-2.4,14.5-3.8,21.7c-0.7,3.6-1.4,7.3-2.3,10.9-0.5,1.8-.8,3.6-1.4,5.3l-0.7,2.6-1,2.6c-6,13.7-12.1,27.4-18.1,41.3-0.2.5-.5,1.1-0.7,1.6,0-13.9-.2-28.3-0.9-43-0.3-8.4-1.2-16.9-1.8-25.5C388.7,512.7,388.6,508.4,388.4,504.1ZM495.7,167.9a32.55,32.55,0,0,1-1.8-3.9l-0.6-1.8c-0.1-.3-0.1-0.6-0.2-0.8l-0.1-.6v0h0v-0.2a5.33,5.33,0,0,1,.6-2.4,9.54,9.54,0,0,1,4.1-4.1,7.62,7.62,0,0,1,2.5-.9,4.48,4.48,0,0,1,1.1-.1h0.4c0.2,0,0,.1.1,0.1l0.5,0.1h0a0.53,0.53,0,0,1,.3.2,9.25,9.25,0,0,1,1,.5c0.7,0.4,1.5,1,2.3,1.5l0.1,0.1c-0.9,2-1.5,3.2-1.5,3.2s-3.4,5.9-6.8,13.4A24.82,24.82,0,0,0,495.7,167.9Zm72.1,170.7c-0.6-.9-1.1-1.8-1.7-2.7s-1-1.8-1.5-2.8a24.37,24.37,0,0,1-1.4-2.8c-0.4-.9-0.9-1.8-1.3-2.8a103.2,103.2,0,0,1-4-11.4c-1-3.8-1.9-7.6-2.6-11.4a191.78,191.78,0,0,1-2.5-21.8,160.9,160.9,0,0,1,.1-19.7c0.7-12.4,1.9-23.2,2.9-32.1s2-15.8,2.7-20.6c0.3-2.4.6-4.2,0.8-5.4s0.3-1.8.3-1.8,0.1-.6.4-1.8,0.7-3,1.4-5.3,1.6-5.1,2.8-8.3a71.17,71.17,0,0,1,5-10.7c2.2-3.8,5-8,9.2-11.1a19,19,0,0,1,3.4-2c1.3-.6,2.6-1.1,3.9-1.7,2.7-1.1,5.4-2.3,8.3-3.4a46.94,46.94,0,0,1,19.1-3.7c1.3,0,2.7-.1,4-0.1l0.1,0.1a1.76,1.76,0,0,1,.5.4,2.19,2.19,0,0,0,.5.3,9.62,9.62,0,0,0,3.4,1.1c2.2,0.5,4.8.8,7.9,1.4,1.5,0.3,3.2.7,4.9,1.1a25.82,25.82,0,0,1,2.6.8l0.7,0.2h0.1s0.1,0.1-.1,0l0.2,0.1,0.4,0.1a12.13,12.13,0,0,0,1.4.5c0.4,0.2.7,0.3,1.1,0.5a10.9,10.9,0,0,1,1.1.6,6.07,6.07,0,0,1,1,.7c0.3,0.2.6,0.5,0.9,0.7a4.49,4.49,0,0,1,1.2,1.6,3.08,3.08,0,0,1,.3,1.9,7.36,7.36,0,0,1-.5,2.4c-0.1.4-.4,0.9-0.5,1.2-0.2.5-.5,1-0.7,1.4-0.5.8-1,1.7-1.6,2.7a9.78,9.78,0,0,0-1.5,3.6,7.9,7.9,0,0,0,.5,3.9,19.54,19.54,0,0,0,1.4,2.9l0.4,0.6v0.1h0c-0.1-.2,0,0,0-0.1h0l0.1,0.2,0.2,0.3c0.2,0.4.5,0.8,0.6,1.1a12.93,12.93,0,0,1,.7,2.1,11.64,11.64,0,0,1,.2,4.1,22,22,0,0,1-.6,3.3,20.47,20.47,0,0,1-.7,2c-0.2.5-.3,0.7-0.3,0.7l0.9,0.5a2.22,2.22,0,0,0,.4-0.7,14.12,14.12,0,0,0,1-2.1,19.44,19.44,0,0,0,1.1-3.4,17.93,17.93,0,0,0,.4-4.8,10.07,10.07,0,0,0-.6-2.8,7.83,7.83,0,0,0-.5-1.4l-0.1-.3-0.1-.2h0l-0.1-.1v-0.1l-0.3-.6a25,25,0,0,1-.9-2.5,3.37,3.37,0,0,1,0-2c0.3-1.1,1.9-2.6,3.3-4.5a12.13,12.13,0,0,0,1-1.4,15.05,15.05,0,0,0,1-1.7,14.25,14.25,0,0,0,1.4-3.8,10.27,10.27,0,0,0-.1-4.6,12,12,0,0,0-2-4.1,10.71,10.71,0,0,0-1.4-1.6,6.89,6.89,0,0,0-1.3-1.1c4.1,0.5,8.2,1.1,12.5,1.8,4.1,0.7,8.2,1.5,12.2,2.6,1,0.2,2,.6,3,0.9a8.8,8.8,0,0,0,1.5.5c0.5,0.2,1,.4,1.4.6a9.14,9.14,0,0,1,1.4.7l1.4,0.8c0.9,0.6,1.9,1.1,2.8,1.7,3.7,2.3,7.4,4.7,11,7.4,1.8,1.3,3.6,2.7,5.3,4.2a26,26,0,0,1,4.6,4.8l3.9,5.7c1.3,1.9,2.5,3.9,3.7,5.9s2.3,4,3.3,6.1c0.2,0.5.5,1,.7,1.6l0.2,0.4,0.1,0.4a3.09,3.09,0,0,1,.2.8,17.17,17.17,0,0,1,.6,3.4,135.54,135.54,0,0,1,.9,14.3c0.1,4.8,0,9.7-.2,14.6-0.1,2.4-.3,4.9-0.6,7.3-0.2,1.2-.3,2.4-0.6,3.6s-0.5,2.4-.7,3.7c-0.9,4.9-1.6,9.9-2.4,14.8-1.6,9.9-3.1,19.9-4.9,29.9-0.9,5-1.8,10-2.9,15-0.5,2.5-1.1,5-1.7,7.4a54.57,54.57,0,0,1-2.1,7.2,77.13,77.13,0,0,1-6.7,13.5c-2.6,4.3-5.5,8.5-8.5,12.6a254.43,254.43,0,0,1-19.5,23c-1.7,1.8-3.5,3.6-5.3,5.3-0.9.9-1.8,1.7-2.7,2.5s-1.9,1.5-2.9,2.2a37.62,37.62,0,0,1-13.2,5.6,41.87,41.87,0,0,1-7.1,1,43.27,43.27,0,0,1-7.2,0l-1.8-.1L624,390l-0.9-.1h-0.3l-0.4-.1-1.8-.4c-0.6-.1-1.1-0.4-1.6-0.5s-1.1-.4-1.6-0.6c-1-.5-2.1-1-3.1-1.5a65.17,65.17,0,0,1-11.3-8.2c-3.5-3.1-6.8-6.3-10-9.7-6.3-6.7-12.1-13.6-17.7-20.3l-1-1.3-0.5-.6-0.5-.6c-0.7-.9-1.3-1.7-2-2.6s-1.2-1.7-1.8-2.6A8.58,8.58,0,0,1,567.8,338.6ZM432,336.9h0Zm64.6-19.7-4.2-4.5,4.1-2.3c2.2,1.1,4.2,2.2,5.7,3.1,5.2,3.3,11.4,1.7,14.2-1.6a2.77,2.77,0,0,0,.9-2.2c-0.2-1.1-1.3-1.9-2.8-2.8-0.5-.3-0.9-0.6-1.4-0.9-0.7-.5-2.1-1.4-3.8-2.5l34.9-19.4L518.7,341l-11.3-12.2c0.2-.2.4-0.3,0.6-0.5a2.06,2.06,0,0,0,.8-1.7c-0.2-2.2-4.4-4.8-9-7.4a13.61,13.61,0,0,1-2.9-1.8A0.53,0.53,0,0,1,496.6,317.2Zm-30.9-21.1c2.5-2.1,7.2-5.6,11-6,4.2-.5,13.4,2.4,16.2,4.2,1.3,0.9,4.8,3.1,8.5,5.4,4.6,2.9,9.4,5.9,11,7a13,13,0,0,0,1.5,1c1.3,0.8,2.3,1.4,2.4,2.1a1.66,1.66,0,0,1-.6,1.4c-2.5,3-8.1,4.4-12.8,1.4-4.3-2.7-14.6-7.7-18.1-8.6-2.7-.7-6.5-1.7-8.7.2-2.1-1.1-4-2.1-5.7-2.8-4-1.7-6.7-1.5-8.8-.6C463.6,298.4,465.2,296.6,465.7,296.1Zm247.4,7,14,57.8-24-2.3ZM526.6,85a20.47,20.47,0,0,1,3.5-3c1.9-1.4,4.1-2.7,6.4-4.1,1.1-.7,2.3-1.3,3.4-2.1l1.7-1.1,0.4-.3,0.3-.2,0.6-.3a3.34,3.34,0,0,1,2-.4,4.5,4.5,0,0,1,1.4.7,9.16,9.16,0,0,1,1.7,2.1,26.39,26.39,0,0,1,1.5,2.9c0.2,0.4.4,0.9,0.6,1.4C544.8,90.3,535.8,86.5,526.6,85ZM486.2,206.3c-0.3-.3-0.6-0.5-0.9-0.8,0.2,0,.5-0.1.7-0.1a2.2,2.2,0,0,1,.8-0.1A4.37,4.37,0,0,0,486.2,206.3Zm-27.9,97.8c3.1-2.4,5.5-4.3,11.5-1.7,8.6,3.7,24.9,14.4,26.3,15.7a16.08,16.08,0,0,0,3.1,1.9c3.1,1.7,8.3,4.7,8.5,6.6a0.87,0.87,0,0,1-.4.8c-3.7,3.1-7.2,4.3-12.9.4-6.6-4.4-15.3-9.3-20.1-10.6-4.5-1.2-8.3-.8-11.3,1a13,13,0,0,0-2.2,1.9c-7.1,1.9-18.1,9.1-24.5,13.3-0.7.5-1.4,0.9-2,1.3,3.5-6,15.4-25.7,20-28A16.23,16.23,0,0,0,458.3,304.1ZM644.7,38.8a31.22,31.22,0,0,0,1.5-4.3,17.41,17.41,0,0,0,.5-2.2c0.1-.7.3-1.4,0.4-2.1,0.6-2.9,1.2-5.8,2-8.7,0.4-1.5.8-2.9,1.3-4.4a30,30,0,0,1,1.8-4.1,8.36,8.36,0,0,1,2.9-3,8.42,8.42,0,0,1,4.2-1h1.6l0.6,0.1a4.25,4.25,0,0,1,1.1.2l1.1,0.3a29,29,0,0,1,4.1,1.6,72.77,72.77,0,0,1,7.3,4.1c2.3,1.4,4.3,2.9,6.3,4.2,3.8,2.7,6.9,5.1,9,6.9,1,0.8,1.8,1.5,2.4,2-3.8.2-8.7,0.8-15.4,1.5-19,2-19.5,13-26.8,15.4-2,.7-5.2-0.1-8.6-1.4C642.9,42.3,643.9,40.6,644.7,38.8ZM601,33.9c0.8-.8,1.4-1.6,2.1-2.3l1.1-1.1c0.3-.2.7-0.6,1-0.8a6,6,0,0,1,2.2-1.2,4.57,4.57,0,0,1,2-.2,5.55,5.55,0,0,1,1.9.7,4.7,4.7,0,0,1,.9.6,6.47,6.47,0,0,1,.9.8l0.9,0.9c0.3,0.3.5,0.6,0.8,0.9a12.5,12.5,0,0,1,.9,1.2l0.2,0.3,0.1,0.2c-0.1-.2,0,0-0.1-0.1h0l0.1,0.1,0.4,0.6c0.5,0.8,1,1.5,1.5,2.3,0.2,0.3.3,0.6,0.5,0.9-6.3,2.3-10.4.5-21.2-1,0.2-.1.4-0.1,0.6-0.2A8.65,8.65,0,0,0,601,33.9ZM530.3,73.2a24,24,0,0,1,4.9-4.6c1.9-1.4,4.1-2.7,6.4-4.1,1.1-.7,2.3-1.3,3.4-2.1l1.7-1.1,0.4-.3,0.3-.2,0.6-.3a3.34,3.34,0,0,1,2-.4,4.5,4.5,0,0,1,1.4.7,9.16,9.16,0,0,1,1.7,2.1,26.39,26.39,0,0,1,1.5,2.9c0,0.1.1,0.1,0.1,0.2-0.3,1.5-.7,3.1-1.1,4.6a17.43,17.43,0,0,0-2.3-2.5,10.48,10.48,0,0,0-5.9-2.4h-1.7l-1.5.3a7.84,7.84,0,0,0-1.4.5c-0.4.2-.9,0.4-1.3,0.6l-1.1.7-0.5.4-0.4.3-1.6,1.2c-1.1.8-2.2,1.7-3.2,2.5-1.5,1.2-3,2.5-4.4,3.8l0.3-.6C529.1,74.9,529.6,74,530.3,73.2Zm-44.6,73V146h0v-0.4a8.16,8.16,0,0,1,1.5-3.9,15.12,15.12,0,0,1,7.4-5.5,17.39,17.39,0,0,1,4.3-.9,11.48,11.48,0,0,1,1.9.1c0.3,0.1.6,0.1,0.8,0.2a2.57,2.57,0,0,1,.5.2l0.7,0.2h0.1c0.2,0.1-.3-0.1-0.2-0.1h0.1l0.1,0.1a2.09,2.09,0,0,1,.6.4,14.31,14.31,0,0,1,1.5,1.1,39.2,39.2,0,0,1,3.1,2.8,9,9,0,0,1,.9,1c-0.2-.1-0.3-0.1-0.5-0.2-0.8-.2-1.7-0.5-2.7-0.7a7.77,7.77,0,0,0-1.6-.2h-1.5a11.08,11.08,0,0,0-1.9.2c-0.6.1-1.1,0.2-1.6,0.3-1,.3-2,0.6-3,1a19.11,19.11,0,0,0-5.1,3.2,21.74,21.74,0,0,0-4.9,5.9,11.53,11.53,0,0,1-.3-2.6,5.28,5.28,0,0,0-.1-1.3Zm-6.9,39.9a10,10,0,0,1,2.1-4.1,17.5,17.5,0,0,1,1.9-1.6,17.46,17.46,0,0,0,2.7-2.3,16.6,16.6,0,0,0,2.2-3.2l0.4-.9,0.3-.7,0.3-1,0.3-.9a32.45,32.45,0,0,1,2.6,3.8,7.11,7.11,0,0,1,1,3v0.7l-0.1.9a5.73,5.73,0,0,1-.4,1.4,8.05,8.05,0,0,1-.9,1.4,21.08,21.08,0,0,0-1.4,2.2,11.18,11.18,0,0,0-1,5.2c0.1,1.5.3,2.9,0.5,4.3a0.37,0.37,0,0,0,.1.3c-1.5.5-3.6,1.1-5.8,1.9-1.6.6-3.4,1.2-5.2,2a10.71,10.71,0,0,1-.6-2.7A28.13,28.13,0,0,1,478.8,186.1ZM473.6,222a27.08,27.08,0,0,1-1.6-2.7c-0.2-.4-0.5-0.9-0.7-1.4-0.1-.3-0.4-0.8-0.5-1.2a7.92,7.92,0,0,1-.5-2.4,5.41,5.41,0,0,1,.3-1.9,4.49,4.49,0,0,1,1.2-1.6,3.11,3.11,0,0,1,.9-0.7,6.07,6.07,0,0,0,1-.7,10.91,10.91,0,0,0,1.1-.6,11.73,11.73,0,0,0,1.1-.5,5.78,5.78,0,0,1,1.4-.5l0.4-.1,0.2-.1c-0.2.1,0,0-.1,0h0.1l0.7-.2c0.5-.2,1-0.3,1.5-0.5l1.2,1.2a13.39,13.39,0,0,1,1.6,2.2,9.74,9.74,0,0,1,.5,1.1,127.48,127.48,0,0,1-8.8,12.4A13,13,0,0,0,473.6,222ZM517,497.8l-5.4-5.2L533.5,473c0.7,0.7,1.4,1.5,2.2,2.2l0.2,0.2Zm9,17.3-8.6-5.2,22.3-31.3a32.83,32.83,0,0,0,3.8,2.7Zm16.8,18.5-11.9-4.1L550.1,485c0.9,0.4,1.8.8,2.7,1.1s1.8,0.7,2.7,1ZM568,547.5l-15.1-1.2,9-57.6a54,54,0,0,0,6.9.8Zm22-10.3-13,1.5-2.2-49.5a59.69,59.69,0,0,0,6.1-.9Zm15.4-14.4-9.7,2.7-7.7-39c1.4-.4,2.8-0.9,4.3-1.4ZM617,509.2l-7.6,3.7-11.8-29.8c1.2-.5,2.5-1,3.7-1.6Zm72.5-86.6c-0.5.2-1.1,0.3-1.7,0.5s-1.2.4-1.9,0.6-1.4.5-2.1,0.8c-1.5.5-3.1,1.3-4.9,2.1s-3.6,1.8-5.5,3a138.16,138.16,0,0,0-12.3,8.5c-4.3,3.3-8.9,7.1-13.8,10.9s-10.3,7.5-15.9,11.3-11.6,7.4-17.8,10.8a169.9,169.9,0,0,1-19.3,9.1,101.6,101.6,0,0,1-10.2,3.4,58.9,58.9,0,0,1-10.2,1.8,48.55,48.55,0,0,1-10.1-.4,45.21,45.21,0,0,1-9.6-2.5c-1.5-.5-3-1.3-4.5-1.9-1.4-.8-2.8-1.5-4.2-2.3a46.36,46.36,0,0,1-7.4-5.6c-0.6-.5-1.1-1-1.6-1.5s-1.1-1-1.6-1.6a28.78,28.78,0,0,1-2.8-3.3,59.09,59.09,0,0,1-4.7-6.8,64.9,64.9,0,0,1-5.9-13.2,54.18,54.18,0,0,1-2.3-11c-0.1-1.3-.2-2.4-0.3-3.4l2.2-.5a11.63,11.63,0,0,0,1.8-.4l1.8-.5,1.8-.5a8.51,8.51,0,0,0,1.7-.6l3.4-1.4c1.1-.5,2.2-1.1,3.3-1.7l1.6-.9,1.5-1,1.5-1a14.31,14.31,0,0,0,1.5-1.1l2.9-2.3c0.9-.8,1.8-1.7,2.7-2.5a32,32,0,0,0,2.5-2.7,50,50,0,0,0,4.5-5.8c1.3-2.1,2.7-4.1,3.8-6.3a68.46,68.46,0,0,0,3.1-6.7,57.79,57.79,0,0,0,2.4-7c0.8-2.3,1.3-4.8,1.9-7.2l0.7-3.6,0.3-1.8,0.2-1.9a145.1,145.1,0,0,0,.4-14.7c0-4.9-.1-9.8.3-14.5a29,29,0,0,1,.6-4.1,8.65,8.65,0,0,0,.7,1c0.6,0.9,1.2,1.8,1.9,2.7s1.3,1.7,2,2.6l0.5,0.6,0.5,0.7,1,1.3c5.6,6.8,11.3,13.7,17.7,20.5,3.2,3.4,6.5,6.7,10,9.8a61.86,61.86,0,0,0,11.6,8.5c1.1,0.6,2.2,1.1,3.3,1.7,1.2,0.4,2.4.9,3.6,1.3l1.8,0.4,0.4,0.1h0.5l0.9,0.1,1.8,0.2,1.8,0.1a45.7,45.7,0,0,0,7.4,0,48.2,48.2,0,0,0,7.5-1,40.8,40.8,0,0,0,14-5.8,24.93,24.93,0,0,0,3.1-2.3,34.46,34.46,0,0,0,2.8-2.6q2.7-2.55,5.4-5.4c5.6-5.9,11.1-12.1,16.2-18.6,0,2.1,0,4.3-.1,6.4-0.1,9.5-.2,19.1.4,28.5a104.2,104.2,0,0,0,5.1,27.8l0.9,2.4C690.1,422.4,689.8,422.5,689.5,422.6Z" transform="translate(-357.35 -7.8)"/><path class="cls-2" d="M600.3,257.6a11.94,11.94,0,0,0-1.6-.8,3162470.24,3162470.24,0,0,1-.2.6l-0.1.1a6.72,6.72,0,0,0,2.4.4H601A4.87,4.87,0,0,1,600.3,257.6Z" transform="translate(-357.35 -7.8)"/><path class="cls-2" d="M597.2,256.5l-0.1-.1c-0.1-.1-0.2-0.1-0.3-0.2C596.9,256.3,597.1,256.4,597.2,256.5Z" transform="translate(-357.35 -7.8)"/><path class="cls-2" d="M596.7,256l-0.3-.6h-0.1c-0.1,0-.2-0.1-0.3-0.1l0.6,0.6C596.5,255.9,596.6,255.9,596.7,256Z" transform="translate(-357.35 -7.8)"/><path class="cls-2" d="M664.8,232.2c0.2-.2.5-0.4,0.7-0.6a0.87,0.87,0,0,1-.8-0.6c-0.1.4-.2,0.8-0.3,1.1a4.33,4.33,0,0,1-.1.5C664.4,232.5,664.6,232.4,664.8,232.2Z" transform="translate(-357.35 -7.8)"/><path class="cls-2" d="M671,227.1c0,0.1-.1.2-0.1,0.3s0.1-.1.2-0.1h0.1Z" transform="translate(-357.35 -7.8)"/><path class="cls-2" d="M680.2,255c0-.1-0.1-0.1-0.1-0.2a0.37,0.37,0,0,1-.3-0.1,0.35,0.35,0,0,1-.1.2l-0.1.1a1.48,1.48,0,0,1,.7.1h0C680.2,255.1,680.2,255.1,680.2,255Z" transform="translate(-357.35 -7.8)"/><path class="cls-2" d="M600.1,253.7l0.1,0.1v0.1a0.22,0.22,0,0,1,.2-0.2h-0.3Z" transform="translate(-357.35 -7.8)"/><path class="cls-2" d="M667.6,229.9a0.77,0.77,0,0,1-.6-0.5,1.27,1.27,0,0,0-.1.6,1.75,1.75,0,0,0-.1.5h0A3.28,3.28,0,0,0,667.6,229.9Z" transform="translate(-357.35 -7.8)"/><path class="cls-2" d="M619.8,226.6a8.74,8.74,0,0,0,1,.8,1.34,1.34,0,0,0-.1-0.5,4.4,4.4,0,0,0-.2-1A0.85,0.85,0,0,1,619.8,226.6Z" transform="translate(-357.35 -7.8)"/><path class="cls-2" d="M601.8,252.5l0.1-.1c0-.1,0,0-0.1.1h0Z" transform="translate(-357.35 -7.8)"/><path class="cls-2" d="M578.8,243.3h0a3.93,3.93,0,0,1,.2-0.6c0-.1.1-0.2,0.1-0.3a3.94,3.94,0,0,0-.5,1.4A2.56,2.56,0,0,0,578.8,243.3Z" transform="translate(-357.35 -7.8)"/><path class="cls-2" d="M622.3,228.5H622c0.2,0.2.5,0.4,0.7,0.6a4.35,4.35,0,0,1,.7.6,1.34,1.34,0,0,0-.1-0.5c-0.1-.3-0.2-0.8-0.3-1.2,0-.1-0.1-0.2-0.1-0.3A0.76,0.76,0,0,1,622.3,228.5Z" transform="translate(-357.35 -7.8)"/><path class="cls-2" d="M674.7,260a8.28,8.28,0,0,0,1.5,1.1A14.31,14.31,0,0,0,674.7,260Z" transform="translate(-357.35 -7.8)"/><path class="cls-2" d="M616,223.3c0,0.1-.1.1-0.1,0.2a0.38,0.38,0,0,1,.2.2A0.6,0.6,0,0,0,616,223.3Z" transform="translate(-357.35 -7.8)"/><path class="cls-2" d="M597.3,252.5a2,2,0,0,1-.8-1.2V251a4.87,4.87,0,0,1-.3.7A4.44,4.44,0,0,0,597.3,252.5Z" transform="translate(-357.35 -7.8)"/><path class="cls-2" d="M593,249.1h0Z" transform="translate(-357.35 -7.8)"/><path class="cls-2" d="M607.5,253.9a2.27,2.27,0,0,1-.4.1,3.09,3.09,0,0,1-.2.8,8.8,8.8,0,0,1-.6,1,8.47,8.47,0,0,0,1.4-1.9C607.7,253.8,607.6,253.9,607.5,253.9Z" transform="translate(-357.35 -7.8)"/><path class="cls-2" d="M675.7,256.1h0l0.1-.3a0.35,0.35,0,0,1-.2-0.1,0.37,0.37,0,0,1-.1.3A0.2,0.2,0,0,1,675.7,256.1Z" transform="translate(-357.35 -7.8)"/><path class="cls-2" d="M670.2,334.3l-0.6,1c0.3-.5.5-0.8,0.6-1h0Z" transform="translate(-357.35 -7.8)"/><path d="M671.1,333.3c-0.7-.7-2.2-0.6-4.4-0.4a28.1,28.1,0,0,1-5.8,0c-1.7-.2-3-0.5-4.3-0.7a56.61,56.61,0,0,0-6.5-.9c-3.4-.3-6.9,1-9.6,2a26,26,0,0,1-3.4,1.1,3.81,3.81,0,0,1-1.5-.1,23.3,23.3,0,0,1-3.1-1.6c-2.6-1.5-5.8-3.3-9.3-3.6-2.9-.2-4.7-0.2-6.5-0.2-1.3,0-2.6,0-4.3-.1-4.1-.2-5.7-0.7-7-1.2-1-.4-1.7-0.3-2.1.2a0.38,0.38,0,0,1-.2.2l-0.3.3c-0.4.7-.1,1.7,0.8,3.4,0.3,0.6.5,1.2,0.7,1.5l0.2-.1,0.1,0.1c0.5,0.7,1.4,1.9,2.5,3.2l5.1,10.3,1.2,2.1c3.1,6.3,11.3,11.3,21.3,12.1s19.4-2.7,23.6-8.4l4.2-5.9,5.1-7.5a2.36,2.36,0,0,0,.5-0.5c2.9-2.7,3.4-3.8,3.3-4.5V334A1.08,1.08,0,0,0,671.1,333.3Zm-9.2,9.3a52.51,52.51,0,0,1-7.4,5.1,34.56,34.56,0,0,1-16.9,3.9h-1.7l-1.7-.1c-7.6-1.1-12.7-3.1-17.8-7a73.44,73.44,0,0,1-11-11.7,1.65,1.65,0,0,0-.1-1.4c-0.4-.4-0.1-1.6.1-2.4a40.12,40.12,0,0,1,6.9,3.4,13.87,13.87,0,0,1,1.9,1.1c1.2,0.6,2.5,1.3,3.7,1.9,5.3,2.8,10.8,5.7,17,6.8l1.8,0.2c6.3,0,12.2-1.9,17.8-3.8,1.3-.4,2.7-0.9,4-1.3,0.5-.1,1.1-0.4,1.9-0.6a25.58,25.58,0,0,1,2.6-.9c1.8-.4,3.5-0.7,4.9-1.1a2.29,2.29,0,0,1-.5,1.4c-0.5.3-.2,1.3,0.1,1.9l-0.1.1c-1.1,1-2.4,2.1-3.8,3.3Zm8.3-8.3h0a6.41,6.41,0,0,1-.6,1Z" transform="translate(-357.35 -7.8)"/><path d="M637.1,320.9a7.34,7.34,0,0,1,.2-0.8L637,320s-0.1.3-.3,0.8a16.21,16.21,0,0,0-.6,2.2,8.08,8.08,0,0,0-.1,1.6,3.92,3.92,0,0,0,.4,1.8,3.85,3.85,0,0,0,1.3,1.6,4.55,4.55,0,0,0,1.9.6,4.58,4.58,0,0,0,2-.1,2.94,2.94,0,0,0,1.8-1,4.49,4.49,0,0,0,.7-1.8,8.54,8.54,0,0,0,0-1.6c-0.1-1-.3-1.7-0.4-2.3a7.34,7.34,0,0,0-.2-0.8l-0.4.1a4.53,4.53,0,0,0,.1.8,13.47,13.47,0,0,1,.1,2.2,4.23,4.23,0,0,1-.7,2.7,1.86,1.86,0,0,1-1.3.7,4.84,4.84,0,0,1-1.7,0c-0.3,0-.5-0.1-0.8-0.1a4.88,4.88,0,0,1-.7-0.3,2.66,2.66,0,0,1-1-1.1,8.33,8.33,0,0,1-.4-1.5,6.53,6.53,0,0,1,0-1.4C636.8,322.2,637,321.4,637.1,320.9Z" transform="translate(-357.35 -7.8)"/><path d="M602.9,321.9h-0.1s-0.2.2-.6,0.7c-0.2.2-.4,0.5-0.7,0.8a4.44,4.44,0,0,0-.8,1.1c-0.3.4-.6,0.9-0.9,1.4a11.94,11.94,0,0,0-.8,1.6c-0.2.6-.5,1.2-0.7,1.9s-0.3,1.3-.5,2a14.92,14.92,0,0,0-.2,2.1c0,0.7.1,1.4,0.1,2a9.51,9.51,0,0,0,.4,1.8c0.2,0.6.4,1.1,0.6,1.6a6.35,6.35,0,0,0,.7,1.2,7,7,0,0,0,.6.9c0.4,0.5.6,0.7,0.6,0.7a0.37,0.37,0,0,0,.3.1,0.3,0.3,0,0,0,.1-0.4h0a4.56,4.56,0,0,0-.4-0.8,3.92,3.92,0,0,1-.4-0.9,6.12,6.12,0,0,0-.5-1.2,5.42,5.42,0,0,1-.4-1.5,8.58,8.58,0,0,1-.3-1.7c0-.6-0.1-1.2-0.1-1.8s0.1-1.2.1-1.9a11.62,11.62,0,0,1,.4-1.8,12.08,12.08,0,0,1,.5-1.8c0.2-.6.4-1.1,0.6-1.6s0.4-1,.6-1.4a19,19,0,0,1,1.1-2.1c0.6-.6.8-0.9,0.7-1C603,322,603,321.9,602.9,321.9Z" transform="translate(-357.35 -7.8)"/><path d="M612.1,313.5a0.29,0.29,0,0,0,.3.5s4.6-2.9,9.3-5.9c2.3-1.5,4.6-3,6.3-4.2a1.76,1.76,0,0,0,.5-0.4,15,15,0,0,0,.2,2.2c0.2,0.9.4,1.6,0.6,2.3s0.4,1.2.5,1.6a2.8,2.8,0,0,1,.1.6H630a1,1,0,0,0,.1.3,1.63,1.63,0,0,0,.3.6,2.18,2.18,0,0,0,.7.9,9.46,9.46,0,0,0,1.6,1.6,0.75,0.75,0,0,0,.5.1,0.52,0.52,0,0,0,.3-0.7,3.23,3.23,0,0,1-.2-0.6,9.74,9.74,0,0,0-.5-1.1l0.1,0.1c0.4,0.2.7,0.4,1.1,0.6a6.07,6.07,0,0,1,1,.7,10.76,10.76,0,0,0,2.1,1.1,9.83,9.83,0,0,0,2.2.6c0.1,0,.2,0,0.2-0.1s0-.2-0.1-0.3a15.91,15.91,0,0,1-1.8-1.1,18.26,18.26,0,0,1-1.6-1.3,9,9,0,0,0-1-.9,4.44,4.44,0,0,0-1.1-.8,7.46,7.46,0,0,0-1.2-.7,4.87,4.87,0,0,0-.7-0.3,0.6,0.6,0,0,0-.4-0.1h-0.9c-0.1,0,.2-0.1-0.2.1h-0.1l-0.1.1-0.1.1a6,6,0,0,0-.2-1.2c-0.1-.7-0.2-1.5-0.3-2.3a6.38,6.38,0,0,1,.1-2.4,1.2,1.2,0,0,1,.4-0.8,1.61,1.61,0,0,1,.7-0.4,3,3,0,0,1,1-.2h0.5a2.27,2.27,0,0,1,.4.1,1.93,1.93,0,0,1,.9.5,11.24,11.24,0,0,0,1,4.1,0.55,0.55,0,0,0,.5.3h0.2a0.52,0.52,0,0,0,.3-0.7,13.9,13.9,0,0,1-.5-8.5,0.51,0.51,0,0,0-1-.2,15.77,15.77,0,0,0-.5,4.1,2.18,2.18,0,0,0-.5-0.3l-0.6-.3-0.2-.1h-0.2l-0.3-.1a5.9,5.9,0,0,0-1.4-.2c-0.2,0-.3.1-0.5,0.1a0.6,0.6,0,0,0-.4.1h0a1.24,1.24,0,0,1-.3.2h0c-0.4.3-1.3,1-2.4,1.8-1.6,1.2-3.9,2.8-6.1,4.4C616.6,310.4,612.1,313.5,612.1,313.5Z" transform="translate(-357.35 -7.8)"/><path d="M645.1,315.1a16,16,0,0,0,2.2-.2,8.4,8.4,0,0,0,2.3-.7c0.4-.2.7-0.3,1.1-0.5a11.73,11.73,0,0,0,1.1-.5h0.1c-0.3.4-.5,0.7-0.7,1a5.19,5.19,0,0,0-.3.5,0.45,0.45,0,0,0,0,.5,0.52,0.52,0,0,0,.7.3,11.47,11.47,0,0,0,1.9-1.3,6,6,0,0,0,.8-0.8,3.11,3.11,0,0,0,.4-0.6c0-.1.1-0.2,0.1-0.3l0.3,0.1a4.21,4.21,0,0,0,.2-0.5c0.2-.3.4-0.8,0.8-1.4a20.92,20.92,0,0,0,1-2.1,10.52,10.52,0,0,0,.6-2.1c0.8,0.9,1.8,2.1,3,3.5,1.4,1.6,3.1,3.4,4.9,5.4,0.9,1,1.9,2,2.7,3s1.7,2.2,2.5,3.3a25.83,25.83,0,0,1,1.9,3.7,17.06,17.06,0,0,1,1.3,3.8,12.86,12.86,0,0,1,.4,1.9c0.1,0.6.1,1.2,0.2,1.8v1.7c-0.1.6-.1,1.1-0.2,1.6s-0.2,1-.3,1.4-0.3.9-.4,1.3a3.7,3.7,0,0,1-.5,1.1c-0.2.3-.3,0.6-0.5,0.9a6.29,6.29,0,0,1-.8,1.1,3,3,0,0,1-.3.4h0a0.25,0.25,0,0,0,.1.4,0.3,0.3,0,0,0,.4,0,3,3,0,0,0,.3-0.4q0.3-.45.9-1.2c0.2-.3.3-0.6,0.5-0.9a3.7,3.7,0,0,0,.5-1.1,5,5,0,0,0,.5-1.3,8.33,8.33,0,0,1,.4-1.5c0.1-.5.1-1.1,0.2-1.7v-1.8c-0.1-.6-0.1-1.3-0.2-1.9a17.65,17.65,0,0,0-.4-2,20.72,20.72,0,0,0-1.3-4,27,27,0,0,0-1.9-3.8,22.15,22.15,0,0,0-2.5-3.5c-0.9-1.1-1.8-2.1-2.7-3.1-1.7-2-3.4-3.9-4.7-5.5-2.7-3.2-4.5-5.5-4.5-5.5h0a0.55,0.55,0,0,0-.5-0.3,5.89,5.89,0,0,0-.8-0.4,3.78,3.78,0,0,0-1.5,0h-0.7a1.42,1.42,0,0,0-.6.2,3.86,3.86,0,0,0-1.5,1.1,0.2,0.2,0,0,0-.1.2c0.4-1.3,1.2-4.6.4-6.8a0.54,0.54,0,0,0-1,.4c0.9,2.3-.6,6.5-0.6,6.6a0.52,0.52,0,0,0,.3.7h0.2a0.55,0.55,0,0,0,.5-0.3v-0.1l0.3,0.1a1.73,1.73,0,0,1,.3-0.4,2.26,2.26,0,0,1,1.3-.6h1a1.88,1.88,0,0,1,.9.4,1.58,1.58,0,0,1,.6.5,4.65,4.65,0,0,1,.3.9,6.88,6.88,0,0,1-.3,2.4,14.16,14.16,0,0,1-.7,2.2c-0.1.5-.3,0.9-0.4,1.3,0-.1-0.1-0.2-0.1-0.3l-0.1-.1-0.1-.1h0c-0.4-.2-0.1-0.1-0.2-0.1H654a1,1,0,0,0-.4-0.1h-0.4a0.48,0.48,0,0,0-.4.1,6.37,6.37,0,0,0-.7.2c-0.4.2-.9,0.3-1.3,0.5l-1.2.6a4.44,4.44,0,0,0-1.1.8,10.42,10.42,0,0,1-1.8,1c-1.2.5-2,.8-2,0.8s-0.1.1-.1,0.2A0.52,0.52,0,0,1,645.1,315.1Z" transform="translate(-357.35 -7.8)"/><path d="M616.3,245.2c-0.1-.2-0.2-0.5-0.3-0.7a3.51,3.51,0,0,0-.5-0.8c-0.2-.3-0.4-0.5-0.6-0.8s-0.5-.5-0.7-0.8a2.7,2.7,0,0,0-.8-0.7,11.52,11.52,0,0,0-3.5-2c-0.5-.2-1-0.3-1.3-0.4a1.75,1.75,0,0,0-.5-0.1,0.52,0.52,0,0,0-.4.2,0.48,0.48,0,0,0,.2.6,1.09,1.09,0,0,0,.4.2,5.42,5.42,0,0,0,1.1.6,9.88,9.88,0,0,0,1.5.9,15.26,15.26,0,0,1,1.6,1.1,17.38,17.38,0,0,1,1.5,1.3,4.35,4.35,0,0,1,.6.7,2.65,2.65,0,0,1,.5.6,2.18,2.18,0,0,0,.4.5c0.1,0.2.2,0.3,0.3,0.5a3,3,0,0,0,.3.4,0.48,0.48,0,0,0,.5.2,0.55,0.55,0,0,0,.3-0.5,1.21,1.21,0,0,1-.1-0.5A0.52,0.52,0,0,1,616.3,245.2Z" transform="translate(-357.35 -7.8)"/><path d="M664.4,253.1h0a1.73,1.73,0,0,1,.3-0.4,4.62,4.62,0,0,1,.7-1,2.65,2.65,0,0,1,.5-0.6,4.35,4.35,0,0,0,.6-0.7,18.48,18.48,0,0,1,1.4-1.4,15.76,15.76,0,0,1,1.5-1.2c0.5-.4,1-0.7,1.4-1a15.59,15.59,0,0,1,1.5-.9,0.37,0.37,0,0,0,.2-0.5,0.38,0.38,0,0,0-.5-0.3s-0.7.2-1.7,0.6a11.65,11.65,0,0,0-3.4,2.1,6,6,0,0,0-.8.8,5,5,0,0,0-.7.8c-0.2.3-.4,0.5-0.6,0.8a3,3,0,0,0-.4.8,4.87,4.87,0,0,1-.3.7c-0.1.2-.1,0.4-0.2,0.6a1.75,1.75,0,0,0-.1.5,0.4,0.4,0,0,0,.2.4C664,253.3,664.3,253.3,664.4,253.1Z" transform="translate(-357.35 -7.8)"/><path d="M612.2,259.7a0.49,0.49,0,0,0-.6-0.3h0a0.31,0.31,0,0,0-.2.1,2.54,2.54,0,0,0-.7.2c-0.6.2-1.5,0.3-2.5,0.5-0.5.1-1.1,0.2-1.7,0.3s-1.2.1-1.9,0.2-1.3.1-2,.1h-2.1c-0.7,0-1.4-.1-2.1-0.1a12,12,0,0,1-2-.3,10.62,10.62,0,0,1-1.9-.4c-0.6-.1-1.2-0.3-1.7-0.4a10.26,10.26,0,0,0-1.4-.4,7.6,7.6,0,0,0-1.1-.4l-0.9-.3h0c-0.2-.1-0.3,0-0.4.2a0.44,0.44,0,0,0,.1.5,9.24,9.24,0,0,0,.9.5c0.6,0.3,1.4.7,2.4,1.1,0.5,0.2,1.1.4,1.7,0.6a13.32,13.32,0,0,0,1.9.5c0.7,0.1,1.4.3,2.1,0.4a16.35,16.35,0,0,0,2.2.2,16.15,16.15,0,0,0,2.2,0c0.7,0,1.4-.1,2.1-0.1a27.26,27.26,0,0,0,3.7-.7c1.1-.3,1.9-0.6,2.6-0.8a4.88,4.88,0,0,0,.7-0.3l0.2-.1A0.7,0.7,0,0,0,612.2,259.7Z" transform="translate(-357.35 -7.8)"/><path d="M689.4,265.2h0s-0.4.1-1,.2c-0.3.1-.7,0.1-1.1,0.2s-0.9.1-1.4,0.2a8.81,8.81,0,0,1-1.7.2c-0.6,0-1.2.1-1.9,0.1h-2a14.92,14.92,0,0,1-2.1-.2l-2.1-.3c-0.7-.1-1.3-0.3-2-0.4s-1.3-.3-1.8-0.5-1.1-.3-1.6-0.5a15.43,15.43,0,0,1-2.4-.9,4.88,4.88,0,0,1-.7-0.3l-0.2-.1h0a0.52,0.52,0,0,0-.6.2,0.45,0.45,0,0,0,.1.6,0.35,0.35,0,0,0,.2.1,5.74,5.74,0,0,1,.7.4,26.52,26.52,0,0,0,2.4,1.2,21.63,21.63,0,0,0,3.6,1.2,16,16,0,0,0,2.1.5,16.6,16.6,0,0,0,2.2.3,16.2,16.2,0,0,0,2.2.1,14.08,14.08,0,0,0,2.1-.1,12.31,12.31,0,0,0,2-.2l1.8-.3a10.06,10.06,0,0,0,2.6-.8c0.6-.2,1-0.3,1-0.3,0.2-.1.3-0.2,0.2-0.4A1.42,1.42,0,0,0,689.4,265.2Z" transform="translate(-357.35 -7.8)"/><path d="M703.6,297.9a0.9,0.9,0,0,0-1,.7s-0.1.9-.4,2.3-0.7,3.2-1.2,5a44.69,44.69,0,0,1-1.6,4.8c-0.3.6-.5,1.2-0.7,1.5l-0.3.6h0a0.62,0.62,0,0,0,.2.7,0.57,0.57,0,0,0,.7-0.2l0.3-.6c0.2-.4.5-0.9,0.8-1.6a50.76,50.76,0,0,0,1.9-4.9,49.47,49.47,0,0,0,1.4-5c0.3-1.4.5-2.3,0.5-2.3h0A0.71,0.71,0,0,0,703.6,297.9Z" transform="translate(-357.35 -7.8)"/><path d="M566.6,305h0a5.94,5.94,0,0,0-.3-0.7c-0.2-.4-0.5-1.1-0.8-1.8a56.66,56.66,0,0,1-1.9-5.8c-0.6-2.1-1-4.3-1.3-5.9s-0.5-2.7-.5-2.7h0a0.86,0.86,0,1,0-1.7.3h0s0.2,1.1.6,2.8,0.9,3.8,1.6,6,1.5,4.3,2.1,5.8c0.4,0.8.6,1.4,0.9,1.9a7.24,7.24,0,0,0,.4.7,0.48,0.48,0,0,0,.7.2A0.78,0.78,0,0,0,566.6,305Z" transform="translate(-357.35 -7.8)"/><path d="M648.6,285.7c0.3,2.1.6,3.5,0.6,3.5h0a0.51,0.51,0,0,0,1-.2s-0.3-1.3-.7-3.4a69.24,69.24,0,0,1-.9-7.6c-0.1-1.4-.1-2.8-0.1-4.1V272a9.15,9.15,0,0,1,.1-1.7c0.1-1,.1-1.9.2-2.5a6.74,6.74,0,0,0,.1-1h0c0-.1,0-0.1-0.1-0.1a0.2,0.2,0,0,0-.2.1,8.16,8.16,0,0,1-.1,1c-0.1.6-.2,1.5-0.3,2.5a9.15,9.15,0,0,0-.1,1.7c0,0.6-.1,1.2-0.1,1.9,0,1.3-.1,2.7,0,4.1A56.08,56.08,0,0,0,648.6,285.7Z" transform="translate(-357.35 -7.8)"/><path d="M638.7,287.5a0.44,0.44,0,0,0,.6-0.4s0.3-1.3.7-3.3a62.6,62.6,0,0,0,1-7.2c0.1-1.3.2-2.6,0.2-3.9s0-2.4-.1-3.4a14.36,14.36,0,0,0-.2-2.4,6.17,6.17,0,0,1-.1-0.9,0.2,0.2,0,1,0-.4,0h0a6.17,6.17,0,0,0,.1.9c0,0.6.1,1.4,0.1,2.4v3.4a25.31,25.31,0,0,1-.3,3.8c-0.3,2.6-.7,5.2-1.1,7.1s-0.8,3.2-.8,3.2h0A0.46,0.46,0,0,0,638.7,287.5Z" transform="translate(-357.35 -7.8)"/><path d="M579.9,247.4h0Z" transform="translate(-357.35 -7.8)"/><path d="M651.9,245.1a52.27,52.27,0,0,1,2.5-4.7h0a0.54,0.54,0,1,0-1-.4s-1.1,2.4-2,5c-0.4,1.3-.8,2.6-1,3.5a9.06,9.06,0,0,0-.2,1.6,10.17,10.17,0,0,1,.4-1.6A14.6,14.6,0,0,1,651.9,245.1Z" transform="translate(-357.35 -7.8)"/><ellipse cx="702.64" cy="289.58" rx="2.6" ry="2.1" transform="translate(-65.98 920.87) rotate(-79.64)"/><path d="M570.5,237.6a22.11,22.11,0,0,0,1.4,2.4,4.35,4.35,0,0,0,.6.7l0.2,0.2h0a2.39,2.39,0,0,0,1.3.7c0.2,0.3.4,0.5,0.5,0.7,0.9,0.9,2.7,2.7,4,3.9a10.57,10.57,0,0,0,.6,1.9,4.89,4.89,0,0,0,.9,1.5,5.19,5.19,0,0,1,.3.5l0.3-.2a5.19,5.19,0,0,0-.3-0.5,6.77,6.77,0,0,1-.6-1.6,6.39,6.39,0,0,1-.2-0.7,0.75,0.75,0,0,1,.3.3,0.75,0.75,0,0,1-.3-0.3,9,9,0,0,1-.2-1.8,4.07,4.07,0,0,1,.5-1.8l0.1-.1a8.18,8.18,0,0,1,.9-0.8,6.47,6.47,0,0,0,.9-0.8,8.49,8.49,0,0,1,2.2-.9,19.32,19.32,0,0,1,4.3-.7,38.4,38.4,0,0,1,4.8,0,19.67,19.67,0,0,1,2.4.3c0.7,0.1,1.6.4,2.4,0.6l0.9,0.3a8.91,8.91,0,1,0,10.9,8.7,10,10,0,0,0-1-4.2,11.51,11.51,0,0,1,1.7,1.4c0.3,0.2.5,0.5,0.8,0.7l0.7,0.7a7.89,7.89,0,0,1,1.2,1.5c0.4,0.5.7,1,1,1.4a10,10,0,0,1,.8,1.4,23.47,23.47,0,0,1,1.1,2.4c0.5,1.4.8,2.2,0.8,2.2l0.6-.2a2.8,2.8,0,0,0-.1-0.6c-0.1-.4-0.2-1-0.4-1.7s-0.5-1.6-.9-2.6a14.3,14.3,0,0,0-1.7-3.2c-0.4-.5-0.7-1.1-1.2-1.7a5.72,5.72,0,0,0-.7-0.8l-0.8-.8a14.54,14.54,0,0,0-1.8-1.6,24.26,24.26,0,0,0-2-1.4,31.68,31.68,0,0,0-4.5-2.3,46.61,46.61,0,0,0-4.9-1.6c-0.8-.2-1.6-0.4-2.6-0.6l-2.6-.3a41.31,41.31,0,0,0-5,.1,21.66,21.66,0,0,0-2.5.4c0.1-.1.2-0.1,0.3-0.2a2.12,2.12,0,0,1,.7-0.3l0.6-.3a2.57,2.57,0,0,0,.5-0.2,4.21,4.21,0,0,0,.5-0.2,0.42,0.42,0,0,0,.3-0.5,0.47,0.47,0,0,0-.5-0.5h-1.1c-0.2,0-.5.1-0.8,0.1a2.92,2.92,0,0,1-.9.2,6.9,6.9,0,0,0-1,.4,9.26,9.26,0,0,0-1,.5l-0.9.6c-0.2.1-.3,0.3-0.5,0.4a12.7,12.7,0,0,1-5.2.4,2.09,2.09,0,0,0-.7-1.8h0l-0.1-.1a1.24,1.24,0,0,1-.2-0.3,7.09,7.09,0,0,1-1.1-1.7,14.37,14.37,0,0,1-1.2-3,10,10,0,0,1-.4-3.9,8,8,0,0,1,.5-2.1c0,0.1.2-.5,0.2-0.4a0.1,0.1,0,0,1,.1-0.1l0.1-.2a6,6,0,0,1,.8-0.8,17.77,17.77,0,0,1,4.9-3,62,62,0,0,1,12.8-4.2c1.1-.2,2.3-0.5,3.4-0.6h1.6c0.4,0,1,.1,1.5.1a12.76,12.76,0,0,1,2.8.7,0.91,0.91,0,0,0,.8.4,1.09,1.09,0,0,0,1.3.4h0.1a4.88,4.88,0,0,0,.7.3,1,1,0,0,0,.9.4c1.6,0.7,3.1,1.6,4.6,2.4h0c1.9,1.1,3.7,2.3,5.3,3.4,2.9,2,5.2,3.8,6.8,5.1s2.5,2,2.5,2a0.49,0.49,0,1,0,.7-0.7l-0.5-.5a0.76,0.76,0,0,0,.4-0.1,1.19,1.19,0,0,0,.7-1.5v-0.1a5.94,5.94,0,0,0-.3-0.7c-0.2-.4-0.5-0.8-0.8-1.3a6.34,6.34,0,0,0-1-1.2l-0.5-.5h0a0.64,0.64,0,0,0-.6,0,0.1,0.1,0,0,1-.1.1,3.51,3.51,0,0,0-.5-0.8,6.34,6.34,0,0,0-1-1.2l-0.5-.5h0a0.64,0.64,0,0,0-.6,0,0.1,0.1,0,0,0-.1.1c-0.1-.1-0.2-0.3-0.3-0.4a6.34,6.34,0,0,0-1-1.2l-0.5-.5h0a0.64,0.64,0,0,0-.6,0l-0.2.2a5.72,5.72,0,0,0-.7-0.8l-0.5-.5h0a0.64,0.64,0,0,0-.6,0h0c-0.1-.1-0.1-0.2-0.2-0.3a6.34,6.34,0,0,0-1-1.2l-0.5-.5h0a0.64,0.64,0,0,0-.6,0,0.53,0.53,0,0,0-.2.3,5.72,5.72,0,0,0-.7-0.8l-0.5-.5h0a0.64,0.64,0,0,0-.6,0,0.49,0.49,0,0,0-.1.7,5.19,5.19,0,0,0,.3.5,7.26,7.26,0,0,1,.5,1.2c0,0.1.1,0.3,0.1,0.4a0.38,0.38,0,0,1-.2-0.2v-0.1a5.94,5.94,0,0,0-.3-0.7c-0.2-.4-0.5-0.8-0.8-1.3a6.34,6.34,0,0,0-1-1.2l-0.5-.5h0c-0.1,0-.1-0.1-0.2-0.1s-0.2-.3-0.3-0.4l-0.5-.5h0a0.64,0.64,0,0,0-.6,0l-0.1.1a10.62,10.62,0,0,0-.9-1.1l-0.5-.5h0a0.64,0.64,0,0,0-.6,0,0.49,0.49,0,0,0-.1.7,5.19,5.19,0,0,0,.3.5c0.1,0.1.1,0.3,0.2,0.4l-0.1-.1a6.34,6.34,0,0,0-1-1.2l-0.5-.5h0a0.64,0.64,0,0,0-.6,0,0.49,0.49,0,0,0-.1.7h0a7.27,7.27,0,0,0-.8-0.9l-0.5-.5h0a0.53,0.53,0,0,0-.8.6c-0.1-.1-0.3-0.1-0.4-0.2a2.83,2.83,0,0,0-.6-0.3h-0.1c-0.1,0-.2-0.1-0.3-0.1a8.33,8.33,0,0,0-1.5-.4,3.2,3.2,0,0,0-.7-0.1h0a0.76,0.76,0,0,0-.4.2,4.48,4.48,0,0,0-1.1-.1h-0.7a0.66,0.66,0,0,0-.5.4v0.1h-0.9a2.44,2.44,0,0,0-.7.1h0c-0.1,0-.1.1-0.2,0.1h-0.3a3.78,3.78,0,0,0-1.5,0,2.44,2.44,0,0,0-.7.1h0a0.54,0.54,0,0,0-.4.5v0.1c-0.3,0-.5.1-0.8,0.1s-0.7.2-.7,0.2h0a0.42,0.42,0,0,0-.3.4c-0.4,0-.7.1-1,0.1s-0.7.2-.7,0.2h0a0.85,0.85,0,0,0-.3.3c-1,.2-1.9.5-2.9,0.8h-0.2c-0.4.1-.7,0.2-0.7,0.2h0l-0.1.1c-0.4.1-.9,0.3-1.3,0.4a3.22,3.22,0,0,0-.6.2h0c-0.1,0-.1.1-0.2,0.1-0.8.3-1.5,0.5-2.3,0.8a26.27,26.27,0,0,0-6.1,3.4A8,8,0,0,0,571,222l-0.3.4c-0.1.2-.2,0.3-0.3,0.5a3.6,3.6,0,0,0-.5.9,10.17,10.17,0,0,0-.9,3.3,14.24,14.24,0,0,0,.4,5.6A9.73,9.73,0,0,0,570.5,237.6Zm30.3,4.6h0.5a6.94,6.94,0,0,1,1.3.5,21.16,21.16,0,0,1,3.7,1.8,8.49,8.49,0,0,1,2.1,3.4,1.42,1.42,0,0,0-.6-0.2,2,2,0,0,0-1.1.3,1.54,1.54,0,0,0-1.7-1.2,0.42,0.42,0,0,0-.3-0.4h-0.1c0-.1.1-0.1,0.1-0.2s0.1-.1.1-0.2a0.66,0.66,0,0,0-.2-0.7,0.37,0.37,0,0,0-.3-0.1v-0.5a0.47,0.47,0,0,0-.5-0.5,0.52,0.52,0,0,0-.4.2,0.32,0.32,0,0,0-.3,0,0.47,0.47,0,0,0-.4.6l0.1,0.3a0.54,0.54,0,0,0,.4.4h0.1v0.5a0.76,0.76,0,0,0,.2.4c-0.1.2-.1,0.5-0.2,0.7a0.34,0.34,0,0,0,.2.4,0.2,0.2,0,0,0,.2.1l-0.1.3a1.27,1.27,0,0,0-.6-0.1,1.69,1.69,0,0,0-1,.3v-0.2c0-.1-0.1-0.2-0.1-0.3l0.2-.2a0.5,0.5,0,1,0-.8-0.6l-0.1.1a0.55,0.55,0,0,0-.4.6v0.5a0.42,0.42,0,0,0,.3.4c0,0.3.1,0.5,0.1,0.8h-0.1c-0.1,0-.2.1-0.3,0.1h-0.2a0.56,0.56,0,0,0-.5.6h0l-0.1.1-0.2.2h-0.1l-0.1-1.2a1.5,1.5,0,0,0-1.7-1.4,1.14,1.14,0,0,0-.8.3,1.75,1.75,0,0,0-.4-1.2,1.58,1.58,0,0,0-2.2-.3,1.37,1.37,0,0,0-.5.8c-0.2.1-.3,0.2-0.5,0.3A7.65,7.65,0,0,1,600.8,242.2Zm-3.6,14.3a1.38,1.38,0,0,0-.4-0.3,0.53,0.53,0,0,0,.3.2Zm-1-1.1h0.1l0.3,0.6-0.2-.2-0.6-.6A1.47,1.47,0,0,1,596.2,255.4Zm4-1.6-0.1-.1h0.3a0.35,0.35,0,0,1-.2.1h0Zm1.6-1.3h0l0.1-.1A0.1,0.1,0,0,0,601.8,252.5Zm-5.2-1.5v0.3a1.41,1.41,0,0,0,.8,1.2,2.84,2.84,0,0,1-1.1-.8C596.4,251.5,596.5,251.2,596.6,251Zm-3.6-1.9h0Zm5.4,8.5,0.1-.1c0-.1.1-0.2,0.1-0.3a0.37,0.37,0,0,0,.1-0.3,4.81,4.81,0,0,1,1.6.8,5.74,5.74,0,0,1,.7.4h-0.2A17,17,0,0,1,598.4,257.6Zm7.9-1.9a3.33,3.33,0,0,0,.6-1,2.35,2.35,0,0,0,.2-0.8,0.76,0.76,0,0,0,.4-0.1c0.1,0,.1-0.1.2-0.1A5.58,5.58,0,0,1,606.3,255.7Zm-27.3-13a4.2,4.2,0,0,1-.2.5v0.1c-0.1.2-.1,0.3-0.2,0.5a4.76,4.76,0,0,1,.5-1.4A0.44,0.44,0,0,1,579,242.7Zm37-19.4c0,0.1.1,0.3,0.1,0.4a0.38,0.38,0,0,1-.2-0.2A0.2,0.2,0,0,0,616,223.3Zm7.1,4.8c0.1,0.4.2,0.9,0.3,1.2a1.75,1.75,0,0,1,.1.5,4.35,4.35,0,0,0-.7-0.6c-0.2-.2-0.5-0.4-0.7-0.6h0.3a1.21,1.21,0,0,0,.7-0.7C623,227.9,623.1,228,623.1,228.1Zm-2.3-.6a8.74,8.74,0,0,0-1-.8,1.06,1.06,0,0,0,.6-0.7,4.4,4.4,0,0,1,.2,1A0.65,0.65,0,0,1,620.8,227.5Z" transform="translate(-357.35 -7.8)"/><path d="M663,233.7l-0.5.5h0a0.49,0.49,0,0,0,.7.7s0.8-.7,2.3-1.9,3.7-2.9,6.4-4.7c1.2-.8,2.6-1.7,4-2.5,0.1,0,.1.1,0.2,0.1a1.1,1.1,0,0,0,1.2-.8,1.23,1.23,0,0,0,.8-0.4c0.7-.3,1.4-0.7,2.1-1a1.06,1.06,0,0,0,.5.2,1.08,1.08,0,0,0,1.1-.7,0.86,0.86,0,0,0,.6.3,1,1,0,0,0,.9-0.4,1.06,1.06,0,0,0,.9-0.8,0.31,0.31,0,0,1,.1-0.2,11,11,0,0,1,3.1-.4,6.75,6.75,0,0,1,1.4.2l1.5,0.5,1.5,0.6,1.5,0.6c0.3,0.1.5,0.3,0.8,0.4a1.61,1.61,0,0,0,.7.4,52.63,52.63,0,0,1,9,6.1c1.5,1.3,3,2.6,4.4,3.9a1.13,1.13,0,0,1,.4.6v0.4a15.57,15.57,0,0,0-.3,2.5c0,0.5-.1.9-0.1,1.3a1.06,1.06,0,0,1-.2.5,7,7,0,0,1-.8,1,8.53,8.53,0,0,1-2.5,1.3,5.81,5.81,0,0,1-1.9.4h-0.6a3.7,3.7,0,0,0-2.2,4,6.47,6.47,0,0,0-.8-0.9,7.94,7.94,0,0,0-1.7-1.4l-0.9-.6a3.13,3.13,0,0,0-1-.5,10.37,10.37,0,0,0-1-.4,2.92,2.92,0,0,0-.9-0.2,7.6,7.6,0,0,0-1.4-.1h-0.5a0.42,0.42,0,0,0-.4.3,0.52,0.52,0,0,0,.3.7h0.1l0.4,0.2a1.69,1.69,0,0,1,.5.2l0.6,0.3,0.6,0.3c-1.3-.3-2.7-0.6-4.1-0.8a24.52,24.52,0,0,0-2.7-.2c-1,0-1.8.1-2.7,0.1a20,20,0,0,0-2.6.5,34.5,34.5,0,0,0-7.4,2.6,23.89,23.89,0,0,0-4.1,2.6,22.15,22.15,0,0,0-3.1,3,13.67,13.67,0,0,0-2.1,3c-0.6.9-.9,1.8-1.3,2.5s-0.5,1.3-.6,1.6a3.22,3.22,0,0,1-.2.6l0.5,0.2,0.3-.6c0.2-.4.4-0.9,0.8-1.6a17.35,17.35,0,0,1,1.5-2.2,23.46,23.46,0,0,1,2.2-2.6,15.43,15.43,0,0,1,3.1-2.5c0.2-.1.4-0.3,0.6-0.4a8.72,8.72,0,0,0-.9,4,8.9,8.9,0,0,0,17.8,0,8.78,8.78,0,0,0-4.3-7.6h0.2c0.8-.1,1.7-0.3,2.4-0.4a19.27,19.27,0,0,1,2.4-.1,26.07,26.07,0,0,1,4.8.5,27,27,0,0,1,4.3,1.2,10.9,10.9,0,0,1,1.1.6l0.7,0.7a0.6,0.6,0,0,0,.4.1,6,6,0,0,1,.8.8c0.1,0.2.2,0.3,0.3,0.5a4.92,4.92,0,0,1,.5,2v0.5a8.17,8.17,0,0,1-.8,2.5c-0.4.6-.7,1.2-0.9,1.5a5.19,5.19,0,0,0-.3.5l0.3,0.2a2.22,2.22,0,0,1,.4-0.5c0.3-.3.6-0.8,1.1-1.4a6.73,6.73,0,0,0,.9-1.9,24.21,24.21,0,0,1,2.4-3.1,2.5,2.5,0,0,0,.7-2.4c0.5-.4,1-0.9,1.8-1.5a31.11,31.11,0,0,0,2.9-3.1,11.29,11.29,0,0,0,1.4-2.7,3.59,3.59,0,0,0,.2-1.8v-1.1c0-.8.1-1.5,0.1-2.6a4.66,4.66,0,0,0-.5-2.2,4.48,4.48,0,0,0-1.4-1.6c-1.3-1-2.6-2.1-4.1-3.1,0-.1,0-0.2-0.1-0.2a2.49,2.49,0,0,0-.7-0.3h-0.1a0.53,0.53,0,0,0-.3-0.2,0.1,0.1,0,0,0-.1-0.1,0.44,0.44,0,0,0-.3-0.1c-0.1-.1-0.3-0.2-0.4-0.3a0.37,0.37,0,0,0-.1-0.3,4.54,4.54,0,0,0-.8-0.3l-0.1-.1a0.1,0.1,0,0,0,.1-0.1,0.19,0.19,0,0,0-.1-0.3s-0.4-.2-0.9-0.4h0a0.19,0.19,0,0,0-.1-0.3,2.5,2.5,0,0,0-1-.4h0.1a0.55,0.55,0,0,0,.5-0.3,0.57,0.57,0,0,0-.2-0.7h0a3.22,3.22,0,0,0-.6-0.2,6.37,6.37,0,0,0-.9-0.2,0.42,0.42,0,0,0-.3-0.4h0a3.22,3.22,0,0,0-.6-0.2,2.39,2.39,0,0,0-.9-0.2,0.22,0.22,0,0,0-.2-0.2h0a3.22,3.22,0,0,0-.6-0.2c-0.2-.1-0.5-0.1-0.8-0.2a0.55,0.55,0,0,0-.3-0.5h0a3.22,3.22,0,0,0-.6-0.2c-0.2-.1-0.5-0.1-0.8-0.2a0.55,0.55,0,0,0-.3-0.5h0a3.22,3.22,0,0,0-.6-0.2c-0.2-.1-0.4-0.1-0.6-0.2a0.49,0.49,0,0,0-.3-0.6,3.22,3.22,0,0,0-.6-0.2,6.15,6.15,0,0,0-1.4-.1h-0.2a0.2,0.2,0,0,0-.2-0.1,3.22,3.22,0,0,0-.6-0.2c-0.2,0-.5-0.1-0.8-0.1a0.68,0.68,0,0,0-.4-0.6,2.14,2.14,0,0,1-.6-0.1H688a0.52,0.52,0,0,0-.4-0.2H687a3.08,3.08,0,0,0-1.3.3c-0.1,0-.1.1-0.2,0.1h-0.1a1.09,1.09,0,0,1-.4.2c-0.1.1-.3,0.1-0.4,0.2a0.45,0.45,0,0,0,0-.5,0.49,0.49,0,0,0-.7-0.1,3.61,3.61,0,0,1-.5.4,2.18,2.18,0,0,0-.4.5,0.6,0.6,0,0,0-.1-0.4,0.49,0.49,0,0,0-.7-0.1,3.61,3.61,0,0,1-.5.4,2.65,2.65,0,0,0-.5.6,1.24,1.24,0,0,1,.2-0.3,0.64,0.64,0,0,0,0-.6,0.49,0.49,0,0,0-.7-0.1,3.61,3.61,0,0,1-.5.4,8.17,8.17,0,0,0-.8.9,0.62,0.62,0,0,0-.7-0.1,3.61,3.61,0,0,1-.5.4l-0.3.3c-0.1,0-.2,0-0.2.1a3.61,3.61,0,0,1-.5.4c-0.3.3-.6,0.7-1,1.1s-0.6.9-.8,1.2c-0.1.1-.1,0.2-0.2,0.3a10.36,10.36,0,0,1,.4-1,5.19,5.19,0,0,0,.3-0.5,0.64,0.64,0,0,0,0-.6,0.49,0.49,0,0,0-.7-0.1,3.61,3.61,0,0,1-.5.4l-0.6.6v-0.1a0.49,0.49,0,0,0-.7-0.1,3.61,3.61,0,0,1-.5.4c-0.3.3-.6,0.7-1,1.1l-0.1.1a0.64,0.64,0,0,0-.6,0,3.61,3.61,0,0,1-.5.4,3.17,3.17,0,0,0-.5.6h0a0.49,0.49,0,0,0-.7-0.1,3.61,3.61,0,0,1-.5.4c-0.3.3-.6,0.7-1,1.1a0.2,0.2,0,0,0-.1.2,0.62,0.62,0,0,0-.7-0.1,3.61,3.61,0,0,1-.5.4c-0.3.3-.6,0.7-1,1.1-0.1.2-.3,0.4-0.4,0.6a0.46,0.46,0,0,0-.6,0,3.61,3.61,0,0,1-.5.4c-0.3.3-.6,0.7-1,1.1s-0.6.9-.8,1.2a2.83,2.83,0,0,0-.3.6v0.1a2.27,2.27,0,0,0-.1.4A1.08,1.08,0,0,0,663,233.7Zm12.8,22-0.1.4h0l-0.2-.2a0.37,0.37,0,0,1,.1-0.3C675.6,255.7,675.7,255.7,675.8,255.7Zm0.3,5.4a14.31,14.31,0,0,1-1.5-1.1A5.82,5.82,0,0,1,676.1,261.1Zm4.2-5.9a1.48,1.48,0,0,0-.7-0.1,0.1,0.1,0,0,1,.1-0.1,0.35,0.35,0,0,1,.1-0.2c0.1,0,.2.1,0.3,0.1a0.2,0.2,0,0,0,.1.2l0.1,0.1h0Zm6.1-5.5a1.51,1.51,0,0,0-1.9.2,0.53,0.53,0,0,0-.2.3,1.46,1.46,0,0,0-.9-0.6,1.54,1.54,0,0,0-1.9,1.2l-0.3,1.4a0.47,0.47,0,0,0-.6.4v0.1c-0.1.2-.1,0.5-0.2,0.7a0.52,0.52,0,0,0-.4-0.2,0.71,0.71,0,0,0-.6.3,1.47,1.47,0,0,0-.2.4c0-.1-0.1-0.1-0.1-0.2a0.76,0.76,0,0,0-.9-0.2,0.37,0.37,0,0,0-.3-0.1,0.65,0.65,0,0,0-.6.6,0.67,0.67,0,0,0,.6.7h0.3v0.1l-0.2.2a4.67,4.67,0,0,1-.5,1h0a0.2,0.2,0,0,0-.1-0.2,0.55,0.55,0,0,0-.5-0.3l0.1-.4a0.49,0.49,0,0,0-.3-0.6,0.85,0.85,0,0,0-.5,0,0.45,0.45,0,0,0-.5,0,0.22,0.22,0,0,0-.2.2,0.1,0.1,0,0,0-.1-0.1,3.06,3.06,0,0,1,.8-1h0a0.51,0.51,0,1,0-.5-0.9c-0.1.1-.2,0.1-0.3,0.2l-0.1-.1a0.47,0.47,0,0,0-.6-0.1,5.31,5.31,0,0,0-1.1.9,0.37,0.37,0,0,0-.3-0.1h-0.2c-0.1,0-.2,0-0.2-0.1a0.46,0.46,0,0,0-.5.4,1,1,0,0,0-.5.4h0a8,8,0,0,1,1.8-5l1.5-.6a22.26,22.26,0,0,1,4.6-1.3c0.9-.2,1.9-0.3,2.8-0.5A7.38,7.38,0,0,1,686.4,249.7ZM671,227.4a0.37,0.37,0,0,1,.1-0.3,0.2,0.2,0,0,0,.2.1h-0.1A0.28,0.28,0,0,1,671,227.4Zm-4.2,2.7c0-.2.1-0.4,0.1-0.6a1.47,1.47,0,0,0,.6.5c-0.3.2-.6,0.5-0.9,0.7h0A0.84,0.84,0,0,0,666.8,230.1Zm-2.2,1a1.56,1.56,0,0,0,.8.6c-0.2.2-.5,0.4-0.7,0.6s-0.4.3-.5,0.4a1.34,1.34,0,0,1,.1-0.5C664.4,231.9,664.5,231.5,664.6,231.1Z" transform="translate(-357.35 -7.8)"/><path class="cls-2" d="M432,336.9h0Z" transform="translate(-357.35 -7.8)"/><path d="M454.4,378.7l1.8,2.7c0.6,0.9,1.3,1.8,2,2.8s1.4,1.8,2.1,2.6,1.4,1.7,2,2.5a26.54,26.54,0,0,1,3.1,4.6,8.59,8.59,0,0,1,1.1,3.5,2.79,2.79,0,0,1-.1,1,1,1,0,0,1-.1.4l1,0.3a1.58,1.58,0,0,1,.1-0.4,3.73,3.73,0,0,0,.2-1.2,6.37,6.37,0,0,0-.1-1.9,7.91,7.91,0,0,0-.8-2.3,25.25,25.25,0,0,0-3.1-5c-0.6-.8-1.3-1.7-2-2.6s-1.4-1.7-2.1-2.6-1.3-1.8-1.9-2.6-1.2-1.8-1.8-2.6c-1.2-1.7-2.2-3.4-3.1-4.8-1.7-2.8-2.8-4.8-2.8-4.8l-0.9.5s0.9,2.1,2.5,5.1C452.3,375.2,453.3,376.9,454.4,378.7Z" transform="translate(-357.35 -7.8)"/></svg>