<svg id="Ebene_1" data-name="Ebene 1" xmlns="http://www.w3.org/2000/svg" viewBox="0 0 695.9 812"><defs><style>.cls-1{fill:none;}.cls-2{fill:#fff;}</style></defs><title>human3</title><path class="cls-1" d="M628.5,782.6l-15.4-16.3-16.9,14.4-9,7.6-8.3,7c0.9,0.8,1.9,1.7,2.8,2.4,1.2,0.9,2.5,1.8,3.7,2.7a52.46,52.46,0,0,0,8.1,4.3c1.4,0.6,2.8,1.1,4.3,1.6a31.66,31.66,0,0,0,4.4,1.2c1.5,0.3,3,.6,4.5.8s3,0.3,4.5.4h2.3a18.49,18.49,0,0,0,2.3-.1c1.5-.1,3-0.2,4.5-0.4s3-.5,4.5-0.8a36,36,0,0,0,4.4-1.2c1.4-.5,2.9-1,4.3-1.6s2.8-1.3,4.1-2,2.6-1.5,3.9-2.3a19.52,19.52,0,0,0,2.3-1.7l-7-7.4Z" transform="translate(-257.7 -11.5)"/><path class="cls-1" d="M573.1,728.9l-1.7,2.6a24,24,0,0,0-1.6,2.7,24.38,24.38,0,0,0-1.4,2.8,40.66,40.66,0,0,0-2.2,5.8,58.73,58.73,0,0,0-1.6,6c-0.2,1-.3,2-0.5,3a29.63,29.63,0,0,0-.3,3.1l-0.1,3.2c0,0.9,0,2,.1,3a46.76,46.76,0,0,0,2.2,12.2,48.2,48.2,0,0,0,4.2,9.6c11.8-10.2,23.4-20.4,35.3-30.5l0.2-22.2v-0.9c-9.9-.1-21-0.4-32-0.8A0.92,0.92,0,0,0,573.1,728.9Z" transform="translate(-257.7 -11.5)"/><path class="cls-1" d="M663.5,751.3a50.3,50.3,0,0,0-1.4-6.5,28.27,28.27,0,0,0-1.1-3.1l-0.5-1.6-0.7-1.5c-0.5-1-.9-2-1.4-3l-1.6-2.9c-0.5-1-1.2-1.8-1.8-2.8a23.43,23.43,0,0,0-2-2.7l-0.7-.8a113.23,113.23,0,0,1-18.5,2.4c-3.8.1-8.1,0.2-12.9,0.2v0.2l-0.1,21.7L638,769.6l16.8,18.5a51.73,51.73,0,0,0,9-23.8l0.3-3.3c0-1.1.1-2.3,0-3.3A36.33,36.33,0,0,0,663.5,751.3Z" transform="translate(-257.7 -11.5)"/><path d="M632.8,147.6h-0.2c0,0.1,0,.2.1,0.2A0.31,0.31,0,0,0,632.8,147.6Z" transform="translate(-257.7 -11.5)"/><path class="cls-2" d="M606.3,175.8c3.3-2.5,6.5-5,9.6-7.7l-3.6,1.8A17.84,17.84,0,0,0,606.3,175.8Z" transform="translate(-257.7 -11.5)"/><path class="cls-2" d="M589.8,698.5c-0.1,0-.2-0.1-0.3-0.1a0.2,0.2,0,0,0,.1.2A0.35,0.35,0,0,1,589.8,698.5Z" transform="translate(-257.7 -11.5)"/><path d="M931.3,662c-7-9.9-19.3-18.6-48.3-33.8-1.7-4-3.2-9.7,2-10.4,8.1-1,18.3-3.6,14.7-10.3s-2.6-8.7.7-15.9,22.1-12.3,0-15.4-25.2-9.2-19.1-14.4,12.2-12.3,6.7-15.9-11.7-4.1-9.4-10.3,10.4-19,2.8-23.1-5.6-9.7-6.6-14.4,1.5-10.6-6.1-11.7S856,475,858.5,469.9s3.6-8.7-6.6-12.8-12.7-11.3-4.6-20,8.6-16.4,1-22.6-20.3-11.3-13.7-17.4,8.1-10.8,1.5-16.4-16.2-11.3-8.6-17.4,7.6-25.6-2.8-29.2-10.4-11.3-5.8-16.9-1.5-14.9-7.1-21.5,7.1-11.8,0-22.6-19.3-13.8-21.3-26.7-19.8-46.6-23.4-50.2h0l0.1-.8a59.44,59.44,0,0,0,0-14.6,57.55,57.55,0,0,0-3-12.9c3.1-7.2,10.8-21.7,9.5-39.8a65.79,65.79,0,0,0-1.2-8.6c2.2-4.7,3.8-9.3,1.2-13.1-3.6-5.3-6.5-5.8-4.3-12.6,1-3.1,5.3-7.7,4.2-11.3-1.5-5-10-6-13.2-9.7s-1.5-10.2-6-13.3-8.7.8-12.3-4.7c-3.7-5.7.6-13-1.8-17.7-1.8-3.7-8.8-3.2-12.7-5.6-4.7-2.8-6.8-8.6-11.6-10.4-10-4-22.1,5.6-33,3.2-6.5-1.5-10.4-6.2-16.2-9-10-4.9-8,1.6-15.6,4.7-5.9,2.5-10.2-1.3-14.4-4.8-5.7-4.7-6.7-5.5-10.7,1-3,4.8-5.4,10.9-11,8.5-5.2-2.3-5.1-7.4-11.7-6.8-5.1.5-5.8,2.1-11.2,0.7-3.1-.8-5.5-2-8.8-2.1-6.8-.2-7.8,2-11.4,6.6-7.9,10.2-19.1,1.3-26.1,13.5-2.2,3.8-1.5,8-5.9,9.8-5.7,2.4-13.6-2.7-19.3.3-9.9,5.3-2.2,19.8-18.5,16.5-6-1.2-9.5-1.7-11.1,5.8-1.8,8.5.3,6.7-8.4,9.1-4.8,1.3-6.2,3.9-9,7.8-3.9,5.5-6.7,5.5-12.2,8.5-12,6.7-.5,26.9-14.9,30.5-2.7.7-7-1.5-8.3,0.7-2.3,4.2,8.5,13.8,9.9,16.9,0.1,0.2.1,0.3,0.2,0.5-0.8,2-1.5,4-2.1,5.7l-1.1,1.1c-2.4,2.7-6.6,8.9-6.9,12.8-0.1,1.3,1.1,2.7,1.1,4.1,0.1,5.1-1.6,7.8-2.8,12.5-1.4,5.6.5,10.7,2.2,15.6,2.5,7.2,5.8,12.9,13.5,16a31.2,31.2,0,0,0,3.3,1.1c2.3,2.6,4.1,4.9,5.5,6.8a59,59,0,0,0,2.3,9.9c-3.9,3.8-13.1,9.8-11.6,15.8,2,7.7,6.6,16.4,2,22.6s-18.8,1-18.8,9.2,6.1,19,0,21.5-21.1,6.4-21.1,6.4c-3.6,3.6-12.9,8.6-12.6,18.8,0.4,10.7,15.9,16.8,5.2,19.4s-28.9-3.1-31.5,5.6,13.2,21,6.1,24.1-22.9,6.2-21.3,12.8,10.7,9.2,7.1,13.3-8.8,9.2-7.2,15.9,4.4,11.8-.3,11.3-17.4-1-15.8,4.6,11.7,9.2,7.6,11.8-15.2,4.1-15.7,11.8,10.7,11.8,15.2,16.9-2.5,7.7-1.5,12.8,7.1,10.3,2,11.8-22.8,1.1-24.9,5.6c-1.5,3.3-8.6,13.3,0,17.9s14.7,5.6,13.7,12.3-9.1,7.7-11.2,15.4,11.2,7.2,6.6,11.3-17.3,7.2-21.8,15.4,0,14.4,7.6,17.9,16.8,4.1,9.6,12.8,5.1,19.5,10.2,22a11.73,11.73,0,0,0,1.1.5c-15.5,8.2-29.5,15.5-38.8,20.3-31.6,16.3-45.5,65.9-45.6,66.4l1.5,0.4a0.31,0.31,0,0,1,.1-0.2c1-3.5,14.8-49.7,44.7-65.2,11.2-5.8,29.5-15.4,48.9-25.6,2.4-1.3,4.8-2.5,7.2-3.8,10.5,12.4,49,50.6,60.3,61.1,10.1,9.4,39.5,23.1,63.4,32.7,11.4,4.6,21.5,8.2,27.8,10,8,2.3,25.1,3.9,44.4,5a66.3,66.3,0,0,0-7.6,23.5c-0.2,1.4-.2,2.7-0.3,4.1l-0.1,2.1-0.1,1V759a60.74,60.74,0,0,0,.7,8.4,65.54,65.54,0,0,0,4.8,17c0.6,1.4,1.3,2.7,1.9,4.1s1.5,2.6,2.3,3.9l1.2,2,1.4,1.9c0.9,1.2,1.8,2.5,2.8,3.7a72.19,72.19,0,0,0,13.9,12.5,67.7,67.7,0,0,0,17.2,8.1,75.21,75.21,0,0,0,18.9,2.9l4.8-.2a41.19,41.19,0,0,0,4.8-.5l2.4-.4,1.2-.2,1.2-.3,4.6-1.2a71.28,71.28,0,0,0,17.2-8.1,69.05,69.05,0,0,0,13.9-12.5c1-1.2,1.9-2.5,2.8-3.7l1.4-1.9,1.2-2c0.8-1.3,1.6-2.6,2.3-3.9s1.3-2.7,1.9-4.1a61,61,0,0,0,4.7-16.9,81.15,81.15,0,0,0,.7-8.5V758l-0.1-1-0.1-2c-0.1-1.4-.1-2.7-0.3-4.1a65.81,65.81,0,0,0-10.4-28.3c11.3-3.1,23.2-7,34.5-11.1,17.1-6.3,32.6-13,42.5-17.9,16-8,22.6-14.7,33.6-25.9,4.4-4.5,9.4-9.6,16-15.8,17.2-16.1,31.9-35.2,38-43.6,19.2,7.2,36.7,14.3,46.8,19.5,30.9,16,43.7,24.8,50.7,34.8,7.2,10.2,20.9,41,22.7,47.9a0.2,0.2,0,0,0,.1.2l1.5-.4C952.6,703.8,938.8,672.6,931.3,662ZM816.5,602.7c-5.3,10.6-21.1,30.5-64.6,66.9-26.2,21.9-62.5,32.9-98.1,38.1-1.5-1.2-3.1-2.3-4.7-3.4a67.83,67.83,0,0,0-6.7-3.9,43.54,43.54,0,0,0,9.8-9.4c0.1-.1.1-0.2,0.2-0.3,2.9-2,6.6-6,10.2-11.9a13.44,13.44,0,0,0,1.2-2.4,48.86,48.86,0,0,0,6.7-8.7,45.45,45.45,0,0,0,8.4-10.5,10.11,10.11,0,0,0,1.3-3,46.84,46.84,0,0,0,8.3-10.4,16,16,0,0,0,1.2-2.7,45.67,45.67,0,0,0,6.9-9.1v-0.1c2.8-1.8,6.5-6.7,9.8-14.3a11.75,11.75,0,0,0,1-4.1,47.08,47.08,0,0,0,6-10.5,17.1,17.1,0,0,0,.9-3,48.22,48.22,0,0,0,6.1-10.7,13.14,13.14,0,0,0,.6-8.3,50.67,50.67,0,0,0,3.8-7.4,11.7,11.7,0,0,0,.9-6.1c5.9,6.2,12.2,10.1,18.6,11.4C752.1,580.8,784.5,591.2,816.5,602.7ZM634.4,697.3c-1.2-.4-2.3-0.7-3.4-1-1.3-.3-2.6-0.7-3.8-1s-2.4-.4-3.4-0.6-2.1-.3-3-0.4-1.7-.1-2.5-0.2c-3-.1-4.6-0.2-4.6-0.2h0s-1.6.1-4.5,0.2c-0.7.1-1.5,0-2.5,0.2s-1.9.3-3,.4-2.2.3-3.4,0.6-2.5.6-3.8,1a55.69,55.69,0,0,0-5.8,1.9l0.1-1c-3.8-.5-13.5-9.1-22.8-17.3-6.5-5.7-13.2-11.7-18.7-15.7-13.8-10-53.3-52.7-66.4-68-11.3-13.1-13.3-32.6-13.7-37.2l0.1,0.1,1.7,2,1.1,1.2a266.55,266.55,0,0,0,28.8-17.9,20,20,0,0,0,5.7,1.6c5.7,0.7,7.9-6.9,14.7-8.9s1-12.8-2.6-16.3,1.9-5.1,6.8-11-5.3-14.5-6-18.9-0.9-7.6,3.7-12,4.6-15.4-4.1-17.1c-7.1-1.4,4-9.6,4.1-11.2s-0.1-7.6-2.1-10.2c-1.8-2.3.6-7.4,3.5-10.7a445.59,445.59,0,0,0,33.5,37.8c6.3,6.4,12.8,12.7,19.6,18.8s13.6,12,21.3,17.1a35.32,35.32,0,0,0,6.4,3.5c2,0.8,4.3,1.6,6.5,2.3a69.24,69.24,0,0,0,13.7,2.7,82,82,0,0,0,27.5-2.7l0.9-.2a2.61,2.61,0,0,0,.8-0.3c0.7-.2,1.2-0.5,1.8-0.7a32.39,32.39,0,0,0,3.2-1.7c2-1.2,3.9-2.5,5.8-3.9,3.7-2.8,7.1-5.8,10.5-8.8,6.7-6.1,13-12.6,19.2-19.2,5.7-6.1,11.2-12.3,16.6-18.5-6.4,25.3-11.8,64.1-3.4,83.6a114.2,114.2,0,0,0,6.5,13.1h-0.5c0,0.2,1.9,23.1-6.6,38.5-8.7,15.8-35.2,60.3-44.8,71.1-3.8,4.3-8.4,10.6-12.9,16.7C643.6,687.4,637.2,696.2,634.4,697.3Zm0,0.8h0Zm-44.6.4a0.35,0.35,0,0,0-.2.1,0.2,0.2,0,0,0-.1-0.2C589.6,698.4,589.7,698.5,589.8,698.5Zm-41.4-22.2a55,55,0,0,1-7.6-6.8,9.14,9.14,0,0,1-2.9-7.1,11.58,11.58,0,0,1,1.4-4.8c3.6,3.3,6.8,6,9.2,7.8a14.64,14.64,0,0,0,1.3.9A12.52,12.52,0,0,0,548.4,676.3Zm-11-8.8a62.89,62.89,0,0,1-8.4-7.3c-3.6-3.8-3.1-9.1-1.5-13.8,3.7,3.7,7.3,7.2,10.5,10.2a14,14,0,0,0-1.7,5.8A10,10,0,0,0,537.4,667.5Zm13.5-.2c3.5,2.7,7.3,6,11.2,9.4-1,3.6-1.4,8.3,1.1,12.5a52.45,52.45,0,0,1-10.6-8.8C548.1,675.7,549.2,670.7,550.9,667.3Zm12.5,10.6c1.2,1,2.4,2.1,3.6,3.1,8.2,7.2,15.5,13.7,20.3,16.4,0.7,1.3,1.3,2.8,1,3.4a1.25,1.25,0,0,1-.9.5c-0.2,0-.4.1-0.6,0.1h0c-3.4,0-10.9-3-19.2-9.6C562.4,687.6,562.4,682,563.4,677.9ZM525,656a56.21,56.21,0,0,1-10-8.4c-3.9-4.1-2.9-10.1-1-15.1,4.1,4.3,8.3,8.6,12.3,12.6C525,648.5,524.2,652.4,525,656Zm-14-12.6a75.18,75.18,0,0,1-8-7c-4.2-4.4-2.8-11-.6-16.2,3.3,3.6,6.8,7.3,10.3,10.9C511.2,634.9,510.1,639.4,511,643.4Zm-11.1-8.9a46.09,46.09,0,0,1-11.2-11.6c-3.2-4.6-1-10.7,2-15.5,3.2,3.5,6.8,7.4,10.6,11.5C499.1,623.6,497.6,629.6,499.9,634.5Zm-20.5-40.3a32.54,32.54,0,0,0,2.3,2.9c2,2.4,4.7,5.4,7.9,8.9-2.1,3.4-3.9,7.4-4,11.3a45.26,45.26,0,0,1-7.5-8.7C475.1,604.4,476.8,598.9,479.4,594.2Zm-4.5,9.8a49,49,0,0,1-7.4-8.7c-3.8-5.5.1-13,3.6-18.1a61.72,61.72,0,0,0,7.2,15.5C476.3,596.2,474.7,600.2,474.9,604Zm82.7-365.4a123.67,123.67,0,0,1,14.9,1.8c2.5,0.5,4.9,1,7.4,1.6s4.9,1.2,7.3,1.9c4.8,1.3,9.6,2.9,14.4,4.6s9.4,3.6,13.9,5.7a19.13,19.13,0,0,1,4.9,5.3,53.38,53.38,0,0,1,3.3,6.8q1.35,3.6,2.4,7.2c0.7,2.4,1.4,4.9,1.9,7.4,1.2,5,2.1,10,3,15.1a48,48,0,0,1,.9,7.5,37.84,37.84,0,0,1-.5,7.5,96.74,96.74,0,0,1-4.2,14.6c-0.9,2.4-1.7,4.9-2.7,7.2a42.24,42.24,0,0,1-3.6,6.6,57.61,57.61,0,0,1-9.7,11.5,27.54,27.54,0,0,1-6,4.3,13.72,13.72,0,0,1-6.7,2h-0.2c-10.4,1.4-20.9,2.4-31.4,3-2.6.1-5.2,0.3-7.9,0.4-1.3.1-2.6,0.1-3.9,0.1s-2.6.1-3.9,0l-3.9-.1-3.9-.2c-1.3-.1-2.5-0.3-3.7-0.4s-2.5-.5-3.8-0.7c-4.4-1.3-8.5-4.3-12.3-7.3a79.35,79.35,0,0,1-10.4-10.5,50.47,50.47,0,0,1-4.3-6L508,334l-0.8-1.7-1.4-3.4a165.43,165.43,0,0,1-7.5-29,123.53,123.53,0,0,1-1.7-14.9,60.79,60.79,0,0,1,.7-14.8,35.9,35.9,0,0,1,.8-3.5c0.2-.6.3-1.1,0.5-1.7l0.7-1.7,0.4-.9c0-.1.2-0.4,0.2-0.3l0.2-.4,0.9-1.6a16.1,16.1,0,0,1,2.1-3,38.88,38.88,0,0,1,11-9.6,54.83,54.83,0,0,1,13.7-5.6,120.78,120.78,0,0,1,14.8-2.8A75.31,75.31,0,0,1,557.6,238.6Zm-10-4.4h0.1C547.7,234.1,547.6,234.2,547.6,234.2Zm62.5-101.3a235.8,235.8,0,0,1,25.1-1.3,213.25,213.25,0,0,1,54.4,6.8,20.22,20.22,0,0,1-3.2,2.3c-5.4,3.2-12,5-18.2,6.4,0,0.1.1,0.1,0.1,0.2,1.1-.4,2.4-0.7,3.9-1.1,13-3.1,26.5-5.6,28,11.1,0.9,9.7-5.6,16.3-14.3,16-0.6-.7-1.1-1.4-1.7-2.1-1.6-1.9-3.3-3.8-4.9-5.6a64.67,64.67,0,0,1-4.7-5.7c-2.9-3.9-5.4-8.1-8.1-12.3a45.71,45.71,0,0,0-8.4-10.3,17.65,17.65,0,0,1,.4-2c-0.3.5-.5,1.1-0.8,1.6a6.47,6.47,0,0,0-.9-0.8,0.76,0.76,0,0,0-.4-0.2l-3.6-.3h-0.2a9.85,9.85,0,0,1-5-.5,9.56,9.56,0,0,0-3-.3,5.45,5.45,0,0,0-3,1.3c-1.6,1.5-2.2,3.4-3,4.9s-1.7,3.1-2.6,4.7a90.35,90.35,0,0,1-13.7,16.5c-1.9,1.9-4,3.7-6,5.5-8.6,3-16.3,2.6-20-9-3.5-11,4.1-20,15.5-18.8a50,50,0,0,1,8.4,1.7C616,139,612.3,136.2,610.1,132.9Zm5.8,35.2c-3.1,2.7-6.3,5.2-9.6,7.7a17,17,0,0,1,6-5.9C613.5,169.2,614.7,168.7,615.9,168.1Zm-8.4,10.4a174.77,174.77,0,0,0,16.6-14.4,95.53,95.53,0,0,0,13.8-17.2c0.9-1.6,1.8-3.2,2.6-4.9s1.4-3.4,2.5-4.4,2.5-1.1,4.3-.7,3.6,0.9,5.6.3l3.2,0.3a44,44,0,0,1,9.2,10.9c2.6,4.2,5.1,8.4,8.1,12.4,1.5,2,3.1,4,4.7,5.8s3.3,3.6,4.9,5.5c3.2,3.8,6.2,7.6,9.3,11.5,6.1,7.7,12.3,15.5,18.5,23.1,3.1,3.8,6.3,7.6,9.5,11.4s6.5,7.5,9.8,11.1c1.1,1.2,2.1,2.4,3.1,3.6-0.1,0-.4-0.1-0.9-0.2s-0.9-.1-1.4-0.2a0.82,0.82,0,0,0-.5-0.5h0s-0.4-.1-1-0.3c-0.4-.1-0.9-0.1-1.5-0.2a0.62,0.62,0,0,0-.4-0.3h0s-0.4-.1-1-0.3c-0.4-.1-0.9-0.1-1.4-0.2a0.75,0.75,0,0,0-.5-0.7h0s-0.4-.1-1-0.3c-0.4-.1-0.9-0.1-1.4-0.2a0.63,0.63,0,0,0-.5-0.6h0s-0.4-.1-1-0.3c-0.3-.1-0.7-0.1-1.1-0.2a0.78,0.78,0,0,0-.6-0.9s-0.4-.1-1-0.2a8.07,8.07,0,0,0-2.2,0h-0.3a1.47,1.47,0,0,0-.4-0.2s-0.4-.1-1-0.2h-1.2a0.71,0.71,0,0,0-.8-0.7h-1a7.85,7.85,0,0,0-1.4.2,0.62,0.62,0,0,0-.7-0.2,6.73,6.73,0,0,0-1,.1,9.65,9.65,0,0,0-2.1.6c-0.1,0-.2.1-0.3,0.1h-0.1l-0.6.3-0.6.3a0.88,0.88,0,0,0-.1-0.7,1.06,1.06,0,0,0-1.2-.1,6,6,0,0,0-.8.7,4.35,4.35,0,0,0-.6.7,0.48,0.48,0,0,0-.2-0.5,1.06,1.06,0,0,0-1.2-.1,6,6,0,0,0-.8.7,8.17,8.17,0,0,0-.8.9,1.09,1.09,0,0,1,.2-0.4,0.64,0.64,0,0,0-.1-0.9,1.06,1.06,0,0,0-1.2-.1,6,6,0,0,0-.8.7,4.73,4.73,0,0,0-1.1,1.3,1.08,1.08,0,0,0-1.1,0,6,6,0,0,0-.8.7,2.18,2.18,0,0,0-.4.5c-0.1,0-.2.1-0.3,0.1a6,6,0,0,0-.8.7,8.46,8.46,0,0,0-1.4,1.7l-0.6.9a0.1,0.1,0,0,0-.1.1c-0.1,0-.1.1-0.2,0.1s0.1-.2.1-0.3a7.23,7.23,0,0,1,.4-0.7,0.64,0.64,0,0,0-.1-0.9,1.06,1.06,0,0,0-1.2-.1,6,6,0,0,0-.8.7c-0.3.3-.5,0.6-0.8,0.9a0.1,0.1,0,0,0-.1-0.1,1.06,1.06,0,0,0-1.2-.1,6,6,0,0,0-.8.7,8.46,8.46,0,0,0-1.4,1.7c0,0.1-.1.1-0.1,0.2a0.77,0.77,0,0,0-1,.1,6,6,0,0,0-.8.7,8.17,8.17,0,0,0-.8.9v-0.1a1.06,1.06,0,0,0-1.2-.1,6,6,0,0,0-.8.7,8.46,8.46,0,0,0-1.4,1.7c-0.1.1-.1,0.2-0.2,0.3a0.78,0.78,0,0,0-1.1,0,6,6,0,0,0-.8.7,8.46,8.46,0,0,0-1.4,1.7l-0.6.9a0.91,0.91,0,0,0-1,0,6,6,0,0,0-.8.7,8.46,8.46,0,0,0-1.4,1.7c-0.4.6-.8,1.3-1.1,1.8a3.69,3.69,0,0,0-.4.9h0a15.4,15.4,0,0,0-1.3,1.1h0l-0.2.2a3,3,0,0,0,.3,4.7,28.62,28.62,0,0,0-2.2,3,45.74,45.74,0,0,0-3.5,7c-0.9,2.4-1.8,4.9-2.5,7.4s-1.4,5-2,7.5c-0.8,3.2-1.4,6.4-2.1,9.6-3,1.4-8.1,3.5-11.9,3.5-3.6,0-8.5-1.8-11.9-3.3-0.6-3.1-1.3-6.1-2-9.2-0.6-2.5-1.3-5-2-7.5s-1.6-4.9-2.5-7.4a38.14,38.14,0,0,0-3.5-7,18.16,18.16,0,0,0-5.5-5.9h0c-1.3-.6-2.6-1.1-3.9-1.7a3.22,3.22,0,0,0-.7-3.1l-0.2-.2h0a15.42,15.42,0,0,0-1.3-1.1h0a3.68,3.68,0,0,0-.4-0.9c-0.3-.5-0.6-1.1-1-1.8a11.23,11.23,0,0,0-1.3-1.6l-0.7-.7a0.91,0.91,0,0,0-1,0,5.58,5.58,0,0,0-.5-0.8,11.23,11.23,0,0,0-1.3-1.6l-0.7-.7a1.08,1.08,0,0,0-1.1,0c-0.1-.1-0.1-0.2-0.2-0.3a11.23,11.23,0,0,0-1.3-1.6L600,236a0.79,0.79,0,0,0-1.1.1v0.1c-0.3-.3-0.5-0.6-0.7-0.8l-0.7-.7a1,1,0,0,0-.9-0.1c0-.1-0.1-0.1-0.1-0.2a11.23,11.23,0,0,0-1.3-1.6l-0.7-.7a0.79,0.79,0,0,0-1.1.1,0.1,0.1,0,0,1-.1.1,7.27,7.27,0,0,0-.8-0.9l-0.7-.7a0.79,0.79,0,0,0-1.1.1,0.74,0.74,0,0,0-.1.9,7.23,7.23,0,0,1,.4.7c0,0.1.1,0.2,0.1,0.3s-0.1-.1-0.2-0.1a0.1,0.1,0,0,1-.1-0.1l-0.6-.9a11.23,11.23,0,0,0-1.3-1.6l-0.7-.7a0.37,0.37,0,0,0-.3-0.1,1.51,1.51,0,0,0-.4-0.4l-0.7-.7a0.91,0.91,0,0,0-1,0,7.48,7.48,0,0,0-1.1-1.3l-0.7-.7a0.79,0.79,0,0,0-1.1.1,0.74,0.74,0,0,0-.1.9,1.1,1.1,0,0,1,.2.4,5.5,5.5,0,0,1-.7-0.9l-0.7-.7a0.79,0.79,0,0,0-1.1.1,0.76,0.76,0,0,0-.2.5,4.35,4.35,0,0,0-.6-0.7l-0.7-.7a0.79,0.79,0,0,0-1.1.1,0.47,0.47,0,0,0-.1.6l-0.6-.3a5.19,5.19,0,0,0-.5-0.3h-0.1c-0.1,0-.2-0.1-0.3-0.1a8.93,8.93,0,0,0-2-.6,6.73,6.73,0,0,0-1-.1,1.07,1.07,0,0,0-.6.2c-0.5-.1-0.9-0.1-1.3-0.2h-1a0.75,0.75,0,0,0-.7.7h-1.2a6.6,6.6,0,0,0-.9.2,0.53,0.53,0,0,0-.3.2H567a7.38,7.38,0,0,0-2.1,0,6.6,6.6,0,0,0-.9.2,0.84,0.84,0,0,0-.6.8,3,3,0,0,0-1,.2,2.48,2.48,0,0,0-.9.3h0a0.74,0.74,0,0,0-.5.6,4.44,4.44,0,0,0-1.3.2,2.48,2.48,0,0,0-.9.3h0a0.75,0.75,0,0,0-.5.7,5.07,5.07,0,0,0-1.3.2,2.48,2.48,0,0,0-.9.3h0a1.38,1.38,0,0,0-.4.3,5.9,5.9,0,0,0-1.4.2,2.48,2.48,0,0,0-.9.3h0a1.2,1.2,0,0,0-.5.5,4.44,4.44,0,0,0-1.3.2,4.5,4.5,0,0,1-.8.2l1.1-1.4c2.3-2.7,4.7-5.4,7.2-8,5-5.2,10.3-10.2,15.6-15s10.8-9.6,16.4-14.3A170.71,170.71,0,0,1,607.5,178.5Zm126.7,56.2a8.13,8.13,0,0,0-1.6-.4h0.1a0.79,0.79,0,0,0,.8-0.5,0.48,0.48,0,0,0,.1-0.4c0.3,0.4.6,0.7,0.9,1.1s0.5,0.6.7,0.9a3,3,0,0,0-1-.2l0.1-.1C734.5,235,734.4,234.8,734.2,234.7Zm-6,1.6a103.49,103.49,0,0,0-13.6,1.9c-2.5.5-5,1-7.4,1.6s-4.9,1.2-7.3,2c-4.9,1.4-9.7,3-14.5,4.7l-4.8,1.8c0.7-.6,1.4-1.2,2.2-1.8a115.23,115.23,0,0,1,10.5-7.7,56.39,56.39,0,0,1,6.4-3.7,13,13,0,0,1,1.7-.8,0.76,0.76,0,0,0,.4-0.2,30.61,30.61,0,0,1,4.8-1.7,21.08,21.08,0,0,1,3.5-.5h1.2l0.5,0.1,2,0.3c2,0.3,4,.8,6,1.3a2.08,2.08,0,0,0,2,.5c0.3,0.1.6,0.2,1,.3a2.05,2.05,0,0,0,1.7.5c0.4,0.1.8,0.3,1.1,0.4a2.27,2.27,0,0,0,1.6.6l0.9,0.3Zm16.1,131.8c1.8,0.2,3.4-1.5,3.6-3.6v-1.2a0.9,0.9,0,0,0,.5-0.1c1.2-.2,2.4-0.4,3.5-0.6a112.33,112.33,0,0,1-4.3,18.9,229.15,229.15,0,0,1-9.5,25A232.69,232.69,0,0,1,726,430.4a133,133,0,0,1-7.2,11.2,63.83,63.83,0,0,1-4.2,5.2l-4.4,5.1c-5.9,6.8-11.9,13.4-18.1,19.9s-12.5,12.8-19.1,18.7q-4.95,4.5-10.2,8.4-2.7,1.95-5.4,3.6c-0.9.5-1.9,1-2.8,1.4a11.22,11.22,0,0,1-1.3.5,1.88,1.88,0,0,1-.8.2l-0.7.2a75.69,75.69,0,0,1-25.9,2.2,62.53,62.53,0,0,1-12.7-2.7A59.16,59.16,0,0,1,607,502a33.69,33.69,0,0,1-5.4-3.1c-7.2-4.9-13.9-10.9-20.4-16.9s-12.9-12.4-19.1-18.8a447.08,447.08,0,0,1-34.2-39.9,7.71,7.71,0,0,0-.7-2.6,20.38,20.38,0,0,0-1.6-3,16.05,16.05,0,0,1-2.5-4.1,5.92,5.92,0,0,1-.5-1.9l-0.1-.9v-1.3l0.1-2a7.55,7.55,0,0,0,.3-2.3,14.47,14.47,0,0,0-.4-3.5c-0.1-1.2-.1-2.4-0.3-3.6a35.19,35.19,0,0,0-1.5-5.8c-1.3-3.6-2.9-7-4.1-10.2a23.06,23.06,0,0,1-1.3-4.6,13.66,13.66,0,0,1,.1-4.5,26.82,26.82,0,0,1,.7-2.7v0.2c0.8,2.5,1.9,5.7,3.2,8.9s2.8,6.3,4,8.6c0.6,1.1,1.2,2.1,1.6,2.7a10.38,10.38,0,0,1,.6,1,0.81,0.81,0,1,0,1.4-.8h0a10.4,10.4,0,0,0-.6-1,21.51,21.51,0,0,1-1.4-2.7c-1.1-2.3-2.4-5.4-3.6-8.6s-2.1-6.4-2.8-8.9c-0.5-1.8-.8-3.1-1-3.7a0.2,0.2,0,0,1,.1-0.2l0.5-1.3a8.8,8.8,0,0,0,.5-1.5,29.57,29.57,0,0,0,1.3-10.1c0.5,0.5,1,.9,1.5,1.4a72.63,72.63,0,0,0,6.3,4.6,28.76,28.76,0,0,0,7.3,3.4h0.1c1.3,0.2,2.6.5,3.9,0.7s2.8,0.3,4.1.4l4,0.2h4c1.3,0,2.7,0,4-.1s2.7-.1,4-0.1c2.7-.1,5.3-0.3,7.9-0.5,10.6-.8,21-1.9,31.5-3.4a17,17,0,0,0,7.8-2.4,30.2,30.2,0,0,0,6.4-4.7,48.1,48.1,0,0,0,5.4-5.7,57.53,57.53,0,0,0,4.6-6.4,51.61,51.61,0,0,0,3.7-7c1-2.5,1.8-4.8,2.7-7.3a95.17,95.17,0,0,0,4.2-15,34.09,34.09,0,0,0,.5-5.5c2.6-1.3,6.2-2.7,8.7-2.7,3.6,0,8,1.6,10.8,3.1,0.1,1.5.2,3,.4,4.5a103.39,103.39,0,0,0,4.1,15c0.9,2.5,1.6,4.8,2.6,7.3a46.82,46.82,0,0,0,3.7,7,57.54,57.54,0,0,0,4.6,6.4,74.11,74.11,0,0,0,5.4,5.8,35.28,35.28,0,0,0,6.5,4.8,17.05,17.05,0,0,0,7.9,2.4c10.5,1.5,21,2.7,31.5,3.5,2.6,0.2,5.3.4,8,.5,1.3,0.1,2.7.1,4,.2s2.7,0.1,4,.1h4l1.3-.1v0.1C741.3,366,742.6,367.9,744.3,368.1ZM695.9,614.5c2.5-4.1,4.8-8.1,6.9-11.7,2.4,4.4,4.3,9.9,2.3,14.5a43.17,43.17,0,0,1-7,11.6C699.2,624.1,697.7,618.7,695.9,614.5Zm-7.7,12.7c2.3-3.7,4.5-7.4,6.7-11,1.9,4.8,3.2,10.8.4,15.3a44.33,44.33,0,0,1-5,6.9C690.6,634.6,689.5,630.6,688.2,627.2Zm-9.1,14.6c2.6-4.1,5.3-8.4,8-12.8,1.7,4.6,2.6,10.1.1,14.3a45.29,45.29,0,0,1-6.4,8.5A26,26,0,0,0,679.1,641.8Zm-8.1,12c2.1-3.1,4.4-6.6,6.9-10.3,1.4,4.3,2,9.3-.3,13.1a46.83,46.83,0,0,1-5.2,7.1A13.52,13.52,0,0,0,671,653.8Zm-7.9,10.5c0.3-.4.6-0.7,0.9-1.1a78.72,78.72,0,0,0,6-7.9,11.45,11.45,0,0,1-.6,11.4,52.14,52.14,0,0,1-4.7,6.6A15.69,15.69,0,0,0,663.1,664.3Zm-8.6,10.9c2.6-3.5,5.1-6.8,7.5-9.7a13,13,0,0,1-.6,12.6,45.12,45.12,0,0,1-6.7,8.8A19.32,19.32,0,0,0,654.5,675.2Zm49.2-74c2.1-3.7,3.9-6.8,5.3-9.3a21,21,0,0,0,1.3-2.6c2.1,4.2,3.5,9.2,1.7,13.5a57.28,57.28,0,0,1-4.6,8.5A26.66,26.66,0,0,0,703.7,601.2Zm7.4-13.8a64.42,64.42,0,0,0,4-15.5c3,4.6,6.3,11.5,3.8,17.2a48.36,48.36,0,0,1-4.5,8.4A23.64,23.64,0,0,0,711.1,587.4Zm3.9-34.9h0Zm0.4,16.9a113.62,113.62,0,0,0,.6-12c0.4-2.1.7-3.9,0.9-5.1,2.8,3.5,9.8,13.4,6.5,20.9-1,2.3-2,4.2-2.9,5.9A36.84,36.84,0,0,0,715.4,569.4ZM632.1,291.6c3.5,1.5,8,3,11.7,3s8.3-1.8,11.4-3.2c-0.2,1.2-.5,2.4-0.7,3.6a48.89,48.89,0,0,0-1,7.8v1.6a25.59,25.59,0,0,0-10.8-2.9c-2.6,0-6,1.3-8.7,2.5v-0.6a52,52,0,0,0-1-7.8C632.7,294.3,632.4,293,632.1,291.6Zm-32.5-45.5c-4-1.4-7.9-2.7-12-3.9-2.4-.7-4.9-1.3-7.3-2s-5-1.1-7.4-1.6a127.33,127.33,0,0,0-15.1-2,85.79,85.79,0,0,0-8.8-.1c0.1,0,.2-0.1.3-0.1,1.7-.8,3.6-1.6,5.6-2.4a6.89,6.89,0,0,0,.8-0.3,1.72,1.72,0,0,0,1.5-.6c0.4-.1.7-0.3,1.1-0.4a1.84,1.84,0,0,0,1.6-.5l0.9-.3a1.68,1.68,0,0,0,1.8-.5c1.8-.5,3.7-0.9,5.6-1.3l1.9-.3,0.5-.1h1.1a13.22,13.22,0,0,1,3.3.5,40.38,40.38,0,0,1,4.5,1.6,1.47,1.47,0,0,0,.4.2c0.5,0.3,1.1.5,1.6,0.8a59.53,59.53,0,0,1,6,3.6,97.89,97.89,0,0,1,9.9,7.6A21.33,21.33,0,0,0,599.6,246.1Zm-49.3-13.9h0.1a6.27,6.27,0,0,0-1.5.4,0.37,0.37,0,0,0-.2.5l0.1,0.1c-0.2,0-.5.1-0.7,0.1,0.4-.6.9-1.2,1.3-1.8v0.2A1.38,1.38,0,0,0,550.3,232.2Zm86.9,465.1c3.4-3.1,8.4-9.9,14-17.5,0.7-.9,1.4-1.9,2.1-2.9,1,3.9,1.2,9.1-2.2,13.3-6.4,7.9-11.8,10.9-13.7,10.9h-0.2a1.19,1.19,0,0,1-.5-0.2C636.4,700.2,636.8,698.7,637.2,697.3Zm136-450.4a38.88,38.88,0,0,1,11,9.6,19.57,19.57,0,0,1,2,3l0.9,1.6,0.2,0.4h0v0.1l0.1,0.2,0.4,0.9,0.7,1.7c0.2,0.6.3,1.1,0.5,1.7a35.9,35.9,0,0,1,.8,3.5,66.25,66.25,0,0,1,.6,14.8,125.86,125.86,0,0,1-1.7,14.9c-0.9,4.9-1.9,9.8-3.2,14.7a147.86,147.86,0,0,1-4.5,14.3l-1.4,3.4-0.8,1.7-0.9,1.5c-1.3,2-2.7,4-4.2,5.9a73,73,0,0,1-10.4,10.4,57.87,57.87,0,0,1-5.9,4.2,23.2,23.2,0,0,1-6.2,2.9c-1.2.2-2.5,0.6-3.7,0.7s-2.4.3-3.7,0.4l-3.9.2-3.9.1h-3.9c-1.3,0-2.6,0-3.9-.1l-7.8-.3c-10.5-.6-21-1.6-31.4-2.9h-0.2a14.3,14.3,0,0,1-6.5-1.9,34.2,34.2,0,0,1-6-4.2,38,38,0,0,1-5.2-5.4,67,67,0,0,1-4.5-6,42.24,42.24,0,0,1-3.6-6.6c-0.5-1.1-.9-2.3-1.4-3.5l-1.3-3.6a97.19,97.19,0,0,1-4.3-14.6,36.85,36.85,0,0,1-.5-7.4,48,48,0,0,1,.9-7.5c0.9-5.1,1.8-10.1,3-15.1,0.6-2.5,1.2-5,1.9-7.4s1.5-4.9,2.4-7.2a53.38,53.38,0,0,1,3.3-6.8,16.43,16.43,0,0,1,4.8-5.3c4.5-2.1,9.2-4,13.9-5.7s9.5-3.3,14.3-4.7c2.4-.7,4.9-1.3,7.3-1.9s4.9-1.1,7.4-1.6a123.84,123.84,0,0,1,14.9-1.9,82.24,82.24,0,0,1,14.9.4,119.2,119.2,0,0,1,14.7,2.8A46.67,46.67,0,0,1,773.2,246.9ZM463,217.1c-3-25.1,9.9-50.6,36.3-71.8s63.4-35.6,103.9-40.4a252.48,252.48,0,0,1,28.7-1.7c72.2,0,128.5,32.8,133.9,78a65.89,65.89,0,0,1,.3,10.9c-16-37.3-68-62.2-130.8-62.2a254.23,254.23,0,0,0-28.8,1.7c-36.8,4.4-71.4,16.9-97.3,35.3-24.6,17.4-40,38.9-43.7,60.9A44.92,44.92,0,0,1,463,217.1Zm4.7,343.4a85.36,85.36,0,0,0,2.8,14.8,34,34,0,0,0-5.6,10.5,54.27,54.27,0,0,1-4.9-6.1C455,572.3,464.4,563.4,467.7,560.5Zm-36.5,21.9c2.2-.8,13.5-6,27.1-12.9-1.6,3.5-2.1,7.4.5,11.1a55.31,55.31,0,0,0,5.8,7.1,11.45,11.45,0,0,0,1.6,8.6,49.43,49.43,0,0,0,9.1,10.2,12.32,12.32,0,0,0,1.4,3.1,51.17,51.17,0,0,0,9,10.1,10.65,10.65,0,0,0,1.7,4.2c5.1,7.4,10.7,12.1,14.4,13.6l0.1,0.1a57.35,57.35,0,0,0,10,8.5,14.83,14.83,0,0,0,1.9,2.7,50.76,50.76,0,0,0,12,9.7,10.78,10.78,0,0,0,2,2.9,53,53,0,0,0,12.1,9.7,58.71,58.71,0,0,0,9.7,8.2,13.3,13.3,0,0,0,1.9,2.4c5.6,5.9,10.8,9.3,14.5,10.9l0.4,0.4c6.1,4.8,11.6,7.8,15.8,9.1a41.06,41.06,0,0,0-3.9,2.4,66.25,66.25,0,0,0-8.8,6.9,503.62,503.62,0,0,1-52.6-5.2c-63.9-9.7-129.7-77.3-144.7-93.4C400.8,597.8,427.6,583.8,431.2,582.4Zm81.7,138.7c-18.8-5.4-76.1-28.9-90.6-42.3-15.6-14.5-61.4-60.4-62.5-63.9-0.2-1.4,4.2-3.2,8.6-4.1,5.3,6,78,86.3,148.4,97,16.6,2.5,34,4.2,51.2,5.1a65.06,65.06,0,0,0-8.1,9.7c-0.8,1.1-1.5,2.3-2.2,3.5C538.2,725,520.9,723.3,512.9,721.1ZM676,751.4c0.2,1.3.2,2.7,0.3,4l0.1,2v1l-0.1,1a75.59,75.59,0,0,1-.7,8.2,63.66,63.66,0,0,1-4.7,16.2c-0.6,1.3-1.3,2.6-1.9,3.9s-1.5,2.5-2.2,3.7l-1.1,1.9-1.3,1.8c-0.9,1.2-1.7,2.4-2.7,3.5A62,62,0,0,1,632,818.2l-4.4,1.1-1.1.3-1.1.2-2.2.3c-2.9.6-6.2,0.5-9.2,0.7a68.09,68.09,0,0,1-18-2.6,64.76,64.76,0,0,1-16.4-7.7,65.84,65.84,0,0,1-13.3-11.9c-1-1.1-1.8-2.3-2.7-3.5l-1.3-1.8-1.1-1.9c-0.7-1.3-1.6-2.4-2.2-3.7s-1.3-2.6-1.9-3.9a55.58,55.58,0,0,1-4.7-16.2,45.75,45.75,0,0,1-.7-8.3v-2l0.1-2c0.1-1.3,0-2.7.2-4a63.81,63.81,0,0,1,10-27.8,62.28,62.28,0,0,1,17.8-17.7,50.91,50.91,0,0,1,5.4-3.2,15,15,0,0,0,2,.2h0a3.08,3.08,0,0,0,1-.1,2.58,2.58,0,0,0,2-1.4,2.34,2.34,0,0,0,.2-1.2,66.14,66.14,0,0,1,7.1-2.4c1.3-.3,2.5-0.7,3.7-1s2.3-.4,3.3-0.6,2-.3,2.9-0.4,1.7-.1,2.4-0.2c2.8-.1,4.3-0.2,4.5-0.2s1.6,0.1,4.4.2a23.19,23.19,0,0,1,2.4.2c0.9,0.1,1.8.3,2.9,0.4s2.2,0.3,3.3.6,2.4,0.6,3.7,1,2.9,0.9,4.5,1.4a3.34,3.34,0,0,0,.3,2.3,2.25,2.25,0,0,0,1.6,1h0.4a7.49,7.49,0,0,0,3.3-1,65.87,65.87,0,0,1,7.6,4.3,63.59,63.59,0,0,1,17.8,17.7A72.54,72.54,0,0,1,676,751.4ZM793.3,651c-6.6,6.2-11.6,11.3-16.1,15.8-10.9,11.1-17.4,17.7-33.2,25.6-16.3,8.2-48.7,21.5-77.2,29.1a68.55,68.55,0,0,0-11.4-12.4c35.4-5.3,71.4-16.5,97.4-38.3,37.5-31.4,60.4-55.6,66.2-70,0.2-.5.7-1.2,2.4-1.2,3.8,0,10,3.2,12.1,4.4C830.6,608.4,813.8,631.9,793.3,651Z" transform="translate(-257.7 -11.5)"/><path d="M608.1,753.6V753l-0.2-22.8-0.4-23.7-4.1.7-1.6.3-1.6.4c-1,.3-2.1.5-3.1,0.9l-3.1,1.1a19.44,19.44,0,0,0-3,1.3c-1,.5-2,0.9-2.9,1.4a39.36,39.36,0,0,0-5.5,3.5,65.36,65.36,0,0,0-5.1,4.1c-0.8.7-1.5,1.5-2.3,2.3l-1.1,1.2-1,1.3c-0.7.8-1.4,1.7-2.1,2.5l-1.8,2.7c-0.6.9-1.2,1.9-1.7,2.8s-1.1,1.9-1.5,2.9a65,65,0,0,0-2.5,6.1,49.06,49.06,0,0,0-1.7,6.3c-0.3,1.1-.3,2.2-0.5,3.3s-0.3,2.2-.4,3.3l-0.2,3.2v3.3a52.21,52.21,0,0,0,7.6,24.9l1,1.6,1.4-1.2c12.3-10.8,24.7-21.6,36.9-32.5Zm-2.6-23.5-0.2,22.2c-11.8,10.1-23.5,20.4-35.3,30.5a58.23,58.23,0,0,1-4.2-9.6,49.57,49.57,0,0,1-2.2-12.2c-0.1-1-.1-2.1-0.1-3l0.1-3.2a29.63,29.63,0,0,1,.3-3.1c0.2-1,.2-2,0.5-3,0.5-2,.9-4,1.6-6a57.69,57.69,0,0,1,2.2-5.8c0.4-1,1-1.8,1.4-2.8s1-1.8,1.6-2.7l1.7-2.6c0.1-.2.3-0.3,0.4-0.5,11,0.4,22.1.7,32,.8Zm0.1-2.5c-9.6-.1-20.2-0.4-30.9-0.8,0.1-.1.2-0.3,0.3-0.4l1-1.2,1.1-1.1c0.7-.7,1.4-1.5,2.2-2.2a59.82,59.82,0,0,1,4.8-4,47.23,47.23,0,0,1,5.2-3.5c0.5-.3,1.1-0.6,1.7-0.9h2.5c4,0,8.2-.1,12.5-0.2Zm0.2-15.9c-4,.1-7.9.2-11.7,0.2l0.6-.3,2.9-1.2,3-.9,1.5-.5,1.5-.3,2.2-.4v3.4Z" transform="translate(-257.7 -11.5)"/><path d="M639,789.1l-8.3-8.6-16.5-17.2-1-1-1,.9-17.6,15.7-8.8,7.9-9.4,8.5,0.6,0.6c1.1,1.1,2.3,2.2,3.5,3.3s2.5,2,3.8,2.9a61.81,61.81,0,0,0,8.3,4.8,33.83,33.83,0,0,0,4.4,1.8c1.5,0.5,3,1,4.6,1.4a38.89,38.89,0,0,0,4.7.9c1.6,0.2,3.2.4,4.8,0.5l2.3,0.1h2.4c1.6-.1,3.2-0.2,4.8-0.4s3.2-.5,4.8-0.8,3.1-.8,4.7-1.3a41.25,41.25,0,0,0,4.5-1.7,43.92,43.92,0,0,0,4.4-2.1c1.4-.8,2.8-1.6,4.1-2.5s2.6-1.8,3.9-2.8l1.3-1-1.2-1.3Zm2.4,11.2c-1.3.8-2.6,1.6-3.9,2.3s-2.7,1.4-4.1,2-2.8,1.1-4.3,1.6a31.66,31.66,0,0,1-4.4,1.2c-1.5.3-3,.6-4.5,0.8s-3,.3-4.5.4c-0.7,0-1.5.1-2.3,0.1h-2.3c-1.5-.1-3-0.2-4.5-0.4s-3-.5-4.5-0.8a31.66,31.66,0,0,1-4.4-1.2c-1.5-.5-2.9-1-4.3-1.6a52.46,52.46,0,0,1-8.1-4.3,31.76,31.76,0,0,1-3.7-2.7c-1-.8-1.9-1.6-2.8-2.4l8.3-7,9-7.6L613,766.3l15.4,16.3,8.2,8.7,7,7.4C643,799.2,642.2,799.7,641.4,800.3Z" transform="translate(-257.7 -11.5)"/><path d="M663.8,740.8l-0.6-1.7-0.7-1.6c-0.5-1.1-.9-2.2-1.4-3.2l-1.7-3.1a54.87,54.87,0,0,0-4-5.7l-2.2-2.7-2.5-2.5a18.63,18.63,0,0,0-2.6-2.3,28.77,28.77,0,0,0-2.7-2.2l-2.9-2-3-1.8c-1-.6-2.1-1.1-3.1-1.6s-2.1-1-3.2-1.4l-3.3-1.2c-1.1-.4-2.3-0.6-3.4-0.9a52.5,52.5,0,0,0-6.9-1.3l-1.8-.3v1.9l0.1,22.2,0.1,22.2v0.6l0.4,0.4,17.9,18.8L655,790.8l0.6-.7a51.87,51.87,0,0,0,10.6-25.3c0.1-1.1.3-2.3,0.3-3.5s0.1-2.2.1-3.5a53.37,53.37,0,0,0-.5-6.9,51,51,0,0,0-1.3-6.8C664.5,743,664.1,741.9,663.8,740.8ZM621,709a35.5,35.5,0,0,1,4.7.9l2.4,0.6c-2.4.2-4.8,0.3-7.2,0.5Zm0,3.7c3.6-.2,7.3-0.5,11-0.8h0.1c1,0.3,2,.9,3,1.3a15.94,15.94,0,0,1,2.9,1.5c1,0.6,1.9,1.1,2.9,1.7l2.7,1.9c0.9,0.6,1.7,1.4,2.6,2.1s1.7,1.4,2.5,2.2l2.3,2.3,0.3,0.4a119.88,119.88,0,0,1-17.4,2.2c-3.8.1-8.1,0.2-12.9,0.2v-15Zm43.1,48.6a18.41,18.41,0,0,1-.3,3.3,51.73,51.73,0,0,1-9,23.8L638,769.9l-17.2-18.7,0.1-21.7v-0.2c4.8,0,9.1-.1,12.9-0.2a125.35,125.35,0,0,0,18.5-2.4l0.7,0.8a31.59,31.59,0,0,1,2,2.7,26.76,26.76,0,0,1,1.8,2.8l1.6,2.9c0.5,1,.9,2,1.4,3l0.7,1.5L661,742c0.3,1,.8,2.1,1.1,3.1,0.5,2.1,1.1,4.3,1.4,6.5a49,49,0,0,1,.6,6.6A16,16,0,0,1,664.1,761.3Z" transform="translate(-257.7 -11.5)"/><path d="M636.9,693.6l1.8-3.2C638,691.6,637.4,692.7,636.9,693.6Z" transform="translate(-257.7 -11.5)"/><path class="cls-2" d="M715,552.5h0Z" transform="translate(-257.7 -11.5)"/><path class="cls-2" d="M634.4,698.1h0Z" transform="translate(-257.7 -11.5)"/><path class="cls-2" d="M734.3,235.3a3,3,0,0,1,1,.2c-0.2-.3-0.5-0.6-0.7-0.9s-0.6-.7-0.9-1.1a0.76,0.76,0,0,1-.1.4,0.89,0.89,0,0,1-.8.5h-0.1a8.13,8.13,0,0,1,1.6.4c0.1,0,.2.2,0,0.5h0Z" transform="translate(-257.7 -11.5)"/><path class="cls-2" d="M549.5,231.7v-0.2a20.27,20.27,0,0,0-1.3,1.8,1.48,1.48,0,0,1,.7-0.1l-0.1-.1a0.37,0.37,0,0,1,.2-0.5,6.27,6.27,0,0,1,1.5-.4h-0.1A1.05,1.05,0,0,1,549.5,231.7Z" transform="translate(-257.7 -11.5)"/><path class="cls-2" d="M547.6,234.2h0.1c0-.1-0.1-0.1-0.1,0h0Z" transform="translate(-257.7 -11.5)"/><path d="M621.7,374.4c2.1,1.3,2.2,1.3,4.2,1.3a7.65,7.65,0,0,1,4.6,1.1,36.05,36.05,0,0,1,3,2.7c2.8,0.1-.3-1.6-1.5-3.7s-4.1-4.5-6.6-4.8S619.6,373.1,621.7,374.4Z" transform="translate(-257.7 -11.5)"/><path d="M654,379.5a36.06,36.06,0,0,1,3-2.7,7.65,7.65,0,0,1,4.6-1.1c2,0,2.1,0,4.2-1.3s-1.1-3.7-3.6-3.5-5.4,2.7-6.6,4.8S651.2,379.6,654,379.5Z" transform="translate(-257.7 -11.5)"/><path d="M675.3,440.7a3.49,3.49,0,0,0-.6.9,9,9,0,0,0-.9,1,6.79,6.79,0,0,1-1.2,1.2c-0.4.4-.9,0.9-1.5,1.4a8.62,8.62,0,0,1-1.8,1.4,11,11,0,0,1-2.1,1.4,33.84,33.84,0,0,1-5,2.7,52.9,52.9,0,0,1-6,2.1,46.73,46.73,0,0,1-6.7,1.4c-2.3.3-4.7,0.4-7.1,0.5-1.1,0-2.5,0-3.6-.1l-3.5-.3a50.55,50.55,0,0,1-12.7-3.5,26,26,0,0,1-5-2.7c-0.7-.5-1.5-0.9-2.1-1.4a14.1,14.1,0,0,1-1.8-1.4c-0.6-.5-1-0.9-1.5-1.4a13.58,13.58,0,0,1-1.2-1.2,14.93,14.93,0,0,1-1.5-1.9c-0.3-.4-0.5-0.7-0.5-0.7l-1.4.8s0.2,0.3.5,0.8a25.14,25.14,0,0,0,1.4,2.1,7.47,7.47,0,0,0,1.2,1.4,20.6,20.6,0,0,0,1.5,1.6,14.54,14.54,0,0,0,1.8,1.6,17.68,17.68,0,0,0,2.2,1.6,37.08,37.08,0,0,0,5.3,3.1,43.16,43.16,0,0,0,6.3,2.4,40.64,40.64,0,0,0,7.1,1.5c1.2,0.2,2.5.3,3.7,0.4s2.4,0.1,3.7.2a63.16,63.16,0,0,0,7.5-.6,42.91,42.91,0,0,0,7.1-1.6,29.57,29.57,0,0,0,6.3-2.5,52.85,52.85,0,0,0,5.3-3.1c0.8-.5,1.5-1.1,2.2-1.6a9.76,9.76,0,0,0,1.8-1.7c0.6-.5,1-1.1,1.5-1.6a17.41,17.41,0,0,1,1.2-1.4,18.65,18.65,0,0,0,1.4-2.1c0.3-.5.5-0.8,0.5-0.8l-1.3-.9A1.75,1.75,0,0,1,675.3,440.7Z" transform="translate(-257.7 -11.5)"/><path d="M639.8,403.2a5.8,5.8,0,0,0,2.2,2.2,8.8,8.8,0,0,0,1.5.5,7.77,7.77,0,0,0,1.6.2,16,16,0,0,0,3-.3,4.76,4.76,0,0,0,2.6-1.8,6,6,0,0,0,.8-2.8,16.59,16.59,0,0,0-.2-2.4,16.29,16.29,0,0,0-.9-3.4,12.56,12.56,0,0,1-.4-1.2l-0.5.1s0.1,0.5.2,1.3,0.3,2,.5,3.3,0.2,3.1-.6,4.2a2.91,2.91,0,0,1-1.8,1.2,10.56,10.56,0,0,1-2.6.2c-0.4,0-.8-0.1-1.2-0.1a5.64,5.64,0,0,1-1.2-.4,4.36,4.36,0,0,1-1.7-1.6,8.26,8.26,0,0,1-.8-2.2,18,18,0,0,1-.2-2.2,29.59,29.59,0,0,1,.2-3.4c0.1-.8.2-1.3,0.2-1.3l-0.4-.1a11.11,11.11,0,0,0-.4,1.3,19,19,0,0,0-.6,3.5,20.94,20.94,0,0,0,.1,2.4A4.61,4.61,0,0,0,639.8,403.2Z" transform="translate(-257.7 -11.5)"/><path d="M582,422.8a28,28,0,0,1,.6-2.8c0.3-.9.5-1.8,0.8-2.6s0.5-1.6.8-2.3a32.68,32.68,0,0,1,1.4-3.4c0.4-.8.6-1.3,0.6-1.3v-0.1H586s-0.3.4-.9,1.1a7.3,7.3,0,0,0-.9,1.3,7.84,7.84,0,0,0-1.1,1.8c-0.4.7-.8,1.4-1.2,2.2s-0.7,1.7-1.1,2.6a24.55,24.55,0,0,0-.8,2.9c-0.2,1-.3,2.1-0.5,3.1,0,1.1-.1,2.1,0,3.2a13.42,13.42,0,0,0,.5,3,17.07,17.07,0,0,0,.9,2.7,12.4,12.4,0,0,0,1.2,2.3,14,14,0,0,0,1.2,1.8c0.4,0.5.8,0.9,1.1,1.3a7.21,7.21,0,0,0,1,1,0.44,0.44,0,0,0,.5.1,0.48,0.48,0,0,0,.2-0.6h0a8.6,8.6,0,0,1-.7-1.2c-0.2-.4-0.5-0.8-0.8-1.3a15.05,15.05,0,0,1-.9-1.8,14.27,14.27,0,0,1-.8-2.2c-0.3-.8-0.4-1.6-0.7-2.5a24.78,24.78,0,0,1-.3-2.7,28,28,0,0,1,0-2.9A8.27,8.27,0,0,1,582,422.8Z" transform="translate(-257.7 -11.5)"/><path d="M613.8,366.6c0.6-.8,1.1-1.4,1.5-2a12.48,12.48,0,0,0,.2,2.1,23.13,23.13,0,0,0,.6,2.7c0.2,0.6.3,1,.3,1h0a0.68,0.68,0,0,0,.6.4,0.5,0.5,0,0,0,.5-0.6,30.15,30.15,0,0,1-.2-3.6v-1.7a11,11,0,0,1,.2-1.8,6,6,0,0,1,.5-1.6,1,1,0,0,1,.4-0.5l0.8-.7c0.5-.4,1.1-0.8,1.5-1.1a3.53,3.53,0,0,1,1.4-.3,4.19,4.19,0,0,1,1.5.4,6.38,6.38,0,0,1,1.4.8,10.21,10.21,0,0,0,2.7,1.2,3.75,3.75,0,0,0,1,.1,0.72,0.72,0,0,0,.6-0.4,0.45,0.45,0,1,0-.8-0.4c0.1-.1.2-0.2,0.1-0.2a5.2,5.2,0,0,1-.5-0.3c-0.5-.3-1.2-0.9-2-1.5-0.4-.3-0.9-0.8-1.5-1.2a5.29,5.29,0,0,0-2.3-.9,5.39,5.39,0,0,0-2.8.5,11,11,0,0,0-2.1,1.4l-0.8.8a5.38,5.38,0,0,0-.9,1.2c-0.1.1-.1,0.3-0.2,0.4a1.37,1.37,0,0,0-.8.5h0s-1.2,1.7-3,4.3-4.3,6-6.8,9.3c-5.1,6.7-10.1,13.4-10.1,13.4a0.47,0.47,0,0,0,.1.6,0.38,0.38,0,0,0,.6-0.1s5.4-6.5,10.7-12.9C609.2,372.4,611.8,369.1,613.8,366.6Z" transform="translate(-257.7 -11.5)"/><path d="M703,405.3c-0.3-1-.5-2-0.8-2.9a33.68,33.68,0,0,0-2.5-5.9,64.24,64.24,0,0,0-3.4-5.6,50.49,50.49,0,0,0-4.2-5c-1.5-1.6-3-3-4.5-4.4-2.9-2.8-5.6-5.4-7.9-7.7-4.6-4.6-7.5-7.7-7.5-7.7h0a0.81,0.81,0,0,0-.9-0.3v-1.9a6.32,6.32,0,0,0-.7-2.5,5.38,5.38,0,0,0-.9-1.2l-0.8-.8a8.53,8.53,0,0,0-2.1-1.4,5.39,5.39,0,0,0-2.8-.5,5.29,5.29,0,0,0-2.3.9,9.83,9.83,0,0,0-1.5,1.2,14.6,14.6,0,0,1-2,1.5,3.21,3.21,0,0,1-.5.3c-0.1,0,.1.1,0.1,0.2a0.45,0.45,0,1,0-.8.4,0.72,0.72,0,0,0,.6.4,3.75,3.75,0,0,0,1-.1,11.84,11.84,0,0,0,2.7-1.2c0.5-.3,1-0.6,1.4-0.8a4.19,4.19,0,0,1,1.5-.4,3.53,3.53,0,0,1,1.4.3,4.79,4.79,0,0,1,1.5,1.1l0.8,0.7a1.76,1.76,0,0,1,.4.5,3.77,3.77,0,0,1,.5,1.6,11,11,0,0,1,.2,1.8v1.7c-0.1,2.2-.2,3.6-0.2,3.6a0.55,0.55,0,0,0,.4.6,0.67,0.67,0,0,0,.8-0.3h0s0.1-.4.3-1a20.74,20.74,0,0,0,.6-2.4c1,1,3.6,3.7,7.3,7.2,2.4,2.2,5.1,4.8,8.1,7.6,1.5,1.4,3.1,2.8,4.6,4.2a48.11,48.11,0,0,1,4.2,4.8,49.26,49.26,0,0,1,3.4,5.4,39.9,39.9,0,0,1,2.5,5.6c0.3,0.9.6,1.9,0.8,2.8s0.4,1.9.5,2.7a24.63,24.63,0,0,1,.2,2.6v2.5c-0.1.8-.2,1.5-0.3,2.2s-0.4,1.4-.5,2a8.51,8.51,0,0,1-.6,1.7c-0.2.5-.4,1-0.6,1.4-0.4.8-.9,1.4-1.1,1.8a4.58,4.58,0,0,0-.4.6v0.1a0.43,0.43,0,1,0,.7.5,2.22,2.22,0,0,0,.4-0.7c0.3-.4.7-1.1,1.2-1.9,0.2-.4.4-0.9,0.7-1.5a7.51,7.51,0,0,0,.7-1.8c0.2-.7.4-1.3,0.6-2.1s0.2-1.5.4-2.4c0-.8.1-1.7,0.1-2.6s-0.1-1.8-.2-2.8A15.63,15.63,0,0,1,703,405.3Z" transform="translate(-257.7 -11.5)"/><path d="M739.5,374.7s-0.1,1.4-.3,3.5-0.6,4.9-1.1,7.7a71.87,71.87,0,0,1-1.8,7.6c-0.3,1-.6,1.8-0.8,2.4l-0.3.9h0a0.82,0.82,0,0,0,.4,1,0.7,0.7,0,0,0,1-.4,7.85,7.85,0,0,1,.4-0.9,25.55,25.55,0,0,0,1-2.5,73.9,73.9,0,0,0,2.2-7.7c0.7-2.8,1.2-5.7,1.5-7.8s0.5-3.6.5-3.6h0v-0.1a1.34,1.34,0,0,0-1.3-1.4A1.49,1.49,0,0,0,739.5,374.7Z" transform="translate(-257.7 -11.5)"/><path d="M687.6,409.2c-1-1-2.9-.6-5.9-0.1a35.49,35.49,0,0,1-7.3.8c-2.2-.1-3.9-0.3-5.5-0.5a60.83,60.83,0,0,0-8.4-.5c-4.5,0-8.7,2.4-12.2,4.3a32.23,32.23,0,0,1-4.1,2.1,5.44,5.44,0,0,1-1.8,0,17.7,17.7,0,0,1-4.1-2.1c-3.5-1.9-7.8-4.4-12.3-4.4a78.14,78.14,0,0,0-8.3.5c-1.6.2-3.3,0.4-5.5,0.5-5.2.2-7.2-.3-8.9-0.9-1.2-.4-2.2-0.3-2.7.4a0.35,0.35,0,0,0-.1.2,1.54,1.54,0,0,0-.7.7c-0.7,1.3.1,3.6,2.6,7.4,2.3,3.5,11.1,13.3,15.7,16.8,7.1,5.4,14.1,7.9,24.2,8.6h2.3c10.1-.7,17.1-3.2,24.2-8.6,4.3-3.2,11.2-11,15.6-16.7,3.1-4,3.8-5.9,3.8-7v-0.5l0.1-.2h-0.2A9.2,9.2,0,0,0,687.6,409.2Zm-75.4,2.4c2.3-.1,4-0.3,5.6-0.5a57.11,57.11,0,0,1,8.1-.5c4,0,8.2,2.3,11.5,4.2a25.52,25.52,0,0,0,4.4,2.2,6.15,6.15,0,0,0,2.7,0,25.52,25.52,0,0,0,4.4-2.2c3.3-1.8,7.3-4.1,11.4-4.1a81.89,81.89,0,0,1,8.3.5c1.7,0.2,3.4.4,5.7,0.5a20.28,20.28,0,0,0,4.9-.4c-2,.9-4,2-5.7,2.9-1,.5-1.8.9-2.3,1.2-1.7.8-3.3,1.6-5,2.5-6.9,3.5-14.1,7.1-21.8,7.9h-2.2c-7.8-.8-14.9-4.4-21.9-7.9-1.7-.8-3.3-1.7-5-2.5-0.6-.3-1.5-0.8-2.5-1.3-1.4-.7-3-1.6-4.5-2.4C609.4,411.6,610.7,411.6,612.2,411.6Zm71.5,2.1a1.64,1.64,0,0,0-.1,1.7c-0.2.3-.4,0.5-0.6,0.8l0.3,0.3a1.76,1.76,0,0,1-.4.5c-4.3,5.6-11.2,13.2-15.3,16.4-6.9,5.2-13.4,7.6-23.3,8.3h-2.2c-9.9-.7-16.4-3-23.3-8.3-4.3-3.3-12.2-12.1-14.9-15.8,0.2-.9.4-2.2-0.2-2.7s-0.4-2.2-.2-3.4a67.16,67.16,0,0,1,8.6,4c1.1,0.6,2,1.1,2.6,1.4,1.6,0.8,3.3,1.6,5,2.5,7.1,3.6,14.4,7.2,22.5,8.1h2.3c8-.8,15.4-4.5,22.4-8.1,1.7-.8,3.3-1.7,5-2.5l2.4-1.2c2.9-1.5,7.3-3.8,10.1-4.6C684.3,411.9,684.3,413.2,683.7,413.7Z" transform="translate(-257.7 -11.5)"/><path d="M677.3,262.6c-7.5,4.5-11.1,23.9-13,34.4-1.7,9.1-.6,13.8,4.7,28.4,3.2,8.7,13.7,21.6,22.2,21.6,0,0,37.8,5.3,50.6,1.9,8.2-2.2,20.6-14.8,23.9-22.6,5.8-13.9,12.3-44.3,5.5-57.2-8.1-15.4-26.4-17.6-34.8-18.8C711,246.6,677.3,262.6,677.3,262.6Z" transform="translate(-257.7 -11.5)"/><path d="M516.3,269.6c-6.8,12.8-.2,43.3,5.5,57.2,3.3,7.8,15.7,20.4,23.9,22.6,12.8,3.4,50.6-1.9,50.6-1.9,8.5,0,19-12.8,22.2-21.6,5.3-14.6,6.4-19.3,4.7-28.4-1.9-10.5-5.5-29.9-13-34.4,0,0-33.7-16-59.1-12.4C542.7,252,524.4,254.2,516.3,269.6Z" transform="translate(-257.7 -11.5)"/></svg>