<svg id="Ebene_1" data-name="Ebene 1" xmlns="http://www.w3.org/2000/svg" viewBox="0 0 670.91 824.85"><defs><style>.cls-1,.cls-2,.cls-3,.cls-4{fill:none;}.cls-1,.cls-3,.cls-4{stroke:#000;}.cls-1{stroke-miterlimit:10;}.cls-3,.cls-4{stroke-linecap:round;stroke-linejoin:round;}.cls-4{stroke-width:3px;}</style></defs><title>human2</title><path d="M498.7,252.4s-0.7,10.8-1.3,29.7c-0.3,9.5-.6,20.9-0.5,34.1,0,6.6.1,13.6,0.4,21,0.1,3.7.4,7.5,0.6,11.3s0.6,7.8,1.2,11.8c1.1,8,2.6,16.3,4.4,24.8a196,196,0,0,0,7.3,25.8,131.62,131.62,0,0,0,12.4,25.3c1.3,2,2.6,4.1,4.1,6l2.2,2.9,2.3,2.8c0.8,0.9,1.5,1.9,2.4,2.8l2.5,2.7c1.6,1.8,3.5,3.6,5.2,5.4,7.1,7.2,14.4,14.5,22,21.6a233.62,233.62,0,0,0,24.2,20,91.54,91.54,0,0,0,13.5,7.9,38.73,38.73,0,0,0,14.7,3.9c10.6,0.4,21.3-.9,31.1-4.7a53.66,53.66,0,0,0,13.6-7.7c1.1-.8,2-1.7,3-2.5s1.9-1.8,2.8-2.8c1.9-2,3.5-3.9,5.3-6,6.9-8.2,13.4-16.7,19.5-25.4a288.71,288.71,0,0,0,16.8-26.6c5-9.1,9.5-18.3,12.3-27.9a114.28,114.28,0,0,0,2.9-14.6c0.7-4.9,1.3-9.8,1.9-14.6,1.1-9.7,2-19.2,2.8-28.4,1.6-18.5,2.6-36.1,4-52.3l0.6-6a56.73,56.73,0,0,0,.5-5.8c0.2-3.8.2-7.6,0.1-11.3-0.2-7.4-.7-14.3-1.3-20.9s-1.5-12.6-2.5-18.2a60.85,60.85,0,0,0-1.9-7.9,27.84,27.84,0,0,0-3.1-6.5c-2.4-4-4.9-7.4-7.1-10.4s-4.1-5.4-5.7-7.4c-3.2-3.9-4.9-6-4.9-6l1.2-1s1.7,2.1,5,6c1.6,2,3.6,4.4,5.8,7.4s4.8,6.4,7.3,10.4a31.69,31.69,0,0,1,3.4,6.9c0.8,2.6,1.4,5.3,2,8.1,1.1,5.6,2,11.8,2.7,18.4s1.3,13.6,1.6,21c0.1,3.7.2,7.5,0.1,11.5-0.1,2-.3,4-0.5,6s-0.4,3.9-.6,6c-1.3,16.1-2.2,33.7-3.7,52.3-0.7,9.3-1.5,18.8-2.6,28.6-0.5,4.9-1.1,9.8-1.8,14.8-0.4,2.5-.7,5-1.2,7.5a69.11,69.11,0,0,1-1.7,7.6c-2.9,10-7.5,19.4-12.5,28.6a282.2,282.2,0,0,1-17,26.9c-6.1,8.8-12.6,17.4-19.6,25.7-1.7,2.1-3.6,4.2-5.4,6.1l-3,3c-1.1.9-2.1,1.9-3.2,2.7a58,58,0,0,1-14.5,8.3,81.08,81.08,0,0,1-32.6,5.1,42.31,42.31,0,0,1-16.2-4.3,98.48,98.48,0,0,1-14.1-8.3,220.81,220.81,0,0,1-24.5-20.4c-7.7-7.2-14.9-14.5-22.1-21.8-1.8-1.8-3.6-3.6-5.3-5.5l-2.6-2.8a33.58,33.58,0,0,1-2.4-2.9l-2.4-2.9-2.2-3c-1.5-2-2.8-4.1-4.2-6.2a127,127,0,0,1-12.6-26,195.89,195.89,0,0,1-7.3-26.3c-1.8-8.6-3.2-17-4.2-25.1-0.6-4.1-.8-8.1-1.1-12s-0.4-7.7-.5-11.4-0.2-7.3-.2-10.8V316.3c0.2-13.2.6-24.7,1-34.2,0.9-18.9,1.7-29.7,1.7-29.7h1.7Z" transform="translate(-257.9 -20.32)"/><path class="cls-1" d="M629,440c-9.4-1-17.8-6.1-26-10-4.1-2-20.6-12.3-11.6,1.3,2.3,3.4,10.6,12.7,14.9,15.9,7.1,5.4,13.8,7.4,22.8,8.1h2.2c8.9-.6,15.7-2.7,22.8-8.1,4.2-3.2,11-10.9,14.9-15.9,11-14.2-7.5-3.3-11.6-1.3-8.3,4-16.7,9.1-26,10H629Z" transform="translate(-257.9 -20.32)"/><path class="cls-1" d="M591.4,431.3s-4.7-8.8,0-7.2c1.7,0.6,3.7,1.1,8.9.9s7.2-1,13.2-1,12.1,5,15.5,6.1a4.1,4.1,0,0,0,2.2,0c3.4-1.1,9.3-6.1,15.4-6.1s8.2,0.7,13.4,1,10.9-2.2,12.2-1-3.3,6.6-3.3,6.6" transform="translate(-257.9 -20.32)"/><path d="M662.6,453.8a7.23,7.23,0,0,0-.4.7,12.52,12.52,0,0,1-1.4,2c-0.3.4-.7,0.9-1.1,1.4a19.2,19.2,0,0,1-1.4,1.5c-0.5.5-1.1,1.1-1.7,1.6a11.6,11.6,0,0,1-2.1,1.6,40.38,40.38,0,0,1-5.1,3,48.43,48.43,0,0,1-6.1,2.4,51.45,51.45,0,0,1-6.8,1.5,56.68,56.68,0,0,1-7.2.6,21.74,21.74,0,0,1-3.6-.2c-1.2-.1-2.4-0.2-3.6-0.4a37.34,37.34,0,0,1-6.8-1.5,36.88,36.88,0,0,1-6.1-2.4,40.3,40.3,0,0,1-5.1-2.9,16.6,16.6,0,0,1-2.1-1.6c-0.6-.5-1.2-1.1-1.7-1.6a19.2,19.2,0,0,1-1.4-1.5,13.44,13.44,0,0,1-1.1-1.4,12.52,12.52,0,0,1-1.4-2,4,4,0,0,0-.5-0.7l1.3-.8a4,4,0,0,1,.5.7c0.3,0.4.8,1.1,1.4,1.8a12,12,0,0,0,1.1,1.2,17.88,17.88,0,0,0,1.4,1.3c0.5,0.5,1.1.9,1.7,1.4s1.3,0.9,2,1.4a43,43,0,0,0,4.8,2.6,33,33,0,0,0,5.8,2,45.34,45.34,0,0,0,6.4,1.3,18.41,18.41,0,0,0,3.3.3c1.1,0.1,2.4.1,3.4,0.1a50.71,50.71,0,0,0,6.8-.4,42.64,42.64,0,0,0,6.4-1.3,43.73,43.73,0,0,0,5.8-2.1,35.66,35.66,0,0,0,4.8-2.6c0.7-.5,1.4-0.9,2-1.4a11.51,11.51,0,0,0,1.7-1.4,17.88,17.88,0,0,0,1.4-1.3,12,12,0,0,0,1.1-1.2c0.3-.4.6-0.7,0.8-1a5.55,5.55,0,0,1,.6-0.8c0.3-.4.5-0.7,0.5-0.7Z" transform="translate(-257.9 -20.32)"/><path d="M529.4,445.6s0.1,2.4.2,6.7,0.3,10.4.4,17.7c0.1,3.7.1,7.6,0.1,11.8s0,8.6-.3,13.2-0.6,9.3-1.2,14.1-1.3,9.6-2.2,14.4a113.22,113.22,0,0,1-3.5,14.2,47.59,47.59,0,0,1-6,12.9,28.76,28.76,0,0,1-2.2,2.7,25.35,25.35,0,0,1-2.6,2.2c-1.8,1.3-3.4,2.6-5.1,3.9-3.3,2.6-6.3,5.1-9.2,7.4-11.2,9.4-18.6,15.7-18.6,15.7l-1-1.2s7.4-6.3,18.8-15.5c2.8-2.3,5.9-4.8,9.2-7.4,1.6-1.3,3.3-2.6,5.1-4a25.26,25.26,0,0,0,2.5-2.1,18.33,18.33,0,0,0,2.1-2.6,45.06,45.06,0,0,0,5.7-12.6,107.22,107.22,0,0,0,3.3-14.1c0.9-4.8,1.5-9.6,2.1-14.3a135.61,135.61,0,0,0,1-14c0.2-9.1,0-17.6-.4-24.9s-0.8-13.3-1.1-17.6-0.6-6.7-.6-6.7Z" transform="translate(-257.9 -20.32)"/><path d="M700.6,455.3s-0.1,2.2-.3,6.1-0.5,9.4-.7,16.1-0.4,14.4-.3,22.8c0,4.2.1,8.5,0.5,12.8s1.2,8.7,1.8,13.1a239.33,239.33,0,0,0,5.2,25.5,61.59,61.59,0,0,0,4,11.2,17.69,17.69,0,0,0,2.9,4.4c1.3,1.3,2.5,2.4,3.8,3.5,5,4.4,9.5,7.7,12.6,10s4.9,3.6,4.9,3.6l-0.9,1.3s-1.8-1.3-4.9-3.6-7.5-5.7-12.6-10.2c-1.3-1.1-2.5-2.3-3.8-3.6a19.16,19.16,0,0,1-3.2-4.8,66.79,66.79,0,0,1-4.1-11.4,248.27,248.27,0,0,1-5.3-25.7c-0.7-4.4-1.3-8.8-1.9-13.2s-0.6-8.7-.7-12.9c-0.2-8.4-.1-16.2-0.1-22.8s0.1-12.2.2-16.1,0.1-6.1.1-6.1h2.8Z" transform="translate(-257.9 -20.32)"/><path d="M627.3,408.4a11.32,11.32,0,0,0-.2,1.2,25.84,25.84,0,0,0-.2,3.2,14.91,14.91,0,0,0,.2,2.1,9,9,0,0,0,.8,2.1,3.86,3.86,0,0,0,1.6,1.5c0.4,0.1.7,0.3,1.1,0.4s0.8,0.1,1.2.1a10.14,10.14,0,0,0,2.5-.2,2.69,2.69,0,0,0,1.7-1.1c0.8-1.1.7-2.8,0.6-4.1a19.66,19.66,0,0,0-.5-3.2,11.3,11.3,0,0,0-.2-1.2l0.5-.1a12.54,12.54,0,0,0,.4,1.2,29.56,29.56,0,0,1,.8,3.2,16.42,16.42,0,0,1,.2,2.3,5.72,5.72,0,0,1-.7,2.7,3.94,3.94,0,0,1-2.5,1.7,9.55,9.55,0,0,1-2.9.3,7.72,7.72,0,0,1-1.5-.2,5.78,5.78,0,0,1-1.4-.5,4.74,4.74,0,0,1-2.1-2.1,6.09,6.09,0,0,1-.8-2.5,18.49,18.49,0,0,1-.1-2.3,18,18,0,0,1,.6-3.3,6.45,6.45,0,0,1,.4-1.2h0.5Z" transform="translate(-257.9 -20.32)"/><path d="M577.3,415.5s-0.2.5-.5,1.2-0.8,1.9-1.3,3.2c-0.3.7-.5,1.4-0.8,2.2a26.06,26.06,0,0,0-1.2,5.1,24.76,24.76,0,0,0-.3,2.7,24.32,24.32,0,0,0,0,2.7,20.62,20.62,0,0,0,.3,2.6c0.2,0.8.4,1.7,0.6,2.4a10.23,10.23,0,0,0,.8,2.1c0.3,0.7.6,1.2,0.8,1.7a5.67,5.67,0,0,0,.8,1.3,9.32,9.32,0,0,1,.7,1.1h0a0.66,0.66,0,0,1-.1.6,0.33,0.33,0,0,1-.5-0.1,7.21,7.21,0,0,1-1-1,6.34,6.34,0,0,1-1-1.2,12.49,12.49,0,0,1-1.2-1.7,15,15,0,0,1-1.1-2.2,19.86,19.86,0,0,1-.9-2.6,25,25,0,0,1-.5-2.9c-0.1-1,0-2,0-3a15.66,15.66,0,0,1,.5-3,22.88,22.88,0,0,1,.8-2.8,18.61,18.61,0,0,1,1-2.5,10.35,10.35,0,0,1,1.1-2.1,7.12,7.12,0,0,1,1.1-1.7,14.61,14.61,0,0,1,.9-1.3c0.5-.7.8-1.1,0.8-1.1s0.1-.1.2,0S577.4,415.4,577.3,415.5Z" transform="translate(-257.9 -20.32)"/><path d="M615.6,382.8s-1.6,1.3-3.9,3.2-5.5,4.4-8.7,6.9c-6.4,4.9-12.9,9.7-12.9,9.7a0.43,0.43,0,0,1-.5-0.7s6.2-5.1,12.4-10.3c3.1-2.6,6.1-5.2,8.4-7.2s3.7-3.4,3.7-3.4h0a1.12,1.12,0,0,1,1.6.1,1.23,1.23,0,0,1-.1,1.7h0Z" transform="translate(-257.9 -20.32)"/><path d="M654.4,381.4s2.8,3,7.2,7.4c2.2,2.2,4.8,4.7,7.6,7.4,1.4,1.4,2.9,2.7,4.3,4.2s2.8,3.2,4.1,4.8a37.12,37.12,0,0,1,3.3,5.4,44.92,44.92,0,0,1,2.4,5.6c0.3,0.9.5,1.9,0.8,2.8s0.3,1.9.5,2.8,0.1,1.8.2,2.7-0.1,1.7-.1,2.5a18.45,18.45,0,0,1-.4,2.3,11.69,11.69,0,0,1-.6,2,8.65,8.65,0,0,1-.7,1.7,14.66,14.66,0,0,0-.6,1.4q-0.75,1.2-1.2,1.8a4.58,4.58,0,0,0-.4.6,0.43,0.43,0,1,1-.7-0.5h0a4.57,4.57,0,0,1,.4-0.6c0.2-.4.6-1,1.1-1.8,0.2-.4.4-0.9,0.6-1.3s0.4-1,.6-1.6,0.4-1.2.5-1.9,0.2-1.4.3-2.2v-2.4c-0.1-.8-0.1-1.7-0.2-2.5s-0.3-1.7-.5-2.6-0.5-1.8-.8-2.7a31.9,31.9,0,0,0-2.4-5.4,34.19,34.19,0,0,0-3.3-5.1,44,44,0,0,0-4-4.6c-1.4-1.4-3-2.8-4.4-4.1-2.9-2.6-5.5-5.1-7.8-7.3-4.5-4.3-7.4-7.3-7.4-7.3h0a1.21,1.21,0,0,1,0-1.6,1.12,1.12,0,0,1,1.6.1h0Z" transform="translate(-257.9 -20.32)"/><path d="M621.1,384.2a2.05,2.05,0,0,0-.5-0.7,2.61,2.61,0,0,0-1.8-1c-0.2,0-.4-0.1-0.7-0.1h-0.8a8,8,0,0,0-1.5.3,2.42,2.42,0,0,0-1,.6,2.23,2.23,0,0,0-.5,1.3,11.07,11.07,0,0,0,.2,3.6c0.2,1.2.5,2.3,0.7,3.3s0.4,1.8.5,2.4a6.74,6.74,0,0,1,.1,1l-0.6.1s-0.1-.3-0.3-0.8-0.5-1.3-.9-2.2a29.9,29.9,0,0,1-1.2-3.3,11,11,0,0,1-.6-4.2,5.68,5.68,0,0,1,.8-2.4,3.52,3.52,0,0,1,2.2-1.4,4.8,4.8,0,0,1,2.1.1l0.4,0.1h0.2l0.2,0.1a6.9,6.9,0,0,1,.8.3,4.49,4.49,0,0,1,2,1.8,5.46,5.46,0,0,1,.4,1Z" transform="translate(-257.9 -20.32)"/><path d="M646.1,384a3.68,3.68,0,0,1,.4-0.9,4,4,0,0,1,2-1.8c0.3-.1.5-0.2,0.8-0.3l0.2-.1,0.2-.1,0.4-.1a7.15,7.15,0,0,1,2.1-.2,3.57,3.57,0,0,1,2.3,1.4,5.08,5.08,0,0,1,.9,2.5,13.3,13.3,0,0,1-.6,4.2q-0.6,1.8-1.2,3.3c-0.4.9-.7,1.7-0.9,2.2s-0.3.8-.3,0.8l-0.6-.1a6.74,6.74,0,0,1,.1-1c0.1-.6.3-1.4,0.5-2.4s0.5-2.1.7-3.3a10.61,10.61,0,0,0,.2-3.5,2.7,2.7,0,0,0-.5-1.2,2,2,0,0,0-.9-0.6,5.78,5.78,0,0,0-1.4-.5h-0.8a1.7,1.7,0,0,0-.7.1,3.41,3.41,0,0,0-1.8,1,2.77,2.77,0,0,0-.4.7Z" transform="translate(-257.9 -20.32)"/><path d="M619.9,399.6a10.35,10.35,0,0,1-2.6-2.1,15,15,0,0,1-1.1-1.3,2.62,2.62,0,0,1-.5-0.9,3.39,3.39,0,0,1-.3-0.8v-0.4a4.07,4.07,0,0,1,.2-0.7,4,4,0,0,1,.3-0.4l0.2-.2,0.1-.1h0c0.6-.3.2-0.1,0.3-0.2h0.1a2.18,2.18,0,0,1,.6-0.1h0.6a0.85,0.85,0,0,1,.6.2,3,3,0,0,1,1,.4l1.8,0.9a16.29,16.29,0,0,1,1.7,1.1c0.5,0.4,1.1.8,1.5,1.2a22,22,0,0,0,2.5,1.7,29.5,29.5,0,0,0,2.8,1.4,0.3,0.3,0,0,1,.1.4,0.34,0.34,0,0,1-.3.2,11.75,11.75,0,0,1-3.2-.6,13.45,13.45,0,0,1-3.2-1.3l-1.5-.9c-0.5-.3-1.1-0.5-1.6-0.8s-1.1-.5-1.6-0.7a2.54,2.54,0,0,0-.7-0.2h-0.1c0.1,0,.3-0.1.2-0.1h-0.1a0.76,0.76,0,1,1,.3-0.2h0l0.1-.1,0.1-.1c0.1-.1.1-0.2,0.2-0.3a1.09,1.09,0,0,0,.1-0.5v-0.2h0a2.19,2.19,0,0,1,.3.5,8.35,8.35,0,0,0,.8,1.2c0.5,0.8.9,1.5,1.2,1.9a4.56,4.56,0,0,1,.4.8,0.84,0.84,0,0,1-.4,1.1C620.4,399.8,620.1,399.8,619.9,399.6Z" transform="translate(-257.9 -20.32)"/><path d="M646.6,398.6a4.56,4.56,0,0,1,.4-0.8c0.3-.5.6-1.2,1.1-2,0.2-.4.5-0.8,0.7-1.2a2.19,2.19,0,0,1,.3-0.5h0v0.2a1.09,1.09,0,0,0,.1.5,0.53,0.53,0,0,0,.2.3l0.1,0.1,0.1,0.1h0c0.6,0.3.2,0.1,0.3,0.1h-0.1c-0.1-.1,0,0,0.2.1h-0.1a1.85,1.85,0,0,0-.7.2,11.11,11.11,0,0,0-1.6.7c-0.5.3-1.1,0.5-1.6,0.8a11.9,11.9,0,0,0-1.5.9,12,12,0,0,1-3.2,1.4,11.75,11.75,0,0,1-3.2.6,0.27,0.27,0,0,1-.3-0.3,0.53,0.53,0,0,1,.2-0.3s1.1-.5,2.8-1.5a13.79,13.79,0,0,0,2.5-1.7,8.78,8.78,0,0,1,1.5-1.2c0.5-.4,1.1-0.7,1.7-1.1a16.18,16.18,0,0,1,1.8-1,10.37,10.37,0,0,1,1-.4c0.2-.1.4-0.1,0.6-0.2h0.6a2.18,2.18,0,0,1,.6.1h0.1c0.1,0.1-.3-0.1.3,0.2h0l0.1,0.1,0.2,0.2c0.1,0.1.2,0.3,0.3,0.4a2.54,2.54,0,0,1,.2.7v0.4a3.39,3.39,0,0,1-.3.8c-0.2.4-.4,0.7-0.5,0.9a15,15,0,0,1-1.1,1.3,10.35,10.35,0,0,1-2.6,2.1,0.8,0.8,0,0,1-1.1-.3A0.62,0.62,0,0,1,646.6,398.6Z" transform="translate(-257.9 -20.32)"/><path d="M657.1,317a7.35,7.35,0,0,0,.2-0.8,12.31,12.31,0,0,1,.8-2.2c0.2-.5.5-1,0.7-1.6s0.6-1.1,1-1.8a25.48,25.48,0,0,1,3-3.9,19,19,0,0,1,2.1-1.9c0.8-.6,1.6-1.2,2.5-1.8a31.41,31.41,0,0,1,5.8-2.9,46,46,0,0,1,6.6-2,55.37,55.37,0,0,1,6.9-1.2,21,21,0,0,1,3.6-.3h3.5c2.3,0.1,4.6.4,6.8,0.7a58.06,58.06,0,0,1,6.3,1.5,16.16,16.16,0,0,1,5.2,2.8,6.15,6.15,0,0,1,2.5,4.6,7.78,7.78,0,0,1-1.1,3.8,13.34,13.34,0,0,1-1.4,1.9l-0.6.6-0.4-.3a2.22,2.22,0,0,0,.4-0.7,11.07,11.07,0,0,0,1.1-2,6.55,6.55,0,0,0,.6-3.2,4.69,4.69,0,0,0-2.3-3.2c-2.6-1.8-6.6-2.7-10.7-3.2a46.32,46.32,0,0,0-6.5-.4h-3.3c-1.1,0-2.2.2-3.3,0.3-2.3.3-4.5,0.7-6.7,1.2a50.41,50.41,0,0,0-6.2,1.8,30.69,30.69,0,0,0-5.5,2.5c-0.8.5-1.6,1-2.3,1.5s-1.4,1-2,1.6a23.45,23.45,0,0,0-3.1,3.3,14.3,14.3,0,0,0-1.1,1.5c-0.3.5-.6,1-0.8,1.4-0.5.8-.8,1.6-1.1,2.1a2.22,2.22,0,0,1-.4.7Z" transform="translate(-257.9 -20.32)"/><path class="cls-1" d="M673.4,316a12,12,0,0,1-3.7-10.6,14.19,14.19,0,0,1,.5-2.2" transform="translate(-257.9 -20.32)"/><path class="cls-1" d="M690,298.2a12.16,12.16,0,0,1,1.6,16.1" transform="translate(-257.9 -20.32)"/><path class="cls-1" d="M670.2,303.2c5.4-2.7,11.6-4,17.9-4.8a10.89,10.89,0,0,1,1.9-.1" transform="translate(-257.9 -20.32)"/><path class="cls-1" d="M673.4,316a12.23,12.23,0,0,0,18.2-1.6" transform="translate(-257.9 -20.32)"/><path class="cls-2" d="M628,171.2" transform="translate(-257.9 -20.32)"/><path class="cls-3" d="M675.7,305.3a7.53,7.53,0,0,0-2.1,4.9l0.9-2.1c-0.2,2-.5,4.1-0.9,6.1a3.22,3.22,0,0,1,.1-1.7c-0.2.6-.3,1.2-0.5,1.7a0.53,0.53,0,0,1-.2.3,0.37,0.37,0,0,1-.3-0.1,3.42,3.42,0,0,1-.9-2.8,34.69,34.69,0,0,0-.6-4.5v2c0.2-.7.4-1.4,0.6-2a2.49,2.49,0,0,1,.3,1.7,4.59,4.59,0,0,1,2-3.2c-0.4,1-.9,1.9-1.4,2.9A9.26,9.26,0,0,1,675.7,305.3Z" transform="translate(-257.9 -20.32)"/><path class="cls-3" d="M675.9,308a0.78,0.78,0,0,0-.3.7,1.59,1.59,0,0,0,1-.8c-0.2,1.4-.5,2.8-0.7,4.2a8.67,8.67,0,0,0,1.4-2.7,1.18,1.18,0,0,1-.1,1c-0.1.4,0.1,0.9,0.5,0.8a0.85,0.85,0,0,0,.3-0.3,15.94,15.94,0,0,0,1.5-2.9c0,0.5-.1,1-0.1,1.5" transform="translate(-257.9 -20.32)"/><path class="cls-3" d="M678.3,306.4c-0.2,0-.1.4,0.1,0.4a1.33,1.33,0,0,0,.5-0.3,0.51,0.51,0,0,1,.5-0.1,0.2,0.2,0,0,1,.1.2c0.1,0.3.1,0.7,0.2,1,0,0.1.1,0.2,0.1,0.3a0.42,0.42,0,0,0,.5-0.3c0.3-.6.5-1.2,0.7-1.7,0.4,0,.1.8,0.4,1s0.6-.2.7-0.5a8.3,8.3,0,0,0,.6-2.1c-0.2,1-.3,2.1-0.5,3.1,0.1,0.1.3-.1,0.4-0.2a13.79,13.79,0,0,0,.8-2.9,27,27,0,0,0-.4,2.8,0.6,0.6,0,0,1,.4.1,14,14,0,0,0,.6-2.8,0.6,0.6,0,0,0,.1.4,10.08,10.08,0,0,0,.5-2.5c0-.2-0.1-0.5-0.3-0.4,0-.2.1-0.4,0.1-0.7a0.91,0.91,0,0,0,.7-0.3" transform="translate(-257.9 -20.32)"/><path class="cls-3" d="M686.4,301v0.4a0.61,0.61,0,0,0,.9-0.4,6.64,6.64,0,0,0-.6,2,1,1,0,0,0,.9-0.3,4.64,4.64,0,0,0-1.3,2,1.5,1.5,0,0,0,1.1-.4c-0.7,1.3-1.5,2.5-2.2,3.8a1.67,1.67,0,0,0,1.2-.1v1.8a1.08,1.08,0,0,0,.1.6,0.45,0.45,0,0,0,.6.1,7.72,7.72,0,0,1-.2,1.5c0.5-.9,1-1.8,1.5-2.8" transform="translate(-257.9 -20.32)"/><path class="cls-4" d="M689.2,301.3a0.81,0.81,0,0,0,.2,1.1,1.59,1.59,0,0,0,1.2.4,1.72,1.72,0,0,0-1.2,1c0.3,0,.3.4,0.3,0.7-0.1.5-.1,1-0.2,1.5" transform="translate(-257.9 -20.32)"/><path class="cls-4" d="M684.2,308.9a2.4,2.4,0,0,1-1.8,1.7,0.55,0.55,0,0,1-.4,0,0.53,0.53,0,0,1-.3-0.2,0.66,0.66,0,0,0-.7.2,22,22,0,0,0-1.8,1.4c0-.2-0.1-0.4-0.1-0.6" transform="translate(-257.9 -20.32)"/><path class="cls-4" d="M687.6,311a3.22,3.22,0,0,1-2,1.3,31.65,31.65,0,0,0-5,2.2" transform="translate(-257.9 -20.32)"/><path class="cls-4" d="M691.2,308.7c-0.4,1.3-.8,2.5-1.3,3.8a1.06,1.06,0,0,1-.6.7" transform="translate(-257.9 -20.32)"/><path class="cls-4" d="M687.9,306.6c-0.3,2.1-.5,4.3-0.8,6.4a4.27,4.27,0,0,1-.6,2,3.13,3.13,0,0,1-1.1.9,7.61,7.61,0,0,1-4.8,1.3,1.42,1.42,0,0,1-.6-0.2,2.18,2.18,0,0,1-.5-0.4,13.71,13.71,0,0,0-4.2-2.9" transform="translate(-257.9 -20.32)"/><path class="cls-4" d="M691,305.6c-0.2.7-.5,1.5-0.7,2.2" transform="translate(-257.9 -20.32)"/><path class="cls-4" d="M671.7,308.9a7.8,7.8,0,0,0,2.4,3,5.27,5.27,0,0,1,1.5,1.1c0.4,0.4.8,0.9,1.2,0.7" transform="translate(-257.9 -20.32)"/><path class="cls-4" d="M685.5,301.8c-0.2,1.1-.3,2.1-0.5,3.2" transform="translate(-257.9 -20.32)"/><path d="M589.5,319.5a2.77,2.77,0,0,0-.4-0.7c-0.3-.5-0.6-1.2-1.1-2.1-0.3-.4-0.5-0.9-0.9-1.4a7.89,7.89,0,0,0-1.2-1.5,32.12,32.12,0,0,0-3.2-3.2,15.94,15.94,0,0,0-2.1-1.5,18.84,18.84,0,0,0-2.4-1.4,30.24,30.24,0,0,0-5.5-2.3,58,58,0,0,0-6.3-1.6c-2.2-.4-4.4-0.8-6.7-1a19.27,19.27,0,0,0-3.3-.3h-3.3c-2.2.1-4.4,0.3-6.5,0.6-4.2.6-8.1,1.6-10.7,3.4a5,5,0,0,0-2.2,3.3,5.62,5.62,0,0,0,.7,3.2,16.26,16.26,0,0,0,1.1,2c0.3,0.4.5,0.7,0.5,0.7l-0.4.3-0.6-.6a12.48,12.48,0,0,1-1.5-1.9,6,6,0,0,1,1.2-8.4,17.49,17.49,0,0,1,5.2-2.9,37.42,37.42,0,0,1,6.2-1.7c2.2-.4,4.5-0.7,6.8-0.9,1.2-.1,2.3-0.1,3.5-0.1s2.5,0.1,3.6.2a52.22,52.22,0,0,1,6.9,1.1,41.2,41.2,0,0,1,12.5,4.7,22,22,0,0,1,2.5,1.7,19,19,0,0,1,2.1,1.9,24.7,24.7,0,0,1,3.1,3.8,8.11,8.11,0,0,1,1,1.8c0.3,0.6.5,1.1,0.8,1.6a12.31,12.31,0,0,1,.8,2.2c0.2,0.5.3,0.8,0.3,0.8Z" transform="translate(-257.9 -20.32)"/><path class="cls-1" d="M553.4,314.5a12.27,12.27,0,0,1,1.4-11.1,8,8,0,0,1,1.5-1.7" transform="translate(-257.9 -20.32)"/><path class="cls-1" d="M576.2,306.1a11.9,11.9,0,0,1-1.4,11.2,12.56,12.56,0,0,1-4.4,3.9" transform="translate(-257.9 -20.32)"/><path class="cls-1" d="M556.3,301.6c6,0,12.2,1.6,18.1,3.7,0.5,0.2,1.1.4,1.7,0.7" transform="translate(-257.9 -20.32)"/><path class="cls-1" d="M553.4,314.5a11.55,11.55,0,0,0,4.5,5.8,12,12,0,0,0,12.5.8" transform="translate(-257.9 -20.32)"/><path class="cls-3" d="M557.4,313a7.78,7.78,0,0,0,1.9,5c-0.3-.7-0.5-1.4-0.8-2.1a41,41,0,0,1,3.5,5,3.48,3.48,0,0,1-1.1-1.3c0.3,0.5.6,1,.9,1.6a0.37,0.37,0,0,1,.1.3c0,0.1-.2.1-0.3,0.1a3.59,3.59,0,0,1-2.6-1.4,24.75,24.75,0,0,0-3.6-2.8l1.4,1.4c-0.3-.6-0.7-1.2-1-1.9a2.81,2.81,0,0,1,1.4,1,4.78,4.78,0,0,1-.8-3.7,28.11,28.11,0,0,1,1,3.1A15.47,15.47,0,0,1,557.4,313Z" transform="translate(-257.9 -20.32)"/><path class="cls-3" d="M560.2,312.5a0.62,0.62,0,0,0-.1.7,1.23,1.23,0,0,0,.7-1.1l0.6,4.2a10.47,10.47,0,0,0,.5-3,1.69,1.69,0,0,1,.3,1c0,0.4.4,0.8,0.7,0.6a0.53,0.53,0,0,0,.2-0.3,11.27,11.27,0,0,0,.5-3.2c0.1,0.5.3,1,.4,1.5" transform="translate(-257.9 -20.32)"/><path class="cls-3" d="M561.1,313.5c-0.2.1,0,.4,0.2,0.3a1.51,1.51,0,0,0,.4-0.4,0.37,0.37,0,0,1,.5-0.2,0.38,0.38,0,0,1,.2.2c0.2,0.3.3,0.6,0.5,0.9a0.38,0.38,0,0,0,.2.2c0.2,0.1.3-.2,0.4-0.5a12.1,12.1,0,0,0,.1-1.9c0.4-.1.4,0.7,0.7,0.8s0.5-.3.6-0.7a7.41,7.41,0,0,0-.1-2.1c0.2,1,.4,2.1.5,3.1,0.2,0.1.3-.2,0.3-0.3a10.12,10.12,0,0,0-.2-3,27.4,27.4,0,0,0,.5,2.8,0.6,0.6,0,0,0,.4-0.1,14.28,14.28,0,0,0-.3-2.9c0.1,0.1.1,0.3,0.2,0.4a10.68,10.68,0,0,0-.3-2.5,0.3,0.3,0,0,0-.4-0.3c0-.2-0.1-0.4-0.1-0.7a0.77,0.77,0,0,0,.6-0.5" transform="translate(-257.9 -20.32)"/><path class="cls-3" d="M568.1,302.5c0,0.1.1,0.3,0.1,0.4a0.71,0.71,0,0,0,.8-0.7,7.39,7.39,0,0,0,0,2.1,1,1,0,0,0,.8-0.6,4.65,4.65,0,0,0-.6,2.3,2.29,2.29,0,0,0,1-.7c-0.3,1.4-.6,2.8-0.9,4.3a2.1,2.1,0,0,0,1.1-.4c0.2,0.6.4,1.1,0.6,1.7a1.69,1.69,0,0,0,.3.6c0.2,0.1.5,0.1,0.5-.1a4,4,0,0,1,.3,1.5c0.2-1,.4-2.1.6-3.1" transform="translate(-257.9 -20.32)"/><path class="cls-4" d="M556.9,307.5a0.73,0.73,0,0,1-.2,1.1,2.22,2.22,0,0,1-1.1.5,1.72,1.72,0,0,1,1.2,1c-0.3,0-.3.4-0.3,0.7,0.1,0.5.1,1,.2,1.5" transform="translate(-257.9 -20.32)"/><path class="cls-4" d="M568.2,309.3a2.35,2.35,0,0,1-1.2,2.1,0.6,0.6,0,0,1-.4.1c-0.1,0-.2-0.1-0.3-0.1a1,1,0,0,0-.7.4,7.61,7.61,0,0,0-1.2,1.9c-0.1-.2-0.2-0.3-0.3-0.5" transform="translate(-257.9 -20.32)"/><path class="cls-4" d="M572.4,311.8a2.69,2.69,0,0,1-1.5,1.8,23.42,23.42,0,0,0-4,3.7" transform="translate(-257.9 -20.32)"/><path class="cls-4" d="M575,308.4c0,1.3,0,2.7-.1,4a0.81,0.81,0,0,1-.4.8" transform="translate(-257.9 -20.32)"/><path class="cls-4" d="M571.3,307.4c0.4,2.1.8,4.2,1.2,6.4a5,5,0,0,1,.1,2.1,2.92,2.92,0,0,1-.7,1.2,6.88,6.88,0,0,1-4.2,2.7,1.22,1.22,0,0,1-.6,0,1.69,1.69,0,0,1-.6-0.3,12,12,0,0,0-4.9-1.4" transform="translate(-257.9 -20.32)"/><path class="cls-4" d="M555.2,311.8c0.3,0.7.5,1.4,0.8,2.2" transform="translate(-257.9 -20.32)"/><path class="cls-4" d="M556.6,314.7a6.91,6.91,0,0,0,3.2,2.1,12.66,12.66,0,0,1,1.8.6,1.49,1.49,0,0,0,1.4.3" transform="translate(-257.9 -20.32)"/><path class="cls-4" d="M560.9,309.4c0.2,1,.4,2.1.5,3.1" transform="translate(-257.9 -20.32)"/><path d="M574.3,293.3a17.26,17.26,0,0,1,2.6.5,19.11,19.11,0,0,1,5.4,2.4,11.31,11.31,0,0,1,1.3,1,12,12,0,0,1,1.2,1.1,10,10,0,0,1,1,1.1,7.63,7.63,0,0,1,.8,1.1,8.8,8.8,0,0,0,.6,1,6.89,6.89,0,0,0,.3.8,5.94,5.94,0,0,1,.3.7,0.68,0.68,0,0,1-.4.8,0.48,0.48,0,0,1-.6-0.2l-0.1-.1a3.61,3.61,0,0,1-.4-0.5,10.91,10.91,0,0,0-1.1-1.3,6,6,0,0,0-.8-0.8,9,9,0,0,0-1-.9,19.52,19.52,0,0,0-2.3-1.7,20.67,20.67,0,0,0-2.5-1.5c-0.8-.5-1.6-0.8-2.3-1.2a19.59,19.59,0,0,0-2.3-1,0.68,0.68,0,0,1-.4-0.8A0.64,0.64,0,0,1,574.3,293.3Z" transform="translate(-257.9 -20.32)"/><path d="M532.1,303.4a12,12,0,0,1,1.1-2.5,22.23,22.23,0,0,1,1.5-2.3,24,24,0,0,1,2.2-2.4,6.89,6.89,0,0,1,1.3-1.1,10.15,10.15,0,0,1,1.3-.9,9.15,9.15,0,0,1,1.4-.7,11.22,11.22,0,0,1,1.3-.5,10,10,0,0,1,2-.4H545a0.79,0.79,0,0,1,.8.8,1,1,0,0,1-.4.7l-0.1.1-0.6.3a4.87,4.87,0,0,1-.7.3,7.25,7.25,0,0,1-.9.5,8.79,8.79,0,0,1-1,.6c-0.3.2-.7,0.4-1.1,0.7-0.7.5-1.5,1.1-2.2,1.7s-1.4,1.3-2.1,2-1.2,1.3-1.7,1.9c-1,1.1-1.6,1.9-1.6,1.9a0.79,0.79,0,0,1-1.1.1A0.78,0.78,0,0,1,532.1,303.4Z" transform="translate(-257.9 -20.32)"/><path d="M669.1,295.6a20.36,20.36,0,0,0-2,1.5c-0.6.5-1.3,1-2,1.6s-1.4,1.3-2.1,2a12.39,12.39,0,0,0-1.8,2.2c-0.3.4-.5,0.7-0.8,1.1a5.29,5.29,0,0,0-.6,1,5.89,5.89,0,0,0-.8,1.6l-0.3.6v0.1a0.54,0.54,0,0,1-.8.2,0.6,0.6,0,0,1-.3-0.6,3.2,3.2,0,0,1,.1-0.7,5.07,5.07,0,0,1,.2-0.9c0.1-.3.2-0.7,0.3-1.1a6.12,6.12,0,0,1,.5-1.2c0.2-.4.5-0.9,0.7-1.3s0.6-.9.9-1.3a12,12,0,0,1,1.1-1.2,20,20,0,0,1,4.8-3.5,15.12,15.12,0,0,1,2.5-1,0.68,0.68,0,0,1,.8.4A1.76,1.76,0,0,1,669.1,295.6Z" transform="translate(-257.9 -20.32)"/><path d="M710.7,296.7l-2-1.5c-0.6-.4-1.3-1-2.1-1.5l-2.4-1.5a14.24,14.24,0,0,0-2.5-1.2,6.12,6.12,0,0,0-1.2-.5c-0.4-.1-0.7-0.3-1.1-0.4a9.45,9.45,0,0,1-.9-0.3,6.37,6.37,0,0,1-.7-0.2c-0.4-.1-0.7-0.2-0.7-0.2H697a0.83,0.83,0,0,1-.5-1,0.63,0.63,0,0,1,.6-0.5,2.77,2.77,0,0,1,.8-0.1,6.62,6.62,0,0,1,2,0,7.84,7.84,0,0,1,1.4.2,8.33,8.33,0,0,1,1.5.4,9.38,9.38,0,0,1,1.5.6,10.93,10.93,0,0,1,1.5.8,17.42,17.42,0,0,1,2.6,1.9c0.8,0.7,1.4,1.4,2,2a10.8,10.8,0,0,1,1.6,2.2,0.8,0.8,0,0,1-.3,1.1A2.37,2.37,0,0,1,710.7,296.7Z" transform="translate(-257.9 -20.32)"/><path d="M582.8,324.1a1.24,1.24,0,0,1-.3.2l-1,.5a36.17,36.17,0,0,1-3.6,1.5,45.36,45.36,0,0,1-5.4,1.5,28.68,28.68,0,0,1-3.1.5l-3.2.3c-1.1.1-2.2,0-3.3,0a29.63,29.63,0,0,1-3.1-.3,25,25,0,0,1-2.9-.5c-0.9-.2-1.8-0.4-2.6-0.6a36.61,36.61,0,0,1-3.7-1.3c-0.9-.4-1.4-0.6-1.4-0.6a0.52,0.52,0,0,1-.3-0.7,0.54,0.54,0,0,1,.6-0.3h0a13.08,13.08,0,0,1,1.4.4c0.4,0.1,1,.3,1.6.4s1.3,0.2,2.1.4a18.66,18.66,0,0,0,2.5.4l2.8,0.3a15.06,15.06,0,0,0,3,.1c1,0,2.1,0,3.1-.1a16.28,16.28,0,0,0,3.1-.3c1-.1,2-0.3,3-0.4s1.9-.3,2.8-0.5,1.7-.4,2.4-0.6c1.5-.4,2.8-0.8,3.6-1.1a9.25,9.25,0,0,1,1-.3,1,1,0,0,1,.4-0.1h0a0.7,0.7,0,0,1,.9.4A0.91,0.91,0,0,1,582.8,324.1Z" transform="translate(-257.9 -20.32)"/><path d="M663.9,321a1.58,1.58,0,0,1,.4.1,6.21,6.21,0,0,0,1,.3c0.9,0.3,2.1.6,3.6,1a18.42,18.42,0,0,0,2.5.5c0.9,0.2,1.8.3,2.8,0.5s2,0.3,3,.3a30.28,30.28,0,0,0,3.1.2c1,0.1,2.1,0,3.1,0s2-.1,3-0.2l2.8-.3a18.42,18.42,0,0,0,2.5-.5c0.8-.2,1.5-0.3,2.1-0.5s1.1-.3,1.6-0.5a13.08,13.08,0,0,1,1.4-.4h0a0.44,0.44,0,0,1,.6.4,0.54,0.54,0,0,1-.3.6s-0.5.2-1.3,0.6a20.78,20.78,0,0,1-3.7,1.4,18.24,18.24,0,0,1-2.5.7,24.75,24.75,0,0,1-2.9.6c-1,.1-2.1.3-3.1,0.3s-2.2.1-3.3,0.1-2.2-.1-3.2-0.2-2.1-.3-3.1-0.4a52.52,52.52,0,0,1-5.4-1.4,33.29,33.29,0,0,1-3.7-1.4l-1-.5a1.24,1.24,0,0,1-.3-0.2,0.69,0.69,0,0,1-.3-0.9c-0.1-.2.2-0.3,0.6-0.2h0Z" transform="translate(-257.9 -20.32)"/><path d="M722.6,369.1l-0.5,3.5a70.76,70.76,0,0,1-1.5,7.5,50.68,50.68,0,0,1-2.2,7.4q-0.6,1.5-.9,2.4a4.11,4.11,0,0,1-.4.9,0.76,0.76,0,0,1-1.4-.6h0l0.3-.9c0.2-.5.5-1.4,0.8-2.3a49.58,49.58,0,0,0,1.7-7.3c0.5-2.7.9-5.4,1.1-7.4s0.3-3.4.3-3.4a1.27,1.27,0,0,1,1.4-1.2,1.24,1.24,0,0,1,1.3,1.4h0Z" transform="translate(-257.9 -20.32)"/><path d="M513,371s0.4,1.6,1,3.9,1.6,5.5,2.7,8.5,2.4,6.1,3.4,8.2a19.23,19.23,0,0,0,1.4,2.6,10.38,10.38,0,0,1,.6,1h0a0.74,0.74,0,0,1-1.3.7,10.4,10.4,0,0,0-.6-1c-0.4-.6-0.9-1.5-1.5-2.6-1.2-2.2-2.6-5.2-3.9-8.3s-2.3-6.2-3.1-8.6-1.2-4-1.2-4h0a1.28,1.28,0,0,1,.9-1.6A1.86,1.86,0,0,1,513,371h0Z" transform="translate(-257.9 -20.32)"/><path class="cls-3" d="M645.4,384s1.7-6.7,0-10.2" transform="translate(-257.9 -20.32)"/><path d="M640.7,361.7s-0.6-2-1.3-5a112.38,112.38,0,0,1-1.9-11.2c-0.2-2.1-.4-4.1-0.5-6.1a27.16,27.16,0,0,1-.1-2.8v-2.5c0-1.5.1-2.8,0.1-3.7a7.91,7.91,0,0,1,.1-1.4,0.2,0.2,0,1,1,.4,0h0v5.1a21.76,21.76,0,0,0,.1,2.5c0.1,0.9.1,1.8,0.2,2.8,0.2,1.9.4,4,.7,6a96.74,96.74,0,0,0,2.2,11c0.8,3,1.4,4.9,1.4,4.9a0.88,0.88,0,0,1-.5,1,0.79,0.79,0,0,1-.9-0.6h0Z" transform="translate(-257.9 -20.32)"/><path d="M624.6,359.6s0.4-1.9.7-4.7a100.25,100.25,0,0,0,.8-10.5c0-1.9,0-3.8-.1-5.7s-0.2-3.5-.4-4.9a24.32,24.32,0,0,0-.5-3.5c-0.1-.8-0.2-1.3-0.2-1.3h0a0.35,0.35,0,0,1,.7-0.1s0.1,0.5.2,1.3a34.79,34.79,0,0,1,.6,3.5c0.2,1.4.4,3.1,0.5,5s0.2,3.8.2,5.7c0,3.9-.2,7.8-0.5,10.7s-0.6,4.8-.6,4.8a0.78,0.78,0,0,1-.9.6,0.69,0.69,0,0,1-.5-0.9h0Z" transform="translate(-257.9 -20.32)"/><path class="cls-3" d="M622.8,388.6a20.28,20.28,0,0,1-1.8-12.8" transform="translate(-257.9 -20.32)"/><path d="M706.5,299.4s9.3,3.4,13.4-1.1,1,3.7-.9,5.9-7.1,7.3-7.1,7.3S719.6,303.5,706.5,299.4Z" transform="translate(-257.9 -20.32)"/><path d="M542,302.1s-11,4.1-15.4-.6-0.9,4,1.1,6.2,7.8,7.6,7.8,7.6S528,308.8,542,302.1Z" transform="translate(-257.9 -20.32)"/><path d="M750,557.7a20.33,20.33,0,0,1-1.7,10.6,43.55,43.55,0,0,1-5.6,9.2,92.51,92.51,0,0,1-15.2,14.8,150.4,150.4,0,0,1-17.5,12,117.23,117.23,0,0,1-19.1,9.5l-5,1.6c-1.7.5-3.4,1-5.1,1.4-3.4.9-6.9,1.7-10.4,2.3a208.24,208.24,0,0,1-21,3.1c-7,.7-14.1,1.3-21.1,1.6s-14.1.5-21.1,0.5-14.1-.2-21.1-0.6-14.1-.8-21.1-1.5c-14-1.3-28.1-3.5-41.7-7.6a113,113,0,0,1-19.9-7.9,85.55,85.55,0,0,1-17.8-12A66.82,66.82,0,0,1,471.9,578a75.68,75.68,0,0,1-8.1-20,1.06,1.06,0,0,1-.3-2.1l1.8-.2a22.64,22.64,0,0,1,2.5-.1,17.71,17.71,0,0,1,2.3.1,34.41,34.41,0,0,1,4.5.5,85.47,85.47,0,0,1,8.8,1.7c1.5,0.3,2.9.7,4.3,1.1s2.8,0.8,4.3,1.3l4.2,1.4,4.2,1.5a1.11,1.11,0,0,1-.7,2.1h0l-4.2-1.3-4.2-1.2c-1.4-.4-2.8-0.7-4.2-1.1s-2.8-.7-4.3-0.9a81,81,0,0,0-8.6-1.3c-1.4-.1-2.9-0.2-4.3-0.2h-2.1a10.07,10.07,0,0,0-1.9.2l1.5-2.3a72.89,72.89,0,0,0,7.7,18.9A70.27,70.27,0,0,0,488,591.9a79.81,79.81,0,0,0,17,11.6,110,110,0,0,0,19.2,7.7c13.3,4.1,27.1,6.2,41,7.7,7,0.7,13.9,1.3,20.9,1.7s14,0.7,21,.7,14,0,21-.3,14-.8,20.9-1.4,13.9-1.6,20.7-2.9c3.4-.6,6.8-1.4,10.2-2.2,1.7-.5,3.3-0.9,5-1.4l5-1.6a115.19,115.19,0,0,0,18.7-9.1A165.38,165.38,0,0,0,726,590.7a93,93,0,0,0,15.1-14.3,39.85,39.85,0,0,0,5.5-8.7,18.84,18.84,0,0,0,1.8-9.9,0.76,0.76,0,0,1,.6-0.8,0.85,0.85,0,0,1,1,.7h0Z" transform="translate(-257.9 -20.32)"/><path d="M714.3,568.6a126,126,0,0,1,15.4-7.1,91.79,91.79,0,0,1,16.3-4.6l2.1-.3,1.1-.2a2.36,2.36,0,0,1,1.2.1,10.38,10.38,0,0,1,1.2.3c0.4,0.1.7,0.3,1.1,0.4a11.78,11.78,0,0,1,1.9,1.1,58.57,58.57,0,0,1,6.9,5.1c4.3,3.6,8.4,7.5,12.5,11.4s8,7.9,11.8,12l2.9,3a14.15,14.15,0,0,1,2.7,3.6,8.4,8.4,0,0,1,.8,4.7,15.78,15.78,0,0,1-1.1,4.4,49.89,49.89,0,0,1-4,7.6c-0.8,1.2-1.5,2.4-2.4,3.6s-1.6,2.3-2.5,3.4A135,135,0,0,1,771.1,630a169,169,0,0,1-25.9,21.8,224.32,224.32,0,0,1-29.2,17,286.18,286.18,0,0,1-31.4,12.7,261.32,261.32,0,0,1-32.7,8.4,223,223,0,0,1-33.6,3.8c-2.8.1-5.6,0.3-8.5,0.3h-8.5c-5.6-.2-11.3-0.4-16.9-0.9a272.67,272.67,0,0,1-33.5-4.7c-11-2.2-22-4.8-32.8-8.1l-4.1-1.2-4-1.4-8-2.7a76.08,76.08,0,0,1-7.9-3.1l-7.8-3.3c-10.1-4.9-20.2-10.2-29.3-16.9a139.15,139.15,0,0,1-25.1-22.8,102.3,102.3,0,0,1-9.9-13.8,71,71,0,0,1-7.3-15.5v0.1a4.42,4.42,0,0,1-.2-1.5,5,5,0,0,1,.2-1.2,10.23,10.23,0,0,1,.8-2.1,22.55,22.55,0,0,1,2.4-3.6,28.68,28.68,0,0,1,2.9-3.1,41.2,41.2,0,0,1,3.1-2.8c4.2-3.7,8.5-7.2,12.8-10.7s8.8-6.8,13.4-10c2.3-1.6,4.6-3.1,7.1-4.5a33.85,33.85,0,0,1,3.8-2,11.37,11.37,0,0,1,4.3-1.2,0.75,0.75,0,1,1,.1,1.5h-0.1a13.41,13.41,0,0,0-3.6,1.1c-1.2.6-2.4,1.2-3.6,1.9-2.4,1.4-4.6,2.9-6.9,4.5-4.5,3.2-8.9,6.5-13.2,10s-8.5,7-12.6,10.7a39.75,39.75,0,0,0-3,2.8,19.28,19.28,0,0,0-2.7,3,14.22,14.22,0,0,0-2.1,3.3c-0.3.6-.5,1.2-0.7,1.7a2.48,2.48,0,0,0-.1.8V599a72.23,72.23,0,0,0,7.2,14.8,98.74,98.74,0,0,0,9.8,13.5,134.37,134.37,0,0,0,24.7,22.3c9,6.6,18.9,11.8,28.9,16.6l7.7,3.2a73.76,73.76,0,0,0,7.8,3l8,2.7,4,1.4,4,1.2c10.7,3.2,21.6,5.8,32.6,8a287.7,287.7,0,0,0,33.2,4.5c5.6,0.5,11.1.6,16.7,0.9h8.4c2.8,0,5.6-.2,8.4-0.3a231,231,0,0,0,33.2-3.7,244.4,244.4,0,0,0,32.4-8.3,286.73,286.73,0,0,0,31-12.5,223.7,223.7,0,0,0,28.9-16.7,164.17,164.17,0,0,0,25.6-21.4,129.46,129.46,0,0,0,10.9-12.6c0.9-1.1,1.6-2.3,2.5-3.4s1.6-2.3,2.3-3.4a41.88,41.88,0,0,0,3.9-7.2c1-2.5,1.5-5.1.4-7.2a15.49,15.49,0,0,0-2.3-3.1l-2.9-3c-3.9-4.1-7.7-8.1-11.7-12s-8-7.8-12.3-11.4a63.57,63.57,0,0,0-6.6-5c-0.6-.3-1.2-0.7-1.7-1a3.55,3.55,0,0,0-.9-0.4,3.09,3.09,0,0,0-.8-0.2,2.77,2.77,0,0,0-.9-0.1l-1,.1-2.1.3a106.58,106.58,0,0,0-31.3,11.2h0a0.69,0.69,0,0,1-1-.3A1.19,1.19,0,0,1,714.3,568.6Z" transform="translate(-257.9 -20.32)"/><path class="cls-3" d="M422.8,617.8s-21.4,18.4-25.5,20.4-5.6,4.6-4.6,7.7,32.7,83.7,33.7,110.2,0,27.6,4.6,33.7" transform="translate(-257.9 -20.32)"/><polygon points="134.8 625.48 123.5 630.08 166.9 769.48 170.2 764.28 168.8 744.98 134.8 625.48"/><path class="cls-1" d="M381.4,650.4s-21.9,9.2-28.1,9.7-17.4,8.2-23,14.8-15.8,27-18.4,33.2-12.8,24-11.7,40.8" transform="translate(-257.9 -20.32)"/><path class="cls-1" d="M303.2,729.2S288,759.7,286,763.3s-27.6,40.3-27.6,75" transform="translate(-257.9 -20.32)"/><path class="cls-1" d="M784.1,612.7s9.2,14.3,24.5,23.5,27,15.8,35.7,18.9,14.3,3.1,14.3,9.2-0.5,20.4,0,42.9,4.6,17.9,5.1,32.7-3.6,27-3.6,43.9-1.5,26,.5,30.6" transform="translate(-257.9 -20.32)"/><path class="cls-1" d="M860.3,778.1a167.4,167.4,0,0,1,3.5,17.8c1,8.1,1.5,16.8,5.1,25.5a147,147,0,0,0,11.7,23.5" transform="translate(-257.9 -20.32)"/><path class="cls-1" d="M858.6,666.8s5.6-1.5,17.4,11.7,26,42.4,26.5,56.1,3.1,24.5,6.6,30.6,10.2,28.1,12.2,38.3,4.6,21.4,7.1,25" transform="translate(-257.9 -20.32)"/><path d="M642.2,289.7s-1.7,3.5-3,7.1a34.65,34.65,0,0,0-1.5,5.1,24.2,24.2,0,0,0-.4,2.4,18.8,18.8,0,0,1,.2-2.4,43.82,43.82,0,0,1,1-5.3c1-3.8,2.3-7.5,2.3-7.5a0.83,0.83,0,0,1,1-.5,0.9,0.9,0,0,1,.4,1.1h0Z" transform="translate(-257.9 -20.32)"/><path d="M592.4,429.1c0.9,0.7,0,3.4,0,3.4l-3.1-7.4,3.1-.4C592.4,424.8,591.5,428.4,592.4,429.1Z" transform="translate(-257.9 -20.32)"/><path d="M668,428c-0.9.8,0.6,3.3,0.6,3.3l3.6-6.7-3.8-.5C668.5,424.1,668.9,427.2,668,428Z" transform="translate(-257.9 -20.32)"/><ellipse cx="718.92" cy="355.56" rx="3.8" ry="3.1" transform="translate(38.82 1017.17) rotate(-84.55)"/><path d="M811.4,356.3c0-5.4-6,10.3-12.4,15-5.4,4.1-17.7,3.2-21,4.1,2.8-1.6,12.5-8,12.5-14.8,0-8.5-5.5-15-5.5-15s1.3,15.9-10.8,20.9c-8.1,3.4-17.6,6.5-18.3-6.5s24.8-67.2,27.7-84.9,8.2-45-7.5-74.4-36.6-51.6-37.2-69.2-19.6-62-33.9-79-50.1-36.6-89-31.3-95,14.4-132.9,62-69.2,109.7-52.2,154.7,40.5,79.6,40.5,91.4,5.9,28.1-6.5,38.5-32,11.3-38.5,3.5-6.5-14.2-6.5-15-7.2,8.3-3.9,17.5,6,9.5,9.1,13.7c3.7,4.9-20.5-3.2-28.3-13.7s-5.6-14.4-5.6-23.5-5.2,6.1-6.5,13.9,4.6,19.8,13.7,33.7c8.2,12.6,13.1,17.6,16.3,20.9s18.9,21.5,45,20.9,45.5-3.1,56.1,0,12.8,6.1,12.8,6.1-22.8-47.2-24.1-53-7.9-65.3-7.9-69.3S500,245,500,245s30,8.2,53.7,6.7c38.9-2.5,49.1-11.6,58.4-11.6,6.1,0-21.6,12.2-24.4,13.5-4.8,2.2,66.6-15.7,82.9-26.1s35.9-24.8,37.9-29.4c0,0,3.7,4.5,12.2,15.4s12.6,33.9,13.9,45-1.5,61.3-3.5,88.2-8.7,68.4-11.6,73.4c-7.4,12.6,3.4,5.8,3.4,5.8s28.1-4.6,32-5.9l3.9-1.3c14.4-9.1,30.1-4.7,46.6-30.5C813.2,375.5,811.4,361.7,811.4,356.3ZM620,195.2c2.8-1.1,5.5-2.3,8.1-3.5,1.3-.6,2.5-1.3,3.8-1.9s2.4-1.2,3.6-1.9,2.3-1.3,3.4-1.9,2.1-1.3,3.1-1.9c2-1.2,3.7-2.4,5.3-3.4a38.64,38.64,0,0,0,4-2.8c2.2-1.6,3.4-2.5,3.4-2.5l0.4,0.6s-1.2,1-3.2,2.8c-1,.9-2.3,1.9-3.8,3l-2.4,1.8c-0.9.6-1.8,1.2-2.8,1.9s-2,1.3-3,2-2.2,1.3-3.3,2c-2.3,1.4-4.8,2.7-7.4,4s-5.3,2.6-8.2,3.7-5.8,2.2-8.7,3.2-5.9,1.8-8.9,2.5-5.9,1.3-8.8,1.9c-1.4.3-2.9,0.4-4.2,0.6s-2.7.4-4.1,0.5-2.6.2-3.9,0.4-2.5.1-3.6,0.2-2.3.1-3.3,0.1h-3a36.24,36.24,0,0,1-4.9-.2l-4.2-.3v-0.7h4.2c1.3,0,3,0,4.8-.1,0.9,0,1.9-.1,3-0.1l3.3-.3,3.6-.3c1.2-.2,2.5-0.3,3.8-0.5,2.6-.3,5.3-0.9,8.2-1.3,2.8-.6,5.7-1.1,8.6-2,2.9-.7,5.8-1.7,8.8-2.6C614.3,197.3,617.2,196.3,620,195.2ZM558.9,191s0.6,0,1.7-.1,2.7-.1,4.5-0.2c3.8-.1,8.7-0.5,13.7-1a69.91,69.91,0,0,0,7.1-1.2,29.92,29.92,0,0,0,3.2-.8c1-.3,2-0.5,2.9-0.8a13.49,13.49,0,0,0,2.4-.8,17.07,17.07,0,0,0,1.8-.7c1-.4,1.6-0.6,1.6-0.6l0.4,0.7a9.2,9.2,0,0,1-1.5.9c-0.5.3-1.1,0.6-1.8,1a13.35,13.35,0,0,1-2.4,1.1c-0.9.4-1.9,0.7-2.9,1.1a31.8,31.8,0,0,1-3.3,1c-1.2.3-2.4,0.5-3.6,0.7s-2.5.4-3.8,0.5a63.42,63.42,0,0,1-7.4.4c-2.4,0-4.6,0-6.5-.1-3.8-.2-6.3-0.4-6.3-0.4Zm-10.7,5.9a0.57,0.57,0,0,1,.7-0.4s1,0.2,2.8.5c0.9,0.1,2,.3,3.2.4l4.2,0.3c1.5,0.1,3.2.1,5,.1a54.3,54.3,0,0,0,5.6-.2c1.9-.1,3.9-0.3,5.9-0.5,1-.1,2-0.3,3-0.4s2-.3,3-0.5c2-.3,4-0.8,6-1.2s4-.9,5.9-1.4c3.8-.9,7.3-1.7,10.3-2.5a39.57,39.57,0,0,0,7-2.4c0.8-.4,1.4-0.8,1.8-1a7.23,7.23,0,0,0,.7-0.4,0.58,0.58,0,1,1,.6,1h0a4.57,4.57,0,0,0-.6.4q-0.6.45-1.8,1.2a31.17,31.17,0,0,1-7.1,2.9c-3,.9-6.5,1.9-10.3,2.9-1.9.5-3.9,0.9-5.9,1.4s-4.1.9-6.1,1.3-4.2.7-6.2,0.9-4.1.4-6.1,0.5-3.9.1-5.7,0.1-3.5-.2-5.1-0.3a46.79,46.79,0,0,1-10.4-1.9A0.63,0.63,0,0,1,548.2,196.9Zm-48.8,18.7s1.2,0.3,3.1.7,4.3,0.9,6.8,1.4,5,0.9,6.8,1.2c0.9,0.2,1.7.3,2.3,0.4a5.1,5.1,0,0,0,.9.1V220a27.39,27.39,0,0,1-3.2,0,50.08,50.08,0,0,1-7-.8,43.5,43.5,0,0,1-6.8-1.9c-1.8-.7-3-1.2-3-1.2ZM486.6,223a12.56,12.56,0,0,1,1.2.4c0.8,0.2,1.9.6,3.2,0.9s2.9,0.8,4.6,1.2,3.5,0.8,5.3,1.2,3.6,0.7,5.3,1,3.3,0.5,4.7.7c2.7,0.4,4.6.7,4.6,0.7v0.6a42,42,0,0,1-4.7-.1c-1.4-.1-3-0.2-4.8-0.5s-3.6-.5-5.4-0.9-3.6-.8-5.3-1.3-3.2-1-4.5-1.5c-2.6-1-4.3-1.8-4.3-1.8Zm-12.8,43.2a21,21,0,0,1-1-2.5,46.25,46.25,0,0,1-1.5-5.7,49.06,49.06,0,0,1-.7-5.9,19.53,19.53,0,0,1,0-2.7l0.7-.1s0.2,1.1.5,2.6,0.7,3.7,1.1,5.7,0.8,4.2,1.1,5.7,0.5,2.6.5,2.6Zm53.8-24.3s-0.9,0-2.4-.1-3.6-.2-6.2-0.5-5.6-.6-8.7-1.1c-1.6-.3-3.2-0.5-4.9-0.8s-3.3-.7-5-1c-3.4-.8-6.7-1.5-9.8-2.4s-6-1.7-8.4-2.5c-4.9-1.6-8.1-2.9-8.1-2.9l0.2-.5s0.8,0.2,2.3.7l6,1.7c2.5,0.7,5.4,1.5,8.5,2.2s6.4,1.5,9.8,2.2,6.7,1.3,9.9,1.9,6.1,1,8.6,1.4c5.1,0.8,8.5,1.3,8.5,1.3Zm24.3-25.3a58.6,58.6,0,0,1-6.1-1.8l0.2-.6s2.5,0.6,6.2,1.3c1.9,0.4,4,.7,6.4,1.1s4.8,0.7,7.3,1,5,0.5,7.4.6,4.6,0.3,6.4.3H586l0.1,0.9s-0.6.1-1.7,0.2-2.7.2-4.6,0.3c-1,0-2,.1-3.1,0s-2.3,0-3.4-.1q-3.6-.15-7.5-0.6c-2.5-.3-5-0.7-7.4-1.1S553.8,217.1,551.9,216.6Zm39.6,12.3a28.18,28.18,0,0,1-4.1.6c-0.8.1-1.8,0.2-2.7,0.3a30.28,30.28,0,0,1-3.1.2c-2.1.1-4.4,0.1-6.7,0s-4.5-.3-6.7-0.5-4.1-.6-5.7-0.9c-3.3-.7-5.5-1.4-5.5-1.4l0.1-.6s2.2,0.4,5.6.8q2.55,0.3,5.7.6c1,0.1,2.1.2,3.2,0.2s2.2,0.1,3.3.1c2.2,0.1,4.5.1,6.6,0.1s4.1-.1,5.7-0.2a29.47,29.47,0,0,0,4-.4c1-.1,1.5-0.1,1.5-0.1l0.2,0.9A12.88,12.88,0,0,1,591.5,228.9Zm91.3-45c-0.6.6-1.3,1.2-2.1,1.9s-1.7,1.4-2.6,2.1-1.9,1.6-3,2.4-2.2,1.6-3.4,2.5-2.4,1.8-3.7,2.7-2.7,1.8-4.1,2.7-2.9,1.8-4.4,2.7-3.1,1.8-4.7,2.7c-3.3,1.7-6.6,3.5-10.2,5-3.5,1.7-7.1,3.1-10.8,4.5s-7.4,2.6-11.1,3.6c-3.7,1.2-7.4,2-11,2.8-1.8.4-3.6,0.7-5.3,1s-3.4.6-5.1,0.8-3.3.4-4.9,0.7-3.1.3-4.6,0.4-2.9.3-4.2,0.3-2.6.1-3.8,0.1-2.3.1-3.3,0.1h-2.8c-3.4-.1-5.4-0.1-5.4-0.1v-0.7s1.9-.1,5.3-0.2c0.8,0,1.8,0,2.8-.1a32.51,32.51,0,0,1,3.3-.2c1.2-.1,2.4-0.2,3.8-0.3s2.7-.3,4.1-0.5,3-.3,4.5-0.5,3.1-.5,4.8-0.8a49.12,49.12,0,0,0,5-1c1.7-.4,3.5-0.7,5.2-1.1,3.5-.9,7.2-1.7,10.8-2.9,3.7-1,7.3-2.4,11-3.7,3.6-1.5,7.2-2.8,10.7-4.4s6.8-3.3,10.1-4.9c1.6-.9,3.1-1.8,4.7-2.6s3-1.7,4.4-2.6,2.8-1.7,4.1-2.5,2.6-1.7,3.8-2.5,2.3-1.6,3.4-2.4,2.1-1.5,3-2.2,1.8-1.4,2.7-2,1.5-1.2,2.2-1.8c2.7-2.1,4.2-3.4,4.2-3.4l0.5,0.5C686.7,180.3,685.3,181.6,682.8,183.9ZM697.3,127s-0.5-.4-1.4-1-2.1-1.6-3.6-2.8c-2.9-2.4-6.9-5.4-11-8.2-2.1-1.4-4.2-2.7-6.2-3.8-1-.6-2-1.1-2.9-1.6s-1.8-.9-2.7-1.3-1.6-.7-2.3-1-1.3-.5-1.8-0.7a11,11,0,0,1-1.6-.6l0.2-.7,1.7,0.3c0.6,0.1,1.2.2,2,.4s1.6,0.4,2.5.7,1.9,0.7,2.9,1.1,2.1,0.9,3.1,1.4,2.1,1.2,3.2,1.8,2.1,1.4,3.2,2.1a54.59,54.59,0,0,1,5.9,4.6c1.8,1.6,3.4,3,4.8,4.3,2.7,2.6,4.4,4.5,4.4,4.5Zm9.4,2.5a0.52,0.52,0,0,1-.7-0.3s-0.4-.9-1.3-2.5c-0.5-.8-1-1.7-1.7-2.8s-1.5-2.2-2.4-3.5-1.9-2.6-3-4-2.3-2.8-3.6-4.3-2.7-2.9-4.1-4.3c-0.7-.7-1.5-1.4-2.2-2.1l-2.3-2.1c-1.5-1.4-3.1-2.7-4.7-4s-3.2-2.5-4.7-3.8c-3-2.5-5.9-4.7-8.4-6.5a34.25,34.25,0,0,0-6.2-4c-0.8-.4-1.5-0.6-1.9-0.8s-0.7-.3-0.7-0.3a0.63,0.63,0,0,1-.3-0.8,0.52,0.52,0,0,1,.7-0.3h0a3.13,3.13,0,0,0,.7.2c0.5,0.2,1.1.3,2,.7a34.78,34.78,0,0,1,6.7,3.8c2.6,1.8,5.5,4,8.7,6.3,1.5,1.2,3.1,2.5,4.7,3.7s3.3,2.6,4.8,4,3.1,2.8,4.6,4.3,2.8,3,4.1,4.5,2.5,3,3.6,4.4,2,2.9,2.9,4.2a51.93,51.93,0,0,1,5,9.3C707.2,129.1,707,129.4,706.7,129.5Zm0.2-13.2s-0.6-1.2-1.6-3.3c-0.5-1.1-1.2-2.3-1.9-3.7-0.4-.7-0.8-1.5-1.2-2.2l-1.5-2.4c-1-1.7-2.3-3.4-3.5-5.3-0.6-.9-1.4-1.8-2.1-2.8s-1.5-1.9-2.3-2.8-1.6-1.9-2.4-2.8-1.7-1.8-2.6-2.8a35.7,35.7,0,0,0-2.8-2.7c-0.9-.9-1.9-1.8-2.9-2.7s-2-1.7-3-2.6l-3-2.4c-1-.8-2-1.5-3.1-2.3s-2-1.5-3.1-2.2c-2.1-1.3-4-2.7-6-3.8s-3.8-2.2-5.5-3.1-3.4-1.7-4.8-2.4-2.7-1.3-3.8-1.8c-2.1-1-3.3-1.5-3.3-1.5l0.3-.7s1.3,0.4,3.4,1.2q1.65,0.6,3.9,1.5c1.5,0.6,3.2,1.3,5,2.2s3.8,1.8,5.8,2.9,4.1,2.4,6.2,3.7c1.1,0.6,2.1,1.4,3.2,2.1s2.1,1.5,3.2,2.3,2.1,1.6,3.1,2.4,2,1.8,3,2.6,2,1.8,2.9,2.7,1.9,1.8,2.8,2.8,1.8,1.9,2.6,2.9,1.6,2,2.4,2.9,1.5,2,2.2,2.9,1.4,1.9,2,2.9c1.2,1.9,2.5,3.7,3.4,5.5a45,45,0,0,1,2.5,4.8c0.7,1.5,1.3,2.7,1.7,3.8,0.8,2.2,1.3,3.4,1.3,3.4Zm4.9,2.9s-0.6-2.4-1.7-6.1c-0.5-1.8-1.3-3.9-2-6.1s-1.6-4.6-2.5-6.9-1.9-4.7-2.8-6.8-1.9-4.2-2.8-5.8-1.6-3.1-2.1-4-0.8-1.5-.8-1.5l0.8-.5s0.3,0.5,1,1.5a46.18,46.18,0,0,1,2.4,4q0.75,1.2,1.5,2.7a29.62,29.62,0,0,1,1.5,3.1c1,2.2,2,4.5,2.9,6.9s1.7,4.8,2.4,7.1,1.2,4.4,1.7,6.3a57.39,57.39,0,0,1,1.2,6.3Zm5.4-4s-0.3-2.2-.9-5.5c-0.3-1.7-.8-3.6-1.2-5.6-0.2-1-.5-2.1-0.8-3.1s-0.6-2.1-.9-3.2c-0.6-2.2-1.3-4.3-2-6.3s-1.3-3.8-2-5.4a39.54,39.54,0,0,0-1.6-3.7c-0.4-.9-0.6-1.4-0.6-1.4l0.8-.4s0.3,0.5.8,1.4a40,40,0,0,1,1.9,3.7c0.4,0.8.7,1.6,1.1,2.5a19.5,19.5,0,0,1,1.1,2.9c0.7,2,1.4,4.2,2,6.4s1.1,4.4,1.5,6.5,0.7,4.1.9,5.8a54,54,0,0,1,.4,5.7ZM745,246a23.63,23.63,0,0,1-.2,3c-0.1.8-.2,1.5-0.3,1.9a3.2,3.2,0,0,0-.1.7l-0.7-.1a4.18,4.18,0,0,1,.1-0.7c0.1-.4.1-1.1,0.2-1.9a25.33,25.33,0,0,0,.1-2.9c0-1.1-.1-2.4-0.2-3.8a53,53,0,0,0-1.9-9.3,97.77,97.77,0,0,0-3.6-10.3,149,149,0,0,0-9-18.3c-1.4-2.4-2.7-4.4-3.5-5.7s-1.4-2.1-1.4-2.1l0.6-.4s0.6,0.8,1.5,2.1c0.5,0.7,1.1,1.5,1.7,2.4s1.4,2,2.1,3.2c1.5,2.4,3.2,5.2,4.8,8.3s3.2,6.5,4.6,10a86.9,86.9,0,0,1,3.6,10.5,53.17,53.17,0,0,1,1.7,9.5C745,243.6,745.1,244.9,745,246Zm7.2-18.4v0.5h-0.7a14.71,14.71,0,0,0-.2-2,34,34,0,0,0-3.7-11.9,79.15,79.15,0,0,0-4.1-7.4,106.83,106.83,0,0,0-9.3-12.8c-2.8-3.3-4.8-5.4-4.8-5.4l0.5-.5s0.5,0.5,1.5,1.4,2.2,2.2,3.7,3.8,3.1,3.6,4.8,5.7,3.3,4.6,4.9,7.1a55.57,55.57,0,0,1,4.1,7.5,35.78,35.78,0,0,1,2.5,7.1,24.83,24.83,0,0,1,.7,5.3A10.37,10.37,0,0,1,752.2,227.6Zm0.3-21.4a13.06,13.06,0,0,0-.4-1.4,19.71,19.71,0,0,0-1.6-3.5,32.42,32.42,0,0,0-3-4.6c-1.2-1.6-2.7-3.2-4.1-4.8a88.17,88.17,0,0,0-8.7-8.1c-1.3-1-2.3-1.8-3.1-2.4l-1.2-.9,0.4-.6s1.9,1.1,4.6,3a55.76,55.76,0,0,1,4.4,3.5c1.5,1.4,3.1,2.9,4.7,4.5s2.9,3.3,4.2,5a32.86,32.86,0,0,1,2.9,4.9,19,19,0,0,1,1.3,3.8,8.92,8.92,0,0,1,.2,1.1,0.58,0.58,0,0,0,.1.4Z" transform="translate(-257.9 -20.32)"/><path d="M595.8,283.6l-2.9-2.3c-1.9-1.4-4.6-3.5-8-5.8a113.07,113.07,0,0,0-11.9-7.2,75,75,0,0,0-7-3.3,33,33,0,0,0-7.4-2.2,15.61,15.61,0,0,0-3.7-.2l-0.9.1h-0.4l-0.5.1-2,.4a62.92,62.92,0,0,0-7.4,2.2,84.15,84.15,0,0,0-12.7,5.8,93.5,93.5,0,0,0-8.4,5.3c-1,.7-1.7,1.3-2.2,1.7s-0.7.6-.7,0.6h0a0.79,0.79,0,0,1-1.1-.1,0.76,0.76,0,0,1,0-1,3.57,3.57,0,0,0,.7-0.7c0.5-.5,1.2-1.1,2.1-1.9a89.23,89.23,0,0,1,8.2-6,105.5,105.5,0,0,1,12.7-6.8,54.88,54.88,0,0,1,7.8-2.8l2-.5,0.5-.1a0.49,0.49,0,0,0,.3-0.1l0.3-.1,1.2-.2a17.7,17.7,0,0,1,4.6,0,39,39,0,0,1,8.5,1.9,77.12,77.12,0,0,1,7.7,3,114.53,114.53,0,0,1,12.8,6.8c3.6,2.2,6.6,4.1,8.6,5.5s3.2,2.2,3.2,2.2h0a3.51,3.51,0,1,1-4.1,5.7C596,283.7,595.9,283.7,595.8,283.6Z" transform="translate(-257.9 -20.32)"/><path d="M595.8,278.2a2.4,2.4,0,0,0-.2-0.8,9.41,9.41,0,0,0-.6-1.8,11.41,11.41,0,0,0-.9-1.6c-0.3-.4-0.5-0.7-0.5-0.7a0.71,0.71,0,0,1,.1-1.1,0.76,0.76,0,0,1,.9-0.1h0a3.45,3.45,0,0,1,.8.6,12.07,12.07,0,0,1,1.6,1.6,15.81,15.81,0,0,1,1.3,1.8c0.3,0.5.5,0.9,0.5,0.9l0.1,0.1a1.66,1.66,0,1,1-3,1.4C595.8,278.5,595.8,278.4,595.8,278.2Z" transform="translate(-257.9 -20.32)"/><path d="M591.5,275.1a2.4,2.4,0,0,0-.2-0.8,9.41,9.41,0,0,0-.6-1.8,11.41,11.41,0,0,0-.9-1.6c-0.3-.4-0.5-0.7-0.5-0.7a0.71,0.71,0,0,1,.1-1.1,0.76,0.76,0,0,1,.9-0.1h0a3.45,3.45,0,0,1,.8.6,12.07,12.07,0,0,1,1.6,1.6A15.81,15.81,0,0,1,594,273c0.3,0.5.5,0.9,0.5,0.9l0.1,0.1a1.66,1.66,0,1,1-3,1.4C591.6,275.5,591.6,275.3,591.5,275.1Z" transform="translate(-257.9 -20.32)"/><path d="M587.6,272.7a2.4,2.4,0,0,0-.2-0.8,9.41,9.41,0,0,0-.6-1.8,11.41,11.41,0,0,0-.9-1.6c-0.3-.4-0.5-0.7-0.5-0.7a0.71,0.71,0,0,1,.1-1.1,0.76,0.76,0,0,1,.9-0.1h0a3.45,3.45,0,0,1,.8.6,12.07,12.07,0,0,1,1.6,1.6,15.81,15.81,0,0,1,1.3,1.8c0.3,0.5.5,0.9,0.5,0.9l0.1,0.1a1.66,1.66,0,0,1-3,1.4C587.7,273.1,587.7,272.9,587.6,272.7Z" transform="translate(-257.9 -20.32)"/><path d="M584.6,271.5a2.4,2.4,0,0,0-.2-0.8,9.41,9.41,0,0,0-.6-1.8,11.41,11.41,0,0,0-.9-1.6c-0.3-.4-0.5-0.7-0.5-0.7a0.71,0.71,0,0,1,.1-1.1,0.76,0.76,0,0,1,.9-0.1h0a3.45,3.45,0,0,1,.8.6,12.07,12.07,0,0,1,1.6,1.6,15.81,15.81,0,0,1,1.3,1.8c0.3,0.5.5,0.9,0.5,0.9l0.1,0.1a1.66,1.66,0,1,1-3,1.4A0.44,0.44,0,0,1,584.6,271.5Z" transform="translate(-257.9 -20.32)"/><path d="M580.9,269.1a2.4,2.4,0,0,0-.2-0.8,9.41,9.41,0,0,0-.6-1.8,11.41,11.41,0,0,0-.9-1.6c-0.3-.4-0.5-0.7-0.5-0.7a0.71,0.71,0,0,1,.1-1.1,0.76,0.76,0,0,1,.9-0.1h0a3.45,3.45,0,0,1,.8.6,12.07,12.07,0,0,1,1.6,1.6,15.81,15.81,0,0,1,1.3,1.8c0.3,0.5.5,0.9,0.5,0.9L584,268a1.66,1.66,0,1,1-3,1.4A0.49,0.49,0,0,0,580.9,269.1Z" transform="translate(-257.9 -20.32)"/><path d="M577.8,267.9a2.4,2.4,0,0,0-.2-0.8,9.41,9.41,0,0,0-.6-1.8,11.41,11.41,0,0,0-.9-1.6c-0.3-.4-0.5-0.7-0.5-0.7a0.71,0.71,0,0,1,.1-1.1,0.76,0.76,0,0,1,.9-0.1h0a3.45,3.45,0,0,1,.8.6A12.07,12.07,0,0,1,579,264a15.81,15.81,0,0,1,1.3,1.8c0.3,0.5.5,0.9,0.5,0.9l0.1,0.1a1.66,1.66,0,1,1-3,1.4A1,1,0,0,1,577.8,267.9Z" transform="translate(-257.9 -20.32)"/><path d="M573.7,266.6a2.4,2.4,0,0,0-.2-0.8,9.41,9.41,0,0,0-.6-1.8,11.41,11.41,0,0,0-.9-1.6c-0.3-.4-0.5-0.7-0.5-0.7a0.71,0.71,0,0,1,.1-1.1,0.76,0.76,0,0,1,.9-0.1h0a3.45,3.45,0,0,1,.8.6,12.07,12.07,0,0,1,1.6,1.6,15.81,15.81,0,0,1,1.3,1.8c0.3,0.5.5,0.9,0.5,0.9l0.1,0.1a1.66,1.66,0,0,1-3,1.4C573.8,267,573.7,266.8,573.7,266.6Z" transform="translate(-257.9 -20.32)"/><path d="M572,265.4a2.4,2.4,0,0,0-.2-0.8,9.41,9.41,0,0,0-.6-1.8,11.41,11.41,0,0,0-.9-1.6c-0.3-.4-0.5-0.7-0.5-0.7a0.71,0.71,0,0,1,.1-1.1,0.76,0.76,0,0,1,.9-0.1h0a3.45,3.45,0,0,1,.8.6,12.07,12.07,0,0,1,1.6,1.6,15.81,15.81,0,0,1,1.3,1.8c0.3,0.5.5,0.9,0.5,0.9l0.1,0.1a1.66,1.66,0,1,1-3,1.4C572,265.8,572,265.6,572,265.4Z" transform="translate(-257.9 -20.32)"/><path d="M568.7,263.6a2.4,2.4,0,0,0-.2-0.8,9.41,9.41,0,0,0-.6-1.8,11.41,11.41,0,0,0-.9-1.6c-0.3-.4-0.5-0.7-0.5-0.7a0.71,0.71,0,0,1,.1-1.1,0.76,0.76,0,0,1,.9-0.1h0a3.45,3.45,0,0,1,.8.6,12.07,12.07,0,0,1,1.6,1.6,15.81,15.81,0,0,1,1.3,1.8c0.3,0.5.5,0.9,0.5,0.9l0.1,0.1a1.66,1.66,0,0,1-3,1.4A0.44,0.44,0,0,1,568.7,263.6Z" transform="translate(-257.9 -20.32)"/><path d="M566,263.6a2.4,2.4,0,0,0-.2-0.8,9.41,9.41,0,0,0-.6-1.8,11.41,11.41,0,0,0-.9-1.6c-0.3-.4-0.5-0.7-0.5-0.7a0.71,0.71,0,0,1,.1-1.1,0.76,0.76,0,0,1,.9-0.1h0a3.45,3.45,0,0,1,.8.6,12.07,12.07,0,0,1,1.6,1.6,15.81,15.81,0,0,1,1.3,1.8c0.3,0.5.5,0.9,0.5,0.9l0.1,0.1a1.66,1.66,0,1,1-3,1.4C566,263.9,566,263.8,566,263.6Z" transform="translate(-257.9 -20.32)"/><path d="M563,263a2.4,2.4,0,0,0-.2-0.8,9.41,9.41,0,0,0-.6-1.8,11.41,11.41,0,0,0-.9-1.6c-0.3-.4-0.5-0.7-0.5-0.7a0.71,0.71,0,0,1,.1-1.1,0.76,0.76,0,0,1,.9-0.1h0a3.45,3.45,0,0,1,.8.6,12.07,12.07,0,0,1,1.6,1.6,15.81,15.81,0,0,1,1.3,1.8c0.3,0.5.5,0.9,0.5,0.9l0.1,0.1a1.66,1.66,0,1,1-3,1.4C563,263.4,563,263.2,563,263Z" transform="translate(-257.9 -20.32)"/><path d="M561.9,262.9a2.77,2.77,0,0,0-.4-0.7c-0.3-.4-0.6-1-1-1.5a8,8,0,0,0-1.3-1.3,6.11,6.11,0,0,1-.6-0.5,0.71,0.71,0,0,1-.2-1.1,0.76,0.76,0,0,1,.9-0.3h0a5.45,5.45,0,0,1,1,.4,6.22,6.22,0,0,1,1.9,1.1,14.12,14.12,0,0,1,1.7,1.4l0.7,0.7,0.1,0.1a1.7,1.7,0,1,1-2.5,2.3A3.34,3.34,0,0,0,561.9,262.9Z" transform="translate(-257.9 -20.32)"/><path d="M559.8,261.1a6.12,6.12,0,0,0-.6-0.5c-0.4-.3-0.9-0.7-1.5-1.1a14.56,14.56,0,0,0-1.6-.9c-0.5-.2-0.8-0.3-0.8-0.3a0.78,0.78,0,0,1-.6-0.9,0.86,0.86,0,0,1,.7-0.6h1c0.6,0.1,1.4.2,2.2,0.4s1.5,0.5,2.1.7a4.43,4.43,0,0,1,.9.5l0.1,0.1a1.68,1.68,0,0,1-1.7,2.9C560.1,261.4,559.9,261.2,559.8,261.1Z" transform="translate(-257.9 -20.32)"/><path d="M557.2,260.9a6.12,6.12,0,0,0-.6-0.5,11.42,11.42,0,0,0-1.6-.9c-0.6-.3-1.2-0.5-1.7-0.7a7.35,7.35,0,0,1-.8-0.2,0.88,0.88,0,0,1-.7-0.9,0.86,0.86,0,0,1,.6-0.7h0a4.54,4.54,0,0,1,1-.1,17.73,17.73,0,0,1,2.2.1,12,12,0,0,1,2.2.5c0.6,0.2,1,.3,1,0.3l0.1,0.1a1.68,1.68,0,1,1-1.3,3.1A0.33,0.33,0,0,1,557.2,260.9Z" transform="translate(-257.9 -20.32)"/><path d="M554.7,261.4a2.22,2.22,0,0,0-.7-0.4c-0.5-.2-1.1-0.5-1.7-0.7a14.9,14.9,0,0,0-1.8-.4,4.53,4.53,0,0,0-.8-0.1,0.79,0.79,0,0,1-.8-0.8,0.75,0.75,0,0,1,.5-0.7h0s0.4-.1,1-0.2a12.2,12.2,0,0,1,4.4,0c0.6,0.1,1,.2,1,0.2h0.1a1.65,1.65,0,0,1-.8,3.2A0.6,0.6,0,0,1,554.7,261.4Z" transform="translate(-257.9 -20.32)"/><path d="M550.7,262a2.22,2.22,0,0,0-.7-0.4c-0.5-.2-1.1-0.5-1.7-0.7a14.9,14.9,0,0,0-1.8-.4,4.53,4.53,0,0,0-.8-0.1,0.79,0.79,0,0,1-.8-0.8,0.75,0.75,0,0,1,.5-0.7h0s0.4-.1,1-0.2a12.2,12.2,0,0,1,4.4,0c0.6,0.1,1,.2,1,0.2h0.1a1.65,1.65,0,0,1-.8,3.2A0.6,0.6,0,0,1,550.7,262Z" transform="translate(-257.9 -20.32)"/><path d="M548.4,262.9s-0.2-.1-0.7-0.3a7.76,7.76,0,0,0-1.8-.5,14.05,14.05,0,0,0-1.8-.2h-0.8a0.78,0.78,0,0,1-.9-0.7,0.81,0.81,0,0,1,.4-0.8h0a3.87,3.87,0,0,1,1-.3,12.4,12.4,0,0,1,2.2-.4,17.73,17.73,0,0,1,2.2-.1,4.54,4.54,0,0,1,1,.1h0.2a1.67,1.67,0,1,1-.5,3.3A0.48,0.48,0,0,1,548.4,262.9Z" transform="translate(-257.9 -20.32)"/><path d="M545.5,264.3s-0.2-.1-0.7-0.3a7.76,7.76,0,0,0-1.8-.5,14.05,14.05,0,0,0-1.8-.2h-0.8a0.78,0.78,0,0,1-.9-0.7,0.81,0.81,0,0,1,.4-0.8h0a3.87,3.87,0,0,1,1-.3,12.4,12.4,0,0,1,2.2-.4,17.73,17.73,0,0,1,2.2-.1,4.54,4.54,0,0,1,1,.1h0.2a1.67,1.67,0,1,1-.5,3.3C545.8,264.4,545.7,264.3,545.5,264.3Z" transform="translate(-257.9 -20.32)"/><path d="M542.6,265.7s-0.2-.1-0.7-0.3a7.76,7.76,0,0,0-1.8-.5,14.05,14.05,0,0,0-1.8-.2h-0.8a0.78,0.78,0,0,1-.9-0.7,0.81,0.81,0,0,1,.4-0.8h0a3.87,3.87,0,0,1,1-.3,12.4,12.4,0,0,1,2.2-.4,17.73,17.73,0,0,1,2.2-.1,4.54,4.54,0,0,1,1,.1h0.2a1.67,1.67,0,1,1-.5,3.3C542.9,265.8,542.8,265.7,542.6,265.7Z" transform="translate(-257.9 -20.32)"/><path d="M539.7,266.7s-0.2-.1-0.7-0.3a7.76,7.76,0,0,0-1.8-.5,14.05,14.05,0,0,0-1.8-.2h-0.8a0.78,0.78,0,0,1-.9-0.7,0.81,0.81,0,0,1,.4-0.8h0a3.87,3.87,0,0,1,1-.3,12.4,12.4,0,0,1,2.2-.4,17.73,17.73,0,0,1,2.2-.1,4.54,4.54,0,0,1,1,.1h0.2a1.67,1.67,0,1,1-.5,3.3A4.33,4.33,0,0,0,539.7,266.7Z" transform="translate(-257.9 -20.32)"/><path d="M536.8,267.9s-0.2-.1-0.7-0.3a7.76,7.76,0,0,0-1.8-.5,14.05,14.05,0,0,0-1.8-.2h-0.8a0.78,0.78,0,0,1-.9-0.7,0.81,0.81,0,0,1,.4-0.8h0a3.87,3.87,0,0,1,1-.3,12.4,12.4,0,0,1,2.2-.4,17.73,17.73,0,0,1,2.2-.1,4.54,4.54,0,0,1,1,.1h0.2a1.67,1.67,0,1,1-.5,3.3A1.09,1.09,0,0,1,536.8,267.9Z" transform="translate(-257.9 -20.32)"/><path d="M533.4,268.2a1.58,1.58,0,0,1-.4-0.1,3.08,3.08,0,0,0-1-.1,3.83,3.83,0,0,0-1.4.1h0a0.35,0.35,0,0,1-.4-0.3,0.34,0.34,0,0,1,.2-0.4,9.07,9.07,0,0,1,1.6-.6c0.4-.1.8-0.1,1.1-0.2h0.6a0.8,0.8,0,1,1,0,1.6Q533.4,268.35,533.4,268.2Z" transform="translate(-257.9 -20.32)"/><path d="M531.8,269.3a1.58,1.58,0,0,1-.4-0.1,3.08,3.08,0,0,0-1-.1,3.83,3.83,0,0,0-1.4.1h0a0.35,0.35,0,0,1-.4-0.3,0.34,0.34,0,0,1,.2-0.4,9.07,9.07,0,0,1,1.6-.6c0.4-.1.8-0.1,1.1-0.2h0.6a0.8,0.8,0,0,1,0,1.6A0.32,0.32,0,0,1,531.8,269.3Z" transform="translate(-257.9 -20.32)"/><path d="M530.3,270.6a1.58,1.58,0,0,1-.4-0.1,3.08,3.08,0,0,0-1-.1,3.83,3.83,0,0,0-1.4.1h0a0.35,0.35,0,0,1-.4-0.3,0.34,0.34,0,0,1,.2-0.4,9.07,9.07,0,0,1,1.6-.6c0.4-.1.8-0.1,1.1-0.2h0.6a0.8,0.8,0,1,1,0,1.6h-0.3Z" transform="translate(-257.9 -20.32)"/><path d="M529.4,271.9a1.58,1.58,0,0,1-.4-0.1,3.08,3.08,0,0,0-1-.1,3.83,3.83,0,0,0-1.4.1h0a0.35,0.35,0,0,1-.4-0.3,0.34,0.34,0,0,1,.2-0.4,9.07,9.07,0,0,1,1.6-.6c0.4-.1.8-0.1,1.1-0.2h0.6a0.8,0.8,0,0,1,0,1.6h-0.3Z" transform="translate(-257.9 -20.32)"/><path d="M529,271.6a1.58,1.58,0,0,1-.4-0.1,3.08,3.08,0,0,0-1-.1,3.83,3.83,0,0,0-1.4.1h0a0.35,0.35,0,0,1-.4-0.3,0.34,0.34,0,0,1,.2-0.4,9.07,9.07,0,0,1,1.6-.6c0.4-.1.8-0.1,1.1-0.2h0.6a0.8,0.8,0,1,1,0,1.6H529Z" transform="translate(-257.9 -20.32)"/><path d="M527.2,272.5a1.58,1.58,0,0,1-.4-0.1,3.08,3.08,0,0,0-1-.1,3.83,3.83,0,0,0-1.4.1h0a0.35,0.35,0,0,1-.4-0.3,0.34,0.34,0,0,1,.2-0.4,9.07,9.07,0,0,1,1.6-.6c0.4-.1.8-0.1,1.1-0.2h0.6a0.8,0.8,0,0,1,0,1.6A0.25,0.25,0,0,1,527.2,272.5Z" transform="translate(-257.9 -20.32)"/><path d="M526.3,273.8a1.58,1.58,0,0,1-.4-0.1,3.08,3.08,0,0,0-1-.1,3.83,3.83,0,0,0-1.4.1h0a0.35,0.35,0,0,1-.4-0.3,0.34,0.34,0,0,1,.2-0.4,9.07,9.07,0,0,1,1.6-.6c0.4-.1.8-0.1,1.1-0.2h0.6a0.8,0.8,0,0,1,0,1.6h-0.3Z" transform="translate(-257.9 -20.32)"/><path d="M524.5,274.8a1.58,1.58,0,0,1-.4-0.1,3.08,3.08,0,0,0-1-.1,3.83,3.83,0,0,0-1.4.1h0a0.35,0.35,0,0,1-.4-0.3,0.34,0.34,0,0,1,.2-0.4,9.07,9.07,0,0,1,1.6-.6c0.4-.1.8-0.1,1.1-0.2h0.6a0.8,0.8,0,1,1,0,1.6h-0.3Z" transform="translate(-257.9 -20.32)"/><path d="M524.1,275.8a1.58,1.58,0,0,1-.4-0.1,3.08,3.08,0,0,0-1-.1,3.83,3.83,0,0,0-1.4.1h0a0.35,0.35,0,0,1-.4-0.3,0.34,0.34,0,0,1,.2-0.4,9.07,9.07,0,0,1,1.6-.6c0.4-.1.8-0.1,1.1-0.2h0.6a0.8,0.8,0,1,1,0,1.6Q524.1,275.95,524.1,275.8Z" transform="translate(-257.9 -20.32)"/><path d="M522.5,276.7a1.58,1.58,0,0,1-.4-0.1,3.08,3.08,0,0,0-1-.1,3.83,3.83,0,0,0-1.4.1h0a0.35,0.35,0,0,1-.4-0.3,0.34,0.34,0,0,1,.2-0.4,9.07,9.07,0,0,1,1.6-.6c0.4-.1.8-0.1,1.1-0.2h0.6a0.8,0.8,0,1,1,0,1.6h-0.3Z" transform="translate(-257.9 -20.32)"/><path d="M651.3,277.8s0.9-.9,2.6-2.4,4-3.6,6.9-6a115.23,115.23,0,0,1,10.5-7.7,57.92,57.92,0,0,1,6.5-3.7,35.05,35.05,0,0,1,7.5-2.7,14.63,14.63,0,0,1,4.2-.3l1.1,0.1h0.3l0.2,0.1,0.5,0.1,1.8,0.4a65.69,65.69,0,0,1,7.1,2.3c2.2,0.9,4.3,1.8,6.2,2.8s3.7,2,5.3,3a73.68,73.68,0,0,1,7.5,5.3,19.19,19.19,0,0,1,1.9,1.7,5.17,5.17,0,0,0,.7.6,0.78,0.78,0,1,1-1.1,1.1h0s-0.9-.8-2.6-2.1a64.49,64.49,0,0,0-7.6-4.6c-1.6-.8-3.4-1.7-5.3-2.5s-4-1.6-6.1-2.3a54.82,54.82,0,0,0-6.7-1.7l-1.8-.3-0.5-.1h-1a11.15,11.15,0,0,0-3.1.5,26.34,26.34,0,0,0-6.2,2.8c-2,1.2-3.9,2.5-5.7,3.8a120.28,120.28,0,0,0-9.5,8c-2.7,2.5-4.8,4.7-6.3,6.2a29.24,29.24,0,0,0-2.2,2.4,3.47,3.47,0,0,1-5.2-4.6c-0.1-.1,0-0.2.1-0.2h0Z" transform="translate(-257.9 -20.32)"/><path d="M652.5,276.6a3.68,3.68,0,0,1,.4-0.9,18.18,18.18,0,0,1,1-1.9,8.36,8.36,0,0,1,1.3-1.7l0.7-.7a0.79,0.79,0,0,1,1.1.1,1,1,0,0,1,.1.9,7.23,7.23,0,0,0-.4.7,10.71,10.71,0,0,0-.6,1.7,6.15,6.15,0,0,0-.3,1.8,4.53,4.53,0,0,0-.1.8,1.7,1.7,0,1,1-3.4,0,0.75,0.75,0,0,1,.1-0.5Z" transform="translate(-257.9 -20.32)"/><path d="M655.9,273.2a3.68,3.68,0,0,1,.4-0.9,18.18,18.18,0,0,1,1-1.9,8.36,8.36,0,0,1,1.3-1.7l0.7-.7a0.79,0.79,0,0,1,1.1.1,1,1,0,0,1,.1.9,7.23,7.23,0,0,0-.4.7,10.71,10.71,0,0,0-.6,1.7,6.15,6.15,0,0,0-.3,1.8,4.53,4.53,0,0,0-.1.8,1.7,1.7,0,1,1-3.4,0,0.75,0.75,0,0,1,.1-0.5Z" transform="translate(-257.9 -20.32)"/><path d="M659,270.5a3.68,3.68,0,0,1,.4-0.9,18.18,18.18,0,0,1,1-1.9,8.36,8.36,0,0,1,1.3-1.7l0.7-.7a0.79,0.79,0,0,1,1.1.1,1,1,0,0,1,.1.9,7.23,7.23,0,0,0-.4.7,10.71,10.71,0,0,0-.6,1.7,6.15,6.15,0,0,0-.3,1.8,4.53,4.53,0,0,0-.1.8,1.7,1.7,0,1,1-3.4,0,0.75,0.75,0,0,1,.1-0.5Z" transform="translate(-257.9 -20.32)"/><path d="M661.6,269a3.68,3.68,0,0,1,.4-0.9,18.18,18.18,0,0,1,1-1.9,8.36,8.36,0,0,1,1.3-1.7l0.7-.7a0.79,0.79,0,0,1,1.1.1,1,1,0,0,1,.1.9,7.23,7.23,0,0,0-.4.7,10.71,10.71,0,0,0-.6,1.7,6.15,6.15,0,0,0-.3,1.8,4.53,4.53,0,0,0-.1.8,1.7,1.7,0,1,1-3.4,0,0.75,0.75,0,0,1,.1-0.5Z" transform="translate(-257.9 -20.32)"/><path d="M664.5,266.3a3.68,3.68,0,0,1,.4-0.9,18.18,18.18,0,0,1,1-1.9,8.36,8.36,0,0,1,1.3-1.7l0.7-.7a0.79,0.79,0,0,1,1.1.1,1,1,0,0,1,.1.9,7.23,7.23,0,0,0-.4.7,10.71,10.71,0,0,0-.6,1.7,6.15,6.15,0,0,0-.3,1.8,4.53,4.53,0,0,0-.1.8,1.7,1.7,0,0,1-3.4,0,0.75,0.75,0,0,1,.1-0.5Z" transform="translate(-257.9 -20.32)"/><path d="M667.1,264.9a3.68,3.68,0,0,1,.4-0.9,18.18,18.18,0,0,1,1-1.9,8.36,8.36,0,0,1,1.3-1.7l0.7-.7a0.79,0.79,0,0,1,1.1.1,1,1,0,0,1,.1.9,7.23,7.23,0,0,0-.4.7,10.71,10.71,0,0,0-.6,1.7,6.15,6.15,0,0,0-.3,1.8,4.53,4.53,0,0,0-.1.8,1.7,1.7,0,0,1-3.4,0,0.75,0.75,0,0,1,.1-0.5Z" transform="translate(-257.9 -20.32)"/><path d="M670.6,263.4a3.68,3.68,0,0,1,.4-0.9,18.18,18.18,0,0,1,1-1.9,8.36,8.36,0,0,1,1.3-1.7l0.7-.7a0.79,0.79,0,0,1,1.1.1,1,1,0,0,1,.1.9,7.23,7.23,0,0,0-.4.7,10.71,10.71,0,0,0-.6,1.7,6.15,6.15,0,0,0-.3,1.8,4.53,4.53,0,0,0-.1.8,1.7,1.7,0,0,1-3.4,0,0.75,0.75,0,0,1,.1-0.5Z" transform="translate(-257.9 -20.32)"/><path d="M672,262.1a3.68,3.68,0,0,1,.4-0.9,18.18,18.18,0,0,1,1-1.9,8.36,8.36,0,0,1,1.3-1.7l0.7-.7a0.79,0.79,0,0,1,1.1.1,1,1,0,0,1,.1.9,7.23,7.23,0,0,0-.4.7,10.71,10.71,0,0,0-.6,1.7,6.15,6.15,0,0,0-.3,1.8,4.53,4.53,0,0,0-.1.8,1.7,1.7,0,1,1-3.4,0,0.75,0.75,0,0,1,.1-0.5Z" transform="translate(-257.9 -20.32)"/><path d="M674.6,260a3.68,3.68,0,0,1,.4-0.9,18.18,18.18,0,0,1,1-1.9,8.36,8.36,0,0,1,1.3-1.7l0.7-.7a0.79,0.79,0,0,1,1.1.1,1,1,0,0,1,.1.9,7.23,7.23,0,0,0-.4.7,10.71,10.71,0,0,0-.6,1.7,6.15,6.15,0,0,0-.3,1.8,4.53,4.53,0,0,0-.1.8,1.7,1.7,0,0,1-3.4,0,0.75,0.75,0,0,1,.1-0.5Z" transform="translate(-257.9 -20.32)"/><path d="M677,259.8a3.68,3.68,0,0,1,.4-0.9,18.18,18.18,0,0,1,1-1.9,8.36,8.36,0,0,1,1.3-1.7l0.7-.7a0.79,0.79,0,0,1,1.1.1,1,1,0,0,1,.1.9,7.23,7.23,0,0,0-.4.7,10.71,10.71,0,0,0-.6,1.7,6.15,6.15,0,0,0-.3,1.8,4.53,4.53,0,0,0-.1.8,1.7,1.7,0,0,1-3.4,0,0.75,0.75,0,0,1,.1-0.5Z" transform="translate(-257.9 -20.32)"/><path d="M679.5,259a3.68,3.68,0,0,1,.4-0.9,18.18,18.18,0,0,1,1-1.9,8.36,8.36,0,0,1,1.3-1.7l0.7-.7a0.79,0.79,0,0,1,1.1.1,1,1,0,0,1,.1.9,7.23,7.23,0,0,0-.4.7,10.71,10.71,0,0,0-.6,1.7,6.15,6.15,0,0,0-.3,1.8,4.53,4.53,0,0,0-.1.8,1.7,1.7,0,1,1-3.4,0,0.75,0.75,0,0,1,.1-0.5Z" transform="translate(-257.9 -20.32)"/><path d="M680.7,258a3.45,3.45,0,0,1,.6-0.8c0.4-.4.9-1,1.4-1.5a9.14,9.14,0,0,1,1.6-1.3c0.5-.3.8-0.5,0.8-0.5a0.73,0.73,0,0,1,1,.4,0.76,0.76,0,0,1-.2.9,6.12,6.12,0,0,0-.5.6c-0.3.4-.6,0.9-0.9,1.4a11.11,11.11,0,0,0-.7,1.6,1.73,1.73,0,0,0-.2.7,1.57,1.57,0,0,1-2,1.2,1.61,1.61,0,0,1-1.2-2,0.76,0.76,0,0,1,.2-0.5Z" transform="translate(-257.9 -20.32)"/><path d="M683,255.2a2.58,2.58,0,0,1,.8-0.5,15,15,0,0,1,1.8-.9,10.08,10.08,0,0,1,1.9-.6,5.1,5.1,0,0,1,.9-0.1,0.77,0.77,0,0,1,.8.7,1,1,0,0,1-.5.8,2.83,2.83,0,0,0-.6.3,9.13,9.13,0,0,0-1.3,1,12,12,0,0,0-1.1,1.2,4.58,4.58,0,0,0-.4.6,1.68,1.68,0,1,1-2.9-1.7c0.1-.2.3-0.3,0.4-0.5Z" transform="translate(-257.9 -20.32)"/><path d="M685.5,254.6s0.4-.2.9-0.4a19.68,19.68,0,0,1,1.9-.7,7.47,7.47,0,0,1,2-.3h0.9a0.81,0.81,0,0,1,.7.9,0.86,0.86,0,0,1-.6.7s-0.3.1-.7,0.2a7,7,0,0,0-1.4.8,6.34,6.34,0,0,0-1.2,1l-0.5.5a1.71,1.71,0,0,1-2.7-2.1,1,1,0,0,1,.5-0.4Z" transform="translate(-257.9 -20.32)"/><path d="M688.1,254.6a4,4,0,0,1,.9-0.3c0.5-.1,1.2-0.3,2-0.4a6.67,6.67,0,0,1,2,0c0.5,0.1.9,0.2,0.9,0.2a0.72,0.72,0,0,1,.5,1,1.06,1.06,0,0,1-.7.6,3.2,3.2,0,0,0-.7.1c-0.4.1-.9,0.3-1.5,0.5a6.38,6.38,0,0,0-1.4.8,1.11,1.11,0,0,0-.5.4,1.7,1.7,0,0,1-2.3-2.5,0.68,0.68,0,0,1,.5-0.3Z" transform="translate(-257.9 -20.32)"/><path d="M691.6,254.9a4,4,0,0,1,.9-0.3c0.5-.1,1.2-0.3,2-0.4a6.67,6.67,0,0,1,2,0c0.5,0.1.9,0.2,0.9,0.2a0.72,0.72,0,0,1,.5,1,1.06,1.06,0,0,1-.7.6,3.2,3.2,0,0,0-.7.1c-0.4.1-.9,0.3-1.5,0.5a6.38,6.38,0,0,0-1.4.8,1.11,1.11,0,0,0-.5.4,1.7,1.7,0,0,1-2.3-2.5,0.68,0.68,0,0,1,.5-0.3Z" transform="translate(-257.9 -20.32)"/><path d="M694,255.5a0.77,0.77,0,0,0,.3-0.1c0.2,0,.4-0.1.7-0.1a12.12,12.12,0,0,1,2-.1,12.31,12.31,0,0,1,2,.2,4,4,0,0,1,.9.3h0a0.73,0.73,0,0,1,.4,1,0.79,0.79,0,0,1-.8.5h-0.7a9.93,9.93,0,0,0-1.5.3,9.75,9.75,0,0,0-1.4.6l-0.6.3a1.71,1.71,0,1,1-2.1-2.7l0.6-.3Z" transform="translate(-257.9 -20.32)"/><path d="M696.6,256.6a0.77,0.77,0,0,0,.3-0.1c0.2,0,.4-0.1.7-0.1a12.12,12.12,0,0,1,2-.1,12.31,12.31,0,0,1,2,.2,4,4,0,0,1,.9.3h0a0.73,0.73,0,0,1,.4,1,0.79,0.79,0,0,1-.8.5h-0.7a9.93,9.93,0,0,0-1.5.3,9.75,9.75,0,0,0-1.4.6l-0.6.3a1.71,1.71,0,1,1-2.1-2.7l0.6-.3Z" transform="translate(-257.9 -20.32)"/><path d="M699.2,257.8a0.77,0.77,0,0,0,.3-0.1c0.2,0,.4-0.1.7-0.1a12.12,12.12,0,0,1,2-.1,12.31,12.31,0,0,1,2,.2,4,4,0,0,1,.9.3h0a0.73,0.73,0,0,1,.4,1,0.79,0.79,0,0,1-.8.5H704a9.93,9.93,0,0,0-1.5.3,9.75,9.75,0,0,0-1.4.6l-0.6.3a1.71,1.71,0,1,1-2.1-2.7l0.6-.3Z" transform="translate(-257.9 -20.32)"/><path d="M701.8,258.6a0.77,0.77,0,0,0,.3-0.1c0.2,0,.4-0.1.7-0.1a12.12,12.12,0,0,1,2-.1,12.31,12.31,0,0,1,2,.2,4,4,0,0,1,.9.3h0a0.73,0.73,0,0,1,.4,1,0.79,0.79,0,0,1-.8.5h-0.7a9.93,9.93,0,0,0-1.5.3,9.75,9.75,0,0,0-1.4.6l-0.6.3a1.71,1.71,0,1,1-2.1-2.7l0.6-.3Z" transform="translate(-257.9 -20.32)"/><path d="M704.4,259.6a0.77,0.77,0,0,0,.3-0.1c0.2,0,.4-0.1.7-0.1a12.12,12.12,0,0,1,2-.1,12.31,12.31,0,0,1,2,.2,4,4,0,0,1,.9.3h0a0.73,0.73,0,0,1,.4,1,0.79,0.79,0,0,1-.8.5h-0.7a9.93,9.93,0,0,0-1.5.3,9.75,9.75,0,0,0-1.4.6l-0.6.3a1.71,1.71,0,1,1-2.1-2.7l0.6-.3Z" transform="translate(-257.9 -20.32)"/><path d="M708.2,261.3h0.5a3.4,3.4,0,0,1,1,.1,4.79,4.79,0,0,1,1.4.4,0.48,0.48,0,0,1,.2.5,0.52,0.52,0,0,1-.4.2h0a4.15,4.15,0,0,0-1.2,0,1.88,1.88,0,0,0-.8.2,0.77,0.77,0,0,1-.3.1,0.81,0.81,0,0,1-.8-1.4,0.6,0.6,0,0,1,.4-0.1h0Z" transform="translate(-257.9 -20.32)"/><path d="M709.6,262.2h0.5a3.4,3.4,0,0,1,1,.1,4.79,4.79,0,0,1,1.4.4,0.48,0.48,0,0,1,.2.5,0.52,0.52,0,0,1-.4.2h0a4.15,4.15,0,0,0-1.2,0,1.88,1.88,0,0,0-.8.2,0.77,0.77,0,0,1-.3.1,0.81,0.81,0,0,1-.8-1.4,0.48,0.48,0,0,0,.4-0.1h0Z" transform="translate(-257.9 -20.32)"/><path d="M711.1,263.4h0.5a3.4,3.4,0,0,1,1,.1,4.79,4.79,0,0,1,1.4.4,0.48,0.48,0,0,1,.2.5,0.52,0.52,0,0,1-.4.2h0a4.15,4.15,0,0,0-1.2,0,1.88,1.88,0,0,0-.8.2,0.77,0.77,0,0,1-.3.1,0.81,0.81,0,0,1-.8-1.4,0.48,0.48,0,0,1,.4-0.1h0Z" transform="translate(-257.9 -20.32)"/><path d="M711.9,264.6h0.5a3.4,3.4,0,0,1,1,.1,4.79,4.79,0,0,1,1.4.4,0.48,0.48,0,0,1,.2.5,0.52,0.52,0,0,1-.4.2h0a4.15,4.15,0,0,0-1.2,0,1.88,1.88,0,0,0-.8.2,0.77,0.77,0,0,1-.3.1,0.81,0.81,0,0,1-.8-1.4,0.48,0.48,0,0,0,.4-0.1h0Z" transform="translate(-257.9 -20.32)"/><path d="M712.2,264.3h0.5a3.4,3.4,0,0,1,1,.1,4.79,4.79,0,0,1,1.4.4,0.48,0.48,0,0,1,.2.5,0.52,0.52,0,0,1-.4.2h0a4.15,4.15,0,0,0-1.2,0,1.88,1.88,0,0,0-.8.2,0.77,0.77,0,0,1-.3.1,0.81,0.81,0,0,1-.8-1.4,0.76,0.76,0,0,1,.4-0.1h0Z" transform="translate(-257.9 -20.32)"/><path d="M714,265.1h0.5a3.4,3.4,0,0,1,1,.1,4.79,4.79,0,0,1,1.4.4,0.48,0.48,0,0,1,.2.5,0.52,0.52,0,0,1-.4.2h0a4.15,4.15,0,0,0-1.2,0,1.88,1.88,0,0,0-.8.2,0.77,0.77,0,0,1-.3.1,0.81,0.81,0,0,1-.8-1.4,0.48,0.48,0,0,1,.4-0.1h0Z" transform="translate(-257.9 -20.32)"/><path d="M714.8,266.3h0.5a3.4,3.4,0,0,1,1,.1,4.79,4.79,0,0,1,1.4.4,0.48,0.48,0,0,1,.2.5,0.52,0.52,0,0,1-.4.2h0a4.15,4.15,0,0,0-1.2,0,1.88,1.88,0,0,0-.8.2,0.77,0.77,0,0,1-.3.1,0.81,0.81,0,0,1-.8-1.4,0.76,0.76,0,0,1,.4-0.1h0Z" transform="translate(-257.9 -20.32)"/><path d="M716.4,267.2h0.5a3.4,3.4,0,0,1,1,.1,4.79,4.79,0,0,1,1.4.4,0.48,0.48,0,0,1,.2.5,0.52,0.52,0,0,1-.4.2h0a4.15,4.15,0,0,0-1.2,0,1.88,1.88,0,0,0-.8.2,0.77,0.77,0,0,1-.3.1,0.81,0.81,0,0,1-.8-1.4,0.76,0.76,0,0,1,.4-0.1h0Z" transform="translate(-257.9 -20.32)"/><path d="M716.9,268.2h0.5a3.4,3.4,0,0,1,1,.1,4.79,4.79,0,0,1,1.4.4,0.48,0.48,0,0,1,.2.5,0.52,0.52,0,0,1-.4.2h0a4.15,4.15,0,0,0-1.2,0,1.88,1.88,0,0,0-.8.2,0.77,0.77,0,0,1-.3.1,0.81,0.81,0,0,1-.8-1.4,0.48,0.48,0,0,1,.4-0.1h0Z" transform="translate(-257.9 -20.32)"/><path d="M718.3,268.9h0.5a3.4,3.4,0,0,1,1,.1,4.79,4.79,0,0,1,1.4.4,0.48,0.48,0,0,1,.2.5,0.52,0.52,0,0,1-.4.2h0a4.15,4.15,0,0,0-1.2,0,1.88,1.88,0,0,0-.8.2,0.77,0.77,0,0,1-.3.1,0.81,0.81,0,0,1-.8-1.4,0.48,0.48,0,0,1,.4-0.1h0Z" transform="translate(-257.9 -20.32)"/></svg>