<svg id="Layer_1" data-name="Layer 1" xmlns="http://www.w3.org/2000/svg" xmlns:xlink="http://www.w3.org/1999/xlink" viewBox="0 0 190.08 92.49"><defs><style>.cls-1{fill:none;}.cls-2{clip-path:url(#clip-path);}.cls-3{fill:#fff;}</style><clipPath id="clip-path" transform="translate(-203 -375.4)"><rect class="cls-1" x="203" y="375.4" width="190.08" height="92.49"/></clipPath></defs><title>logo</title><g class="cls-2"><path class="cls-3" d="M285.84,409.5a1.84,1.84,0,0,0-.32,2.49c0.4-.8.88-1.54,0.32-2.49m56.61,31.8-0.2-.1a14.49,14.49,0,0,0-2.68,4.64,0.35,0.35,0,1,0,.62.26c0.77-1.59,1.51-3.2,2.26-4.81m-78.62-13.79a10.32,10.32,0,0,0,2.85-1.8c2.31-1.53,3.23-3.94,4.27-6.3a1,1,0,0,0,0-.27c0.13-.9.25-1.81,0.38-2.71,0.06-.41-0.09-0.69-0.51-0.54a4.74,4.74,0,0,0-1.93.92,22.69,22.69,0,0,0-2.74,3.77,26,26,0,0,0-1.78,4.16,19.89,19.89,0,0,0-.57,2.76m112.2-.13c0.32-.12.5-0.17,0.65-0.25a14.56,14.56,0,0,0,4.93-4.39,11.57,11.57,0,0,0,1.52-3.5,19.29,19.29,0,0,0,.45-3c0.05-.36-0.14-0.58-0.47-0.45a4.91,4.91,0,0,0-2,.94,28.36,28.36,0,0,0-2.93,4.14,20.82,20.82,0,0,0-1.57,3.73,23.24,23.24,0,0,0-.6,2.83m-137.6-.75a39.59,39.59,0,0,1,5.3-8.57,19.93,19.93,0,0,1,3.29-3.3c1.24-1,3.68-.62,4.89.4a6.75,6.75,0,0,1,2.62,5.24c0,1,0,2.1,0,3.15,0,1.28,0,2.57,0,3.84-0.12,1.58-.38,3.14-0.55,4.71a5.31,5.31,0,0,0,.09,1.51c1-1.92,2.6-3.46,3-5.66,0.19-1.13.21-2.29,0.46-3.41a24.14,24.14,0,0,1,2.77-6.41,10.76,10.76,0,0,0,.56-1,11.14,11.14,0,0,1,3.67-4.3,5.52,5.52,0,0,1,3.63-1,12.13,12.13,0,0,1,6,1.66,4.73,4.73,0,0,1,1.36,1,3.08,3.08,0,0,1,.41,1.34c0.07,0.38,0,.78.06,1.16a5.38,5.38,0,0,1-.48,3.15,21.42,21.42,0,0,1-9.33,9.81,7.38,7.38,0,0,1-1.73.63,0.68,0.68,0,0,0-.63.81,17.18,17.18,0,0,0,.35,3.88c0.53,1.68,1.42,3.38,3.49,3.52a6.41,6.41,0,0,0,3.26-.61c2-1.05,4-2.21,5.26-4.2a36,36,0,0,0,2.63-4.91c1.66-3.87,3.18-7.8,4.77-11.7a1.21,1.21,0,0,0-.06-1.15,7.47,7.47,0,0,1-.11-7.3,2.77,2.77,0,0,1,2.53-1.62,5.82,5.82,0,0,0,.83,0c1.2-.24,1.74.71,2.44,1.35a0.59,0.59,0,0,1,.1.45,10.33,10.33,0,0,1-1,4.11,21.49,21.49,0,0,0-1.09,2.54,14.8,14.8,0,0,1,1.65.55c1.29,0.6,2.53,1.29,3.83,1.88a3.33,3.33,0,0,1,1.68,4.11c-0.21.86-.21,1.77-0.34,2.65-0.41,2.79-1.7,5.31-2.48,8a44.09,44.09,0,0,0-.87,4.51,6.75,6.75,0,0,0-.18,1.36,1.56,1.56,0,0,0,.31,1.09,1.34,1.34,0,0,0,1.19.12,7.73,7.73,0,0,0,1.72-1.44,7.19,7.19,0,0,0,1.08-1.59c1.34-2.58,2.67-5.17,4-7.78a6.63,6.63,0,0,0,.33-1.54,32.12,32.12,0,0,1,7.16-14.3,7.57,7.57,0,0,1,5-3,6,6,0,0,1,2.06.3c1.48,0.4,2.8,1.06,3.35,2.66a1.3,1.3,0,0,1,0,.2,0.52,0.52,0,0,1,0,.12,4.19,4.19,0,0,0-3.29,1.21c-0.91,1.11-2.31,1.84-2.61,3.45a5.85,5.85,0,0,1-.93,1.34c-0.53.93-1,1.9-1.5,2.85s-1.1,2.09-1.63,3.14a7.3,7.3,0,0,0-.41,1.09c-0.4,1.27-.8,2.53-1.17,3.81-0.11.39-.12,0.81-0.21,1.22a2.6,2.6,0,0,1-.29.83,5.48,5.48,0,0,0-.36,4.46,1.4,1.4,0,0,0,1.74.57,6.1,6.1,0,0,0,2-1.53,40.56,40.56,0,0,0,2.3-4.06c0.67-1.25,1.3-2.53,1.94-3.8a2.54,2.54,0,0,0,.24-0.57c0.3-1.28.56-2.57,0.87-3.85,0.13-.55.37-1.08,0.5-1.64,0.23-1,.47-1.95.62-2.93,0.18-1.18.26-2.37,0.41-3.56a0.76,0.76,0,0,1,.3-0.48,3,3,0,0,1,3.25-.14,14.42,14.42,0,0,1,1.55.77,1.88,1.88,0,0,1,.39.88c0,0.1,0,.24,0,0.34,0.88,1.92.33,3.84-.07,5.73a36.67,36.67,0,0,0-.9,7.43c0,2.11-.16,4.22-0.25,6.33a1,1,0,0,0,.14.59,6.16,6.16,0,0,0,.49-0.67q2.36-4.31,4.71-8.63a2.74,2.74,0,0,0,.14-0.31c1.28-3.19,2.6-6.36,3.82-9.57,0.58-1.51,1-3.1,1.44-4.66a6.15,6.15,0,0,1,1.83-2.94,0.89,0.89,0,0,1,.55-0.21,7.13,7.13,0,0,1,3.9,1.15,1.91,1.91,0,0,1,.91,2.49c-0.27,1.09-.39,2.21-0.55,3.32q-0.39,2.68-.74,5.37c-0.1.75-.16,1.51-0.22,2.26-0.15,2.15-.29,4.3-0.44,6.51,0.2-.67.38-1.3,0.58-1.93,1.26-4,2.53-7.94,5.12-11.26a7.86,7.86,0,0,1,5.6-3.4,3.06,3.06,0,0,1,2.6.81,12.72,12.72,0,0,0,1.27,1.05,4.25,4.25,0,0,1,1.74,2.74,15.13,15.13,0,0,1,.43,4c-0.17,1.91-.54,3.81-0.83,5.71,0,0.23-.11.45-0.12,0.68a5.43,5.43,0,0,1-.35,2.68,0.94,0.94,0,0,0,.08.75c0.32-.44.68-0.87,1-1.34a31.09,31.09,0,0,0,4.09-9c0.32-1.42.84-2.81,1.23-4.22a3.71,3.71,0,0,0,.07-1.16,5.6,5.6,0,0,1,.56-2.66,8.77,8.77,0,0,0,.3-1.12,3.32,3.32,0,0,1,3.33-1.8,3.92,3.92,0,0,1,2.24,1.32,3.24,3.24,0,0,1,.71,1.71,21.56,21.56,0,0,1-.91,6,24.63,24.63,0,0,0-.3,4c0,0.53,0,1.06,0,1.59q0,4,0,8c0,0.82-.05,1.65,0,2.46a6.87,6.87,0,0,0,.47,1.43,3.59,3.59,0,0,0,.42-0.52c1.54-3.2,3.13-6.38,4.59-9.61a9.46,9.46,0,0,0,.35-2.5,19.12,19.12,0,0,1,2.16-6.12c0.58-1.12,1.11-2.28,1.8-3.33,1.47-2.24,3.11-4.37,6.07-4.58a10.84,10.84,0,0,1,6,1.18,18.93,18.93,0,0,1,2.14,1.36,1.41,1.41,0,0,1,.55,1.57,3.55,3.55,0,0,0,.05,1.16,5.32,5.32,0,0,1-.45,3,21.3,21.3,0,0,1-9.38,9.93,9.36,9.36,0,0,1-1.8.65,0.59,0.59,0,0,0-.54.66c0.07,0.86.13,1.73,0.2,2.6a1.18,1.18,0,0,1,.06.27c-0.23,1.15.48,2,.94,2.93a3.5,3.5,0,0,0,3.66,1.74,12,12,0,0,0,8-5.7c0.9-1.62,1.69-3.31,2.52-5a2.53,2.53,0,0,1,.39-0.72,3.88,3.88,0,0,1,.83-0.47,2.55,2.55,0,0,1,.43.93,4.46,4.46,0,0,1-.31,1.47,39.16,39.16,0,0,1-4.25,7.6,10.61,10.61,0,0,1-6.08,4.43,23.6,23.6,0,0,1-2.73,1.08,9,9,0,0,1-9-4.56,16.73,16.73,0,0,1-1.43-5.11L366,439.13c-0.16.31-.37,0.58-0.51,0.9a3,3,0,0,1-2.68,1.62,1.35,1.35,0,0,1-.73-0.14,5,5,0,0,1-3-3.17,23.7,23.7,0,0,1-.67-3.5c-0.28-2.92-.47-5.86-0.71-8.87a4.39,4.39,0,0,0-.49,1,13.54,13.54,0,0,1-2.45,4.65c-0.85,1.28-1.81,2.48-2.72,3.71a2,2,0,0,1-.46.51,4.45,4.45,0,0,0-1.87,3.26c-0.37,2.25-1.61,4.17-2.46,6.24a14.08,14.08,0,0,1-3.46,5.3c-1.74,1.57-2.59,1.45-4.54.6a7.15,7.15,0,0,1-1.82-1.4,1.19,1.19,0,0,1-.24-0.83,9.94,9.94,0,0,1,1.48-5.22,28.89,28.89,0,0,1,4.63-5.62,1.52,1.52,0,0,0,.36-0.64,55.94,55.94,0,0,0,2.73-13.86c0.09-1.44.13-2.89,0.14-4.34a5,5,0,0,0-.29-1.18l-0.27-.07a30.56,30.56,0,0,0-1.9,2.39,50.4,50.4,0,0,0-7.38,16.69,58.11,58.11,0,0,0-1.24,15.19c0.17,3.68.32,7.35,0.43,11a20.15,20.15,0,0,1-.25,3.15,1.21,1.21,0,0,1-.58.61,7.74,7.74,0,0,1-1.11.57,2.54,2.54,0,0,1-2.41-.24c-0.31-.18-0.69-0.22-1-0.37-1.1-.5-2-1.17-1.9-2.56,0.08-1.88.12-3.76,0.16-5.63,0-1.1,0-2.21,0-3.31,0-1.43-.16-2.85-0.1-4.27,0.11-2.74.32-5.48,0.48-8.22,0.14-2.32.25-4.64,0.4-7,0.14-2.13.31-4.26,0.47-6.39a5.12,5.12,0,0,0,0-.55,66.06,66.06,0,0,1,.69-8.2,12.36,12.36,0,0,0-.09-2.6c-0.51,1.31-1,2.65-1.55,3.94-1.2,2.67-2.46,5.32-3.68,8-0.57,1.25-1.07,2.54-1.72,3.74a22.68,22.68,0,0,0-1.46,3,23.52,23.52,0,0,1-3.06,5.1,2.68,2.68,0,0,0-.44.84,3.41,3.41,0,0,1-1.89,2.24,1.45,1.45,0,0,1-1.84-.41,4.55,4.55,0,0,0-1.34-1.14c-1-.48-1.27-1.19-1.16-2.44,0.16-1.74.25-3.48,0.36-5.22,0-.21,0-0.43,0-0.84l-1.67,2.35a1.33,1.33,0,0,1-.15.31c-1.45,1.06-2.37,2.75-4.19,3.38a5,5,0,0,1-6.09-2.16,14.07,14.07,0,0,1-1.19-2.54c-0.32-.87-0.51-1.78-0.75-2.67-1,1.82-2.12,3.66-3.14,5.52a12.46,12.46,0,0,1-3.08,3.67c-1.9,1.55-4,1.52-6.25.8a3.54,3.54,0,0,1-2.08-2c-0.19-.37-0.61-0.62-0.84-1a2.39,2.39,0,0,1-.52-1.2,18.87,18.87,0,0,1,.4-4.22c1-3.53,2.13-7,3.21-10.51q0.69-2.23,1.35-4.47c0.27-.91.21-1-0.61-1.44l-1.79-.89c-0.61,1.52-1.18,3-1.78,4.44-1,2.47-1.94,5-3.14,7.4a50.85,50.85,0,0,1-5.25,8.39,9.26,9.26,0,0,1-3.87,2.63c-0.94.41-1.87,0.86-2.83,1.23a5.27,5.27,0,0,1-4,.1,20.64,20.64,0,0,1-3.06-1.14,9.34,9.34,0,0,1-2.35-2.26,11.45,11.45,0,0,1-2.09-6,0.41,0.41,0,0,0-.2-0.31,50.32,50.32,0,0,0-2.52,4.92c-1,2.53-1.73,5.16-2.56,7.76-0.21.65-.31,1.34-0.54,2-0.37,1-.85,2-2,2.23a2.84,2.84,0,0,1-1.73-.37,20.55,20.55,0,0,1-2.07-1.65,1.84,1.84,0,0,0-.61-0.26,1.34,1.34,0,0,1-1-1.51c0-3,1.39-5.57,2.22-8.3a30.94,30.94,0,0,0,.88-5.76c0.32-2.9.71-5.79,1-8.68,0.13-1.12.15-2.26,0.23-3.39l-0.31-.12a24,24,0,0,0-1.92,1.81,36.86,36.86,0,0,0-5.12,7,18.27,18.27,0,0,0-2.18,8.09c0,2.32,0,4.65-.16,7a4.81,4.81,0,0,1-.76,2.09,2.31,2.31,0,0,1-1.17.44c-1.27.4-4-.4-4.49-2a3,3,0,0,1-.15-0.8,46.26,46.26,0,0,1,.32-7.08c0.2-1.47.08-3,.22-4.47,0.37-3.77.71-7.54,1.24-11.29a49,49,0,0,1,1.15-5.51c0.08-.46.38-0.88,0.5-1.33,0.44-1.75.85-3.51,1.27-5.27a1,1,0,0,1,.16-0.45c0.9-.9.65-2.14,1-3.21a5.12,5.12,0,0,1,.24-0.78c0.44-1,.94-1.89,1.34-2.86a1.76,1.76,0,0,1,1.76-1.17,14.83,14.83,0,0,1,2.25.24,0.94,0.94,0,0,1,.86,1.13,21.42,21.42,0,0,1-.61,2.86c-0.59,2-1.27,4-1.86,6-0.41,1.42-.75,2.86-1.08,4.31-0.48,2.14-1,3.15-1.48,5.67a33.91,33.91,0,0,0-.6,6.78" transform="translate(-203 -375.4)"/><path class="cls-3" d="M216.72,411.58c-1.44.37-2,.29-3.14,1.35a6.18,6.18,0,0,1-4.44,1.57,41.85,41.85,0,0,0-4.17.31,1.6,1.6,0,0,1-2-1.66,37.83,37.83,0,0,1,.3-4.25,1.23,1.23,0,0,1,.83-0.66,19.88,19.88,0,0,1,2.5-.43,17.76,17.76,0,0,0,5.07-1.46,12.16,12.16,0,0,1,4.87-1,39,39,0,0,0,8.91-.7,13.86,13.86,0,0,0,4.84-2,6,6,0,0,1,4.77-.67,1.54,1.54,0,0,1,.64,2,0.77,0.77,0,0,0-.2.39,3.34,3.34,0,0,1-1.71,2.67,18.35,18.35,0,0,1-5.71,2.32c-1.81.49-3.65,0.87-5.48,1.29-1,.23-0.92.22-1.06,1.26-0.28,2-.2,4-0.54,7-0.14,1.2,0,2.43,0,3.64-0.06,1-.28,2-0.4,3s-0.26,2.1-.3,3.15c-0.07,1.75-.13,3.5-0.09,5.24a60.67,60.67,0,0,1-.9,10c-0.12.84-.19,1.69-0.37,2.52a4.7,4.7,0,0,1-.57,1.1,1.45,1.45,0,0,0-.23.47,4.08,4.08,0,0,1-1,2.37,0.69,0.69,0,0,0-.22.42,1,1,0,0,1-1.1,1.11,6.1,6.1,0,0,1-2.24.12,2.6,2.6,0,0,1-1.45-1,7.79,7.79,0,0,1-1-5.23c0.18-2.34.34-4.67,0.51-7,0-.34.08-0.68,0.13-1,0.15-1.08.29-2.17,0.47-3.25,0.13-.81.34-1.61,0.48-2.42,0.41-2.33.76-4.66,1.22-7q1.09-5.57,2.28-11.11c0.55-2.57.28-1.13,0.49-2.28" transform="translate(-203 -375.4)"/><path class="cls-3" d="M363.48,403.49a9.86,9.86,0,0,1,1.59.54,3,3,0,0,1,.65,4.43,0.82,0.82,0,0,1-1.25.21,0.66,0.66,0,0,0-.38-0.14c-1.36,0-2.15-1-3.05-1.77a1.92,1.92,0,0,1-.75-0.78,3.43,3.43,0,0,1,.74-1.43,3.48,3.48,0,0,1,2.45-1.06" transform="translate(-203 -375.4)"/><path class="cls-3" d="M253.29,389.4v-5.14c0-.76,0-2.54,0-3.08-0.2.52-.62,1.52-1,2.32l-2.84,6.22-2.84-6.22c-0.36-.8-0.78-1.8-1-2.32,0,0.54,0,2.32,0,3.08v5.14H243v-14h2.7l2.92,6.34c0.36,0.78.78,1.84,1,2.34,0.18-.52.58-1.54,0.94-2.34l2.82-6.34h2.76v14h-2.8Z" transform="translate(-203 -375.4)"/><path class="cls-3" d="M271.64,381.08c-0.28-.82-0.56-1.66-0.7-2.18-0.14.52-.42,1.36-0.7,2.18l-0.9,2.54h3.2Zm3,8.32-1.1-3.12h-5.12l-1.1,3.12h-3l5.36-14h2.72l5.32,14h-3.08Z" transform="translate(-203 -375.4)"/><path class="cls-3" d="M292.35,378.12h-3.66v3.6h3.66a1.7,1.7,0,0,0,2-1.82c0-1.26-.76-1.78-2-1.78M294,389.4l-2.5-5h-2.82v5h-2.8v-14h6.52c2.64,0,4.82,1.46,4.82,4.44a4,4,0,0,1-2.68,4.12l2.68,5.44H294Z" transform="translate(-203 -375.4)"/><path class="cls-3" d="M314.61,389.4l-3.8-6.76-2.24,2.64v4.12h-2.8v-14h2.8v4c0,0.52,0,1.78,0,2.22,0.2-.32.72-1,1.1-1.42l3.92-4.78h3.38l-4.1,4.84L318,389.4h-3.36Z" transform="translate(-203 -375.4)"/></g><polygon class="cls-3" points="122.76 0 122.76 14 132.78 14 132.78 11.26 125.56 11.26 125.56 7.88 129.58 7.88 129.58 5.16 125.56 5.16 125.56 2.74 132.48 2.74 132.48 0 122.76 0"/><g class="cls-2"><path class="cls-3" d="M353.2,389.4l-5.14-7.64c-0.34-.52-0.8-1.22-1-1.58,0,0.52,0,2.28,0,3.06v6.16h-2.76v-14H347l5,7.4c0.34,0.52.8,1.22,1,1.58,0-.52,0-2.28,0-3.06V375.4h2.76v14h-2.5Z" transform="translate(-203 -375.4)"/></g><rect class="cls-3" x="0.1" y="6.65" width="30.25" height="1"/><rect class="cls-3" x="159.83" y="6.65" width="30.25" height="1"/></svg>